<?xml version="1.0" encoding="utf-8"?>
<svg version="1.1" xmlns:xlink="http://www.w3.org/1999/xlink" width="100px" height="45px" xmlns="http://www.w3.org/2000/svg">
  <g transform="matrix(1 0 0 1 -291 -777 )">
    <path d="M 291.5 779  A 1.5 1.5 0 0 1 293 777.5 L 389 777.5  A 1.5 1.5 0 0 1 390.5 779 L 390.5 820  A 1.5 1.5 0 0 1 389 821.5 L 293 821.5  A 1.5 1.5 0 0 1 291.5 820 L 291.5 779  Z " fill-rule="nonzero" fill="#3399ff" stroke="none" />
    <path d="M 291.5 779  A 1.5 1.5 0 0 1 293 777.5 L 389 777.5  A 1.5 1.5 0 0 1 390.5 779 L 390.5 820  A 1.5 1.5 0 0 1 389 821.5 L 293 821.5  A 1.5 1.5 0 0 1 291.5 820 L 291.5 779  Z " stroke-width="1" stroke="#3399ff" fill="none" />
  </g>
</svg>