<?xml version="1.0" encoding="utf-8"?>
<svg version="1.1" xmlns:xlink="http://www.w3.org/1999/xlink" width="98px" height="40px" xmlns="http://www.w3.org/2000/svg">
  <g transform="matrix(1 0 0 1 -291 -641 )">
    <path d="M 291.5 643  A 1.5 1.5 0 0 1 293 641.5 L 387 641.5  A 1.5 1.5 0 0 1 388.5 643 L 388.5 679  A 1.5 1.5 0 0 1 387 680.5 L 293 680.5  A 1.5 1.5 0 0 1 291.5 679 L 291.5 643  Z " fill-rule="nonzero" fill="#3399ff" stroke="none" />
    <path d="M 291.5 643  A 1.5 1.5 0 0 1 293 641.5 L 387 641.5  A 1.5 1.5 0 0 1 388.5 643 L 388.5 679  A 1.5 1.5 0 0 1 387 680.5 L 293 680.5  A 1.5 1.5 0 0 1 291.5 679 L 291.5 643  Z " stroke-width="1" stroke="#3399ff" fill="none" />
  </g>
</svg>