<?xml version="1.0" encoding="utf-8"?>
<svg version="1.1" xmlns:xlink="http://www.w3.org/1999/xlink" width="65px" height="40px" xmlns="http://www.w3.org/2000/svg">
  <g transform="matrix(1 0 0 1 -327 -533 )">
    <path d="M 327.5 535  A 1.5 1.5 0 0 1 329 533.5 L 390 533.5  A 1.5 1.5 0 0 1 391.5 535 L 391.5 571  A 1.5 1.5 0 0 1 390 572.5 L 329 572.5  A 1.5 1.5 0 0 1 327.5 571 L 327.5 535  Z " fill-rule="nonzero" fill="#3399ff" stroke="none" />
    <path d="M 327.5 535  A 1.5 1.5 0 0 1 329 533.5 L 390 533.5  A 1.5 1.5 0 0 1 391.5 535 L 391.5 571  A 1.5 1.5 0 0 1 390 572.5 L 329 572.5  A 1.5 1.5 0 0 1 327.5 571 L 327.5 535  Z " stroke-width="1" stroke="#3399ff" fill="none" />
  </g>
</svg>