<?xml version="1.0" encoding="utf-8"?><svg version="1.1" xmlns:xlink="http://www.w3.org/1999/xlink" width="97px" height="97px" xmlns="http://www.w3.org/2000/svg"><g transform="matrix(1 0 0 1 -53 -153 )"><path d="M 101.5 153  C 128.66 153  150 174.34  150 201.5  C 150 228.66  128.66 250  101.5 250  C 74.34 250  53 228.66  53 201.5  C 53 174.34  74.34 153  101.5 153  Z " fill-rule="nonzero" fill="#ffffff" stroke="none" /><path d="M 101.5 153.5  C 128.38 153.5  149.5 174.62  149.5 201.5  C 149.5 228.38  128.38 249.5  101.5 249.5  C 74.62 249.5  53.5 228.38  53.5 201.5  C 53.5 174.62  74.62 153.5  101.5 153.5  Z " stroke-width="1" stroke="#e4e4e4" fill="none" /></g></svg>