<?xml version="1.0" encoding="utf-8"?><svg version="1.1" xmlns:xlink="http://www.w3.org/1999/xlink" width="61px" height="61px" xmlns="http://www.w3.org/2000/svg"><g transform="matrix(1 0 0 1 -53 -663 )"><path d="M 83.5 663  C 100.58 663  114 676.42  114 693.5  C 114 710.58  100.58 724  83.5 724  C 66.42 724  53 710.58  53 693.5  C 53 676.42  66.42 663  83.5 663  Z " fill-rule="nonzero" fill="#ffffff" stroke="none" /><path d="M 83.5 663.5  C 100.3 663.5  113.5 676.7  113.5 693.5  C 113.5 710.3  100.3 723.5  83.5 723.5  C 66.7 723.5  53.5 710.3  53.5 693.5  C 53.5 676.7  66.7 663.5  83.5 663.5  Z " stroke-width="1" stroke="#e4e4e4" fill="none" /></g></svg>