<?xml version="1.0" encoding="utf-8"?>
<svg version="1.1" xmlns:xlink="http://www.w3.org/1999/xlink" width="13px" height="15px" xmlns="http://www.w3.org/2000/svg">
  <g transform="matrix(1 0 0 1 -25 -98 )">
    <path d="M 3.39902439024388 5.76923076923077  L 1.3507317073171 5.76923076923077  L 5.3014634146341 11.7638221153846  L 3.39902439024388 5.76923076923077  Z M 4.28682926829271 5.76923076923077  L 6.5 12.7283653846154  L 8.71317073170729 5.76923076923077  L 4.28682926829271 5.76923076923077  Z M 1.22390243902441 4.61538461538461  L 3.41804878048782 4.61538461538461  L 4.71170731707315 1.15384615384616  L 3.05024390243904 1.15384615384616  L 1.22390243902441 4.61538461538461  Z M 9.60097560975612 5.76923076923077  L 7.6985365853659 11.7638221153846  L 11.6492682926829 5.76923076923077  L 9.60097560975612 5.76923076923077  Z M 5.63121951219512 1.15384615384616  L 4.33756097560973 4.61538461538461  L 8.66243902439027 4.61538461538461  L 7.36878048780488 1.15384615384616  L 5.63121951219512 1.15384615384616  Z M 8.28829268292685 1.15384615384616  L 9.58195121951218 4.61538461538461  L 11.7760975609756 4.61538461538461  L 9.94975609756096 1.15384615384616  L 8.28829268292685 1.15384615384616  Z M 10.1526829268292 0  C 10.2921951219512 0  10.4 0.078125  10.4760975609756 0.234375  L 12.9112195121951 4.84975961538461  C 12.970406504065 4.95793269230768  12.9978861788618 5.08263221153848  12.9936585365854 5.22385817307691  C 12.989430894309 5.36508413461539  12.9534959349593 5.48677884615381  12.8858536585366 5.58894230769232  L 6.79804878048782 14.8197115384615  C 6.72195121951222 14.9399038461538  6.62260162601626 15  6.5 15  C 6.37739837398374 15  6.27804878048778 14.9399038461538  6.20195121951218 14.8197115384615  L 0.114146341463425 5.58894230769232  C 0.046504065040665 5.48677884615381  0.0105691056910473 5.36508413461539  0.00634146341462838 5.22385817307691  C 0.00211382113820946 5.08263221153848  0.0295934959349893 4.95793269230768  0.0887804878048541 4.84975961538461  L 2.52390243902437 0.234375  C 2.60000000000002 0.078125  2.70780487804876 0  2.84731707317076 0  L 10.1526829268292 0  Z " fill-rule="nonzero" fill="#199ed8" stroke="none" transform="matrix(1 0 0 1 25 98 )" />
  </g>
</svg>