<?xml version="1.0" encoding="utf-8"?>
<svg version="1.1" xmlns:xlink="http://www.w3.org/1999/xlink" width="15px" height="17px" xmlns="http://www.w3.org/2000/svg">
  <g transform="matrix(1 0 0 1 -173 -9 )">
    <path d="M 3.92195121951221 6.53846153846155  L 1.55853658536586 6.53846153846155  L 6.11707317073171 13.3323317307692  L 3.92195121951221 6.53846153846155  Z M 4.94634146341463 6.53846153846155  L 7.5 14.4254807692308  L 10.0536585365854 6.53846153846155  L 4.94634146341463 6.53846153846155  Z M 1.41219512195119 5.23076923076923  L 3.94390243902438 5.23076923076923  L 5.43658536585366 1.30769230769232  L 3.51951219512199 1.30769230769232  L 1.41219512195119 5.23076923076923  Z M 11.0780487804878 6.53846153846155  L 8.88292682926829 13.3323317307692  L 13.4414634146341 6.53846153846155  L 11.0780487804878 6.53846153846155  Z M 6.49756097560976 1.30769230769232  L 5.00487804878048 5.23076923076923  L 9.99512195121952 5.23076923076923  L 8.50243902439024 1.30769230769232  L 6.49756097560976 1.30769230769232  Z M 9.56341463414634 1.30769230769232  L 11.0560975609756 5.23076923076923  L 13.5878048780488 5.23076923076923  L 11.480487804878 1.30769230769232  L 9.56341463414634 1.30769230769232  Z M 11.7146341463415 0  C 11.8756097560976 0  12 0.0885416666666572  12.0878048780488 0.265625  L 14.8975609756097 5.49639423076923  C 14.9658536585366 5.61899038461539  14.9975609756098 5.76031650641028  14.9926829268293 5.92037259615384  C 14.9878048780488 6.08042868589743  14.9463414634146 6.21834935897434  14.8682926829268 6.33413461538461  L 7.84390243902442 16.7956730769231  C 7.75609756097561 16.931891025641  7.64146341463413 17  7.5 17  C 7.35853658536587 17  7.2439024390244 16.931891025641  7.15609756097558 16.7956730769231  L 0.131707317073165 6.33413461538461  C 0.0536585365853739 6.21834935897434  0.0121951219512084 6.08042868589743  0.00731707317072505 5.92037259615384  C 0.00243902439024168 5.76031650641028  0.0341463414634404 5.61899038461539  0.102439024390264 5.49639423076923  L 2.91219512195124 0.265625  C 3 0.0885416666666572  3.12439024390244 0  3.2853658536585 0  L 11.7146341463415 0  Z " fill-rule="nonzero" fill="#000000" stroke="none" transform="matrix(1 0 0 1 173 9 )" />
  </g>
</svg>