<?xml version="1.0" encoding="utf-8"?>
<svg version="1.1" xmlns:xlink="http://www.w3.org/1999/xlink" width="16px" height="19px" xmlns="http://www.w3.org/2000/svg">
  <g transform="matrix(1 0 0 1 -274 -8 )">
    <path d="M 9.66666666666663 13.3  L 10.65625 10.45  L 13.9479166666666 10.45  C 13.9409722222222 10.4203125  13.9322916666666 10.3782552083333  13.921875 10.323828125  C 13.9114583333334 10.2694010416667  13.9027777777778 10.2322916666667  13.8958333333334 10.2125  L 11.6875 2.84999999999999  L 4.3125 2.84999999999999  L 2.10416666666669 10.2125  C 2.09722222222223 10.2421875  2.08854166666669 10.2842447916667  2.078125 10.338671875  C 2.06770833333331 10.3930989583333  2.05902777777777 10.4302083333333  2.05208333333331 10.45  L 5.34375 10.45  L 6.33333333333337 13.3  L 9.66666666666663 13.3  Z M 15.7395833333334 9.06953125  C 15.9131944444445 9.67317708333333  16 10.2817708333333  16 10.8953125  L 16 18.05  C 16 18.3072916666667  15.9340277777778 18.5299479166667  15.8020833333334 18.71796875  C 15.6701388888889 18.9059895833333  15.5138888888889 19  15.3333333333334 19  L 0.666666666666686 19  C 0.486111111111086 19  0.329861111111086 18.9059895833333  0.197916666666686 18.71796875  C 0.0659722222222285 18.5299479166667  0 18.3072916666667  0 18.05  L 0 10.8953125  C 0 10.2817708333333  0.0868055555555429 9.67317708333333  0.260416666666686 9.06953125  L 2.73958333333331 0.875781250000003  C 2.80902777777777 0.628385416666653  2.93576388888891 0.420572916666671  3.11979166666669 0.252343749999987  C 3.30381944444446 0.0841145833333314  3.48611111111109 0  3.66666666666669 0  L 12.3333333333334 0  C 12.5138888888889 0  12.6961805555555 0.0841145833333314  12.8802083333334 0.252343749999987  C 13.0642361111111 0.420572916666671  13.1909722222222 0.628385416666653  13.2604166666666 0.875781250000003  L 15.7395833333334 9.06953125  Z " fill-rule="nonzero" fill="#000000" stroke="none" transform="matrix(1 0 0 1 274 8 )" />
  </g>
</svg>