<?xml version="1.0" encoding="utf-8"?>
<svg version="1.1" xmlns:xlink="http://www.w3.org/1999/xlink" width="12px" height="12px" viewBox="568 26  12 12" xmlns="http://www.w3.org/2000/svg">
  <path d="M 574 26  C 577.36 26  580 28.64  580 32  C 580 35.36  577.36 38  574 38  C 570.64 38  568 35.36  568 32  C 568 28.64  570.64 26  574 26  Z " fill-rule="nonzero" fill="#ffffff" stroke="none" />
  <path d="M 574 26.5  C 577.08 26.5  579.5 28.92  579.5 32  C 579.5 35.08  577.08 37.5  574 37.5  C 570.92 37.5  568.5 35.08  568.5 32  C 568.5 28.92  570.92 26.5  574 26.5  Z " stroke-width="1" stroke="#e4e4e4" fill="none" />
  <path d="M 574 35  C 572.32 35  571 33.68  571 32  C 571 30.32  572.32 29  574 29  C 575.68 29  577 30.32  577 32  C 577 33.68  575.68 35  574 35  " fill-rule="nonzero" fill="#e4e4e4" stroke="none" />
</svg>