<?xml version="1.0" encoding="utf-8"?>
<svg version="1.1" xmlns:xlink="http://www.w3.org/1999/xlink" width="110px" height="70px" xmlns="http://www.w3.org/2000/svg">
  <g transform="matrix(1 0 0 1 -721 -1418 )">
    <path d="M 731.5 1487.5  L 830.5 1487.5  L 830.5 1428.5  L 825.5 1428.5  L 825.5 1423.5  L 820.5 1423.5  L 820.5 1418.5  L 721.5 1418.5  L 721.5 1477.5  L 726.5 1477.5  L 726.5 1482.5  L 731.5 1482.5  L 731.5 1487.5  Z " fill-rule="nonzero" fill="#ffffff" stroke="none" />
    <path d="M 731.5 1487.5  L 830.5 1487.5  L 830.5 1428.5  L 825.5 1428.5  L 825.5 1423.5  L 820.5 1423.5  L 820.5 1418.5  L 721.5 1418.5  L 721.5 1477.5  L 726.5 1477.5  L 726.5 1482.5  L 731.5 1482.5  L 731.5 1487.5  Z " stroke-width="1" stroke="#797979" fill="none" />
    <path d="M 825.5 1429  L 825.5 1482.5  L 732 1482.5  M 820.5 1424  L 820.5 1477.5  L 727 1477.5  " stroke-width="1" stroke="#797979" fill="none" />
  </g>
</svg>