<?xml version="1.0" encoding="utf-8"?>
<svg version="1.1" xmlns:xlink="http://www.w3.org/1999/xlink" width="100px" height="40px" xmlns="http://www.w3.org/2000/svg">
  <g transform="matrix(1 0 0 1 14 -3 )">
    <path d="M -13.5 5  A 1.5 1.5 0 0 1 -12 3.5 L 84 3.5  A 1.5 1.5 0 0 1 85.5 5 L 85.5 41  A 1.5 1.5 0 0 1 84 42.5 L -12 42.5  A 1.5 1.5 0 0 1 -13.5 41 L -13.5 5  Z " fill-rule="nonzero" fill="#3399ff" stroke="none" />
    <path d="M -13.5 5  A 1.5 1.5 0 0 1 -12 3.5 L 84 3.5  A 1.5 1.5 0 0 1 85.5 5 L 85.5 41  A 1.5 1.5 0 0 1 84 42.5 L -12 42.5  A 1.5 1.5 0 0 1 -13.5 41 L -13.5 5  Z " stroke-width="1" stroke="#3399ff" fill="none" />
  </g>
</svg>