<?xml version="1.0" encoding="utf-8"?>
<svg version="1.1" xmlns:xlink="http://www.w3.org/1999/xlink" width="141px" height="38px" xmlns="http://www.w3.org/2000/svg">
  <g transform="matrix(1 0 0 1 -33 -156 )">
    <path d="M 33.5 158  A 1.5 1.5 0 0 1 35 156.5 L 172 156.5  A 1.5 1.5 0 0 1 173.5 158 L 173.5 192  A 1.5 1.5 0 0 1 172 193.5 L 35 193.5  A 1.5 1.5 0 0 1 33.5 192 L 33.5 158  Z " fill-rule="nonzero" fill="#3399ff" stroke="none" />
    <path d="M 33.5 158  A 1.5 1.5 0 0 1 35 156.5 L 172 156.5  A 1.5 1.5 0 0 1 173.5 158 L 173.5 192  A 1.5 1.5 0 0 1 172 193.5 L 35 193.5  A 1.5 1.5 0 0 1 33.5 192 L 33.5 158  Z " stroke-width="1" stroke="#3399ff" fill="none" />
  </g>
</svg>