<?xml version="1.0" encoding="utf-8"?>
<svg version="1.1" xmlns:xlink="http://www.w3.org/1999/xlink" width="16px" height="16px" viewBox="159 59.5  16 16" xmlns="http://www.w3.org/2000/svg">
  <path d="M 167 59.5  C 171.48 59.5  175 63.02  175 67.5  C 175 71.98  171.48 75.5  167 75.5  C 162.52 75.5  159 71.98  159 67.5  C 159 63.02  162.52 59.5  167 59.5  Z " fill-rule="nonzero" fill="#ffffff" stroke="none" />
  <path d="M 167 60  C 171.2 60  174.5 63.3  174.5 67.5  C 174.5 71.7  171.2 75  167 75  C 162.8 75  159.5 71.7  159.5 67.5  C 159.5 63.3  162.8 60  167 60  Z " stroke-width="1" stroke="#e4e4e4" fill="none" />
  <path d="M 167 71.5  C 164.76 71.5  163 69.74  163 67.5  C 163 65.26  164.76 63.5  167 63.5  C 169.24 63.5  171 65.26  171 67.5  C 171 69.74  169.24 71.5  167 71.5  " fill-rule="nonzero" fill="#e4e4e4" stroke="none" />
</svg>