<?xml version="1.0" encoding="utf-8"?>
<svg version="1.1" xmlns:xlink="http://www.w3.org/1999/xlink" width="105px" height="40px" xmlns="http://www.w3.org/2000/svg">
  <g transform="matrix(1 0 0 1 -49 -110 )">
    <path d="M 49.5 112  A 1.5 1.5 0 0 1 51 110.5 L 152 110.5  A 1.5 1.5 0 0 1 153.5 112 L 153.5 148  A 1.5 1.5 0 0 1 152 149.5 L 51 149.5  A 1.5 1.5 0 0 1 49.5 148 L 49.5 112  Z " fill-rule="nonzero" fill="#3399ff" stroke="none" />
    <path d="M 49.5 112  A 1.5 1.5 0 0 1 51 110.5 L 152 110.5  A 1.5 1.5 0 0 1 153.5 112 L 153.5 148  A 1.5 1.5 0 0 1 152 149.5 L 51 149.5  A 1.5 1.5 0 0 1 49.5 148 L 49.5 112  Z " stroke-width="1" stroke="#3399ff" fill="none" />
  </g>
</svg>