<?xml version="1.0" encoding="utf-8"?><svg version="1.1" xmlns:xlink="http://www.w3.org/1999/xlink" width="12px" height="12px" viewBox="206 320  12 12" xmlns="http://www.w3.org/2000/svg"><path d="M 212 320  C 215.36 320  218 322.64  218 326  C 218 329.36  215.36 332  212 332  C 208.64 332  206 329.36  206 326  C 206 322.64  208.64 320  212 320  Z " fill-rule="nonzero" fill="#ffffff" stroke="none" /><path d="M 212 320.5  C 215.08 320.5  217.5 322.92  217.5 326  C 217.5 329.08  215.08 331.5  212 331.5  C 208.92 331.5  206.5 329.08  206.5 326  C 206.5 322.92  208.92 320.5  212 320.5  Z " stroke-width="1" stroke="#e4e4e4" fill="none" /><path d="M 212 329  C 210.32 329  209 327.68  209 326  C 209 324.32  210.32 323  212 323  C 213.68 323  215 324.32  215 326  C 215 327.68  213.68 329  212 329  " fill-rule="nonzero" fill="#e4e4e4" stroke="none" /></svg>