<?xml version="1.0" encoding="utf-8"?><svg version="1.1" xmlns:xlink="http://www.w3.org/1999/xlink" width="12px" height="12px" viewBox="568 56  12 12" xmlns="http://www.w3.org/2000/svg"><path d="M 574 56  C 577.36 56  580 58.64  580 62  C 580 65.36  577.36 68  574 68  C 570.64 68  568 65.36  568 62  C 568 58.64  570.64 56  574 56  Z " fill-rule="nonzero" fill="#ffffff" stroke="none" /><path d="M 574 56.5  C 577.08 56.5  579.5 58.92  579.5 62  C 579.5 65.08  577.08 67.5  574 67.5  C 570.92 67.5  568.5 65.08  568.5 62  C 568.5 58.92  570.92 56.5  574 56.5  Z " stroke-width="1" stroke="#e4e4e4" fill="none" /><path d="M 574 65  C 572.32 65  571 63.68  571 62  C 571 60.32  572.32 59  574 59  C 575.68 59  577 60.32  577 62  C 577 63.68  575.68 65  574 65  " fill-rule="nonzero" fill="#e4e4e4" stroke="none" /></svg>