<?xml version="1.0" encoding="utf-8"?><svg version="1.1" xmlns:xlink="http://www.w3.org/1999/xlink" width="83px" height="61px" xmlns="http://www.w3.org/2000/svg"><g transform="matrix(1 0 0 1 -164 -267 )"><path d="M 164 267  L 247 267  L 247 328  L 164 328  L 164 267  " fill-rule="nonzero" fill="#cccccc" stroke="none" /><path d="M 168 271  L 243 271  L 243 324  L 168 324  L 168 271  " fill-rule="nonzero" fill="#ffffff" stroke="none" /><path d="M 211.735 285.3  C 209.173 285.3  207.16 283.287  207.16 280.725  C 207.16 278.163  209.173 276.15  211.735 276.15  C 214.297 276.15  216.31 278.163  216.31 280.725  C 216.31 283.287  214.297 285.3  211.735 285.3  " fill-rule="nonzero" fill="#cccccc" stroke="none" /><path d="M 170 323  L 170 295.5  L 188 283  L 213.2 300.951807228916  L 227.6 290.5  L 242 300.951807228916  L 242 323  L 170 323  " fill-rule="nonzero" fill="#169bd5" stroke="none" /></g></svg>