<?xml version="1.0" encoding="utf-8"?><svg version="1.1" xmlns:xlink="http://www.w3.org/1999/xlink" width="18px" height="16px" xmlns="http://www.w3.org/2000/svg"><g transform="matrix(1 0 0 1 -44 -12 )"><path d="M 14.02734375 9.13541666666666  C 14.17578125 9.00347222222223  14.25 8.84722222222223  14.25 8.66666666666666  L 14.25 7.33333333333334  C 14.25 7.15277777777777  14.17578125 6.99652777777777  14.02734375 6.86458333333334  C 13.87890625 6.73263888888889  13.703125 6.66666666666666  13.5 6.66666666666666  L 4.5 6.66666666666666  C 4.296875 6.66666666666666  4.12109375 6.73263888888889  3.97265625 6.86458333333334  C 3.82421875 6.99652777777777  3.75 7.15277777777777  3.75 7.33333333333334  L 3.75 8.66666666666666  C 3.75 8.84722222222223  3.82421875 9.00347222222223  3.97265625 9.13541666666666  C 4.12109375 9.26736111111111  4.296875 9.33333333333334  4.5 9.33333333333334  L 13.5 9.33333333333334  C 13.703125 9.33333333333334  13.87890625 9.26736111111111  14.02734375 9.13541666666666  Z M 16.79296875 3.984375  C 17.59765625 5.21006944444446  18 6.54861111111111  18 8  C 18 9.45138888888889  17.59765625 10.7899305555555  16.79296875 12.015625  C 15.98828125 13.2413194444445  14.896484375 14.2118055555555  13.517578125 14.9270833333333  C 12.138671875 15.6423611111111  10.6328125 16  9 16  C 7.3671875 16  5.861328125 15.6423611111111  4.482421875 14.9270833333333  C 3.103515625 14.2118055555555  2.01171875 13.2413194444445  1.20703125 12.015625  C 0.40234375 10.7899305555555  0 9.45138888888889  0 8  C 0 6.54861111111111  0.40234375 5.21006944444446  1.20703125 3.984375  C 2.01171875 2.75868055555554  3.103515625 1.78819444444446  4.482421875 1.07291666666666  C 5.861328125 0.357638888888886  7.3671875 0  9 0  C 10.6328125 0  12.138671875 0.357638888888886  13.517578125 1.07291666666666  C 14.896484375 1.78819444444446  15.98828125 2.75868055555554  16.79296875 3.984375  Z " fill-rule="nonzero" fill="#666666" stroke="none" transform="matrix(1 0 0 1 44 12 )" /></g></svg>