<?xml version="1.0" encoding="utf-8"?><svg version="1.1" xmlns:xlink="http://www.w3.org/1999/xlink" width="120px" height="35px" xmlns="http://www.w3.org/2000/svg"><g transform="matrix(1 0 0 1 -238 -67 )"><path d="M 239 69  A 1 1 0 0 1 240 68 L 356 68  A 1 1 0 0 1 357 69 L 357 100  A 1 1 0 0 1 356 101 L 240 101  A 1 1 0 0 1 239 100 L 239 69  Z " fill-rule="nonzero" fill="#cccccc" stroke="none" /><path d="M 238.5 69  A 1.5 1.5 0 0 1 240 67.5 L 356 67.5  A 1.5 1.5 0 0 1 357.5 69 L 357.5 100  A 1.5 1.5 0 0 1 356 101.5 L 240 101.5  A 1.5 1.5 0 0 1 238.5 100 L 238.5 69  Z " stroke-width="1" stroke="#2f4f4f" fill="none" stroke-opacity="0.607843137254902" /></g></svg>