<?xml version="1.0" encoding="utf-8"?>
<svg version="1.1" xmlns:xlink="http://www.w3.org/1999/xlink" width="37px" height="37px" xmlns="http://www.w3.org/2000/svg">
  <g transform="matrix(1 0 0 1 -17 -21 )">
    <path d="M 35.5 21  C 45.86 21  54 29.14  54 39.5  C 54 49.86  45.86 58  35.5 58  C 25.14 58  17 49.86  17 39.5  C 17 29.14  25.14 21  35.5 21  Z " fill-rule="nonzero" fill="#f2f2f2" stroke="none" />
    <path d="M 35.5 21.5  C 45.58 21.5  53.5 29.42  53.5 39.5  C 53.5 49.58  45.58 57.5  35.5 57.5  C 25.42 57.5  17.5 49.58  17.5 39.5  C 17.5 29.42  25.42 21.5  35.5 21.5  Z " stroke-width="1" stroke="#797979" fill="none" />
  </g>
</svg>