<?xml version="1.0" encoding="utf-8"?>
<svg version="1.1" xmlns:xlink="http://www.w3.org/1999/xlink" width="200px" height="50px" xmlns="http://www.w3.org/2000/svg">
  <g transform="matrix(1 0 0 1 -1 -680 )">
    <path d="M 181 680  C 181 680  185 680.5  185 680.5  C 185 680.5  201 705  201 705  C 201 705  185 729.5  185 729.5  C 185 729.5  181 730  181 730  C 181 730  3 730  3 730  C 1.88 730  1 729.12  1 728  C 1 728  1 682  1 682  C 1 680.88  1.88 680  3 680  C 3 680  181 680  181 680  Z " fill-rule="nonzero" fill="#9ea7b4" stroke="none" />
  </g>
</svg>