<?xml version="1.0" encoding="utf-8"?>
<svg version="1.1" xmlns:xlink="http://www.w3.org/1999/xlink" width="100px" height="30px" xmlns="http://www.w3.org/2000/svg">
  <g>
    <path d="M 0.5 2  A 1.5 1.5 0 0 1 2 0.5 L 98 0.5  A 1.5 1.5 0 0 1 99.5 2 L 99.5 28  A 1.5 1.5 0 0 1 98 29.5 L 2 29.5  A 1.5 1.5 0 0 1 0.5 28 L 0.5 2  Z " fill-rule="nonzero" fill="#3399ff" stroke="none" />
    <path d="M 0.5 2  A 1.5 1.5 0 0 1 2 0.5 L 98 0.5  A 1.5 1.5 0 0 1 99.5 2 L 99.5 28  A 1.5 1.5 0 0 1 98 29.5 L 2 29.5  A 1.5 1.5 0 0 1 0.5 28 L 0.5 2  Z " stroke-width="1" stroke="#3399ff" fill="none" />
  </g>
</svg>