<?xml version="1.0" encoding="utf-8"?>
<svg version="1.1" xmlns:xlink="http://www.w3.org/1999/xlink" width="200px" height="60px" xmlns="http://www.w3.org/2000/svg">
  <g transform="matrix(1 0 0 1 -1050 -1152 )">
    <path d="M 1050.5 1197.85849056604  C 1050.5 1197.85849056604  1050.5 1152.5  1050.5 1152.5  C 1050.5 1152.5  1249.5 1152.5  1249.5 1152.5  C 1249.5 1152.5  1249.5 1197.85849056604  1249.5 1197.85849056604  C 1249.5 1197.85849056604  1166.32699072935 1197.85849056604  1166.32699072935 1197.85849056604  C 1166.32699072935 1197.85849056604  1150.01515298625 1210.68226237665  1150.01515298625 1210.68226237665  C 1150.01515298625 1210.68226237665  1135.18620958344 1197.85849056604  1135.18620958344 1197.85849056604  C 1135.18620958344 1197.85849056604  1050.5 1197.85849056604  1050.5 1197.85849056604  Z " fill-rule="nonzero" fill="#f04844" stroke="none" />
    <path d="M 1050 1198.35849056604  C 1050 1198.35849056604  1050 1152  1050 1152  C 1050 1152  1250 1152  1250 1152  C 1250 1152  1250 1198.35849056604  1250 1198.35849056604  C 1250 1198.35849056604  1166.5 1198.35849056604  1166.5 1198.35849056604  C 1166.5 1198.35849056604  1150 1211.33018867925  1150 1211.33018867925  C 1150 1211.33018867925  1135 1198.35849056604  1135 1198.35849056604  C 1135 1198.35849056604  1050 1198.35849056604  1050 1198.35849056604  Z M 1051 1197.35849056604  C 1051 1197.35849056604  1135.37241916688 1197.35849056604  1135.37241916688 1197.35849056604  C 1135.37241916688 1197.35849056604  1150.03030597251 1210.03433607405  1150.03030597251 1210.03433607405  C 1150.03030597251 1210.03433607405  1166.1539814587 1197.35849056604  1166.1539814587 1197.35849056604  C 1166.1539814587 1197.35849056604  1249 1197.35849056604  1249 1197.35849056604  C 1249 1197.35849056604  1249 1153  1249 1153  C 1249 1153  1051 1153  1051 1153  C 1051 1153  1051 1197.35849056604  1051 1197.35849056604  Z " fill-rule="nonzero" fill="#f04844" stroke="none" />
  </g>
</svg>