<?xml version="1.0" encoding="utf-8"?>
<svg version="1.1" xmlns:xlink="http://www.w3.org/1999/xlink" width="32px" height="32px" xmlns="http://www.w3.org/2000/svg">
  <defs>
    <mask fill="white" id="clip142">
      <path d="M 16 32  C 7.12 32  0 24.88  0 16  L 0 16  C 0 7.12  7.12 0  16 0  L 16 0  C 24.88 0  32 7.12  32 16  L 32 16  C 32 24.88  24.88 32  16 32  " fill-rule="evenodd" />
    </mask>
  </defs>
  <g>
    <path d="M 0 0  L 32 0  L 32 32  L 0 32  L 0 0  " fill-rule="nonzero" fill="#cccccc" stroke="none" mask="url(#clip142)" />
    <path d="M 2 2  L 30 2  L 30 30  L 2 30  L 2 2  " fill-rule="nonzero" fill="#ffffff" stroke="none" mask="url(#clip142)" />
    <path d="M 19.04 9.6  C 17.696 9.6  16.64 8.544  16.64 7.2  C 16.64 5.856  17.696 4.8  19.04 4.8  C 20.384 4.8  21.44 5.856  21.44 7.2  C 21.44 8.544  20.384 9.6  19.04 9.6  " fill-rule="nonzero" fill="#cccccc" stroke="none" mask="url(#clip142)" />
    <path d="M 3 29  L 3 14.7  L 9.5 8.2  L 18.6 13.4  L 23.8 12.1  L 29 13.4  L 29 29  L 3 29  " fill-rule="nonzero" fill="#169bd5" stroke="none" mask="url(#clip142)" />
  </g>
</svg>