<?xml version="1.0" encoding="utf-8"?>
<svg version="1.1" xmlns:xlink="http://www.w3.org/1999/xlink" width="3px" height="8px" xmlns="http://www.w3.org/2000/svg">
  <defs>
    <mask fill="white" id="clip50">
      <path d="M 1.2597265625 0.740234374999998  C 1.7673828125 1.73115234375  2.05234375 2.77962890625  2.03572265625 3.91673828125  C 2.059921875 5.0028125  1.77603515625 6.0330078125  1.31490234375 7.02625  C 1.169453125 7.33958984375  0.953281250000002 7.46962890625  0.619511718750001 7.4429296875  C 0.1647265625 7.40654296875  0.00312500000000071 7.16501953125  0.202285156250001 6.75181640625  C 1.09814453125 4.89271484375  1.08951171875 3.03193359375  0.244570312500001 1.1618359375  C 0.126113281249999 0.899843749999999  -0.00253906250000036 0.617539062499999  0.377890625000001 0.465605468749999  C 0.73154296875 0.324433593749998  1.06517578125 0.360468749999999  1.2597265625 0.740234374999998  Z " fill-rule="evenodd" />
    </mask>
  </defs>
  <g transform="matrix(1 0 0 1 -35 -16 )">
    <path d="M 1.2597265625 0.740234374999998  C 1.7673828125 1.73115234375  2.05234375 2.77962890625  2.03572265625 3.91673828125  C 2.059921875 5.0028125  1.77603515625 6.0330078125  1.31490234375 7.02625  C 1.169453125 7.33958984375  0.953281250000002 7.46962890625  0.619511718750001 7.4429296875  C 0.1647265625 7.40654296875  0.00312500000000071 7.16501953125  0.202285156250001 6.75181640625  C 1.09814453125 4.89271484375  1.08951171875 3.03193359375  0.244570312500001 1.1618359375  C 0.126113281249999 0.899843749999999  -0.00253906250000036 0.617539062499999  0.377890625000001 0.465605468749999  C 0.73154296875 0.324433593749998  1.06517578125 0.360468749999999  1.2597265625 0.740234374999998  Z " fill-rule="nonzero" fill="#ff5918" stroke="none" transform="matrix(1 0 0 1 35 16 )" />
    <path d="M 1.2597265625 0.740234374999998  C 1.7673828125 1.73115234375  2.05234375 2.77962890625  2.03572265625 3.91673828125  C 2.059921875 5.0028125  1.77603515625 6.0330078125  1.31490234375 7.02625  C 1.169453125 7.33958984375  0.953281250000002 7.46962890625  0.619511718750001 7.4429296875  C 0.1647265625 7.40654296875  0.00312500000000071 7.16501953125  0.202285156250001 6.75181640625  C 1.09814453125 4.89271484375  1.08951171875 3.03193359375  0.244570312500001 1.1618359375  C 0.126113281249999 0.899843749999999  -0.00253906250000036 0.617539062499999  0.377890625000001 0.465605468749999  C 0.73154296875 0.324433593749998  1.06517578125 0.360468749999999  1.2597265625 0.740234374999998  Z " stroke-width="2" stroke="#797979" fill="none" transform="matrix(1 0 0 1 35 16 )" mask="url(#clip50)" />
  </g>
</svg>