<?xml version="1.0" encoding="utf-8"?>
<svg version="1.1" xmlns:xlink="http://www.w3.org/1999/xlink" width="47px" height="36px" xmlns="http://www.w3.org/2000/svg">
  <g transform="matrix(1 0 0 1 -367 -240 )">
    <path d="M 46 8.60660980810229  L 46.2268856609808 8.60660980810229  C 46.2873334221748 7.97046908315571  46.1779517590618 7.48976545842223  45.8440498400853 6.82196162046912  C 45.8440498400853 6.82196162046912  39.7848813965886 1.67526652452031  37.3180370469084 0.270575692963746  C 30.7378664712154 0.230277185501137  15.1365871535182 0.282089552238887  8.97379397654595 0.207249466950998  C 6.78040378464829 1.41908315565033  3.10460421108741 4.30330490405123  0.444902718549997 6.62910447761186  C 0.0994869402985046 6.93422174840086  0.00449760127924037 7.71140724946696  0.0678238272919884 8.34754797441371  L 0 8.34754797441371  L 0 34.0522388059701  L 0.050553038379519 34.0522388059701  L 0.050553038379519 34.3170575692964  C 0.050553038379519 35.0942430703624  0.675179904051276 35.7159914712153  1.44660847547971 35  L 44.8164378997869 35  C 44.8173983779894 35.7159934536329  44.8183588579839 35.7159944448424  44.8193193382325 35.7159944448424  C 45.5903394660613 35.7159944448424  46.2153747753327 35.090959135571  46.2153747753327 34.3199390077422  C 46.2153747753327 34.318978527494  46.2153737841232 34.3180180474986  46.2153718017058 34.3170575692964  L 46.2153718017058 34.0522388059701  L 46 34.0522388059701  L 46 8.60660980810229  Z M 3.30321828358217 8.10287846481867  C 3.08733342217494 8.10863539445631  2.96068097014916 8.06257995735609  2.92901785714292 8.06257995735609  C 2.92038246268669 8.06257995735609  2.91750399786793 8.06833688699356  2.91750399786793 8.07121535181233  C 2.91085680750223 7.86398205157019  2.94915405200584 7.65776611962761  3.02976412579966 7.46673773987212  C 3.02976412579966 7.46673773987212  8.09010527718544 3.4397654584221  9.56100079957366 2.50138592750528  C 17.7012993070364 2.46972281449891  32.4361607142858 2.51865671641789  36.7711287313434 2.55031982942427  C 38.2362673240938 3.37068230277188  43.4606809701492 7.59339019189758  43.4606809701492 7.59339019189758  C 43.529461191062 7.73536978459506  43.505575753702 7.90484264967145  43.4002332089551 8.02228144989334  C 43.2705622448452 8.08522268014747  43.1266383208592 8.11301488615851  42.9828558102344 8.10287846481867  L 3.30321828358217 8.10287846481867  Z M 17.3731543176971 17.5240938166311  L 17.3731543176971 26.1796375266524  C 17.373156236677 26.1805979732173  17.3731571961678 26.1815584214598  17.3731571961678 26.1825188699417  C 17.3731571961678 26.9789747133278  16.7275021653534 27.6246297441422  15.9310463219674 27.6246297441422  C 15.930085873486 27.6246297441422  15.9291254252422 27.6246287846515  15.9281649786779 27.6246268656716  L 7.26686433901926 27.6246268656716  C 6.47040849563325 27.6246268656716  5.8247534648188 26.9789718348573  5.8247534648188 26.1825159914711  C 5.8247534648188 25.3860601480851  6.47040849563325 24.7404051172708  7.26686433901926 24.7404051172708  L 14.4831756396587 24.7404051172708  L 14.4831756396587 17.5240938166311  C 14.4831756396587 16.7260482410227  15.1301194030695 16.0791044776119  15.9281649786779 16.0791044776119  C 16.7262105542863 16.0791044776119  17.3731543176971 16.7260482410227  17.3731543176971 17.5240938166311  Z M 43.5183005289798 27.2029987650978  C 43.5183005289798 27.9128550112644  42.9607779885243 28.4975674346083  42.2517257462687 28  L 28.6221948294242 28  C 27.9125566103796 28.4983010996824  27.3541975971822 27.9133388275746  27.3541975971822 27.2029317697229  C 27.3541975971822 26.4925247118709  27.9125566103796 25.9075624397632  28.6221948294242 25.8745202558636  L 42.24884728145 25.8745202558636  C 42.959084610798 25.9068102461836  43.5183005289798 26.4920278040352  43.5183005289798 27.2029987650978  Z M 42.2517257462687 23.7012793176972  C 42.2517257462687 23.7012793176972  42.2517257462687 23.7012793176972  42.2517257462687 23  L 24.7362673240938 23  C 24.7362673240938 23.7012793176972  24.7362673240938 23.7012793176972  24.7362673240938 23.7012793176972  C 24.0018110373784 23.7012793176972  23.4064165778252 23.1058848581438  23.4064165778252 22.3714285714286  C 23.4064165778252 21.6369722847133  24.0018110373784 21.0415778251598  24.7362673240938 21.0415778251598  C 24.7362673240938 21.0415778251598  24.7362673240938 21.0415778251598  24.7362673240938 21  L 42.2517257462687 21  C 42.2517257462687 21.04157782516  42.2517257462687 21.04157782516  42.2517257462687 21.04157782516  C 42.9861820329838 21.04157782516  43.5815764925374 21.6369722847133  43.5815764925374 22.3714285714286  C 43.5815764925374 23.1058848581438  42.9861820329838 23.7012793176972  42.2517257462687 23.7012793176972  Z M 42.2517257462687 18.8654584221748  L 33.817823827292 18.8654584221748  C 33.8168633042698 18.8654605034791  33.8159027792792 18.865461544132  33.8149422540018 18.865461544132  C 33.0816086081478 18.865461544132  32.4866801968947 18.271818072442  32.4850946162048 17.538486140725  C 32.4850946162048 16.807356076759  33.0809368336888 16.211513859275  33.817823827292 16.211513859275  L 42.2517257462687 16.211513859275  C 42.9845923007617 16.211513859275  43.5786980277186 16.8056195862319  43.5786980277186 17.538486140725  C 43.5786980277186 18.2713526952179  42.9845923007617 18.8654584221748  42.2517257462687 18.8654584221748  Z " fill-rule="nonzero" fill="#1abc9c" stroke="none" transform="matrix(1 0 0 1 367 240 )" />
  </g>
</svg>