<?xml version="1.0" encoding="utf-8"?>
<svg version="1.1" xmlns:xlink="http://www.w3.org/1999/xlink" width="55px" height="45px" xmlns="http://www.w3.org/2000/svg">
  <g transform="matrix(1 0 0 1 -450 -355 )">
    <path d="M 54.6776731897615 22.4999375806452  C 54.6776731897615 10.9134605339592  45.6284103346012 1.46489485083794  34.2137595931846 0.761094436901487  C 41.8510789757659 5.00622787140878  47.0255514671567 13.1441266321195  47.0255514671567 22.4999375806452  C 47.0255514671567 31.8558733069241  41.8510789757659 39.9915889141255  34.2137595931846 44.2377826852319  C 45.6305249285567 43.5372258833165  54.6776731897615 34.0865394050844  54.6776731897615 22.4999375806452  Z M 22.1409648219058 44.3058985376764  C 34.19248899761 44.30589847672  43.9617174275288 34.5422039260962  43.9617174275288 22.4999376416015  C 43.9617174275288 10.4577960739038  34.1925511736739 0.694039164881531  22.1409648219058 0.694039164881531  C 10.0914308272513 0.694039164881531  0.32226463417453 10.4577961348601  0.32226463417453 22.4999376416015  C 0.32226463417453 34.5422039260962  10.0914308880294 44.3058985376764  22.1409648219058 44.3058985376764  Z M 31.1371134553608 26.3222793060106  C 31.6828095512952 26.3638847928743  32.1095893969726 26.5725360550025  32.4237968958162 26.9483578701487  C 32.736014152832 27.3241796852949  32.9143262913755 27.7735440574597  32.9546284148848 28.2963262088899  C 32.9143262913755 28.8393809354524  32.73595191599 29.2929868978389  32.4237968958162 29.6581422571194  C 32.1095893969726 30.0232975554435  31.6828717273592 30.2256487906376  31.1371134553608 30.2682523166583  L 25.1198409529194 30.2374380634135  L 25.1198409529194 33.5583305490802  C 25.0369354621968 35.333269889743  24.064583933491 36.2202093612966  22.2045900196597 36.2202093612966  C 21.2852283605314 36.2202093612966  20.5696164473684 36.0019520408581  20.0579408691406 35.563254124559  C 19.5440262840512 35.1244938498614  19.2680063147615 34.4569969350114  19.227704191252 33.5583305490802  L 19.227704191252 30.3001893868133  L 13.176411171104 30.3001893868133  C 12.6137359651265 30.2587086167465  12.1784354460063 30.0233599747984  11.8769778692948 29.5953909337198  C 11.5733434617856 29.1682951540449  11.3907398984889 28.6924205382119  11.3270525854492 28.1706987843372  C 11.3907399592671 27.6489770304624  11.5733435225637 27.2209456309854  11.8769778692948 26.886604585906  C 12.1784354460063 26.5523258992251  12.6137359651265 26.3638224344758  13.176411171104 26.3222169476122  L 19.227704191252 26.3222169476122  L 19.227704191252 24.3482324031313  L 13.176411171104 24.3173557305317  C 12.6137359651265 24.2746898461127  12.1784354460063 24.0767673982485  11.8769778692948 23.7221537780368  C 11.5733434617856 23.3664797602697  11.3907398984889 22.9172401658581  11.3270525854492 22.3741854392956  C 11.3907399592671 21.8524013270224  11.5733435225637 21.4244322859438  11.8769778692948 21.0900912408644  C 12.1784354460063 20.7558125541835  12.6137359651265 20.5684942647429  13.176411171104 20.5258906777659  L 17.690500625771 20.5258906777659  L 13.4906186699476 13.1333978178553  C 13.2804628444953 12.8831410688634  13.082994765111 12.5637080698715  12.8940473591694 12.1782178380166  C 12.7071523711194 11.7917295670048  12.6221944625051 11.3690625746598  12.6434649973016 10.9090317466293  C 12.7475789075349 10.3233734940461  12.9577969090512 9.84855927576865  13.269827577097 9.48334161904614  C 13.5840350759406 9.11818632072203  14.1701577082905 8.88290003717236  15.025769817537 8.77854316595261  C 15.5269344804944 8.82002393601942  15.9769751635742 8.99355687436997  16.3739637402344 9.29602326864921  C 16.7710767298006 9.59836488517516  17.0959194960424 9.92740388152095  17.3464396818462 10.2819551433342  L 22.1110492615389 18.9915397303428  L 27.3449177019943 10.2202018590915  C 27.595375650956 9.86565065823464  27.9203428301038 9.55151976893274  28.3173936436061 9.27999240565146  C 28.7143822202662 9.00746700321321  29.1645473162521 8.8412945503087  29.6655875663034 8.77848080755422  C 29.979919478053 8.79869096333164  30.266574714741 8.84123213095387  30.527667931101 8.90298541519661  C 30.7866465535053 8.96685955550657  31.0181351505962 9.07127872416834  31.2177800607782 9.21823912140877  C 31.4152481401624 9.3640143433405  31.5829250113076 9.57279032226563  31.7188825476717 9.84431768554691  C 31.8547779079718 10.1147222319179  31.9524235626542 10.4702715328881  32.0161108756938 10.9100297857863  C 32.0161108756938 11.5159605525454  31.8080697049753 12.0898295323526  31.3897482958985 12.6328219005167  L 26.5317223102128 20.5268263585244  L 31.1392902861585 20.5268263585244  C 31.6828717273592 20.5684318453881  32.1117662277703 20.7568105933404  32.4237968958162 21.0911516384199  C 32.736014152832 21.4254303251008  32.9143262913755 21.8534617245779  32.9567430696186 22.375245836851  C 32.9142641153114 22.9192986025706  32.7316605520148 23.3782066136908  32.4089323797286 23.7540284288369  C 32.0840896134869 24.1287274270728  31.6509658643863 24.3375034669544  31.1073844231856 24.3801069929751  L 25.1198409529194 24.4108588878213  L 25.1198409529194 26.3220921089025  L 31.1371134553608 26.3220921698589  Z " fill-rule="nonzero" fill="#1abc9c" stroke="none" transform="matrix(1 0 0 1 450 355 )" />
  </g>
</svg>