<?xml version="1.0" encoding="utf-8"?>
<svg version="1.1" xmlns:xlink="http://www.w3.org/1999/xlink" width="50px" height="50px" xmlns="http://www.w3.org/2000/svg">
  <g transform="matrix(1 0 0 1 -925 -80 )">
    <path d="M 950 83  C 962.32 83  972 92.68  972 105  C 972 117.32  962.32 127  950 127  C 937.68 127  928 117.32  928 105  C 928 92.68  937.68 83  950 83  Z " fill-rule="nonzero" fill="#f9f9f9" stroke="none" />
    <path d="M 950 82  C 962.88 82  973 92.12  973 105  C 973 117.88  962.88 128  950 128  C 937.12 128  927 117.88  927 105  C 927 92.12  937.12 82  950 82  Z " stroke-width="4" stroke="#cccccc" fill="none" />
  </g>
</svg>