<?xml version="1.0" encoding="utf-8"?>
<svg version="1.1" xmlns:xlink="http://www.w3.org/1999/xlink" width="50px" height="50px" xmlns="http://www.w3.org/2000/svg">
  <g transform="matrix(1 0 0 1 -125 -80 )">
    <path d="M 150 83  C 162.32 83  172 92.68  172 105  C 172 117.32  162.32 127  150 127  C 137.68 127  128 117.32  128 105  C 128 92.68  137.68 83  150 83  Z " fill-rule="nonzero" fill="#f9f9f9" stroke="none" />
    <path d="M 150 82  C 162.88 82  173 92.12  173 105  C 173 117.88  162.88 128  150 128  C 137.12 128  127 117.88  127 105  C 127 92.12  137.12 82  150 82  Z " stroke-width="4" stroke="#1abc9c" fill="none" />
  </g>
</svg>