<?xml version="1.0" encoding="utf-8"?>
<svg version="1.1" xmlns:xlink="http://www.w3.org/1999/xlink" width="124px" height="124px" xmlns="http://www.w3.org/2000/svg">
  <g transform="matrix(1 0 0 1 -73 -115 )">
    <path d="M 66.56616015625 68.398669921875  L 66.573830078125 68  L 77.56933984375 68  C 80.48 68.398669921875  81.9351796875 69.861669921875  81.9351796875 72.80316015625  C 81.9351796875 75.68283984375  80.472330078125 77.122830078125  77.56933984375 77  L 66.573830078125 77  L 66.573830078125 86.239509765625  C 66.573830078125 88.28016015625  66.28883984375 89.643  65.71133984375 90.32066015625  C 65.14166015625 91.00583984375  63.894169921875 91.3448203125  61.969169921875 91.3448203125  C 60.306 91.3448203125  59.1125 91.00583984375  58.381 90.3281796875  C 57.657169921875 89.643  57.2951796875 88.28016015625  57.2951796875 86.23966015625  L 57.2951796875 77  L 46.446 77  C 43.53533984375 77.122830078125  42.08016015625 75.68283984375  42.08016015625 72.80316015625  C 42.08016015625 69.86933984375  43.4815 68.398669921875  46.292 68  L 57.28766015625 68  L 57.28766015625 64  L 46.446 64  C 43.53533984375 64.394669921875  42.08016015625 62.94716015625  42.08016015625 60.067330078125  C 42.08016015625 57.141330078125  43.4815 55.67066015625  46.292 55.67066015625  L 52.452 55.67066015625  C 49.2831818604665 50.4555472107605  46.1107911436396 45.2426058858962  42.934830078125 40.03183984375  C 42.103169921875 38.669  41.80283984375 37.46016015625  42.041509765625 36.41283984375  C 42.3134483363289 35.311010978359  42.9967294096937 34.355020149142  43.951169921875 33.741  C 45.144669921875 32.9018203125  46.2535 32.56283984375  47.262169921875 32.71683984375  C 48.27866015625 32.87083984375  49.2565 33.741  50.188169921875 35.311830078125  L 62.046169921875 55.27783984375  C 63.956644448777 51.9829662430046  65.8791005323741 48.6950545072389  67.8135 45.414169921875  L 73.5885 35.5505  C 74.158330078125 34.60333984375  74.68966015625 33.91033984375  75.18233984375 33.4715  C 75.5979070092054 33.0621816485367  76.1260596120049 32.7860364292282  76.699330078125 32.67833984375  C 77.22283984375 32.60133984375  77.738830078125 32.67833984375  78.26233984375 32.90933984375  C 78.8274467318011 33.177779604267  79.3752334397733 33.4812572578126  79.9025 33.818  C 81.19616015625 34.665  81.9045 35.53516015625  82.00466015625 36.45133984375  C 82.11233984375 37.37533984375  81.742830078125 38.5613203125  80.9113203125 40.03183984375  L 71.555669921875 55.66283984375  L 77.561669921875 55.66283984375  C 80.472330078125 55.66283984375  81.927509765625 57.13366015625  81.927509765625 60.067330078125  C 81.927509765625 62.94716015625  80.46466015625 64.387  77.561669921875 64  L 66.56616015625 64  L 66.56616015625 68.398669921875  Z M 5.12016015624999 55.23933984375  L 5.097 55.239490234375  C 2.5069488301328 55.2338068896096  0.410306594096461 53.1325589475686  0.410306594096461 50.5425015422321  C 0.410306594096461 49.9240877000207  0.532427102266453 49.3117609865211  0.769660156250003 48.74066015625  C 3.91390066877382 35.1230710817229  11.5553428623725 22.9623539861347  22.4605 14.2215  C 33.6658313684394 5.27100942725856  47.58177537386 0.397034892677091  61.923 0.4  C 82.7692989274873 0.424721487765838  102.261925641781 10.7298962516627  114.0213203125 27.94283984375  L 114.0213203125 25.01683984375  C 114.034082494455 22.4258112309096  116.142614034335 20.3345064758071  118.73366015625 20.343  C 121.321715591799 20.3387424086507  123.425572275233 22.4288123510399  123 25.01683984375  L 123 50.5655  C 123.425572275233 53.1535274927102  121.321715591799 55.2435974350993  118.73366015625 55.23933984375  C 116.195515784578 55.2449301555638  114.112051737473 53.2331259765923  114.02883984375 50.69633984375  C 108.56183984375 26.86483984375  86.6785 9.57833984375  61.923 9.57833984375  C 37.175169921875 9.57833984375  15.27633984375 26.86483984375  9.81716015625 50.69633984375  C 9.73404209408721 53.2300889627971  7.65527186047385 55.2407027953084  5.12016015624999 55.23933984375  Z M 114.1753203125 73.30366015625  C 114.258615957541 70.7639480119143  116.346600822145 68.750995730368  118.88766015625 68.76066015625  C 121.476443382769 68.7681247594256  123.571116691118 70.8688466420338  123.571116691118 73.4576406304006  C 123.571116691118 74.0732084034754  123.450117440022 74.6827732066044  123.215 75.251669921875  C 120.071784865993 88.8718107523924  112.430311413409 101.035279633468  101.52416015625 109.7785  C 90.3226342736956 118.725155079652  76.4128577671964 123.598863991094  62.077 123.6  C 41.2310326943156 123.573945171933  21.7389894547652 113.269078873862  9.97867968749999 96.05716015625  L 9.97867968749999 98.98316015625  C 9.96591750554504 101.57418876909  7.85738596566537 103.665493524193  5.26633984374999 103.657  C 2.6782844082011 103.661257591349  0.574427724767151 101.57118764896  1 98.98316015625  L 1 73.4345  C 0.574427724767151 70.8464725072899  2.6782844082011 68.7564025649007  5.26633984374999 68.76066015625  C 7.80448421542229 68.7550698444362  9.8879482625272 70.7668740234077  9.97116015624999 73.30366015625  C 15.43033984375 97.13516015625  37.3215 114.42166015625  62.077 114.42166015625  C 86.824830078125 114.42166015625  108.72366015625 97.13516015625  114.1753203125 73.30366015625  Z " fill-rule="nonzero" fill="#1abc9c" stroke="none" transform="matrix(1 0 0 1 73 115 )" />
  </g>
</svg>