<?xml version="1.0" encoding="utf-8"?>
<svg version="1.1" xmlns:xlink="http://www.w3.org/1999/xlink" width="40px" height="40px" xmlns="http://www.w3.org/2000/svg">
  <g transform="matrix(1 0 0 1 -370 -236 )">
    <path d="M 39.7078430761719 20.0203262011719  C 39.7078430761719 30.8857694287109  30.898270991211 39.6952066455078  20.0329626318359 39.6952066455078  C 9.16760936035155 39.6952066455078  0.358082187499974 30.8857694287109  0.358082187499974 20.0203262011719  C 0.358082187499974 9.15497292968749  9.16765431640624 0.345445756835943  20.0329626318359 0.345445756835943  C 30.8982709472656 0.345445756835943  39.7078430761719 9.15501788574218  39.7078430761719 20.0203262011719  Z M 36.0188142236328 20.0203262011719  C 36.0188142236328 11.2059873242187  28.8473015087891 4.03460952148438  20.0329626318359 4.03460952148438  C 11.2186237548828 4.03460952148438  4.04711104003906 11.2059873242187  4.04711104003906 20.0203262011719  C 4.04711104003906 28.834665078125  11.2185787988281 36.0061777929687  20.0329626318359 36.0061777929687  C 28.8473464648437 36.0061777929687  36.0188142236328 28.834665078125  36.0188142236328 20.0203262011719  Z M 29.3299592919922 17.0206349902344  L 19.4925190917969 26.8579852783203  C 19.1323582958984 27.2182809863281  18.6604032617187 27.3984288623047  18.1884482714844 27.3984288623047  C 17.71649328125 27.3984288623047  17.2445382470703 27.2182809863281  16.8843774511719 26.8579852783203  L 10.735966015625 20.7095739306641  C 10.3564683154297 20.3302111425782  10.1894965185547 19.8282614550781  10.2099126757813 19.3322027685547  C 10.2279904150391 18.8854756396485  10.3948722558594 18.442525961914  10.735966015625 18.1015221582031  C 11.0769698193359 17.7602935302734  11.520009453125 17.5934116455078  11.9667365380859 17.57533390625  C 12.4627952246094 17.5550526611328  12.9647448681641 17.7218895458984  13.3441077001953 18.1015221582031  L 18.1884482275391 22.9455928613281  L 26.7218176074219 14.4123584375  C 27.1011803955078 14.0328607373047  27.6032649951172 13.8658889404297  28.0991887695312 13.8863050976562  C 28.5459158984375 13.9045177490235  28.9890004882812 14.0712646777343  29.3299592919922 14.4123584375  C 29.6710530517578 14.7533622412109  29.8379348925781 15.1965367431641  29.8560126318359 15.643128959961  C 29.8764287890625 16.1391876464844  29.7094569921875 16.6411372900391  29.3299592919922 17.0206349902344  Z " fill-rule="nonzero" fill="#1abc9c" stroke="none" transform="matrix(1 0 0 1 370 236 )" />
  </g>
</svg>