<?xml version="1.0" encoding="utf-8"?><svg version="1.1" xmlns:xlink="http://www.w3.org/1999/xlink" width="12px" height="12px" viewBox="90 290  12 12" xmlns="http://www.w3.org/2000/svg"><path d="M 96 290  C 99.36 290  102 292.64  102 296  C 102 299.36  99.36 302  96 302  C 92.64 302  90 299.36  90 296  C 90 292.64  92.64 290  96 290  Z " fill-rule="nonzero" fill="#ffffff" stroke="none" /><path d="M 96 290.5  C 99.08 290.5  101.5 292.92  101.5 296  C 101.5 299.08  99.08 301.5  96 301.5  C 92.92 301.5  90.5 299.08  90.5 296  C 90.5 292.92  92.92 290.5  96 290.5  Z " stroke-width="1" stroke="#e4e4e4" fill="none" /><path d="M 96 299  C 94.32 299  93 297.68  93 296  C 93 294.32  94.32 293  96 293  C 97.68 293  99 294.32  99 296  C 99 297.68  97.68 299  96 299  " fill-rule="nonzero" fill="#e4e4e4" stroke="none" /></svg>