<?xml version="1.0" encoding="utf-8"?><svg version="1.1" xmlns:xlink="http://www.w3.org/1999/xlink" width="6px" height="8px" xmlns="http://www.w3.org/2000/svg"><g transform="matrix(1 0 0 1 -25 -111 )"><path d="M 2.8014 4.34346666666667  C 2.7745 4.15662222222222  2.7968 3.96417777777778  2.7968 3.70177777777778  C 2.2386 3.70177777777778  1.7577 3.70284444444444  1.2767 3.70142222222222  C 0.957800000000001 3.70035555555556  0.6321 3.65848888888889  0.6244 3.30444444444444  C 0.6165 2.94088888888889  0.9434 2.90675555555555  1.2634 2.90737777777778  C 1.6413 2.90817777777778  2.0193 2.90755555555556  2.5416 2.90755555555556  C 2.0788 2.37724444444444  1.6866 1.94791111111111  1.3238 1.49973333333333  C 1.2177 1.36862222222222  1.1198 1.17173333333333  1.1496 1.02631111111111  C 1.2179 0.693866666666667  1.6869 0.649244444444445  1.9653 0.949600000000001  C 2.387 1.40444444444444  2.785 1.87662222222222  3.2382 2.3928  C 3.6702 1.90124444444445  4.0486 1.4376  4.4719 1.00906666666667  C 4.6011 0.878222222222223  4.8652 0.762755555555557  5.0475 0.782933333333334  C 5.3798 0.819555555555556  5.45 1.156  5.2051 1.44835555555556  C 4.8201 1.908  4.4189 2.3568  3.9392 2.90835555555556  C 4.4679 2.90835555555556  4.8756 2.90977777777778  5.2833 2.90782222222222  C 5.5782 2.9064  5.8448 2.97786666666667  5.8576 3.27546666666667  C 5.8713 3.59582222222222  5.6011 3.69671111111111  5.285 3.69982222222222  C 4.7734 3.70488888888889  4.2616 3.70115555555556  3.7216 3.70115555555556  C 3.7216 4.07271111111111  3.7216 4.39191111111111  3.7216 4.78257777777778  C 4.2242 4.78257777777778  4.7186 4.78506666666667  5.2128 4.78168888888889  C 5.5354 4.77946666666667  5.8623 4.81671111111111  5.8572 5.17395555555556  C 5.8523 5.51813333333333  5.5374 5.57822222222222  5.2091 5.57582222222222  C 4.7281 5.57217777777778  4.2471 5.57484444444445  3.6918 5.57484444444445  C 3.6918 6.17902222222222  3.6891 6.75084444444445  3.693 7.32275555555556  C 3.6951 7.60986666666667  3.6024 7.83342222222222  3.2286 7.82977777777778  C 2.8807 7.8264  2.7945 7.61333333333333  2.7963 7.34435555555556  C 2.8 6.77128888888889  2.7974 6.19813333333333  2.7974 5.57457777777778  C 2.2377 5.57457777777778  1.7423 5.57466666666666  1.247 5.57457777777778  C 0.9186 5.57448888888889  0.613799999999999 5.50915555555555  0.623699999999999 5.1544  C 0.6329 4.82  0.936 4.78142222222222  1.2395 4.78248888888889  C 1.5894 4.78382222222222  1.9408 4.76417777777778  2.2888 4.78684444444444  C 2.6696 4.81155555555555  2.8544 4.70942222222222  2.8014 4.34346666666667  Z " fill-rule="nonzero" fill="#cccccc" stroke="none" transform="matrix(1 0 0 1 25 111 )" /></g></svg>