<?xml version="1.0" encoding="utf-8"?><svg version="1.1" xmlns:xlink="http://www.w3.org/1999/xlink" width="38px" height="32px" xmlns="http://www.w3.org/2000/svg"><g transform="matrix(1 0 0 1 -102 -93 )"><path d="M 37.3135483870968 4.41750841750843  C 37.7711827956989 4.92031425364758  38 5.53086419753086  38 6.24915824915826  C 38 6.96745230078564  37.7711827956989 7.57800224466892  37.3135483870968 8.08080808080807  L 19.5638709677419 27.5824915824916  L 16.2296774193548 31.2457912457913  C 15.7720430107527 31.7485970819304  15.2163440860215 32  14.5625806451613 32  C 13.9088172043011 32  13.3531182795699 31.7485970819304  12.8954838709678 31.2457912457913  L 9.56129032258063 27.5824915824916  L 0.686451612903227 17.8316498316498  C 0.22881720430108 17.3288439955107  0 16.7182940516274  0 16  C 0 15.2817059483726  0.22881720430108 14.6711560044893  0.686451612903227 14.1683501683502  L 4.02064516129032 10.5050505050505  C 4.47827956989248 10.0022446689113  5.03397849462365 9.75084175084174  5.68774193548387 9.75084175084174  C 6.34150537634409 9.75084175084174  6.89720430107526 10.0022446689113  7.35483870967742 10.5050505050505  L 14.5625806451613 18.4511784511785  L 30.6451612903226 0.754208754208747  C 31.1027956989247 0.251402918069573  31.6584946236559 0  32.3122580645161 0  C 32.9660215053764 0  33.5217204301075 0.251402918069573  33.9793548387097 0.754208754208747  L 37.3135483870968 4.41750841750843  Z " fill-rule="nonzero" fill="#00cc99" stroke="none" transform="matrix(1 0 0 1 102 93 )" /></g></svg>