<?xml version="1.0" encoding="utf-8"?>
<svg version="1.1" xmlns:xlink="http://www.w3.org/1999/xlink" width="67px" height="49px" xmlns="http://www.w3.org/2000/svg">
  <g transform="matrix(1 0 0 1 -157 -631 )">
    <path d="M 157 631  L 224 631  L 224 680  L 157 680  L 157 631  " fill-rule="nonzero" fill="#cccccc" stroke="none" />
    <path d="M 160 634  L 221 634  L 221 677  L 160 677  L 160 634  " fill-rule="nonzero" fill="#ffffff" stroke="none" />
    <path d="M 195.515 645.7  C 193.457 645.7  191.84 644.083  191.84 642.025  C 191.84 639.967  193.457 638.35  195.515 638.35  C 197.573 638.35  199.19 639.967  199.19 642.025  C 199.19 644.083  197.573 645.7  195.515 645.7  " fill-rule="nonzero" fill="#cccccc" stroke="none" />
    <path d="M 161 676  L 161 653.45  L 175.75 643.2  L 196.4 658.008955223881  L 208.2 649.35  L 220 658.008955223881  L 220 676  L 161 676  " fill-rule="nonzero" fill="#169bd5" stroke="none" />
  </g>
</svg>