<?xml version="1.0" encoding="utf-8"?><svg version="1.1" xmlns:xlink="http://www.w3.org/1999/xlink" width="100px" height="40px" xmlns="http://www.w3.org/2000/svg"><g transform="matrix(1 0 0 1 0 -47 )"><path d="M 0.5 49  A 1.5 1.5 0 0 1 2 47.5 L 98 47.5  A 1.5 1.5 0 0 1 99.5 49 L 99.5 85  A 1.5 1.5 0 0 1 98 86.5 L 2 86.5  A 1.5 1.5 0 0 1 0.5 85 L 0.5 49  Z " fill-rule="nonzero" fill="#3399ff" stroke="none" /><path d="M 0.5 49  A 1.5 1.5 0 0 1 2 47.5 L 98 47.5  A 1.5 1.5 0 0 1 99.5 49 L 99.5 85  A 1.5 1.5 0 0 1 98 86.5 L 2 86.5  A 1.5 1.5 0 0 1 0.5 85 L 0.5 49  Z " stroke-width="1" stroke="#3399ff" fill="none" /></g></svg>