<?xml version="1.0" encoding="utf-8"?><svg version="1.1" xmlns:xlink="http://www.w3.org/1999/xlink" width="120px" height="40px" xmlns="http://www.w3.org/2000/svg"><g transform="matrix(1 0 0 1 -110 0 )"><path d="M 110.5 2  A 1.5 1.5 0 0 1 112 0.5 L 228 0.5  A 1.5 1.5 0 0 1 229.5 2 L 229.5 38  A 1.5 1.5 0 0 1 228 39.5 L 112 39.5  A 1.5 1.5 0 0 1 110.5 38 L 110.5 2  Z " fill-rule="nonzero" fill="#3399ff" stroke="none" /><path d="M 110.5 2  A 1.5 1.5 0 0 1 112 0.5 L 228 0.5  A 1.5 1.5 0 0 1 229.5 2 L 229.5 38  A 1.5 1.5 0 0 1 228 39.5 L 112 39.5  A 1.5 1.5 0 0 1 110.5 38 L 110.5 2  Z " stroke-width="1" stroke="#3399ff" fill="none" /></g></svg>