<?xml version="1.0" encoding="utf-8"?><svg version="1.1" xmlns:xlink="http://www.w3.org/1999/xlink" width="100px" height="41px" xmlns="http://www.w3.org/2000/svg"><g transform="matrix(1 0 0 1 0 -383 )"><path d="M 0.5 385  A 1.5 1.5 0 0 1 2 383.5 L 98 383.5  A 1.5 1.5 0 0 1 99.5 385 L 99.5 422  A 1.5 1.5 0 0 1 98 423.5 L 2 423.5  A 1.5 1.5 0 0 1 0.5 422 L 0.5 385  Z " fill-rule="nonzero" fill="#3399ff" stroke="none" /><path d="M 0.5 385  A 1.5 1.5 0 0 1 2 383.5 L 98 383.5  A 1.5 1.5 0 0 1 99.5 385 L 99.5 422  A 1.5 1.5 0 0 1 98 423.5 L 2 423.5  A 1.5 1.5 0 0 1 0.5 422 L 0.5 385  Z " stroke-width="1" stroke="#3399ff" fill="none" /></g></svg>