<?xml version="1.0" encoding="utf-8"?><svg version="1.1" xmlns:xlink="http://www.w3.org/1999/xlink" width="346px" height="30px" xmlns="http://www.w3.org/2000/svg"><g transform="matrix(1 0 0 1 -249 -86 )"><path d="M 249.5 88  A 1.5 1.5 0 0 1 251 86.5 L 593 86.5  A 1.5 1.5 0 0 1 594.5 88 L 594.5 114  A 1.5 1.5 0 0 1 593 115.5 L 251 115.5  A 1.5 1.5 0 0 1 249.5 114 L 249.5 88  Z " fill-rule="nonzero" fill="#3399ff" stroke="none" /><path d="M 249.5 88  A 1.5 1.5 0 0 1 251 86.5 L 593 86.5  A 1.5 1.5 0 0 1 594.5 88 L 594.5 114  A 1.5 1.5 0 0 1 593 115.5 L 251 115.5  A 1.5 1.5 0 0 1 249.5 114 L 249.5 88  Z " stroke-width="1" stroke="#3399ff" fill="none" /></g></svg>