<?xml version="1.0" encoding="utf-8"?>
<svg version="1.1" xmlns:xlink="http://www.w3.org/1999/xlink" width="100px" height="75px" xmlns="http://www.w3.org/2000/svg">
  <defs>
    <mask fill="white" id="clip231">
      <path d="M 100 0  L 0 0  L 0 62.0228166477298  C 0 62.0228166477298  11.8811881188119 76.447601849091  27.970297029703 74.881052630872  C 44.059405940594 73.3145034126529  52.7227722772277 55.4558423249554  71.5346534653465 54.2026029503801  C 90.3465346534654 52.9493635758049  100 54.2026029503801  100 54.2026029503801  L 100 0  Z " fill-rule="evenodd" />
    </mask>
  </defs>
  <g transform="matrix(1 0 0 1 -65 -94 )">
    <path d="M 100 0  L 0 0  L 0 62.0228166477298  C 0 62.0228166477298  11.8811881188119 76.447601849091  27.970297029703 74.881052630872  C 44.059405940594 73.3145034126529  52.7227722772277 55.4558423249554  71.5346534653465 54.2026029503801  C 90.3465346534654 52.9493635758049  100 54.2026029503801  100 54.2026029503801  L 100 0  Z " fill-rule="nonzero" fill="#ffffff" stroke="none" transform="matrix(1 0 0 1 65 94 )" />
    <path d="M 100 0  L 0 0  L 0 62.0228166477298  C 0 62.0228166477298  11.8811881188119 76.447601849091  27.970297029703 74.881052630872  C 44.059405940594 73.3145034126529  52.7227722772277 55.4558423249554  71.5346534653465 54.2026029503801  C 90.3465346534654 52.9493635758049  100 54.2026029503801  100 54.2026029503801  L 100 0  Z " stroke-width="2" stroke="#797979" fill="none" transform="matrix(1 0 0 1 65 94 )" mask="url(#clip231)" />
  </g>
</svg>