<?xml version="1.0" encoding="utf-8"?>
<svg version="1.1" xmlns:xlink="http://www.w3.org/1999/xlink" width="100px" height="46px" xmlns="http://www.w3.org/2000/svg">
  <defs>
    <mask fill="white" id="clip236">
      <path d="M 100 0  L 0 0  L 0 38.0406608772742  C 0 38.0406608772742  11.8811881188119 46.8878624674425  27.970297029703 45.9270456136015  C 44.059405940594 44.9662287597605  52.7227722772277 34.0129166259727  71.5346534653465 33.2442631428998  C 90.3465346534654 32.475609659827  100 33.2442631428998  100 33.2442631428998  L 100 0  Z " fill-rule="evenodd" />
    </mask>
  </defs>
  <g transform="matrix(1 0 0 1 -530 -494 )">
    <path d="M 100 0  L 0 0  L 0 38.0406608772742  C 0 38.0406608772742  11.8811881188119 46.8878624674425  27.970297029703 45.9270456136015  C 44.059405940594 44.9662287597605  52.7227722772277 34.0129166259727  71.5346534653465 33.2442631428998  C 90.3465346534654 32.475609659827  100 33.2442631428998  100 33.2442631428998  L 100 0  Z " fill-rule="nonzero" fill="#ffffff" stroke="none" transform="matrix(1 0 0 1 530 494 )" />
    <path d="M 100 0  L 0 0  L 0 38.0406608772742  C 0 38.0406608772742  11.8811881188119 46.8878624674425  27.970297029703 45.9270456136015  C 44.059405940594 44.9662287597605  52.7227722772277 34.0129166259727  71.5346534653465 33.2442631428998  C 90.3465346534654 32.475609659827  100 33.2442631428998  100 33.2442631428998  L 100 0  Z " stroke-width="2" stroke="#797979" fill="none" transform="matrix(1 0 0 1 530 494 )" mask="url(#clip236)" />
  </g>
</svg>