<?xml version="1.0" encoding="utf-8"?>
<svg version="1.1" xmlns:xlink="http://www.w3.org/1999/xlink" width="100px" height="50px" xmlns="http://www.w3.org/2000/svg">
  <defs>
    <mask fill="white" id="clip235">
      <path d="M 100 0  L 0 0  L 0 41.3485444318198  C 0 41.3485444318198  11.8811881188119 50.965067899394  27.970297029703 49.9207017539147  C 44.059405940594 48.8763356084353  52.7227722772277 36.9705615499703  71.5346534653465 36.1350686335867  C 90.3465346534654 35.2995757172032  100 36.1350686335867  100 36.1350686335867  L 100 0  Z " fill-rule="evenodd" />
    </mask>
  </defs>
  <g transform="matrix(1 0 0 1 -531 -425 )">
    <path d="M 100 0  L 0 0  L 0 41.3485444318198  C 0 41.3485444318198  11.8811881188119 50.965067899394  27.970297029703 49.9207017539147  C 44.059405940594 48.8763356084353  52.7227722772277 36.9705615499703  71.5346534653465 36.1350686335867  C 90.3465346534654 35.2995757172032  100 36.1350686335867  100 36.1350686335867  L 100 0  Z " fill-rule="nonzero" fill="#ffffff" stroke="none" transform="matrix(1 0 0 1 531 425 )" />
    <path d="M 100 0  L 0 0  L 0 41.3485444318198  C 0 41.3485444318198  11.8811881188119 50.965067899394  27.970297029703 49.9207017539147  C 44.059405940594 48.8763356084353  52.7227722772277 36.9705615499703  71.5346534653465 36.1350686335867  C 90.3465346534654 35.2995757172032  100 36.1350686335867  100 36.1350686335867  L 100 0  Z " stroke-width="2" stroke="#797979" fill="none" transform="matrix(1 0 0 1 531 425 )" mask="url(#clip235)" />
  </g>
</svg>