<?xml version="1.0" encoding="utf-8"?>
<svg version="1.1" xmlns:xlink="http://www.w3.org/1999/xlink" width="121px" height="60px" xmlns="http://www.w3.org/2000/svg">
  <defs>
    <mask fill="white" id="clip237">
      <path d="M 121 0  L 0 0  L 0 49.6182533181838  C 0 49.6182533181838  14.3762376237624 61.1580814792728  33.8440594059407 59.9048421046976  C 53.3118811881188 58.6516027301223  63.7945544554455 44.3646738599643  86.5569306930693 43.3620823603041  C 109.319306930693 42.3594908606439  121 43.3620823603041  121 43.3620823603041  L 121 0  Z " fill-rule="evenodd" />
    </mask>
  </defs>
  <g transform="matrix(1 0 0 1 -530 -630 )">
    <path d="M 121 0  L 0 0  L 0 49.6182533181838  C 0 49.6182533181838  14.3762376237624 61.1580814792728  33.8440594059407 59.9048421046976  C 53.3118811881188 58.6516027301223  63.7945544554455 44.3646738599643  86.5569306930693 43.3620823603041  C 109.319306930693 42.3594908606439  121 43.3620823603041  121 43.3620823603041  L 121 0  Z " fill-rule="nonzero" fill="#ffffff" stroke="none" transform="matrix(1 0 0 1 530 630 )" />
    <path d="M 121 0  L 0 0  L 0 49.6182533181838  C 0 49.6182533181838  14.3762376237624 61.1580814792728  33.8440594059407 59.9048421046976  C 53.3118811881188 58.6516027301223  63.7945544554455 44.3646738599643  86.5569306930693 43.3620823603041  C 109.319306930693 42.3594908606439  121 43.3620823603041  121 43.3620823603041  L 121 0  Z " stroke-width="2" stroke="#797979" fill="none" transform="matrix(1 0 0 1 530 630 )" mask="url(#clip237)" />
  </g>
</svg>