<?xml version="1.0" encoding="utf-8"?>
<svg version="1.1" xmlns:xlink="http://www.w3.org/1999/xlink" width="100px" height="38px" xmlns="http://www.w3.org/2000/svg">
  <defs>
    <mask fill="white" id="clip234">
      <path d="M 100 0  L 0 0  L 0 31.4248937681831  C 0 31.4248937681831  11.8811881188119 38.7334516035395  27.970297029703 37.9397333329751  C 44.059405940594 37.1460150624108  52.7227722772277 28.0976267779774  71.5346534653465 27.4626521615259  C 90.3465346534654 26.8276775450745  100 27.4626521615259  100 27.4626521615259  L 100 0  Z " fill-rule="evenodd" />
    </mask>
  </defs>
  <g transform="matrix(1 0 0 1 -530 -376 )">
    <path d="M 100 0  L 0 0  L 0 31.4248937681831  C 0 31.4248937681831  11.8811881188119 38.7334516035395  27.970297029703 37.9397333329751  C 44.059405940594 37.1460150624108  52.7227722772277 28.0976267779774  71.5346534653465 27.4626521615259  C 90.3465346534654 26.8276775450745  100 27.4626521615259  100 27.4626521615259  L 100 0  Z " fill-rule="nonzero" fill="#ffffff" stroke="none" transform="matrix(1 0 0 1 530 376 )" />
    <path d="M 100 0  L 0 0  L 0 31.4248937681831  C 0 31.4248937681831  11.8811881188119 38.7334516035395  27.970297029703 37.9397333329751  C 44.059405940594 37.1460150624108  52.7227722772277 28.0976267779774  71.5346534653465 27.4626521615259  C 90.3465346534654 26.8276775450745  100 27.4626521615259  100 27.4626521615259  L 100 0  Z " stroke-width="2" stroke="#797979" fill="none" transform="matrix(1 0 0 1 530 376 )" mask="url(#clip234)" />
  </g>
</svg>