<?xml version="1.0" encoding="utf-8"?>
<svg version="1.1" xmlns:xlink="http://www.w3.org/1999/xlink" width="100px" height="42px" xmlns="http://www.w3.org/2000/svg">
  <defs>
    <mask fill="white" id="clip233">
      <path d="M 100 0  L 0 0  L 0 34.7327773227287  C 0 34.7327773227287  11.8811881188119 42.810657035491  27.970297029703 41.9333894732883  C 44.059405940594 41.0561219110856  52.7227722772277 31.055271701975  71.5346534653465 30.3534576522129  C 90.3465346534654 29.6516436024507  100 30.3534576522129  100 30.3534576522129  L 100 0  Z " fill-rule="evenodd" />
    </mask>
  </defs>
  <g transform="matrix(1 0 0 1 -530 -218 )">
    <path d="M 100 0  L 0 0  L 0 34.7327773227287  C 0 34.7327773227287  11.8811881188119 42.810657035491  27.970297029703 41.9333894732883  C 44.059405940594 41.0561219110856  52.7227722772277 31.055271701975  71.5346534653465 30.3534576522129  C 90.3465346534654 29.6516436024507  100 30.3534576522129  100 30.3534576522129  L 100 0  Z " fill-rule="nonzero" fill="#ffffff" stroke="none" transform="matrix(1 0 0 1 530 218 )" />
    <path d="M 100 0  L 0 0  L 0 34.7327773227287  C 0 34.7327773227287  11.8811881188119 42.810657035491  27.970297029703 41.9333894732883  C 44.059405940594 41.0561219110856  52.7227722772277 31.055271701975  71.5346534653465 30.3534576522129  C 90.3465346534654 29.6516436024507  100 30.3534576522129  100 30.3534576522129  L 100 0  Z " stroke-width="2" stroke="#797979" fill="none" transform="matrix(1 0 0 1 530 218 )" mask="url(#clip233)" />
  </g>
</svg>