<?xml version="1.0" encoding="utf-8"?>
<svg version="1.1" xmlns:xlink="http://www.w3.org/1999/xlink" width="100px" height="50px" xmlns="http://www.w3.org/2000/svg">
  <defs>
    <mask fill="white" id="clip232">
      <path d="M 100 0  L 0 0  L 0 41.3485444318198  C 0 41.3485444318198  11.8811881188119 50.965067899394  27.9702970297031 49.9207017539147  C 44.0594059405941 48.8763356084353  52.7227722772277 36.9705615499703  71.5346534653465 36.1350686335867  C 74.3509883235365 36.009986628196  76.9620536527859 35.9223567849141  79.3661883185087 35.8637686346916  C 93.0206184077172 35.5310136469303  100 36.1350686335867  100 36.1350686335867  L 100 0  Z " fill-rule="evenodd" />
    </mask>
  </defs>
  <g transform="matrix(1 0 0 1 -530 -65 )">
    <path d="M 100 0  L 0 0  L 0 41.3485444318198  C 0 41.3485444318198  11.8811881188119 50.965067899394  27.9702970297031 49.9207017539147  C 44.0594059405941 48.8763356084353  52.7227722772277 36.9705615499703  71.5346534653465 36.1350686335867  C 74.3509883235365 36.009986628196  76.9620536527859 35.9223567849141  79.3661883185087 35.8637686346916  C 93.0206184077172 35.5310136469303  100 36.1350686335867  100 36.1350686335867  L 100 0  Z " fill-rule="nonzero" fill="#ffffff" stroke="none" transform="matrix(1 0 0 1 530 65 )" />
    <path d="M 100 0  L 0 0  L 0 41.3485444318198  C 0 41.3485444318198  11.8811881188119 50.965067899394  27.9702970297031 49.9207017539147  C 44.0594059405941 48.8763356084353  52.7227722772277 36.9705615499703  71.5346534653465 36.1350686335867  C 74.3509883235365 36.009986628196  76.9620536527859 35.9223567849141  79.3661883185087 35.8637686346916  C 93.0206184077172 35.5310136469303  100 36.1350686335867  100 36.1350686335867  L 100 0  Z " stroke-width="2" stroke="#797979" fill="none" transform="matrix(1 0 0 1 530 65 )" mask="url(#clip232)" />
  </g>
</svg>