<?xml version="1.0" encoding="utf-8"?>
<svg version="1.1" xmlns:xlink="http://www.w3.org/1999/xlink" width="116px" height="90px" xmlns="http://www.w3.org/2000/svg">
  <defs>
    <mask fill="white" id="clip240">
      <path d="M 116 0  L 0 0  L 0 74.4273799772757  C 0 74.4273799772757  13.7821782178218 91.7371222189092  32.4455445544555 89.8572631570464  C 51.1089108910891 87.9774040951835  61.1584158415841 66.5470107899465  82.980198019802 65.0431235404562  C 104.80198019802 63.5392362909658  116 65.0431235404562  116 65.0431235404562  L 116 0  Z " fill-rule="evenodd" />
    </mask>
  </defs>
  <g transform="matrix(1 0 0 1 -836 -709 )">
    <path d="M 116 0  L 0 0  L 0 74.4273799772757  C 0 74.4273799772757  13.7821782178218 91.7371222189092  32.4455445544555 89.8572631570464  C 51.1089108910891 87.9774040951835  61.1584158415841 66.5470107899465  82.980198019802 65.0431235404562  C 104.80198019802 63.5392362909658  116 65.0431235404562  116 65.0431235404562  L 116 0  Z " fill-rule="nonzero" fill="#ffffff" stroke="none" transform="matrix(1 0 0 1 836 709 )" />
    <path d="M 116 0  L 0 0  L 0 74.4273799772757  C 0 74.4273799772757  13.7821782178218 91.7371222189092  32.4455445544555 89.8572631570464  C 51.1089108910891 87.9774040951835  61.1584158415841 66.5470107899465  82.980198019802 65.0431235404562  C 104.80198019802 63.5392362909658  116 65.0431235404562  116 65.0431235404562  L 116 0  Z " stroke-width="2" stroke="#797979" fill="none" transform="matrix(1 0 0 1 836 709 )" mask="url(#clip240)" />
  </g>
</svg>