<?xml version="1.0" encoding="utf-8"?>
<svg version="1.1" xmlns:xlink="http://www.w3.org/1999/xlink" width="94px" height="60px" xmlns="http://www.w3.org/2000/svg">
  <defs>
    <mask fill="white" id="clip239">
      <path d="M 94 0  L 0 0  L 0 49.6182533181838  C 0 49.6182533181838  11.1683168316832 61.1580814792728  26.2920792079209 59.9048421046976  C 41.4158415841584 58.6516027301223  49.559405940594 44.3646738599643  67.2425742574257 43.3620823603041  C 84.9257425742575 42.3594908606439  94 43.3620823603041  94 43.3620823603041  L 94 0  Z " fill-rule="evenodd" />
    </mask>
  </defs>
  <g transform="matrix(1 0 0 1 -698 -709 )">
    <path d="M 94 0  L 0 0  L 0 49.6182533181838  C 0 49.6182533181838  11.1683168316832 61.1580814792728  26.2920792079209 59.9048421046976  C 41.4158415841584 58.6516027301223  49.559405940594 44.3646738599643  67.2425742574257 43.3620823603041  C 84.9257425742575 42.3594908606439  94 43.3620823603041  94 43.3620823603041  L 94 0  Z " fill-rule="nonzero" fill="#ffffff" stroke="none" transform="matrix(1 0 0 1 698 709 )" />
    <path d="M 94 0  L 0 0  L 0 49.6182533181838  C 0 49.6182533181838  11.1683168316832 61.1580814792728  26.2920792079209 59.9048421046976  C 41.4158415841584 58.6516027301223  49.559405940594 44.3646738599643  67.2425742574257 43.3620823603041  C 84.9257425742575 42.3594908606439  94 43.3620823603041  94 43.3620823603041  L 94 0  Z " stroke-width="2" stroke="#797979" fill="none" transform="matrix(1 0 0 1 698 709 )" mask="url(#clip239)" />
  </g>
</svg>