<?xml version="1.0" encoding="utf-8"?>
<svg version="1.1" xmlns:xlink="http://www.w3.org/1999/xlink" width="150px" height="101px" xmlns="http://www.w3.org/2000/svg">
  <defs>
    <mask fill="white" id="clip241">
      <path d="M 150 0  L 0 0  L 0 83.5240597522761  C 0 83.5240597522761  17.8217821782179 102.949437156776  41.9554455445545 100.839817542908  C 66.0891089108911 98.7301979290393  79.0841584158416 74.68053433094  107.30198019802 72.9928386398452  C 135.519801980198 71.3051429487505  150 72.9928386398452  150 72.9928386398452  L 150 0  Z " fill-rule="evenodd" />
    </mask>
  </defs>
  <g transform="matrix(1 0 0 1 -1193 -802 )">
    <path d="M 150 0  L 0 0  L 0 83.5240597522761  C 0 83.5240597522761  17.8217821782179 102.949437156776  41.9554455445545 100.839817542908  C 66.0891089108911 98.7301979290393  79.0841584158416 74.68053433094  107.30198019802 72.9928386398452  C 135.519801980198 71.3051429487505  150 72.9928386398452  150 72.9928386398452  L 150 0  Z " fill-rule="nonzero" fill="#ffffff" stroke="none" transform="matrix(1 0 0 1 1193 802 )" />
    <path d="M 150 0  L 0 0  L 0 83.5240597522761  C 0 83.5240597522761  17.8217821782179 102.949437156776  41.9554455445545 100.839817542908  C 66.0891089108911 98.7301979290393  79.0841584158416 74.68053433094  107.30198019802 72.9928386398452  C 135.519801980198 71.3051429487505  150 72.9928386398452  150 72.9928386398452  L 150 0  Z " stroke-width="2" stroke="#797979" fill="none" transform="matrix(1 0 0 1 1193 802 )" mask="url(#clip241)" />
  </g>
</svg>