<?xml version="1.0" encoding="utf-8"?>
<svg version="1.1" xmlns:xlink="http://www.w3.org/1999/xlink" width="206px" height="108px" xmlns="http://www.w3.org/2000/svg">
  <defs>
    <mask fill="white" id="clip242">
      <path d="M 206 0  L 0 0  L 0 89.3128559727309  C 0 89.3128559727309  24.4752475247525 110.084546662691  57.6188118811883 107.828715788456  C 90.7623762376237 105.57288491422  108.608910891089 79.8564129479358  147.361386138614 78.0517482485474  C 186.113861386139 76.247083549159  206 78.0517482485474  206 78.0517482485474  L 206 0  Z " fill-rule="evenodd" />
    </mask>
  </defs>
  <g transform="matrix(1 0 0 1 -1134 -931 )">
    <path d="M 206 0  L 0 0  L 0 89.3128559727309  C 0 89.3128559727309  24.4752475247525 110.084546662691  57.6188118811883 107.828715788456  C 90.7623762376237 105.57288491422  108.608910891089 79.8564129479358  147.361386138614 78.0517482485474  C 186.113861386139 76.247083549159  206 78.0517482485474  206 78.0517482485474  L 206 0  Z " fill-rule="nonzero" fill="#ffffff" stroke="none" transform="matrix(1 0 0 1 1134 931 )" />
    <path d="M 206 0  L 0 0  L 0 89.3128559727309  C 0 89.3128559727309  24.4752475247525 110.084546662691  57.6188118811883 107.828715788456  C 90.7623762376237 105.57288491422  108.608910891089 79.8564129479358  147.361386138614 78.0517482485474  C 186.113861386139 76.247083549159  206 78.0517482485474  206 78.0517482485474  L 206 0  Z " stroke-width="2" stroke="#797979" fill="none" transform="matrix(1 0 0 1 1134 931 )" mask="url(#clip242)" />
  </g>
</svg>