<?xml version="1.0" encoding="utf-8"?>
<svg version="1.1" xmlns:xlink="http://www.w3.org/1999/xlink" width="100px" height="60px" xmlns="http://www.w3.org/2000/svg">
  <defs>
    <mask fill="white" id="clip243">
      <path d="M 100 0  L 0 0  L 0 49.6182533181838  C 0 49.6182533181838  11.8811881188119 61.1580814792728  27.9702970297031 59.9048421046976  C 44.0594059405941 58.6516027301224  52.7227722772277 44.3646738599643  71.5346534653465 43.3620823603041  C 74.3509883235365 43.2119839538352  76.9620536527859 43.1068281418969  79.3661883185087 43.0365223616299  C 93.0206184077172 42.6372163763164  100 43.3620823603041  100 43.3620823603041  L 100 0  Z " fill-rule="evenodd" />
    </mask>
  </defs>
  <g transform="matrix(1 0 0 1 -1632 -371 )">
    <path d="M 100 0  L 0 0  L 0 49.6182533181838  C 0 49.6182533181838  11.8811881188119 61.1580814792728  27.9702970297031 59.9048421046976  C 44.0594059405941 58.6516027301224  52.7227722772277 44.3646738599643  71.5346534653465 43.3620823603041  C 74.3509883235365 43.2119839538352  76.9620536527859 43.1068281418969  79.3661883185087 43.0365223616299  C 93.0206184077172 42.6372163763164  100 43.3620823603041  100 43.3620823603041  L 100 0  Z " fill-rule="nonzero" fill="#ffffff" stroke="none" transform="matrix(1 0 0 1 1632 371 )" />
    <path d="M 100 0  L 0 0  L 0 49.6182533181838  C 0 49.6182533181838  11.8811881188119 61.1580814792728  27.9702970297031 59.9048421046976  C 44.0594059405941 58.6516027301224  52.7227722772277 44.3646738599643  71.5346534653465 43.3620823603041  C 74.3509883235365 43.2119839538352  76.9620536527859 43.1068281418969  79.3661883185087 43.0365223616299  C 93.0206184077172 42.6372163763164  100 43.3620823603041  100 43.3620823603041  L 100 0  Z " stroke-width="2" stroke="#797979" fill="none" transform="matrix(1 0 0 1 1632 371 )" mask="url(#clip243)" />
  </g>
</svg>