<?xml version="1.0" encoding="utf-8"?>
<svg version="1.1" xmlns:xlink="http://www.w3.org/1999/xlink" width="156px" height="132px" xmlns="http://www.w3.org/2000/svg">
  <defs>
    <mask fill="white" id="clip245">
      <path d="M 155 0  L 0 0  L 0 131  L 155 131  L 155 0  Z " fill-rule="evenodd" />
    </mask>
  </defs>
  <g transform="matrix(1 0 0 1 -2116 -389 )">
    <path d="M 155 0  L 0 0  L 0 131  L 155 131  L 155 0  Z " fill-rule="nonzero" fill="#ffffff" stroke="none" transform="matrix(1 0 0 1 2116 389 )" />
    <path d="M 155 0  L 0 0  L 0 131  L 155 131  L 155 0  Z " stroke-width="2" stroke="#797979" fill="none" transform="matrix(1 0 0 1 2116 389 )" mask="url(#clip245)" />
    <path d="M 15.5 0  L 15.5 131  M 138.5 0  L 138.5 131  " stroke-width="1" stroke="#797979" fill="none" transform="matrix(1 0 0 1 2116 389 )" />
  </g>
</svg>