<?xml version="1.0" encoding="utf-8"?>
<svg version="1.1" xmlns:xlink="http://www.w3.org/1999/xlink" width="155px" height="117px" xmlns="http://www.w3.org/2000/svg">
  <defs>
    <mask fill="white" id="clip246">
      <path d="M 155 0  L 0 0  L 0 96.7555939704584  C 0 96.7555939704584  18.4158415841584 119.258258884582  43.3539603960397 116.81444210416  C 68.2920792079208 114.370625323739  81.720297029703 86.5111140269305  110.878712871287 84.556060602593  C 115.244031901482 84.2633687099787  119.291183161818 84.058314876699  123.017591893688 83.9212186051783  C 144.181958531962 83.1425719338169  155 84.556060602593  155 84.556060602593  L 155 0  Z " fill-rule="evenodd" />
    </mask>
  </defs>
  <g transform="matrix(1 0 0 1 -2116 -554 )">
    <path d="M 155 0  L 0 0  L 0 96.7555939704584  C 0 96.7555939704584  18.4158415841584 119.258258884582  43.3539603960397 116.81444210416  C 68.2920792079208 114.370625323739  81.720297029703 86.5111140269305  110.878712871287 84.556060602593  C 115.244031901482 84.2633687099787  119.291183161818 84.058314876699  123.017591893688 83.9212186051783  C 144.181958531962 83.1425719338169  155 84.556060602593  155 84.556060602593  L 155 0  Z " fill-rule="nonzero" fill="#ffffff" stroke="none" transform="matrix(1 0 0 1 2116 554 )" />
    <path d="M 155 0  L 0 0  L 0 96.7555939704584  C 0 96.7555939704584  18.4158415841584 119.258258884582  43.3539603960397 116.81444210416  C 68.2920792079208 114.370625323739  81.720297029703 86.5111140269305  110.878712871287 84.556060602593  C 115.244031901482 84.2633687099787  119.291183161818 84.058314876699  123.017591893688 83.9212186051783  C 144.181958531962 83.1425719338169  155 84.556060602593  155 84.556060602593  L 155 0  Z " stroke-width="2" stroke="#797979" fill="none" transform="matrix(1 0 0 1 2116 554 )" mask="url(#clip246)" />
  </g>
</svg>