<?xml version="1.0" encoding="utf-8"?>
<svg version="1.1" xmlns:xlink="http://www.w3.org/1999/xlink" width="16px" height="16px" viewBox="109 142.5  16 16" xmlns="http://www.w3.org/2000/svg">
  <path d="M 117 142.5  C 121.48 142.5  125 146.02  125 150.5  C 125 154.98  121.48 158.5  117 158.5  C 112.52 158.5  109 154.98  109 150.5  C 109 146.02  112.52 142.5  117 142.5  Z " fill-rule="nonzero" fill="#ffffff" stroke="none" />
  <path d="M 117 143  C 121.2 143  124.5 146.3  124.5 150.5  C 124.5 154.7  121.2 158  117 158  C 112.8 158  109.5 154.7  109.5 150.5  C 109.5 146.3  112.8 143  117 143  Z " stroke-width="1" stroke="#e4e4e4" fill="none" />
  <path d="M 117 154.5  C 114.76 154.5  113 152.74  113 150.5  C 113 148.26  114.76 146.5  117 146.5  C 119.24 146.5  121 148.26  121 150.5  C 121 152.74  119.24 154.5  117 154.5  " fill-rule="nonzero" fill="#e4e4e4" stroke="none" />
</svg>