<?xml version="1.0" encoding="utf-8"?>
<svg version="1.1" xmlns:xlink="http://www.w3.org/1999/xlink" width="12px" height="12px" viewBox="160 174  12 12" xmlns="http://www.w3.org/2000/svg">
  <path d="M 166 174  C 169.36 174  172 176.64  172 180  C 172 183.36  169.36 186  166 186  C 162.64 186  160 183.36  160 180  C 160 176.64  162.64 174  166 174  Z " fill-rule="nonzero" fill="#ffffff" stroke="none" />
  <path d="M 166 174.5  C 169.08 174.5  171.5 176.92  171.5 180  C 171.5 183.08  169.08 185.5  166 185.5  C 162.92 185.5  160.5 183.08  160.5 180  C 160.5 176.92  162.92 174.5  166 174.5  Z " stroke-width="1" stroke="#e4e4e4" fill="none" />
  <path d="M 166 183  C 164.32 183  163 181.68  163 180  C 163 178.32  164.32 177  166 177  C 167.68 177  169 178.32  169 180  C 169 181.68  167.68 183  166 183  " fill-rule="nonzero" fill="#e4e4e4" stroke="none" />
</svg>