<?xml version="1.0" encoding="utf-8"?>
<svg version="1.1" xmlns:xlink="http://www.w3.org/1999/xlink" width="47px" height="47px" xmlns="http://www.w3.org/2000/svg">
  <g transform="matrix(1 0 0 1 -775 0 )">
    <path d="M 798.5 1  C 811.1 1  821 10.9  821 23.5  C 821 36.1  811.1 46  798.5 46  C 785.9 46  776 36.1  776 23.5  C 776 10.9  785.9 1  798.5 1  Z " fill-rule="nonzero" fill="#1abc9c" stroke="none" />
    <path d="M 798.5 1  C 811.1 1  821 10.9  821 23.5  C 821 36.1  811.1 46  798.5 46  C 785.9 46  776 36.1  776 23.5  C 776 10.9  785.9 1  798.5 1  Z " stroke-width="2" stroke="#e4e4e4" fill="none" />
  </g>
</svg>