<?xml version="1.0" encoding="utf-8"?>
<svg version="1.1" xmlns:xlink="http://www.w3.org/1999/xlink" width="47px" height="47px" xmlns="http://www.w3.org/2000/svg">
  <g transform="matrix(1 0 0 1 -975 0 )">
    <path d="M 998.5 1  C 1011.1 1  1021 10.9  1021 23.5  C 1021 36.1  1011.1 46  998.5 46  C 985.9 46  976 36.1  976 23.5  C 976 10.9  985.9 1  998.5 1  Z " fill-rule="nonzero" fill="#ffffff" stroke="none" />
    <path d="M 998.5 1  C 1011.1 1  1021 10.9  1021 23.5  C 1021 36.1  1011.1 46  998.5 46  C 985.9 46  976 36.1  976 23.5  C 976 10.9  985.9 1  998.5 1  Z " stroke-width="2" stroke="#e4e4e4" fill="none" />
  </g>
</svg>