<?xml version="1.0" encoding="utf-8"?>
<svg version="1.1" xmlns:xlink="http://www.w3.org/1999/xlink" width="39px" height="40px" xmlns="http://www.w3.org/2000/svg">
  <g transform="matrix(1 0 0 1 -790 -472 )">
    <path d="M 790.5 474  A 1.5 1.5 0 0 1 792 472.5 L 827 472.5  A 1.5 1.5 0 0 1 828.5 474 L 828.5 510  A 1.5 1.5 0 0 1 827 511.5 L 792 511.5  A 1.5 1.5 0 0 1 790.5 510 L 790.5 474  Z " fill-rule="nonzero" fill="#3399ff" stroke="none" />
    <path d="M 790.5 474  A 1.5 1.5 0 0 1 792 472.5 L 827 472.5  A 1.5 1.5 0 0 1 828.5 474 L 828.5 510  A 1.5 1.5 0 0 1 827 511.5 L 792 511.5  A 1.5 1.5 0 0 1 790.5 510 L 790.5 474  Z " stroke-width="1" stroke="#3399ff" fill="none" />
  </g>
</svg>