<?xml version="1.0" encoding="utf-8"?>
<svg version="1.1" xmlns:xlink="http://www.w3.org/1999/xlink" width="110px" height="70px" xmlns="http://www.w3.org/2000/svg">
  <g transform="matrix(1 0 0 1 -631 -978 )">
    <path d="M 641.5 1047.5  L 740.5 1047.5  L 740.5 988.5  L 735.5 988.5  L 735.5 983.5  L 730.5 983.5  L 730.5 978.5  L 631.5 978.5  L 631.5 1037.5  L 636.5 1037.5  L 636.5 1042.5  L 641.5 1042.5  L 641.5 1047.5  Z " fill-rule="nonzero" fill="#ffffff" stroke="none" />
    <path d="M 641.5 1047.5  L 740.5 1047.5  L 740.5 988.5  L 735.5 988.5  L 735.5 983.5  L 730.5 983.5  L 730.5 978.5  L 631.5 978.5  L 631.5 1037.5  L 636.5 1037.5  L 636.5 1042.5  L 641.5 1042.5  L 641.5 1047.5  Z " stroke-width="1" stroke="#797979" fill="none" />
    <path d="M 735.5 989  L 735.5 1042.5  L 642 1042.5  M 730.5 984  L 730.5 1037.5  L 637 1037.5  " stroke-width="1" stroke="#797979" fill="none" />
  </g>
</svg>