<?xml version="1.0" encoding="utf-8"?>
<svg version="1.1" xmlns:xlink="http://www.w3.org/1999/xlink" width="497px" height="90px" xmlns="http://www.w3.org/2000/svg">
  <g transform="matrix(1 0 0 1 -157 -81 )">
    <path d="M 157 81  L 654 81  L 654 171  L 157 171  L 157 81  " fill-rule="nonzero" fill="#cccccc" stroke="none" />
    <path d="M 163 87  L 648 87  L 648 165  L 163 165  L 163 87  " fill-rule="nonzero" fill="#ffffff" stroke="none" />
    <path d="M 422.19 108  C 418.41 108  415.44 105.03  415.44 101.25  C 415.44 97.47  418.41 94.5  422.19 94.5  C 425.97 94.5  428.94 97.47  428.94 101.25  C 428.94 105.03  425.97 108  422.19 108  " fill-rule="nonzero" fill="#cccccc" stroke="none" />
    <path d="M 166 163  L 166 122.85  L 286 104.6  L 454 155.068410462777  L 550 115.55  L 646 155.068410462777  L 646 163  L 166 163  " fill-rule="nonzero" fill="#169bd5" stroke="none" />
  </g>
</svg>