<?xml version="1.0" encoding="utf-8"?>
<svg version="1.1" xmlns:xlink="http://www.w3.org/1999/xlink" width="29px" height="51px" xmlns="http://www.w3.org/2000/svg">
  <g transform="matrix(1 0 0 1 3 0 )">
    <path d="M 11.5 0  C 19.62 0  26 11.22  26 25.5  C 26 39.78  19.62 51  11.5 51  C 3.38 51  -3 39.78  -3 25.5  C -3 11.22  3.38 0  11.5 0  Z " fill-rule="nonzero" fill="#ffffff" stroke="none" />
    <path d="M 11.5 0.5  C 19.34 0.5  25.5 11.5  25.5 25.5  C 25.5 39.5  19.34 50.5  11.5 50.5  C 3.66 50.5  -2.5 39.5  -2.5 25.5  C -2.5 11.5  3.66 0.5  11.5 0.5  Z " stroke-width="1" stroke="#797979" fill="none" />
  </g>
</svg>