<?xml version="1.0" encoding="utf-8"?>
<svg version="1.1" xmlns:xlink="http://www.w3.org/1999/xlink" width="51px" height="81px" xmlns="http://www.w3.org/2000/svg">
  <g transform="matrix(1 0 0 1 -414 -207 )">
    <path d="M 439 207.5  C 444.32 207.5  448.5 211.68  448.5 217  C 448.5 222.32  444.32 226.5  439 226.5  C 433.68 226.5  429.5 222.32  429.5 217  C 429.5 211.68  433.68 207.5  439 207.5  Z " fill-rule="nonzero" fill="#ffffff" stroke="none" />
    <path d="M 439 207.5  C 444.32 207.5  448.5 211.68  448.5 217  C 448.5 222.32  444.32 226.5  439 226.5  C 433.68 226.5  429.5 222.32  429.5 217  C 429.5 211.68  433.68 207.5  439 207.5  Z " stroke-width="1" stroke="#797979" fill="none" />
    <path d="M 414 237  L 464 237  M 439 227  L 439 262  M 419 287  L 439 262  M 439 262  L 459 287  " stroke-width="1" stroke="#797979" fill="none" />
  </g>
</svg>