<?xml version="1.0" encoding="utf-8"?>
<svg version="1.1" xmlns:xlink="http://www.w3.org/1999/xlink" width="50px" height="82px" xmlns="http://www.w3.org/2000/svg">
  <g transform="matrix(1 0 0 1 -147 -149 )">
    <path d="M 172 149  C 186 149  197 167.04  197 190  C 197 212.96  186 231  172 231  C 158 231  147 212.96  147 190  C 147 167.04  158 149  172 149  Z " fill-rule="nonzero" fill="#333333" stroke="none" />
    <path d="M 172 149.5  C 185.72 149.5  196.5 167.32  196.5 190  C 196.5 212.68  185.72 230.5  172 230.5  C 158.28 230.5  147.5 212.68  147.5 190  C 147.5 167.32  158.28 149.5  172 149.5  Z " stroke-width="1" stroke="#797979" fill="none" />
  </g>
</svg>