<?xml version="1.0" encoding="utf-8"?>
<svg version="1.1" xmlns:xlink="http://www.w3.org/1999/xlink" width="56px" height="86px" xmlns="http://www.w3.org/2000/svg">
  <g transform="matrix(1 0 0 1 -493.5 -306.5 )">
    <path d="M 521 313.5  C 524.08 313.5  526.5 315.92  526.5 319  C 526.5 322.08  524.08 324.5  521 324.5  C 517.92 324.5  515.5 322.08  515.5 319  C 515.5 315.92  517.92 313.5  521 313.5  Z " fill-rule="nonzero" fill="#ffffff" stroke="none" />
    <path d="M 521 311.5  C 525.2 311.5  528.5 314.8  528.5 319  C 528.5 323.2  525.2 326.5  521 326.5  C 516.8 326.5  513.5 323.2  513.5 319  C 513.5 314.8  516.8 311.5  521 311.5  Z " stroke-width="5" stroke="#797979" fill="none" />
    <path d="M 496 339  L 546 339  M 521 329  L 521 364  M 501 389  L 521 364  M 521 364  L 541 389  " stroke-width="5" stroke="#797979" fill="none" />
  </g>
</svg>