<?xml version="1.0" encoding="utf-8"?>
<svg version="1.1" xmlns:xlink="http://www.w3.org/1999/xlink" width="50px" height="82px" xmlns="http://www.w3.org/2000/svg">
  <g transform="matrix(1 0 0 1 -252 -221 )">
    <path d="M 277 221  C 291 221  302 239.04  302 262  C 302 284.96  291 303  277 303  C 263 303  252 284.96  252 262  C 252 239.04  263 221  277 221  Z " fill-rule="nonzero" fill="#f2f2f2" stroke="none" />
    <path d="M 277 221.5  C 290.72 221.5  301.5 239.32  301.5 262  C 301.5 284.68  290.72 302.5  277 302.5  C 263.28 302.5  252.5 284.68  252.5 262  C 252.5 239.32  263.28 221.5  277 221.5  Z " stroke-width="1" stroke="#797979" fill="none" />
  </g>
</svg>