<?xml version="1.0" encoding="utf-8"?>
<svg version="1.1" xmlns:xlink="http://www.w3.org/1999/xlink" width="42px" height="70px" xmlns="http://www.w3.org/2000/svg">
  <g transform="matrix(1 0 0 1 -256 -109 )">
    <path d="M 277 109  C 288.76 109  298 124.4  298 144  C 298 163.6  288.76 179  277 179  C 265.24 179  256 163.6  256 144  C 256 124.4  265.24 109  277 109  Z " fill-rule="nonzero" fill="#ffff80" stroke="none" />
    <path d="M 277 109.5  C 288.48 109.5  297.5 124.68  297.5 144  C 297.5 163.32  288.48 178.5  277 178.5  C 265.52 178.5  256.5 163.32  256.5 144  C 256.5 124.68  265.52 109.5  277 109.5  Z " stroke-width="1" stroke="#797979" fill="none" />
  </g>
</svg>