<?xml version="1.0" encoding="utf-8"?><svg version="1.1" xmlns:xlink="http://www.w3.org/1999/xlink" width="95px" height="40px" xmlns="http://www.w3.org/2000/svg"><g transform="matrix(1 0 0 1 -241 0 )"><path d="M 241.5 2  A 1.5 1.5 0 0 1 243 0.5 L 334 0.5  A 1.5 1.5 0 0 1 335.5 2 L 335.5 38  A 1.5 1.5 0 0 1 334 39.5 L 243 39.5  A 1.5 1.5 0 0 1 241.5 38 L 241.5 2  Z " fill-rule="nonzero" fill="#3399ff" stroke="none" /><path d="M 241.5 2  A 1.5 1.5 0 0 1 243 0.5 L 334 0.5  A 1.5 1.5 0 0 1 335.5 2 L 335.5 38  A 1.5 1.5 0 0 1 334 39.5 L 243 39.5  A 1.5 1.5 0 0 1 241.5 38 L 241.5 2  Z " stroke-width="1" stroke="#3399ff" fill="none" /></g></svg>