<?xml version="1.0" encoding="utf-8"?>
<svg version="1.1" xmlns:xlink="http://www.w3.org/1999/xlink" width="24px" height="24px" xmlns="http://www.w3.org/2000/svg">
  <g transform="matrix(1 0 0 1 -865 -313 )">
    <path d="M 2 21.4201450892857  C 1.89231617647056 21.8936941964286  1.51318014705885 22.2764508928572  1.04608455882351 22.2764508928572  C 0.578933823529383 22.2764508928572  0.199852941176459 21.8936941964286  0.199852941176459 21.4200892857143  L 0.199852941176459 9.4315290178572  C 0.199852941176459 8.95881696428569  0.578988970588284 8.57522321428576  1.04608455882351 8.57522321428576  C 1.51318014705885 8.57522321428576  1.89231617647056 8.95887276785709  2 9.4315290178572  L 2 21.4201450892857  Z M 23.8931801470588 11.165625  C 23.8932352941176 9.73465401785711  22.5096507352941 8.57522321428576  21.3646323529412 8.57522321428576  L 16.3564522058823 8.57522321428576  C 16.7211948529412 7.71891741071431  17.1392647058824 5.50524553571427  16.8946875 3.49202008928569  C 16.7009007352941 1.88554687500005  15.7742647058824 0.653292410714243  14.4159926470588 0.188281250000045  C 13.4089522058823 -0.156808035714334  12.3477573529411 0.0109933035714676  11.7756617647059 0.601897321428623  C 11.0936029411764 1.30580357142856  10.7736948529412 2.63309151785711  10.4352022058823 4.03666294642858  C 10.2134558823529 4.95552455357142  9.98415441176473 5.90691964285713  9.69893382352939 6.39587053571427  C 8.8763602941176 7.81138392857144  7.1534007352941 8.4570870535714  6.80641544117645 8.57522321428576  L 4.43095588235292 8.57522321428576  C 3.96380514705879 8.57522321428576  3.58472426470587 8.95887276785709  4 9.43152901785709  L 4 21.4201450892857  C 3.58472426470587 21.8936941964286  3.96386029411769 22.2765066964286  4.43095588235292 22.2765066964286  L 6.72093749999999 22.2765066964286  C 7.42841911764708 22.6643973214286  10.0636764705882 23.9891741071428  13.1144117647059 23.9891741071428  L 18.8249448529411 23.9891741071428  C 19.7651470588236 23.9891741071428  21.3848713235294 23.6209263392857  21.9907720588235 22.6053571428572  C 22.6026286764705 21.5760602678571  23.8931801470588 12.2043526785715  23.8931801470588 11.165625  Z M 22.1998897058824 11.1638950892857  C 22.2007720588235 12.30625  20.8941176470588 20.9114397321429  20.5404044117647 21.7224330357143  C 20.413455882353 21.9364955357142  19.5756617647058 22.2765066964286  18.8250551470588 22.2765066964286  L 13.1145220588236 22.2765066964286  C 10.0908088235294 22.2765066964286  7.42428308823526 20.5638392857143  7.39803308823525 20.5638392857143  C 7.27025735294114 20.5638392857143  7.12979779411762 20.5638392857143  6.97069852941172 20.5638392857143  L 5.27735294117645 20.5638392857143  L 5.27735294117645 10.2878348214285  L 6.96987132352945 10.2878348214285  C 7.03924632352937 10.2878348214285  7.10106617647057 10.2638392857143  7.16536764705882 10.2476004464286  C 7.17887867647062 10.2441964285714  7.19161764705882 10.2484375  7.20512867647062 10.2441964285714  C 7.21102941176468 10.2424665178571  7.2279595588235 10.2373325892858  7.2499632352941 10.23046875  C 7.27196691176471 10.2227678571429  7.29568014705887 10.2184709821429  7.31680147058819 10.208203125  C 7.83132352941175 10.0361049107142  10.0282169117647 9.2088727678572  11.1571323529412 7.26411830357142  C 11.5675919117647 6.55764508928576  11.8163602941177 5.53002232142853  12.0786948529412 4.443359375  C 12.3232720588235 3.43030133928573  12.6270772058823 2.17064732142853  12.9807904411765 1.80502232142862  C 13.0620220588236 1.73482142857142  13.4572058823529 1.64575892857147  13.9539705882353 1.84358258928569  C 14.3593014705882 2.00541294642858  15.0634191176471 2.46272321428569  15.2140257352942 3.70781250000005  C 15.5474448529412 6.45066964285718  14.3838419117648 9.0624441964286  14.3719852941176 9.08900669642856  C 14.2509926470589 9.35446428571424  14.2729963235295 9.65502232142853  14.4286764705882 9.90078125000002  C 14.584356617647 10.145703125  14.8518198529412 10.2869977678572  15.1404044117647 10.2869977678572  L 21.3638051470588 10.2869977678572  C 21.5931066176471 10.2869977678572  22.1998897058824 10.689453125  22.1998897058824 11.1638950892857  Z " fill-rule="nonzero" fill="#ffffff" stroke="none" transform="matrix(1 0 0 1 865 313 )" />
  </g>
</svg>