<?xml version="1.0" encoding="utf-8"?>
<svg version="1.1" xmlns:xlink="http://www.w3.org/1999/xlink" width="30px" height="22px" xmlns="http://www.w3.org/2000/svg">
  <g transform="matrix(1 0 0 1 -532 -315 )">
    <path d="M 28.6191393978153 8.57904276878708  C 28.2928650269635 8.11411035621313  27.9303497476494 7.64923032459046  27.5678344683352 7.18424558221705  C 27.5678344683352 7.14849363839312  27.5315935598728 7.14849363839312  27.5315935598728 7.11274169456829  L 27.1690782805586 6.68356122581827  C 26.6977871785122 6.14707259579609  26.2265491738108 5.64644056919678  25.827739940542 5.25301209542431  C 24.885157788302 4.39470353887646  24.4501075947179 4.25164338262675  24.1238332238661 4.25164338262675  L 19.1209950394082 4.25164338262675  C 18.9759783082135 4.25164338262675  18.8309615770188 4.25164338262675  18.7221858061394 4.28739532645068  L 18.7221858061394 2.10584590308827  C 18.7221858061394 1.03297330264104  17.8521385163164 0.21041674107164  16.8008336386891 0.21041674107164  L 2.11848736518255 0.246168684895565  C 1.03088848174781 0.246168684895565  0.197082100387149 1.10447724144342  0.197082100387149 2.14159784691219  L 0.197082152240057 17.1980895461311  C 0.197082152240057 18.2709621465774  1.06712944206305 19.0935187081468  2.1184874170354 19.0935187081468  L 4.3661670526825 19.0935187081468  C 4.72868233199665 20.774383826265  6.25127831167038 21.9903689127605  7.99142593680864 21.9903689127605  C 9.73152046460177 21.9903689127605  11.2541695416206 20.7744361560635  11.6166848209347 19.0935187081468  L 16.800833690542 19.0935187081468  C 17.2358838841261 19.0935187081468  17.6346400719027 18.9504585518971  17.9609143909016 18.7000902343752  C 18.2871887617533 18.9504062220985  18.7222389034845 19.0935187081468  19.1209950912611 19.0935187081468  L 19.5922861933075 19.0935187081468  C 19.9548014726217 20.774383826265  21.4773974522953 21.9903689127605  23.2175450774336 21.9903689127605  C 24.9576396052267 21.9903689127605  26.4802886822455 20.7744361560635  26.8428039615598 19.0935187081468  L 27.9303497995022 19.0935187081468  C 29.0178956374447 19.0935187081468  29.8517019669524 18.2352101515999  29.8517019669524 17.1980895461311  L 29.8517019669524 11.1182688244044  C 29.8517019669524 10.832148511905  29.7792201500276 10.4387200381325  29.2353941855641 9.50890759393587  C 29.0541895913993 9.22278728143647  28.8366910432799 8.90091502511132  28.6191393978153 8.57904276878708  Z M 7.95518497649334 20.4883159458705  C 6.75886331581859 20.4883159458705  5.77998720962387 19.5226992280504  5.77998720962387 18.3424660853798  C 5.77998720962387 17.1622852725077  6.75881027032631 16.1966685546877  7.95518497649334 16.1966685546877  C 9.15150663716815 16.1966685546877  10.1303296978706 17.1622852725077  10.1303296978706 18.3424660853798  C 10.1303296978706 19.5226991768968  9.15145353982302 20.4883159458705  7.95518497649334 20.4883159458705  Z M 17.1633489180033 6.21868119419651  L 17 6.21868119419651  L 17 17.1980895461311  C 17.1632958725111 17.4126535900295  16.982038232854 17.5914656901041  16.7644866392423 17.5914656901041  L 11.5803908151272 17.5914656901041  C 11.2178755358131 15.9463525158108  9.80405532701883 14.7661193731401  8.06390775373342 14.6946154854913  L 7.91889102253873 14.6946154854913  C 6.21503740320799 14.7304197591147  4.7649232404591 15.9463525158108  4.40240796114489 17.5914656901041  L 2.1184874170354 17.5914656901041  C 1.90098886891593 17.5914656901041  1.71973122925885 17.4126535900295  2 17.1980895461311  L 2 2.14159784691219  C 1.71973117740595 1.92703380301373  1.90098881706308 1.74816937313972  2.11848736518255 2  L 16.7645396328816 2  C 16.9820381810011 1.74816937313972  17.1633488661504 1.92698147321425  17.1633488661504 2.14159784691219  L 17.1633489180033 6.21868119419651  Z M 23.2175450774336 20.4883159458705  C 22.0212234167589 20.4883159458705  21.0423473105641 19.5226992280504  21.0423473105641 18.3424660853798  C 21.0423473105641 17.1622852725077  22.0211703712666 16.1966685546877  23.2175450774336 16.1966685546877  C 24.4138667381084 16.1966685546877  25.3926897988109 17.1622852725077  25.3926897988109 18.3424660853798  C 25.3926897988109 19.5226991768968  24.4138666862555 20.4883159458705  23.2175450774336 20.4883159458705  Z M 28.2929181243086 17.1980895461311  C 28.2929181243086 17.4126535900295  28.1116604846516 17.5914656901041  27.8941619365321 17.5914656901041  L 26.8065099557522 17.5914656901041  C 26.4802355849004 16.0178564034595  25.1026563364214 14.837675641741  23.4712845340155 14.6946154854913  C 23.4712845340155 14.6946154854913  23.4712845340155 14.6946154854913  23.4350436255531 14.6946154854913  C 23.4350436255531 14.6946154854913  23.4350436255531 14.6946154854913  23.3988027170907 14.6946154854913  L 23.3625618086283 14.6946154854913  L 23.1450102150166 14.6946154854913  L 23.1087693065542 14.6946154854913  L 23.0725283980918 14.6946154854913  L 23.0362874896294 14.6946154854913  L 23.000046581167 14.6946154854913  C 21.368674778761 14.837675641741  20.0272833413993 16.0179087844117  19.7010620678927 17.5557137462793  L 19.2297709658462 17.5557137462793  C 19.0122724177268 17.5557137462793  18.8310147780697 17.3769539760042  18.8310147780697 17.1623376023063  L 18.8310147780697 6.18287692057311  C 18.8310147780697 5.96831287667373  19.0122193722345 5.78944844680063  19.2297709658462 5.78944844680063  L 24.1238863730641 5.78944844680063  C 24.196421287334 5.82525272042403  24.4501607439159 5.96826054687517  24.9939867083794 6.46899723307251  C 25.0302276168418 6.50474917689735  25.0664685253042 6.54050112072127  25.1027094337666 6.57625306454611  L 22.7462539753872 6.57625306454611  C 21.6586550919524 6.57625306454611  20.8248487105918 7.43461395089253  20.8248487105918 8.47173460751492  L 20.8248487105918 10.7963442382816  C 20.8248487105918 11.8692168387279  21.6949490459071 12.6917734002973  22.7462539753872 12.6917734002973  L 28.4378817581582 12.6917734002973  L 28.2929181243086 17.1980895461311  Z M 28.2929181243086 11.225524655878  L 22.6374781526549 11.225524655878  C 22.4199796045354 11.225524655878  22.238668919386 11.0467125558034  22.238668919386 10.832148511905  L 22.238668919386 8.50753888113832  C 22.238668919386 8.29297483723985  22.4199265590431 8.11411040736584  22.6374781526549 8.11411040736584  L 26.3715128595132 8.11411040736584  C 26.5527704991704 8.32867445126431  26.7340281388275 8.5790428199407  26.9153388239768 8.79360686383916  C 27.2053722863661 9.18698300781216  27.4954056969027 9.58041148158463  27.7129042450221 9.93803568173371  L 27.8216269704093 9.86653179408495  L 27.7129042450221 9.93803568173371  L 27.9304027931416 9.79497552548401  L 27.7129042450221 9.93803568173371  L 27.8216269704093 10.1168477818082  C 28.2566771639933 10.8320961821055  28.3291589809181 11.0824644996283  28.3291589809181 11.1182164946058  L 28.2929181243086 11.225524655878  Z " fill-rule="nonzero" fill="#ffffff" stroke="none" transform="matrix(1 0 0 1 532 315 )" />
  </g>
</svg>