<?xml version="1.0" encoding="utf-8"?>
<svg version="1.1" xmlns:xlink="http://www.w3.org/1999/xlink" width="47px" height="47px" xmlns="http://www.w3.org/2000/svg">
  <g transform="matrix(1 0 0 1 -523 -303 )">
    <path d="M 35.0551697879464 43.7890996361602  C 31.5580551082589 45.7775434285713  27.5708613046875 46.8286102511165  23.5246754720982 46.8286102511165  C 20.37152871875 46.8286102511165  17.3121572991071 46.2108313928575  14.4316405502232 44.9925042645091  C 11.6498374921875 43.8158848627236  9.15172202790177 42.1316873348214  7.00669978125001 39.9866650881695  C 4.86167753459824 37.8415891796876  3.17748000669644 35.3434737678572  2.00086060491071 32.5617243191964  C 0.782533476562492 29.6812075703128  0.164754618303562 26.6218361506699  0.164754618303562 23.4686893973212  C 0.164754618303562 20.3155426439735  0.782533476562492 17.2561712243305  2.00086060491071 14.375654475446  C 3.17748000669644 11.5938514174104  4.86167753459824 9.09573595312486  7.00669978125001 6.95071370647293  C 9.15172202790177 4.8056914598219  11.6498374397322 3.12149393191976  14.4316405502232 1.94487453013426  C 17.3121572991071 0.726547401785865  20.37152871875 0.108768543526821  23.5246754720982 0.108768543526821  C 26.6778222254464 0.108768543526821  29.7371936450893 0.72649379241102  32.6177103939732 1.9448208683034  C 35.3995134520089 3.1214402700889  37.8976289162947 4.80563779799104  40.0426511629464 6.95066004464297  C 42.1877270714286 9.09568229129491  43.8719246517857 11.5937977031244  45.0485440011161 14.3756008136161  C 46.2668711294643 17.2561175625005  46.8846499877232 20.3154889821426  46.8846499877232 23.4686357354913  C 46.8846499877232 27.0993010200891  46.0743285479911 30.5788093214287  44.4762302991072 33.810486832589  C 44.2528229330357 34.2622399743304  43.7054694308036 34.4473750200896  43.2538236651786 34.2239676540175  C 42.8020705234375 34.0006139497764  42.6169354776786 33.4533141618303  42.84034284375 33.001561020089  C 44.3129958370536 30.0235652220981  45.0596553046875 26.8162575256702  45.0596553046875 23.4686357879464  C 45.0596553046875 11.5942808694199  35.3991377142857 1.93370961718756  23.5247291339286 1.93370961718756  C 11.6503742154018 1.93370961718756  1.98980296316967 11.594227207589  1.98980296316967 23.4686357879464  C 1.98980296316967 35.3430443683037  11.6503205535714 45.0035619587052  23.5247291339286 45.0035619587052  C 27.2551816082589 45.0035619587052  30.9303995357143 44.0349980758929  34.1530054698661 42.2025421953122  C 34.5911244151786 41.9535304776782  35.1482472555804 42.1067271350448  35.3973663493304 42.5447387566965  C 35.6464854430803 42.9828577020089  35.4932350714286 43.5399805424104  35.0551697879464 43.7890996361602  Z " fill-rule="nonzero" fill="#ffffff" stroke="none" transform="matrix(1 0 0 1 523 303 )" />
  </g>
</svg>