<?xml version="1.0" encoding="utf-8"?>
<svg version="1.1" xmlns:xlink="http://www.w3.org/1999/xlink" width="50px" height="50px" xmlns="http://www.w3.org/2000/svg">
  <g transform="matrix(1 0 0 1 -164 -303 )">
    <path d="M 12.1938355957031 19.5205479492188  L 21.8643835449219 14.6184931640626  L 24.9609588867188 18.5150685058594  L 15.4602739746093 23.2910958984374  L 12.1938355957031 19.5205479492188  Z M 23.4479452148438 33.2486301269531  L 24.8794520507812 29.5609588867187  L 24.8794520507812 38.1089041015625  L 14.8589041015625 33.5198630371094  L 14.8910958984375 28.9739726074218  L 23.4479452148438 33.2486301269531  Z M 13.7561644042969 27.7910958984374  L 15.4534246582032 23.3068493164062  L 24.9534246582032 27.7910958984374  L 23.2575342285156 32.5253424804688  L 13.7561644042969 27.7910958984374  Z M 50 25  C 50 31.6780821777344  47.3993150878906 37.9554794433594  42.677397265625 42.677397265625  C 37.9561644042968 47.3993150878906  31.677397265625 50  25 50  C 18.3219178222656 50  12.0438355957032 47.3993150878906  7.32260273437498 42.677397265625  C 2.60068491210939 37.9554794433594  0 31.6780821777344  0 25  C 0 18.3219178222656  2.60068491210939 12.0445205566406  7.32260273437498 7.32260273437498  C 12.0438355957032 2.60068491210939  18.3219178222656 0  25 0  C 27.2253424804687 0  29.4328767089844 0.292465771484331  31.5609588867187 0.869863037109326  C 31.9964052919853 0.987950813333441  32.2987189986089 1.38316763349167  32.2987189986089 1.83434198421776  C 32.2987189986089 1.92291886347118  32.2869423651767 2.01110258330584  32.2636986328125 2.09657534179689  C 32.146148325281 2.53236508215639  31.7508946746284 2.83512956434447  31.2995292211394 2.83512956434447  C 31.2108432623572 2.83512956434447  31.1225524652908 2.82331581222149  31.0369862792969 2.79999999999995  C 29.0688491252864 2.26774036368556  27.0388385335716 1.99873056339152  25 2  C 12.317808203125 2  2 12.317808203125  2 25  C 2 37.682191796875  12.317808203125 48  25 48  C 37.682191796875 48  48 37.682191796875  48 25  C 48 20.1506849121093  46.5095890625 15.5143835449219  43.6890411132813 11.5904109375  C 43.5568921746652 11.4164436903319  43.4853491947138 11.2039869381447  43.4853491947138 10.985519675003  C 43.4853491947138 10.4332349251722  43.933064444883 9.98551967500305  44.4853491947138 9.98551967500305  C 44.8164873272149 9.98551967500305  45.1261523119786 10.1494432265247  45.3123287597656 10.4232876953125  C 48.3794520507813 14.6890411132813  50 19.7294520507812  50 25  Z M 25.1239726074218 18.5150685058594  L 28.3472602539063 14.6184931640626  L 37.8061644042969 19.6041095703125  L 34.7102739746093 23.2910958984374  L 25.1239726074218 18.5150685058594  Z M 35.2184931640625 29.0054794433594  L 35.2184931640625 33.5198630371094  L 25.2301369628906 38.1089041015625  L 25.2301369628906 29.5609588867187  L 26.5568493164062 33.2575342285156  L 35.2184931640625 29.0054794433594  Z M 25.1664383789063 27.7910958984374  L 34.7102739746093 23.3068493164062  L 36.6191780761719 27.7479452148438  L 26.7780821777344 32.4842465820312  L 25.1664383789063 27.7910958984374  Z " fill-rule="nonzero" fill="#ffffff" stroke="none" transform="matrix(1 0 0 1 164 303 )" />
  </g>
</svg>