<?xml version="1.0" encoding="utf-8"?>
<svg version="1.1" xmlns:xlink="http://www.w3.org/1999/xlink" width="50px" height="50px" xmlns="http://www.w3.org/2000/svg">
  <g transform="matrix(1 0 0 1 -852 -300 )">
    <path d="M 49.8316384180791 25.0198863636364  C 49.8316384180791 38.7346590909091  38.7132768361582 49.8923295454546  25.047175141243 49.8923295454546  C 11.380790960452 49.8923295454546  0.26271186440681 38.6991477272727  0.26271186440681 24.940625  C 0.26271186440681 11.2477272727273  11.3810734463277 0.107670454545428  25.047175141243 0.107670454545428  C 30.095197740113 0.107670454545428  34.3016949152542 1.34176136363635  37.9076271186441 3.88068181818187  C 38.382768361582 4.21534090909086  38.4983050847458 4.8735795454545  38.1652542372881 5.3514204545454  C 37.8324858757062 5.83011363636365  37.1774011299435 5.9451704545454  36.7031073446328 5.6107954545455  C 33.4621468926554 3.32897727272723  29.6494350282486 2.21988636363631  25.047175141243 2.21988636363631  C 12.5389830508475 2.21988636363631  2.36299435028252 12.4122159090909  2.36299435028252 24.940625  C 2.36299435028252 37.5346590909091  12.5389830508475 47.7801136363637  25.047175141243 47.7801136363637  C 37.5556497175141 47.7801136363637  47.7313559322034 37.5701704545454  47.7313559322034 25.0198863636364  C 47.7313559322034 19.4903409090909  45.8163841807909 14.2079545454545  42.4774011299435 10.5269886363636  C 42.0870056497175 10.0963068181818  42.117231638418 9.4284090909091  42.5454802259887 9.0352272727273  C 42.9742937853107 8.6420454545455  43.638418079096 8.67244318181815  44.0293785310735 9.10369318181813  C 47.7169491525424 13.1690340909091  49.8316384180791 18.9701704545455  49.8316384180791 25.0198863636364  Z " fill-rule="nonzero" fill="#ffffff" stroke="none" transform="matrix(1 0 0 1 852 300 )" />
  </g>
</svg>