<?xml version="1.0" encoding="utf-8"?>
<svg version="1.1" xmlns:xlink="http://www.w3.org/1999/xlink" width="60px" height="58px" xmlns="http://www.w3.org/2000/svg">
  <defs>
    <mask fill="white" id="clip17">
      <path d="M 257 206  C 254.225 206  252 203.775  252 201  L 252 153  C 252 150.225  254.225 148  257 148  L 307 148  C 309.775 148  312 150.225  312 153  L 312 201  C 312 203.775  309.775 206  307 206  " fill-rule="evenodd" />
    </mask>
  </defs>
  <g transform="matrix(1 0 0 1 -252 -148 )">
    <path d="M 252 148  L 312 148  L 312 206  L 252 206  L 252 148  " fill-rule="nonzero" fill="#cccccc" stroke="none" mask="url(#clip17)" />
    <path d="M 256 152  L 308 152  L 308 202  L 256 202  L 256 152  " fill-rule="nonzero" fill="#ffffff" stroke="none" mask="url(#clip17)" />
    <path d="M 287.55 165.4  C 285.114 165.4  283.2 163.486  283.2 161.05  C 283.2 158.614  285.114 156.7  287.55 156.7  C 289.986 156.7  291.9 158.614  291.9 161.05  C 291.9 163.486  289.986 165.4  287.55 165.4  " fill-rule="nonzero" fill="#cccccc" stroke="none" mask="url(#clip17)" />
    <path d="M 258 201  L 258 175.15  L 270.25 163.4  L 287.4 173.74  L 297.2 170.45  L 307 173.74  L 307 201  L 258 201  " fill-rule="nonzero" fill="#169bd5" stroke="none" mask="url(#clip17)" />
  </g>
</svg>