<?xml version="1.0" encoding="utf-8"?><svg version="1.1" xmlns:xlink="http://www.w3.org/1999/xlink" width="16px" height="16px" viewBox="249 142.5  16 16" xmlns="http://www.w3.org/2000/svg"><path d="M 257 142.5  C 261.48 142.5  265 146.02  265 150.5  C 265 154.98  261.48 158.5  257 158.5  C 252.52 158.5  249 154.98  249 150.5  C 249 146.02  252.52 142.5  257 142.5  Z " fill-rule="nonzero" fill="#ffffff" stroke="none" /><path d="M 257 143  C 261.2 143  264.5 146.3  264.5 150.5  C 264.5 154.7  261.2 158  257 158  C 252.8 158  249.5 154.7  249.5 150.5  C 249.5 146.3  252.8 143  257 143  Z " stroke-width="1" stroke="#e4e4e4" fill="none" /><path d="M 257 154.5  C 254.76 154.5  253 152.74  253 150.5  C 253 148.26  254.76 146.5  257 146.5  C 259.24 146.5  261 148.26  261 150.5  C 261 152.74  259.24 154.5  257 154.5  " fill-rule="nonzero" fill="#e4e4e4" stroke="none" /></svg>