<?xml version="1.0" encoding="utf-8"?>
<svg version="1.1" xmlns:xlink="http://www.w3.org/1999/xlink" width="64px" height="74px" xmlns="http://www.w3.org/2000/svg">
  <g transform="matrix(1 0 0 1 -36 -52 )">
    <path d="M 16.7336585365853 29  L 6.64975609756108 29  L 26.0995121951217 58.0348557692308  L 16.7336585365853 29  Z M 21.1043902439026 29  L 32 62.7932692307692  L 42.8956097560974 29  L 21.1043902439026 29  Z M 6.02536585365865 23  L 16.8273170731708 23  L 23.1960975609755 5.69230769230772  L 15.0165853658537 5.69230769230772  L 6.02536585365865 23  Z M 47.2663414634147 29  L 37.9004878048783 58.0348557692308  L 57.3502439024389 29  L 47.2663414634147 29  Z M 27.7229268292683 5.69230769230772  L 21.3541463414633 23  L 42.6458536585367 23  L 36.2770731707317 5.69230769230772  L 27.7229268292683 5.69230769230772  Z M 40.8039024390245 5.69230769230772  L 47.1726829268292 23  L 57.9746341463413 23  L 48.9834146341463 5.69230769230772  L 40.8039024390245 5.69230769230772  Z M 49.9824390243901 0  C 50.669268292683 0  51.1999999999999 0.385416666666667  51.5746341463416 1.15625  L 63.5629268292684 23.9254807692308  C 63.8543089430893 24.4591346153845  63.989593495935 25.0743189102565  63.9687804878049 25.7710336538461  C 63.9479674796748 26.4677483974359  63.771056910569 27.0681089743588  63.438048780488 27.5721153846155  L 33.4673170731708 73.110576923077  C 33.0926829268294 73.7035256410255  32.6035772357724 74  32 74  C 31.3964227642276 74  30.9073170731706 73.7035256410255  30.5326829268292 73.110576923077  L 0.561951219512244 27.5721153846155  C 0.228943089430966 27.0681089743588  0.0520325203251559 26.4677483974359  0.0312195121950936 25.7710336538461  C 0.0104065040650312 25.0743189102565  0.145691056910716 24.4591346153845  0.43707317073159 23.9254807692308  L 12.4253658536584 1.15625  C 12.8000000000001 0.385416666666667  13.330731707317 0  14.0175609756099 0  L 49.9824390243901 0  Z " fill-rule="nonzero" fill="#199ed8" stroke="none" transform="matrix(1 0 0 1 36 52 )" />
  </g>
</svg>