<?xml version="1.0" encoding="utf-8"?><svg version="1.1" xmlns:xlink="http://www.w3.org/1999/xlink" width="63px" height="58px" xmlns="http://www.w3.org/2000/svg"><g transform="matrix(1 0 0 1 -89 -80 )"><path d="M 120.5 84  C 135.9 84  148 95  148 109  C 148 123  135.9 134  120.5 134  C 105.1 134  93 123  93 109  C 93 95  105.1 84  120.5 84  Z " fill-rule="nonzero" fill="#ffffff" stroke="none" /><path d="M 120.5 82.5  C 136.74 82.5  149.5 94.16  149.5 109  C 149.5 123.84  136.74 135.5  120.5 135.5  C 104.26 135.5  91.5 123.84  91.5 109  C 91.5 94.16  104.26 82.5  120.5 82.5  Z " stroke-width="5" stroke="#00cc99" fill="none" /></g></svg>