<?xml version="1.0" encoding="utf-8"?><svg version="1.1" xmlns:xlink="http://www.w3.org/1999/xlink" width="12px" height="12px" viewBox="383 74.5  12 12" xmlns="http://www.w3.org/2000/svg"><path d="M 389 74.5  C 392.36 74.5  395 77.14  395 80.5  C 395 83.86  392.36 86.5  389 86.5  C 385.64 86.5  383 83.86  383 80.5  C 383 77.14  385.64 74.5  389 74.5  Z " fill-rule="nonzero" fill="#ffffff" stroke="none" /><path d="M 389 75  C 392.08 75  394.5 77.42  394.5 80.5  C 394.5 83.58  392.08 86  389 86  C 385.92 86  383.5 83.58  383.5 80.5  C 383.5 77.42  385.92 75  389 75  Z " stroke-width="1" stroke="#e4e4e4" fill="none" /><path d="M 389 83.5  C 387.32 83.5  386 82.18  386 80.5  C 386 78.82  387.32 77.5  389 77.5  C 390.68 77.5  392 78.82  392 80.5  C 392 82.18  390.68 83.5  389 83.5  " fill-rule="nonzero" fill="#e4e4e4" stroke="none" /></svg>