<?xml version="1.0" encoding="utf-8"?><svg version="1.1" xmlns:xlink="http://www.w3.org/1999/xlink" width="12px" height="12px" viewBox="241 177  12 12" xmlns="http://www.w3.org/2000/svg"><path d="M 247 177  C 250.36 177  253 179.64  253 183  C 253 186.36  250.36 189  247 189  C 243.64 189  241 186.36  241 183  C 241 179.64  243.64 177  247 177  Z " fill-rule="nonzero" fill="#ffffff" stroke="none" /><path d="M 247 177.5  C 250.08 177.5  252.5 179.92  252.5 183  C 252.5 186.08  250.08 188.5  247 188.5  C 243.92 188.5  241.5 186.08  241.5 183  C 241.5 179.92  243.92 177.5  247 177.5  Z " stroke-width="1" stroke="#e4e4e4" fill="none" /><path d="M 247 186  C 245.32 186  244 184.68  244 183  C 244 181.32  245.32 180  247 180  C 248.68 180  250 181.32  250 183  C 250 184.68  248.68 186  247 186  " fill-rule="nonzero" fill="#e4e4e4" stroke="none" /></svg>