<?xml version="1.0" encoding="utf-8"?><svg version="1.1" xmlns:xlink="http://www.w3.org/1999/xlink" width="12px" height="12px" viewBox="319 177  12 12" xmlns="http://www.w3.org/2000/svg"><path d="M 325 177  C 328.36 177  331 179.64  331 183  C 331 186.36  328.36 189  325 189  C 321.64 189  319 186.36  319 183  C 319 179.64  321.64 177  325 177  Z " fill-rule="nonzero" fill="#ffffff" stroke="none" /><path d="M 325 177.5  C 328.08 177.5  330.5 179.92  330.5 183  C 330.5 186.08  328.08 188.5  325 188.5  C 321.92 188.5  319.5 186.08  319.5 183  C 319.5 179.92  321.92 177.5  325 177.5  Z " stroke-width="1" stroke="#e4e4e4" fill="none" /><path d="M 325 186  C 323.32 186  322 184.68  322 183  C 322 181.32  323.32 180  325 180  C 326.68 180  328 181.32  328 183  C 328 184.68  326.68 186  325 186  " fill-rule="nonzero" fill="#e4e4e4" stroke="none" /></svg>