<?xml version="1.0" encoding="utf-8"?>
<svg version="1.1" xmlns:xlink="http://www.w3.org/1999/xlink" width="18px" height="20px" xmlns="http://www.w3.org/2000/svg">
  <g transform="matrix(1 0 0 1 -21 -68 )">
    <path d="M 18 3.13829787234043  C 18 1.70212765957448  17.1586402266289 0.611702127659577  15.6033994334278 0.611702127659577  L 14.4050991501416 0.611702127659577  C 14.0736543909348 0.611702127659577  13.6912181303116 0.824468085106388  13.6912181303116 1.17021276595746  C 13.6912181303116 1.51595744680852  14.0736543909348 1.86170212765957  14.4050991501416 1.86170212765957  L 15.6033994334278 1.86170212765957  C 16.3172804532578 1.86170212765957  16.8016997167139 2.36702127659575  16.8016997167139 3.11170212765958  L 16.8016997167139 17.5  C 16.8016997167139 18.2446808510638  16.3172804532578 18.75  15.6033994334278 18.75  L 2.70254957507082 18.75  C 1.98866855524079 18.75  1.19830028328612 18.2446808510638  1.19830028328612 17.5  L 1.19830028328612 3.11170212765958  C 1.19830028328612 2.36702127659575  1.68271954674221 1.86170212765957  2.39660056657224 1.86170212765957  L 3.90084985835694 1.86170212765957  C 4.23229461756374 1.86170212765957  4.35977337110481 1.51595744680852  4.35977337110481 1.17021276595746  C 4.35977337110481 0.824468085106388  4.23229461756374 0.611702127659577  3.90084985835694 0.611702127659577  L 2.39660056657224 0.611702127659577  C 0.713881019830028 0.611702127659577  0 1.70212765957448  0 3.13829787234043  L 0 17.3670212765957  C 0 18.9095744680851  0.892351274787535 20  2.52407932011331 20  L 15.4759206798867 20  C 17.1076487252125 20  18 19.0957446808511  18 17.3670212765957  L 18 3.13829787234043  Z M 4.51274787535411 5.61170212765958  C 4.18130311614731 5.61170212765958  3.90084985835694 5.90425531914894  3.90084985835694 6.25  C 3.90084985835694 6.59574468085106  4.18130311614731 6.88829787234043  4.51274787535411 6.88829787234043  L 13.5127478753541 6.88829787234043  C 13.8441926345609 6.88829787234043  14.1246458923513 6.59574468085106  14.1246458923513 6.25  C 14.1246458923513 5.90425531914894  13.8441926345609 5.61170212765958  13.5127478753541 5.61170212765958  L 4.51274787535411 5.61170212765958  Z M 14.1246458923513 9.70744680851063  C 14.0991501416431 9.33510638297872  13.8186968838527 9.06914893617021  13.4872521246459 9.06914893617021  L 4.51274787535411 9.06914893617021  C 4.18130311614731 9.06914893617021  3.90084985835694 9.36170212765958  3.90084985835694 9.70744680851063  C 3.90084985835694 10.0531914893617  4.18130311614731 10.3457446808511  4.51274787535411 10.3457446808511  L 13.5127478753541 10.3457446808511  C 13.8441926345609 10.3457446808511  14.1246458923513 10.0531914893617  14.1246458923513 9.70744680851063  Z M 14.1246458923513 13.4574468085106  C 14.0991501416431 13.0851063829787  13.8186968838527 12.8191489361702  13.4872521246459 12.8191489361702  L 4.51274787535411 12.8191489361702  C 4.18130311614731 12.8191489361702  3.90084985835694 13.1117021276596  3.90084985835694 13.4574468085106  C 3.90084985835694 13.8031914893617  4.18130311614731 14.0957446808511  4.51274787535411 14.0957446808511  L 13.5127478753541 14.0957446808511  C 13.8441926345609 14.0957446808511  14.1246458923513 13.8031914893617  14.1246458923513 13.4574468085106  Z M 6.01699716713881 1.0904255319149  C 6.01699716713881 1.67553191489362  6.42492917847025 2.1808510638298  6.93484419263456 2.1808510638298  L 11.1161473087819 2.1808510638298  C 11.600566572238 2.1808510638298  12.0084985835694 1.67553191489362  12.0084985835694 1.0904255319149  C 12.0084985835694 0.505319148936179  11.600566572238 0  11.0906515580736 0  L 6.93484419263456 0  C 6.42492917847025 0  6.01699716713881 0.505319148936179  6.01699716713881 1.0904255319149  Z " fill-rule="nonzero" fill="#cccccc" stroke="none" transform="matrix(1 0 0 1 21 68 )" />
  </g>
</svg>