<?xml version="1.0" encoding="utf-8"?>
<svg version="1.1" xmlns:xlink="http://www.w3.org/1999/xlink" width="13px" height="9px" xmlns="http://www.w3.org/2000/svg">
  <g transform="matrix(1 0 0 1 -24 -18 )">
    <path d="M 11.6626184538501 0.229425042793364  L 4.76666481191083 7.10907206751075  L 1.33442236414497 3.54528734796343  C 1.0277865509699 3.23953663229002  0.536476348112043 3.24241684302705  0.229840534936972 3.54829558220051  C -0.0766348923194332 3.85420630453367  -0.0766348923194332 4.34710691080115  0.229968839118076 4.65301763313432  L 4.19589684292495 8.77095550271159  C 4.48950890510593 9.06371324147808  4.95425832094374 9.07558612633602  5.26249803884375 8.80795025090389  C 5.29682174112632 8.78330843026414  5.33018310512775 8.75642642552643  5.3612348344853 8.72544812309299  L 12.7699269119829 1.33414709372717  C 13.076691029339 1.02823637139401  13.076691029339 0.535335765126529  12.7699269119829 0.229297019293302  C 12.4634514847265 -0.0764536736647825  11.9692221852876 -0.0764536736647825  11.6626184538501 0.229425042793364  Z " fill-rule="nonzero" fill="#cccccc" stroke="none" transform="matrix(1 0 0 1 24 18 )" />
  </g>
</svg>