<?xml version="1.0" encoding="utf-8"?>
<svg version="1.1" xmlns:xlink="http://www.w3.org/1999/xlink" width="18px" height="20px" xmlns="http://www.w3.org/2000/svg">
  <g transform="matrix(1 0 0 1 -21 -10 )">
    <path d="M 15.9078428075577 3.10518466796875  L 13.5072403378491 3.10518466796875  C 12.9554595970614 1.31716095703125  11.1434838821304 0  9.00004549390217 0  C 6.85663743494208 0  5.04466169848573 1.31716095703125  4.49285064995524 3.10518466796875  L 2.09200556762705 3.10518466796875  C 0.93725392112072 3.10518466796875  0 3.9556103515625  0 5.00341205078125  L 0 18.1016900585937  C 0 19.1494642382812  0.937375216667803 20  2.09200556762705 20  L 15.9078427860324 20  C 17.0627460788793 20  18 19.1494642578125  18 18.1016900585937  L 18 5.00341205078125  C 18 3.9556103515625  17.0627460788793 3.10518466796875  15.9078428075577 3.10518466796875  Z M 9.00004549390217 1.41572513671875  C 10.2751608535552 1.41572513671875  11.3704433274754 2.1115905078125  11.8547184791161 3.1051846484375  L 6.1459790294744 3.10518466796875  C 6.63131559787226 2.1115905078125  7.72814467073807 1.41572513671875  9.00004549390217 1.41572513671875  Z M 16.605339731338 18.1016900585937  C 16.605339731338 18.4487559765625  16.2903743717641 18.7344600390625  15.9078428075577 18.7344600390625  L 2.09200556762705 18.7344600390625  C 1.70962562823586 18.7344600390625  1.39475123494096 18.4487559765625  1.39475123494096 18.1016900585937  L 1.39475125646635 5.00341205078125  C 1.39475125646635 4.65642869140625  1.70962562823586 4.37061455078125  2.09200558915244 4.37061455078125  L 4.31932556317862 4.37061455078125  L 4.31932556317862 6.27572107421875  L 5.91592636471294 6.27572107421875  L 5.91592636471294 4.37061455078125  L 12.1170076472484 4.37061455078125  L 12.119494367404 4.37061455078125  L 12.119494367404 6.27572107421875  L 13.7160951689383 6.27572107421875  L 13.7160951689383 4.37061455078125  L 15.9078428075578 4.37061455078125  C 16.2904956888366 4.37061455078125  16.605339731338 4.65642869140625  16.605339731338 5.00341205078125  L 16.605339731338 18.1016900585937  Z " fill-rule="nonzero" fill="#cccccc" stroke="none" transform="matrix(1 0 0 1 21 10 )" />
  </g>
</svg>