<?xml version="1.0" encoding="utf-8"?>
<svg version="1.1" xmlns:xlink="http://www.w3.org/1999/xlink" width="17px" height="20px" xmlns="http://www.w3.org/2000/svg">
  <g transform="matrix(1 0 0 1 -22 -127 )">
    <path d="M 1.418686875 5.615227265625  C 1.35404041015625 5.64755048828125  1.2893939453125 5.67987373046875  1.19242423828125 5.67987373046875  C 1.0308080859375 5.67987373046875  0.83686869140625 5.58290404296875  0.7722222265625 5.42128787109375  C 0.642929296875 5.19502525390625  0.73989900390625 4.90414140625  0.99848484375 4.77482322265625  L 8.43282828125 0.928358593749999  C 8.6590908984375 0.799065664062499  8.95 0.896035371093749  9.0792929296875 1.1546212109375  C 9.208585859375 1.41320705078125  9.11161615234375 1.6717929296875  8.8530303125 1.80111111328125  L 1.418686875 5.615227265625  Z M 9.0792929296875 18.8748232226563  C 8.9823232421875 19.036439375  8.8207070703125 19.1010858398438  8.65909091796875 19.101085859375  C 8.56212123046875 19.101085859375  8.497474765625 19.0687626367188  8.40050505859375 19.036414140625  L 0.93383837890625 14.4788636328125  C 0.70757576171875 14.349570703125  0.642929296875 14.0263383789062  0.7722222265625 13.8000757617188  C 0.90151515625 13.5738131445313  1.22474748046875 13.5091414257812  1.45101009765625 13.6384595898437  L 8.91767677734375 18.1960100976562  C 9.14393939453125 18.3253030273438  9.208585859375 18.6485606054687  9.0792929296875 18.8748232226563  Z M 16.8168939453125 13.7002777734375  C 16.9150252539063 13.862070703125  16.8968686914062 14.0377525195313  16.8212878710938 14.1837121289062  C 16.77598484375 14.2712373828125  16.7170454492188 14.314772734375  16.6430050585938 14.3874747460937  L 9.10752525390625 19.0362878710938  C 8.88699494140625 19.181212109375  8.56987373046875 19.09111109375  8.42949494140625 18.8703787890625  C 8.28911615234375 18.6496464648437  8.38280302734375 18.3280555664063  8.60333333984375 18.1831565625  L 16.1388888867187 13.5343434375  C 16.3593434375 13.389444453125  16.6764646484375 13.479570703125  16.8168939453125 13.7002777734375  Z " fill-rule="nonzero" fill="#cccccc" stroke="none" transform="matrix(1 0 0 1 22 127 )" />
  </g>
</svg>