<?xml version="1.0" encoding="utf-8"?>
<svg version="1.1" xmlns:xlink="http://www.w3.org/1999/xlink" width="17px" height="16px" xmlns="http://www.w3.org/2000/svg">
  <g transform="matrix(1 0 0 1 -22 -131 )">
    <path d="M 9.27323232421875 14.64151515625  C 9.27323232421875 14.9000757617187  9.04696970703125 15.1263383789062  8.78838384765625 15.1263383789062  C 8.52979798828125 15.1263383789062  8.30353537109375 14.9000757617187  8.3035353515625 14.6414899023437  L 8.3035353515625 5.68795455078125  C 8.3035353515625 5.42936869140625  8.52979796875 5.20310607421875  8.78838384765625 5.2031060546875  C 9.04696970703125 5.2031060546875  9.27323232421875 5.429368671875  9.27323232421875 5.68795455078125  L 9.27323232421875 14.64151515625  Z M 1.5479798046875 9.986944453125  C 1.5479798046875 10.2455303125  1.3217171875 10.4717929296875  1.06313130859375 10.4717929296875  C 0.80454544921875 10.4717929296875  0.57828283203125 10.2455303125  0.57828283203125 9.986944453125  L 0.57828283203125 1.55058080078125  C 0.57828283203125 1.29199494140625  0.80454544921875 1.06573232421875  1.06313130859375 1.06573232421875  C 1.32171716796875 1.06573232421875  1.54797978515625 1.29199494140625  1.5479798046875 1.55058080078125  L 1.5479798046875 9.986944453125  Z M 16.8930808007813 9.9196212109375  C 16.8930808007813 10.1782070703125  16.6668181835938 10.4044696875  16.408257578125 10.4044696875  C 16.14967171875 10.4044696875  15.9233838476563 10.1782070703125  15.9233838476563 9.9196212109375  L 15.9233838476563 1.483257578125  C 15.9233838476563 1.22467171875  16.14967171875 0.998409101562499  16.408257578125 0.998409082031248  C 16.6668181835938 0.998409082031248  16.8930808007813 1.22467169921875  16.8930808007813 1.483257578125  L 16.8930808007813 9.9196212109375  Z M 7.36616162109375 7.72431818359375  C 7.26919193359375 7.8859343359375  7.10757576171875 7.95058080078125  6.94595958984375 7.95058080078125  C 6.84898990234375 7.95058080078125  6.7843434375 7.918257578125  6.68737373046875 7.88590908203125  L 3.06717171875 5.784898984375  C 2.8409091015625 5.6556060546875  2.74393939453125 5.36469697265625  2.905555546875 5.10611111328125  C 3.0348484765625 4.87984849609375  3.32575755859375 4.7828787890625  3.5843434375 4.9445201953125  L 7.20454544921875 7.0455303125  C 7.43080806640625 7.1748232421875  7.5277777734375 7.46573232421875  7.36616162109375 7.72431818359375  Z " fill-rule="nonzero" fill="#cccccc" stroke="none" transform="matrix(1 0 0 1 22 131 )" />
  </g>
</svg>