<?xml version="1.0" encoding="utf-8"?>
<svg version="1.1" xmlns:xlink="http://www.w3.org/1999/xlink" width="18px" height="18px" xmlns="http://www.w3.org/2000/svg">
  <g transform="matrix(1 0 0 1 -21 -72 )">
    <path d="M 9.382550625 17.0978496679688  C 9.02031623046875 17.4598042578125  8.5386827734375 17.6592290429688  8.0264900390625 17.6592290429688  C 7.51415740234375 17.6592290429688  7.03268384765625 17.4597243164062  6.67074923828125 17.0975098828125  L 0.874339199218751 11.30663609375  C 0.511904921875001 10.9446615039063  0.312340234375001 10.4634477734375  0.312500117187501 9.95169474609375  C 0.312660000000001 9.44038142578125  0.512264667968751 8.95974728515625  0.874559042968751 8.59831234375  C 0.940394414062501 8.532516953125  7.4913528515625 1.98727462890625  8.26306962890625 1.21529802734375  C 9.05133517578125 0.428751308593752  9.8943236328125 0.320364785156252  10.687845625 0.320364785156252  C 11.3050471679688 0.320364785156252  15.7522119921875 0.319445410156252  15.7522119921875 0.319445410156252  C 16.264124921875 0.319445410156252  16.7454585742188 0.518590390625002  17.1076330078125 0.880185234375002  C 17.470327109375 1.242239765625  17.6698118554688 1.7236133984375  17.6693521679688 2.23554630859375  C 17.6693521679688 2.235286484375  17.6679930859375 6.43775720703125  17.6679930859375 7.1709401171875  C 17.6673135546875 7.9873266015625  17.5603860351563 8.92786892578125  16.7726401367188 9.7167340625  C 16.3756892773438 10.1116662890625  9.45244322265625 17.0280170117188  9.382550625 17.0978496679688  Z M 16.4429836523437 1.5460137890625  C 16.2584088085937 1.3617787109375  16.0131151171875 1.26030751953125  15.7523319140625 1.26030751953125  C 15.7524118554688 1.26030751953125  11.305127109375 1.26122689453125  10.6878856054687 1.26122689453125  C 9.966654609375 1.26122689453125  9.44750658203125 1.3625981640625  8.92807875 1.8808867578125  C 8.15658181640625 2.65260353515625  1.605423515625 9.19810568359375  1.5393283203125 9.26412091796875  C 1.354913359375 9.44807619140625  1.2534421484375 9.69231060546875  1.2533821875 9.95197455078125  C 1.25330224609375 10.2120981835938  1.3548333984375 10.4567723046875  1.539268359375 10.6410073828125  L 7.33601818359375 16.4321809765625  C 7.52049310546875 16.61683578125  7.7656269140625 16.7183669335937  8.0264900390625 16.7183669335937  C 8.28751306640625 16.7183669335937  8.532966640625 16.6167358398437  8.71766142578125 16.4322009570312  C 8.7875740234375 16.3623683007812  15.711479609375 9.44535802734375  16.1080707226563 9.05082552734375  C 16.6208230859375 8.5372937109375  16.7265713867187 7.9276070703125  16.7272109375 7.1705403515625  C 16.7272109375 6.4376972265625  16.7285700195312 2.23498666015625  16.7285700195312 2.23498666015625  C 16.72882984375 1.97468314453125  16.6273786328125 1.73010896484375  16.4429836523437 1.5460137890625  Z M 14.3080111914062 6.91067654296875  C 13.9091016210938 7.30874666015625  13.3799204101562 7.5276582421875  12.8173618359375 7.5276582421875  C 12.25476328125 7.5276582421875  11.7255620703125 7.30876666015625  11.3272521289062 6.91131611328125  C 10.9290820898437 6.51314607421875  10.710130546875 5.98424466796875  10.710350390625 5.42168607421875  C 10.7106102148437 4.85908751953125  10.93010140625 4.3300262109375  11.3284113476562 3.93199609375  C 11.7259618164063 3.53442564453125  12.2550430859375 3.315394140625  12.818121328125 3.315394140625  C 13.3810796484375 3.315394140625  13.9103008398437 3.53436568359375  14.308271015625 3.9319361328125  C 15.1293143554688 4.752080078125  15.1292343945312 6.08835408203125  14.3080111914062 6.91067654296875  Z M 13.6433618164062 4.59760482421875  C 13.4230311914063 4.37747408203125  13.1299698828125 4.25625625  12.8181213085937 4.25625625  C 12.50639265625 4.25625625  12.2135312109375 4.37743408203125  11.9935803515625 4.5974049609375  C 11.7728899804687 4.81791544921875  11.6513523828125 5.1107569140625  11.6512124804688 5.42206583984375  C 11.6510925585938 5.73317490234375  11.77217046875 6.02567658203125  11.9921813085937 6.24566744140625  C 12.2125119335937 6.46551837890625  12.5056731640625 6.58679615234375  12.8173618359375 6.58679615234375  C 13.129010546875 6.58679615234375  13.4222117382812 6.46551837890625  13.6428621484375 6.24530767578125  C 14.096934296875 5.7905959765625  14.0974339453125 5.0511573046875  13.6433618164062 4.59760482421875  Z " fill-rule="nonzero" fill="#cccccc" stroke="none" transform="matrix(1 0 0 1 21 72 )" />
  </g>
</svg>