<?xml version="1.0" encoding="utf-8"?>
<svg version="1.1" xmlns:xlink="http://www.w3.org/1999/xlink" width="19px" height="20px" xmlns="http://www.w3.org/2000/svg">
  <g transform="matrix(1 0 0 1 -20 -188 )">
    <path d="M 8.21 2.49  C 8.21 2.14  7.93 1.87  7.59 1.87  L 1.44 1.87  C 1.1 1.87  0.82 2.15  0.82 2.49  L 0.82 8.99  C 0.82 9.33  1.1 9.61  1.44 9.61  L 7.59 9.61  C 7.93 9.61  8.21 9.34  8.21 8.99  L 8.21 2.49  Z M 8.21 12.41  C 8.21 12.08  7.93 11.8  7.59 11.8  L 1.44 11.8  C 1.1 11.8  0.82 12.08  0.82 12.41  L 0.82 18.56  C 0.82 18.9  1.1 19.17  1.44 19.17  L 7.59 19.17  C 7.93 19.17  8.21 18.89  8.21 18.56  L 8.21 12.41  Z M 18.03 12.41  C 18.04 12.08  17.76 11.8  17.42 11.8  L 11.27 11.8  C 10.93 11.8  10.66 12.08  10.66 12.41  L 10.66 18.56  C 10.66 18.9  10.94 19.17  11.27 19.17  L 17.42 19.17  C 17.76 19.17  18.03 18.9  18.03 18.56  L 18.03 12.41  Z M 14.3 10.21  L 9.7 5.6  L 14.31 0.99  L 18.91 5.6  L 14.3 10.21  Z " fill-rule="nonzero" fill="#cccccc" stroke="none" transform="matrix(1 0 0 1 20 188 )" />
  </g>
</svg>