<?xml version="1.0" encoding="utf-8"?>
<svg version="1.1" xmlns:xlink="http://www.w3.org/1999/xlink" width="16px" height="18px" xmlns="http://www.w3.org/2000/svg">
  <g transform="matrix(1 0 0 1 -21 -131 )">
    <path d="M 2.9175 11.275  L 1.96 11.7525  L 0.165 7.31  C 0.00749999999999984 6.9  0.0124999999999997 6.45  0.18 6.0375  C 0.34 5.6425  0.6275 5.33  0.9925 5.1525  L 10.515 0.5725  C 11.2875 0.2  12.1725 0.5575  12.4875 1.37  L 14.3 6.0575  L 13.335 6.5225  L 11.5225 1.8375  C 11.4375 1.6225  11.17 1.5375  10.9325 1.65  L 1.41 6.23  C 1.285 6.29  1.19 6.3925  1.1375 6.52  C 1.1125 6.5825  1.0775 6.7075  1.1275 6.8375  L 2.9175 11.275  Z M 15.9525 15.8325  C 15.9525 16.8025  15.245 17.5925  14.375 17.5925  L 3.49 17.5925  C 2.62 17.5925  1.9125 16.8025  1.9125 15.835  L 1.9125 7.6475  C 1.9125 6.6775  2.62 5.89  3.49 6  L 14.375 6  C 15.245 5.89  15.9525 6.68  15.9525 7.6475  L 15.9525 15.8325  Z M 14.375 7  L 3.49 7  C 3.2 7.0625  2.965 7.325  2.965 7.6475  L 2.965 15.8325  C 2.965 16.155  3.2 16.4175  3.49 16.4175  L 14.375 16.4175  C 14.665 16.4175  14.9 16.155  14.9 15.8325  L 14.9 7.6475  C 14.9 7.325  14.6625 7.0625  14.375 7  Z M 6.19 12.4775  C 6.1325 12.51  6.0725 12.525  6.0125 12.525  C 5.8675 12.525  5.73 12.4375  5.66 12.2825  C 5.56 12.065  5.64 11.8025  5.835 11.6925  L 10.3475 9.15  C 10.54 9.04  10.7775 9.1275  10.8775 9.345  C 10.975 9.5625  10.8975 9.825  10.7025 9.935  L 6.19 12.4775  Z M 7.865 14.7875  C 7.805 14.825  7.74 14.845  7.67 14.845  C 7.5325 14.845  7.3975 14.765  7.325 14.6225  C 7.2175 14.4125  7.285 14.145  7.4725 14.0225  L 12.085 11.1075  C 12.27 10.9875  12.515 11.06  12.6225 11.275  C 12.73 11.485  12.6625 11.7525  12.4725 11.875  L 7.865 14.7875  Z " fill-rule="nonzero" fill="#cccccc" stroke="none" transform="matrix(1 0 0 1 21 131 )" />
  </g>
</svg>