<?xml version="1.0" encoding="utf-8"?>
<svg version="1.1" xmlns:xlink="http://www.w3.org/1999/xlink" width="18px" height="18px" xmlns="http://www.w3.org/2000/svg">
  <g transform="matrix(1 0 0 1 -21 -10 )">
    <path d="M 17.7307605664062 9.00275814453125  C 17.7307605664062 6.67227822265625  16.8232358398438 4.481303671875  15.175333125 2.8334209375  C 13.5274304101562 1.1854782421875  11.3364558789062 0.2779535546875  9.00597595703125 0.2779535546875  C 6.675496015625 0.2779535546875  4.4845015234375 1.18547826171875  2.8366187890625 2.83342095703125  C 1.18871607421875 4.48130369140625  0.28117138671875 6.672298203125  0.28117138671875 9.002778125  C 0.28117138671875 10.7006469726563  0.769380390625 12.3466709570313  1.69301416015625 13.7629507226562  C 1.87611001953125 14.0436604101562  2.25215505859375 14.1227467773437  2.53290470703125 13.9397708398437  C 2.8136743359375 13.7566749804687  2.8928406640625 13.3806299414062  2.7097448046875 13.0998403125  C 1.91506359375 11.8813464453125  1.4950083984375 10.46456703125  1.4950083984375 9.002778125  C 1.4950083984375 4.86122609375  4.86442392578125 1.49181056640625  9.0059559765625 1.49181056640625  C 13.1475279882813 1.49181056640625  16.5169035546875 4.86124609375  16.5169035546875 9.002778125  C 16.5169035546875 13.14431015625  13.14752796875 16.5137456835938  9.00597595703125 16.5137456835938  C 7.63456578125 16.5137456835938  6.29285544921875 16.1408185351562  5.12594662109375 15.4353568359375  C 4.83910109375 15.261894453125  4.46597408203125 15.3538720898438  4.292571640625 15.6406976171875  C 4.11914921875 15.927563125  4.21108689453125 16.3006901367187  4.497912421875 16.4740725976563  C 5.8543127734375 17.2941166015625  7.41315587890625 17.7275827148438  9.0059559765625 17.7275827148438  C 11.3364558984375 17.7275827148438  13.5274304101562 16.8200580078125  15.1753331445313 15.1721153125  C 16.8232158789063 13.524232578125  17.7307605664062 11.3332380664063  17.7307605664062 9.00275814453125  Z " fill-rule="nonzero" fill="#cccccc" stroke="none" transform="matrix(1 0 0 1 21 10 )" />
  </g>
</svg>