<?xml version="1.0" encoding="utf-8"?>
<svg version="1.1" xmlns:xlink="http://www.w3.org/1999/xlink" width="10px" height="13px" xmlns="http://www.w3.org/2000/svg">
  <g transform="matrix(1 0 0 1 -25 -12 )">
    <path d="M 3.01594515625 7.01496984375  C 1.26637140625 7.777672734375  0.0401028125000007 9.523628984375  0.0401028125000007 11.5508944921875  C 0.0401028125000007 11.8860872265625  0.311838574218751 12.1578229882813  0.647031308593751 12.1578229882813  C 0.982224042968751 12.1578229882813  1.2539598046875 11.8860872265625  1.2539598046875 11.5508944921875  C 1.2539598046875 9.49316962890625  2.92802478515625 7.819144609375  4.98572966796875 7.819144609375  C 7.04343455078125 7.819144609375  8.71749953125 9.493189609375  8.71749953125 11.5508944921875  C 8.71749953125 11.8860872265625  8.98923529296875 12.1578229882813  9.32442802734375 12.1578229882813  C 9.65962076171875 12.1578229882813  9.9313565234375 11.8860872265625  9.9313565234375 11.5508944921875  C 9.9313565234375 9.523628984375  8.7050879296875 7.777672734375  6.955514140625 7.01496984375  C 7.89747548828125 6.37984046875  8.51821462890625 5.30309048828125  8.51821462890625 4.08401703125  C 8.51821462890625 2.13617767578125  6.9335490234375 0.551512070312501  4.9857296484375 0.551512070312501  C 3.0379102734375 0.551512070312501  1.45324466796875 2.13617767578125  1.45324466796875 4.08401703125  C 1.45324466796875 5.3030705078125  2.07398380859375 6.37984046875  3.01594515625 7.01496984375  Z M 4.98568970703125 6.40268498046875  C 3.70717654296875 6.40268498046875  2.66706173828125 5.3625501953125  2.66706173828125 4.08401703125  C 2.66706173828125 2.8055038671875  3.7071965234375 1.76534908203125  4.9857096875 1.76534908203125  C 6.2642228515625 1.76534908203125  7.30433765625 2.8055038671875  7.30433765625 4.08401703125  C 7.30433765625 5.3625301953125  6.26420287109375 6.40268498046875  4.98568970703125 6.40268498046875  Z " fill-rule="nonzero" fill="#cccccc" stroke="none" transform="matrix(1 0 0 1 25 12 )" />
  </g>
</svg>