<?xml version="1.0" encoding="utf-8"?>
<svg version="1.1" xmlns:xlink="http://www.w3.org/1999/xlink" width="20px" height="10px" xmlns="http://www.w3.org/2000/svg">
  <g transform="matrix(1 0 0 1 -18 -80 )">
    <path d="M 10.409 5.206  C 10.8952 5.2551  11.3829 5.2906  11.9792 5.3417  C 11.763 5.0024  11.6042 4.7743  11.4671 4.5338  C 11.146 3.9705  11.0808 3.3886  11.4768 2.8417  C 11.8475 2.3297  12.4018 2.2489  12.96 2.4176  C 13.4484 2.5653  13.9312 2.7697  14.3737 3.0237  C 15.7678 3.8236  17.22 4.4707  18.7895 4.8347  C 19.2629 4.9446  19.499 5.2088  19.4916 5.7116  C 19.4772 6.6945  19.4929 7.6779  19.4852 8.661  C 19.4808 9.2317  19.2303 9.4844  18.6575 9.4852  C 15.4247 9.4896  12.1907 9.5347  8.9598 9.4545  C 8.1262 9.4338  7.2708 9.089  6.4803 8.7607  C 4.1846 7.8078  2.4206 6.2455  1.3179 3.9855  C 0.9509 3.2333  0.9064 2.4453  1.1032 1.6478  C 1.361 0.603400000000001  2.2252 0.171500000000002  3.1681 0.694500000000001  C 3.753 1.0189  4.2406 1.5215  4.7615 1.9564  C 4.8999 2.072  5.0192 2.2217  5.1149 2.3758  C 6.335 4.3409  8.2567 4.9893  10.409 5.206  Z M 10.0957 8.6022  C 11.262 8.5822  12.429 8.5988  13.5956 8.5988  C 15.0956 8.5988  16.5957 8.5893  18.0955 8.6057  C 18.4493 8.6095  18.6109 8.5356  18.5941 8.1406  C 18.5651 7.4585  18.5713 6.7738  18.5928 6.0912  C 18.6021 5.7974  18.4849 5.6842  18.2187 5.6128  C 16.6661 5.1964  15.2069 4.5606  13.8264 3.7355  C 13.5155 3.5497  13.1713 3.4021  12.8237 3.3024  C 12.6417 3.2501  12.2857 3.2804  12.2426 3.3775  C 12.1563 3.5719  12.17 3.8628  12.2539 4.0682  C 12.3711 4.3553  12.6076 4.591  12.7621 4.8661  C 13.1181 5.4994  12.7242 6.1935  11.9966 6.2181  C 11.7145 6.2277  11.4305 6.2009  11.148 6.1819  C 8.3508 5.9937  5.8143 5.2882  4.2194 2.7011  C 4.1165 2.5341  3.9652 2.3896  3.8136 2.2615  C 3.5093 2.0044  3.2098 1.7317  2.8708 1.5278  C 2.3731 1.2285  2.0342 1.3573  1.9824 1.9226  C 1.934 2.4513  1.9339 3.0463  2.1317 3.5207  C 2.4088 4.1851  2.8147 4.8311  3.2955 5.3686  C 5.1008 7.3874  7.2901 8.6503  10.0957 8.6022  Z " fill-rule="nonzero" fill="#cccccc" stroke="none" transform="matrix(1 0 0 1 18 80 )" />
  </g>
</svg>