<?xml version="1.0" encoding="utf-8"?>
<svg version="1.1" xmlns:xlink="http://www.w3.org/1999/xlink" width="17px" height="13px" xmlns="http://www.w3.org/2000/svg">
  <g transform="matrix(1 0 0 1 -20 -70 )">
    <path d="M 16.3122 7.6252  C 16.3604 7.9707  16.3822 8.3198  16.4163 8.6673  C 16.3905 9.9599  16.0787 11.1732  15.4924 12.3192  C 15.3457 12.606  15.1627 12.8653  14.7995 12.6926  C 14.4317 12.5177  14.5182 12.2271  14.6735 11.9317  C 16.8914 7.7126  14.4007 2.5238  9.4441 1.6218  C 5.3577 0.8782  1.3984 3.8815  1.0025 8.0367  C 0.9993 8.0698  0.9969 8.1032  0.9967 8.1365  C 0.9947 8.4539  0.9039 8.7186  0.5288 8.7078  C 0.1078 8.6957  0.0584999999999996 8.3826  0.1103 8.064  C 0.2088 7.4581  0.2786 6.8383  0.4636 6.2573  C 1.6 2.6875  5.0023 0.3875  8.7101 0.6625  C 12.7926 0.9653  15.7724 3.7614  16.3122 7.6252  Z " fill-rule="nonzero" fill="#cccccc" stroke="none" transform="matrix(1 0 0 1 20 70 )" />
  </g>
</svg>