<?xml version="1.0" encoding="utf-8"?>
<svg version="1.1" xmlns:xlink="http://www.w3.org/1999/xlink" width="6px" height="9px" xmlns="http://www.w3.org/2000/svg">
  <g transform="matrix(1 0 0 1 -25 -73 )">
    <path d="M 2.8014 4.8864  C 2.7745 4.6762  2.7968 4.4597  2.7968 4.1645  C 2.2386 4.1645  1.7577 4.1657  1.2767 4.1641  C 0.957800000000001 4.1629  0.6321 4.1158  0.6244 3.7175  C 0.6165 3.3085  0.9434 3.2701  1.2634 3.2708  C 1.6413 3.2717  2.0193 3.271  2.5416 3.271  C 2.0788 2.6744  1.6866 2.1914  1.3238 1.6872  C 1.2177 1.5397  1.1198 1.3182  1.1496 1.1546  C 1.2179 0.780600000000001  1.6869 0.7304  1.9653 1.0683  C 2.387 1.58  2.785 2.1112  3.2382 2.6919  C 3.6702 2.1389  4.0486 1.6173  4.4719 1.1352  C 4.6011 0.988000000000001  4.8652 0.858100000000001  5.0475 0.880800000000001  C 5.3798 0.922000000000001  5.45 1.3005  5.2051 1.6294  C 4.8201 2.1465  4.4189 2.6514  3.9392 3.2719  C 4.4679 3.2719  4.8756 3.2735  5.2833 3.2713  C 5.5782 3.2697  5.8448 3.3501  5.8576 3.6849  C 5.8713 4.0453  5.6011 4.1588  5.285 4.1623  C 4.7734 4.168  4.2616 4.1638  3.7216 4.1638  C 3.7216 4.5818  3.7216 4.9409  3.7216 5.3804  C 4.2242 5.3804  4.7186 5.3832  5.2128 5.3794  C 5.5354 5.3769  5.8623 5.4188  5.8572 5.8207  C 5.8523 6.2079  5.5374 6.2755  5.2091 6.2728  C 4.7281 6.2687  4.2471 6.2717  3.6918 6.2717  C 3.6918 6.9514  3.6891 7.5947  3.693 8.2381  C 3.6951 8.5611  3.6024 8.8126  3.2286 8.8085  C 2.8807 8.8047  2.7945 8.565  2.7963 8.2624  C 2.8 7.6177  2.7974 6.9729  2.7974 6.2714  C 2.2377 6.2714  1.7423 6.2715  1.247 6.2714  C 0.9186 6.2713  0.613799999999999 6.1978  0.623699999999999 5.7987  C 0.6329 5.4225  0.936 5.3791  1.2395 5.3803  C 1.5894 5.3818  1.9408 5.3597  2.2888 5.3852  C 2.6696 5.413  2.8544 5.2981  2.8014 4.8864  Z " fill-rule="nonzero" fill="#cccccc" stroke="none" transform="matrix(1 0 0 1 25 73 )" />
  </g>
</svg>