<?xml version="1.0" encoding="utf-8"?>
<svg version="1.1" xmlns:xlink="http://www.w3.org/1999/xlink" width="18px" height="18px" xmlns="http://www.w3.org/2000/svg">
  <g transform="matrix(1 0 0 1 -21 -10 )">
    <path d="M 15.5664609375 11.1999609375  C 16.772841796875 11.1999609375  17.7538203125 10.21844140625  17.7538203125 9.0126015625  C 17.7538203125 7.806220703125  16.77283984375 6.825201171875  15.5664609375 6.825201171875  L 15.1872809375 6.825201171875  C 15.110380546875 6.60678125  15.0222809375 6.393181640625  14.924040703125 6.186501953125  L 15.191040703125 5.918962890625  C 15.6027809375 5.5072421875  15.82976140625 4.957703125  15.82976140625 4.372423828125  C 15.82976140625 3.786583984375  15.6027809375 3.237603515625  15.191040703125 2.82586328125  C 14.77932 2.4135625  14.2297809375 2.187123046875  13.64448015625 2.187123046875  C 13.05912078125 2.187123046875  12.50962078125 2.4135625  12.097960625 2.82586328125  L 11.830960625 3.0928828125  C 11.623720390625 2.99458203125  11.41062078125 2.906482421875  11.191681328125 2.82958203125  L 11.191681328125 2.45042203125  C 11.191681328125 1.24406265625  10.210642265625 0.263041171875002  9.0042809375 0.263041171875002  C 7.797960625 0.263041171875002  6.8169215625 1.244060703125  6.8169215625 2.45042203125  L 6.8169215625 2.82958203125  C 6.59794109375 2.906482421875  6.384841484375 2.99458203125  6.17762078125 3.0928828125  L 5.91060125 2.82586328125  C 5.49894109375 2.4135625  4.9494215625 2.187123046875  4.3640621875 2.187123046875  C 3.778782890625 2.187123046875  3.229321953125 2.4135625  2.817501640625 2.82586328125  C 2.405861015625 3.237583984375  2.178802421875 3.786583984375  2.178802421875 4.372423828125  C 2.178802421875 4.957724609375  2.40586296875 5.507244140625  2.817501640625 5.918962890625  L 3.084521171875 6.185962890625  C 2.98630046875 6.39318359375  2.898181328125 6.606263671875  2.8212809375 6.825203125  L 2.4421009375 6.825203125  C 1.235780625 6.825203125  0.254741562500004 7.80622265625  0.254741562500004 9.012603515625  C 0.254741562500004 10.218443359375  1.235780625 11.199962890625  2.4421009375 11.199962890625  L 2.8212809375 11.199962890625  C 2.898181328125 11.418943359375  2.98630046875 11.6320234375  3.084521171875 11.839203125  L 2.817501640625 12.10622265625  C 2.405861015625 12.517962890625  2.178802421875 13.066982421875  2.178802421875 13.652802734375  C 2.178802421875 14.238662109375  2.40586296875 14.787623046875  2.817501640625 15.199341796875  C 3.229321953125 15.611021484375  3.7787809375 15.83808203125  4.3640621875 15.83808203125  C 4.949443046875 15.83808203125  5.498943046875 15.611021484375  5.91060125 15.199341796875  L 6.17762078125 14.932341796875  C 6.384841484375 15.0306015625  6.59794109375 15.11812109375  6.8169215625 15.1956015625  L 6.8169215625 15.5748215625  C 6.8169215625 16.780600859375  7.797960625 17.7621809375  9.0042809375 17.7621809375  C 10.2106403125 17.7621809375  11.191681328125 16.780600859375  11.191681328125 15.5748215625  L 11.191681328125 15.1956015625  C 11.41062078125 15.11812109375  11.623720390625 15.0306015625  11.830960625 14.931841796875  L 12.097960625 15.199322265625  C 12.50962078125 15.611001953125  13.0591403125 15.8380625  13.64448015625 15.8380625  C 14.2297809375 15.8380625  14.77932 15.611001953125  15.191040703125 15.199322265625  C 15.6027809375 14.7876015625  15.82976140625 14.238642578125  15.82976140625 13.652783203125  C 15.82976140625 13.066962890625  15.6027809375 12.517943359375  15.191040703125 12.106203125  L 14.924040703125 11.8386640625  C 15.0222809375 11.631484375  15.110380546875 11.41836328125  15.1872809375 11.199943359375  L 15.56646 11.199943359375  Z M 13.5761015625 12.037341796875  L 14.417720703125 12.87948046875  C 14.62333984375 13.084560546875  14.736021484375 13.359080078125  14.736021484375 13.65280078125  C 14.736021484375 13.94598046875  14.623341796875 14.220521484375  14.417720703125 14.426060546875  C 14.006580078125 14.836759765625  13.282380859375 14.836759765625  12.871220703125 14.426060546875  L 12.029060546875 13.583380859375  L 11.668041015625 13.78578125  C 11.303841796875 13.9892421875  10.909720703125 14.1521015625  10.4958203125 14.269560546875  L 10.09798046875 14.38230078125  L 10.09798046875 15.57482078125  C 10.09798046875 16.177701640625  9.607201171875 16.668439921875  9.004259765625 16.668439921875  C 8.401318359375 16.668439921875  7.9105390625 16.1776996875  7.9105390625 15.57482078125  L 7.9105390625 14.38230078125  L 7.51273828125 14.269560546875  C 7.098318359375 14.151560546875  6.703638671875 13.989220703125  6.34055859375 13.78578125  L 5.97951953125 13.583900390625  L 5.1373203125 14.426041015625  C 4.72612109375 14.836740234375  4.00198046875 14.836740234375  3.59078125 14.426041015625  C 3.385181640625 14.220501953125  3.272541015625 13.9459609375  3.272541015625 13.65278125  C 3.272541015625 13.359060546875  3.385181640625 13.084541015625  3.59078125 12.8794609375  L 4.432921875 12.037341796875  L 4.2306015625 11.676302734375  C 4.027640625 11.313203125  3.86526171875 10.91908203125  3.74728125 10.503623046875  L 3.634521484375 10.106263671875  L 2.442061484375 10.106263671875  C 1.8391415625 10.106263671875  1.348401328125 9.615484375  1.348401328125 9.012583984375  C 1.348401328125 8.40964453125  1.83912203125 7.91886328125  2.442061484375 7.91886328125  L 3.634521484375 7.91886328125  L 3.74728125 7.52100390625  C 3.86526171875 7.106064453125  4.027640625 6.711423828125  4.2306015625 6.34882421875  L 4.432921875 5.98782421875  L 3.59078125 5.1456640625  C 3.385181640625 4.940044921875  3.272541015625 4.665564453125  3.272541015625 4.372384765625  C 3.272541015625 4.07864453125  3.385181640625 3.80414453125  3.59078125 3.59910546875  C 4.002001953125 3.18840625  4.726140625 3.18840625  5.1373203125 3.59910546875  L 5.97951953125 4.44124609375  L 6.34055859375 4.23888671875  C 6.703638671875 4.035947265625  7.098337890625 3.873046875  7.51273828125 3.75556640625  L 7.9105390625 3.6428671875  L 7.9105390625 2.4503671875  C 7.9105390625 1.846947265625  8.401318359375 1.3566875  9.004259765625 1.3566875  C 9.607201171875 1.3566875  10.09798046875 1.846947265625  10.09798046875 2.4503671875  L 10.09798046875 3.6428671875  L 10.4958203125 3.75556640625  C 10.909720703125 3.87306640625  11.30383984375 4.03540625  11.668041015625 4.23938671875  L 12.029060546875 4.44124609375  L 12.871220703125 3.59910546875  C 13.282400390625 3.18840625  14.0066015625 3.18840625  14.417720703125 3.59910546875  C 14.62333984375 3.80414453125  14.736021484375 4.07864453125  14.736021484375 4.372384765625  C 14.736021484375 4.665564453125  14.623341796875 4.940044921875  14.417720703125 5.1456640625  L 13.5761015625 5.98782421875  L 13.777421875 6.34882421875  C 13.981482421875 6.713544921875  14.14428125 7.108224609375  14.26122265625 7.52100390625  L 14.373982421875 7.91886328125  L 15.566442421875 7.91886328125  C 16.16936234375 7.91886328125  16.660141640625 8.409642578125  16.660141640625 9.012583984375  C 16.660141640625 9.615484375  16.16936234375 10.106263671875  15.566442421875 10.106263671875  L 14.373982421875 10.106263671875  L 14.26122265625 10.503623046875  C 14.14426171875 10.916923828125  13.981482421875 11.311083984375  13.777421875 11.676302734375  L 13.5761015625 12.037341796875  Z M 12.28533984375 9.012599609375  C 12.28533984375 7.203279296875  10.813580078125 5.7315  9.004259765625 5.7315  C 7.194939453125 5.7315  5.7231796875 7.203279296875  5.7231796875 9.012599609375  C 5.7231796875 10.82187890625  7.194939453125 12.2936796875  9.004259765625 12.2936796875  C 10.813580078125 12.2936796875  12.28533984375 10.82187890625  12.28533984375 9.012599609375  Z M 11.19166015625 9.0126015625  C 11.19166015625 10.218439453125  10.210640625 11.1999609375  9.004259765625 11.1999609375  C 7.797939453125 11.1999609375  6.816900390625 10.21844140625  6.816900390625 9.0126015625  C 6.816900390625 7.806220703125  7.797939453125 6.825201171875  9.004259765625 6.825201171875  C 10.210619140625 6.825201171875  11.19166015625 7.806220703125  11.19166015625 9.0126015625  Z " fill-rule="nonzero" fill="#cccccc" stroke="none" transform="matrix(1 0 0 1 21 10 )" />
  </g>
</svg>