<?xml version="1.0" encoding="utf-8"?>
<svg version="1.1" xmlns:xlink="http://www.w3.org/1999/xlink" width="18px" height="20px" xmlns="http://www.w3.org/2000/svg">
  <g transform="matrix(1 0 0 1 -21 -69 )">
    <path d="M 8.9999310546875 1.99983228455933  C 11.3667444335937 1.99983228455933  13.2857027929688 3.79050072152484  13.2857027929688 5.99961161930295  L 15.42850828125 5.99961161930295  C 15.42850828125 2.68626699138569  12.5504153515625 0  8.9999310546875 0  C 5.4494467578125 0  2.5714687890625 2.68626699138569  2.5714687890625 5.99961161930295  L 4.7142282421875 5.99961161930295  C 4.71422826171875 3.79050072152484  6.633209609375 1.99983228455933  8.9999310546875 1.99983228455933  Z M 16.142815 7.33330038843611  L 1.8571619921875 7.33330038843611  C 1.0681705859375 7.33330038843611  0.42857142578125 7.93036609138289  0.42857142578125 8.66629976303823  L 0.42857142578125 18.6662882561471  C 0.42857142578125 19.4029342910835  1.0681705859375 19.9999999940303  1.8571619921875 20  L 16.142815 20  C 16.9317145703125 20.0000689393427  17.5714285742187 19.4029342910835  17.5714285742187 18.6662882561471  L 17.5714285742187 8.66629972397573  C 17.5714055664062 7.93036605232039  16.9317145703125 7.33330038843611  16.142815 7.33330038843611  Z M 16.37665828125 18.6973112053566  C 16.37665828125 18.8489790178113  16.2525669921875 18.973070873243  16.1008997070312 19  L 1.96682201171875 19  C 1.815154765625 18.9730708927743  1.69106337890625 18.8489790568738  1.69106337890625 18.6973112248879  L 1.69106337890625 8.83786822001827  C 1.69106337890625 8.68620038803229  1.815154765625 8.56210853260058  1.96682201171875 8.56210853260058  L 16.1008997070312 8.56210853260058  C 16.2525669921875 8.56210853260058  16.37665828125 8.68620038803229  16.37665828125 8.83786822001827  L 16.37665828125 18.6973112053566  Z M 8.9999310546875 10.6668213640036  C 7.81616818359375 10.6668213640036  6.857125625 11.561822418424  6.857125625 12.6666765977817  C 6.857125625 13.4047473788114  7.2910318359375 14.0430161676833  7.92858580078125 14.3889796832051  L 7.92858580078125 16.2918823974808  C 7.92858580078125 16.8665885691843  8.4084058203125 17.3332888424825  9.0000459765625 17.3332888424825  C 9.591479296875 17.3332888424825  10.0715061523438 16.866588549653  10.0715061523438 16.2918823974808  L 10.0715061523438 14.3889796832051  C 10.7090141601563 14.0430161676833  11.14285140625 13.4047474178739  11.14285140625 12.6666765977817  C 11.1428284179687 11.5619373402989  10.1838088476562 10.6669362858786  9.0000459765625 10.6669362858786  Z " fill-rule="nonzero" fill="#cccccc" stroke="none" transform="matrix(1 0 0 1 21 69 )" />
  </g>
</svg>