<?xml version="1.0" encoding="utf-8"?>
<svg version="1.1" xmlns:xlink="http://www.w3.org/1999/xlink" width="16px" height="16px" xmlns="http://www.w3.org/2000/svg">
  <g transform="matrix(1 0 0 1 -322 -18 )">
    <path d="M 15.7316846679687 7.129493671875  C 15.7316846289063 5.11568712890625  13.6429406445312 0.29291791015625  8.00001265625 0.29291791015625  C 2.35649130859375 0.29291791015625  0.268348476562499 5.21501431640625  0.268348476562499 7.9746159765625  C 0.268348476562499 10.7342371484375  2.23578798828125 15.70628796875  7.83526107421875 15.70628796875  C 8.4867958984375 15.70628796875  9.2180383984375 15.501309765625  9.2180383984375 14.7295829882813  C 9.2180383984375 13.4466988867187  8.00001265625 13.7829201367188  8.00001265625 12.4613122851563  C 8.00001265625 11.8777235742188  8.560355390625 11.45505703125  9.5166055078125 11.45505703125  C 9.99218541015625 11.45505703125  11.7790012890625 11.6037452734375  12.8727363085937 11.1814729882813  C 13.966471328125 10.759200703125  15.7316846679687 9.41686470703125  15.7316846679687 7.129493671875  Z M 4.62841578125 6.65726302734375  C 4.62841578125 7.39831529296875  4.02713205078125 7.9995990234375  3.28607978515625 7.9995990234375  C 2.5444341796875 7.9995990234375  1.9437437890625 7.39831529296875  1.9437437890625 6.65726302734375  C 1.9437437890625 5.915613515625  2.54502751953125 5.31433369140625  3.28607978515625 5.31433369140625  C 4.02713205078125 5.31433369140625  4.62841578125 5.915617421875  4.62841578125 6.65726302734375  Z M 7.1614288671875 3.33561666015625  C 7.16202611328125 4.07666892578125  6.5607306640625 4.67795265625  5.81909287109375 4.67795265625  C 5.077447265625 4.67795265625  4.476756875 4.07666892578125  4.476756875 3.33561666015625  C 4.476756875 2.5939788671875  5.07804060546875 1.9932806640625  5.81909287109375 1.9932806640625  C 6.56013341796875 1.9932806640625  7.1614288671875 2.5939788671875  7.1614288671875 3.33561666015625  Z M 11.467361015625 3.33561666015625  C 11.4673609960937 4.07666892578125  10.866085078125 4.67795265625  10.1250250195313 4.67795265625  C 9.38398447265625 4.67795265625  8.7826890234375 4.07666892578125  8.7826890234375 3.33561666015625  C 8.7826890234375 2.5939788671875  9.38398056640625 1.9932806640625  10.1250250195313 1.9932806640625  C 10.866088984375 1.9932806640625  11.467361015625 2.5939788671875  11.467361015625 3.33561666015625  Z M 14.0241704492187 6.65726302734375  C 14.0241704492188 7.39831529296875  13.42289453125 7.9995990234375  12.6812489257812 7.9995990234375  C 11.9401849609375 7.9995990234375  11.3389129296875 7.39831529296875  11.3389129296875 6.65726302734375  C 11.3389129296875 5.915613515625  11.9401849609375 5.31433369140625  12.6812489257812 5.31433369140625  C 13.42289453125 5.31433369140625  14.0241704492187 5.915617421875  14.0241704492187 6.65726302734375  Z " fill-rule="nonzero" fill="#ffffff" stroke="none" transform="matrix(1 0 0 1 322 18 )" />
  </g>
</svg>