<?xml version="1.0" encoding="utf-8"?>
<svg version="1.1" xmlns:xlink="http://www.w3.org/1999/xlink" width="16px" height="16px" xmlns="http://www.w3.org/2000/svg">
  <g transform="matrix(1 0 0 1 -13 -7 )">
    <path d="M 16 11.8506611712176  C 15.999740390388 13.1602266872746  15.0085508915968 14.2219474497682  13.7881261053691 14.2219474497682  L 12.6048254936639 14.2219474497682  C 12.356638704548 15.2424523441525  11.4999269847966 16  10.4710940922588 16  L 5.52864629812919 16  C 4.49929418636728 16  3.64232285700383 15.2419027992444  3.39595333517226 14.2219474497682  L 2.21213350424304 14.2219474497682  C 0.990151060343028 14.2219474497682  0 13.1602266872746  0 11.8503863987635  L 0 10.6652928043964  C 0 9.35600206079339  0.989891450730988 8.29483084320799  2.21213350424304 8.29483084320799  L 3.31651279388621 8.29483084320799  L 3.31651279388621 2.37156105100466  C 3.31651279388621 1.06227030740168  4.30718307345332 0  5.52812707890511 0  L 10.4708344826467 0  C 11.6928169265467 0  12.6824487676656 1.06227030740168  12.6824487676656 2.37156105100466  L 12.6824487676656 8.29510561566205  L 13.7883857149811 8.29510561566205  C 15.0093297204329 8.29510561566205  16 9.35627683324745  16 10.6655675768504  L 16 11.8506611712176  Z M 4.4219305219776 13.6289884939035  C 4.4219305219776 14.2843207968401  4.91752527137317 14.815455950541  5.52786746929307 14.815455950541  L 10.4705748730347 14.815455950541  C 11.0816958997907 14.815455950541  11.5772906491863 14.2843207968401  11.5772906491863 13.6289884939035  C 11.5772906491863 12.9755795981453  11.0822151190148 12.4438948995363  10.4705748730347 12.4438948995363  L 5.52786746929307 12.4438948995363  C 4.91804449059731 12.4438948995363  4.4219305219776 12.9755795981453  4.4219305219776 13.6289884939035  Z M 11.5772906491863 8.29510561566205  L 11.5772906491863 2.37156105100466  C 11.5772906491863 1.7170530654302  11.0822151190148 1.18646745663747  10.4705748730347 1.18646745663747  L 5.52786746929307 1.18646745663747  C 4.91804449059731 1.18646745663747  4.4219305219776 1.7170530654302  4.4219305219776 2.37156105100466  L 4.4219305219776 8.29510561566205  L 11.5772906491863 8.29510561566205  Z M 14.8930246142364 10.6652928043964  C 14.8930246142364 10.01133436373  14.3984683032889 9.48019921002918  13.787606886145 9.48019921002918  L 2.2116142850189 9.48019921002918  C 1.60049325826293 9.48019921002918  1.10619655692757 10.01133436373  1.10619655692757 10.6652928043964  L 1.10619655692757 11.8503863987635  C 1.10619655692757 12.5062682466083  1.60075286787497 13.0360295380388  2.2116142850189 13.0360295380388  L 3.39491489672405 13.0360295380388  C 3.64128441855561 12.0155246436545  4.4987749671432 11.257976987807  5.52760785968103 11.257976987807  L 10.4695364345865 11.257976987807  C 11.5001865944086 11.257976987807  12.356379094936 12.0155246436545  12.6032678359916 13.0360295380388  L 13.7870876669209 13.0360295380388  C 14.3976894744528 13.0360295380388  14.8925053950122 12.5059934741542  14.8925053950122 11.8503863987635  L 14.8925053950122 10.6652928043964  Z " fill-rule="nonzero" fill="#999999" stroke="none" transform="matrix(1 0 0 1 13 7 )" />
  </g>
</svg>