<?xml version="1.0" encoding="utf-8"?>
<svg version="1.1" xmlns:xlink="http://www.w3.org/1999/xlink" width="16px" height="16px" viewBox="209 59.5  16 16" xmlns="http://www.w3.org/2000/svg">
  <path d="M 217 59.5  C 221.48 59.5  225 63.02  225 67.5  C 225 71.98  221.48 75.5  217 75.5  C 212.52 75.5  209 71.98  209 67.5  C 209 63.02  212.52 59.5  217 59.5  Z " fill-rule="nonzero" fill="#ffffff" stroke="none" />
  <path d="M 217 60  C 221.2 60  224.5 63.3  224.5 67.5  C 224.5 71.7  221.2 75  217 75  C 212.8 75  209.5 71.7  209.5 67.5  C 209.5 63.3  212.8 60  217 60  Z " stroke-width="1" stroke="#e4e4e4" fill="none" />
  <path d="M 217 71.5  C 214.76 71.5  213 69.74  213 67.5  C 213 65.26  214.76 63.5  217 63.5  C 219.24 63.5  221 65.26  221 67.5  C 221 69.74  219.24 71.5  217 71.5  " fill-rule="nonzero" fill="#e4e4e4" stroke="none" />
</svg>