<?xml version="1.0" encoding="utf-8"?>
<svg version="1.1" xmlns:xlink="http://www.w3.org/1999/xlink" width="66px" height="40px" xmlns="http://www.w3.org/2000/svg">
  <g transform="matrix(1 0 0 1 -205 -1 )">
    <path d="M 205.5 3  A 1.5 1.5 0 0 1 207 1.5 L 269 1.5  A 1.5 1.5 0 0 1 270.5 3 L 270.5 39  A 1.5 1.5 0 0 1 269 40.5 L 207 40.5  A 1.5 1.5 0 0 1 205.5 39 L 205.5 3  Z " fill-rule="nonzero" fill="#3399ff" stroke="none" />
    <path d="M 205.5 3  A 1.5 1.5 0 0 1 207 1.5 L 269 1.5  A 1.5 1.5 0 0 1 270.5 3 L 270.5 39  A 1.5 1.5 0 0 1 269 40.5 L 207 40.5  A 1.5 1.5 0 0 1 205.5 39 L 205.5 3  Z " stroke-width="1" stroke="#3399ff" fill="none" />
  </g>
</svg>