<?xml version="1.0" encoding="utf-8"?>
<svg version="1.1" xmlns:xlink="http://www.w3.org/1999/xlink" width="160px" height="30px" xmlns="http://www.w3.org/2000/svg">
  <g transform="matrix(1 0 0 1 0 -261 )">
    <path d="M 0.5 263  A 1.5 1.5 0 0 1 2 261.5 L 158 261.5  A 1.5 1.5 0 0 1 159.5 263 L 159.5 289  A 1.5 1.5 0 0 1 158 290.5 L 2 290.5  A 1.5 1.5 0 0 1 0.5 289 L 0.5 263  Z " fill-rule="nonzero" fill="#3399ff" stroke="none" />
    <path d="M 0.5 263  A 1.5 1.5 0 0 1 2 261.5 L 158 261.5  A 1.5 1.5 0 0 1 159.5 263 L 159.5 289  A 1.5 1.5 0 0 1 158 290.5 L 2 290.5  A 1.5 1.5 0 0 1 0.5 289 L 0.5 263  Z " stroke-width="1" stroke="#3399ff" fill="none" />
  </g>
</svg>