<?xml version="1.0" encoding="utf-8"?>
<svg version="1.1" xmlns:xlink="http://www.w3.org/1999/xlink" width="12px" height="12px" viewBox="90 351  12 12" xmlns="http://www.w3.org/2000/svg">
  <path d="M 96 351  C 99.36 351  102 353.64  102 357  C 102 360.36  99.36 363  96 363  C 92.64 363  90 360.36  90 357  C 90 353.64  92.64 351  96 351  Z " fill-rule="nonzero" fill="#ffffff" stroke="none" />
  <path d="M 96 351.5  C 99.08 351.5  101.5 353.92  101.5 357  C 101.5 360.08  99.08 362.5  96 362.5  C 92.92 362.5  90.5 360.08  90.5 357  C 90.5 353.92  92.92 351.5  96 351.5  Z " stroke-width="1" stroke="#e4e4e4" fill="none" />
  <path d="M 96 360  C 94.32 360  93 358.68  93 357  C 93 355.32  94.32 354  96 354  C 97.68 354  99 355.32  99 357  C 99 358.68  97.68 360  96 360  " fill-rule="nonzero" fill="#e4e4e4" stroke="none" />
</svg>