<?xml version="1.0" encoding="utf-8"?>
<svg version="1.1" xmlns:xlink="http://www.w3.org/1999/xlink" width="12px" height="12px" viewBox="206 290  12 12" xmlns="http://www.w3.org/2000/svg">
  <path d="M 212 290  C 215.36 290  218 292.64  218 296  C 218 299.36  215.36 302  212 302  C 208.64 302  206 299.36  206 296  C 206 292.64  208.64 290  212 290  Z " fill-rule="nonzero" fill="#ffffff" stroke="none" />
  <path d="M 212 290.5  C 215.08 290.5  217.5 292.92  217.5 296  C 217.5 299.08  215.08 301.5  212 301.5  C 208.92 301.5  206.5 299.08  206.5 296  C 206.5 292.92  208.92 290.5  212 290.5  Z " stroke-width="1" stroke="#e4e4e4" fill="none" />
  <path d="M 212 299  C 210.32 299  209 297.68  209 296  C 209 294.32  210.32 293  212 293  C 213.68 293  215 294.32  215 296  C 215 297.68  213.68 299  212 299  " fill-rule="nonzero" fill="#e4e4e4" stroke="none" />
</svg>