<?xml version="1.0" encoding="utf-8"?>
<svg version="1.1" xmlns:xlink="http://www.w3.org/1999/xlink" width="12px" height="12px" viewBox="568 117  12 12" xmlns="http://www.w3.org/2000/svg">
  <path d="M 574 117  C 577.36 117  580 119.64  580 123  C 580 126.36  577.36 129  574 129  C 570.64 129  568 126.36  568 123  C 568 119.64  570.64 117  574 117  Z " fill-rule="nonzero" fill="#ffffff" stroke="none" />
  <path d="M 574 117.5  C 577.08 117.5  579.5 119.92  579.5 123  C 579.5 126.08  577.08 128.5  574 128.5  C 570.92 128.5  568.5 126.08  568.5 123  C 568.5 119.92  570.92 117.5  574 117.5  Z " stroke-width="1" stroke="#e4e4e4" fill="none" />
  <path d="M 574 126  C 572.32 126  571 124.68  571 123  C 571 121.32  572.32 120  574 120  C 575.68 120  577 121.32  577 123  C 577 124.68  575.68 126  574 126  " fill-rule="nonzero" fill="#e4e4e4" stroke="none" />
</svg>