<?xml version="1.0" encoding="utf-8"?>
<svg version="1.1" xmlns:xlink="http://www.w3.org/1999/xlink" width="12px" height="12px" viewBox="684 26  12 12" xmlns="http://www.w3.org/2000/svg">
  <path d="M 690 26  C 693.36 26  696 28.64  696 32  C 696 35.36  693.36 38  690 38  C 686.64 38  684 35.36  684 32  C 684 28.64  686.64 26  690 26  Z " fill-rule="nonzero" fill="#ffffff" stroke="none" />
  <path d="M 690 26.5  C 693.08 26.5  695.5 28.92  695.5 32  C 695.5 35.08  693.08 37.5  690 37.5  C 686.92 37.5  684.5 35.08  684.5 32  C 684.5 28.92  686.92 26.5  690 26.5  Z " stroke-width="1" stroke="#e4e4e4" fill="none" />
  <path d="M 690 35  C 688.32 35  687 33.68  687 32  C 687 30.32  688.32 29  690 29  C 691.68 29  693 30.32  693 32  C 693 33.68  691.68 35  690 35  " fill-rule="nonzero" fill="#e4e4e4" stroke="none" />
</svg>