<?xml version="1.0" encoding="utf-8"?>
<svg version="1.1" xmlns:xlink="http://www.w3.org/1999/xlink" width="137px" height="81px" xmlns="http://www.w3.org/2000/svg">
  <defs>
    <mask fill="white" id="clip27">
      <path d="M 137 0  L 0 0  L 0 66.9846419795481  C 0 66.9846419795481  16.2772277227723 82.5634099970183  38.3193069306932 80.8715368413418  C 60.3613861386138 79.1796636856651  72.2301980198019 59.8923097109519  98.0024752475247 58.5388111864105  C 123.774752475248 57.1853126618692  137 58.5388111864105  137 58.5388111864105  L 137 0  Z " fill-rule="evenodd" />
    </mask>
  </defs>
  <g transform="matrix(1 0 0 1 -200 -394 )">
    <path d="M 137 0  L 0 0  L 0 66.9846419795481  C 0 66.9846419795481  16.2772277227723 82.5634099970183  38.3193069306932 80.8715368413418  C 60.3613861386138 79.1796636856651  72.2301980198019 59.8923097109519  98.0024752475247 58.5388111864105  C 123.774752475248 57.1853126618692  137 58.5388111864105  137 58.5388111864105  L 137 0  Z " fill-rule="nonzero" fill="#ffffff" stroke="none" transform="matrix(1 0 0 1 200 394 )" />
    <path d="M 137 0  L 0 0  L 0 66.9846419795481  C 0 66.9846419795481  16.2772277227723 82.5634099970183  38.3193069306932 80.8715368413418  C 60.3613861386138 79.1796636856651  72.2301980198019 59.8923097109519  98.0024752475247 58.5388111864105  C 123.774752475248 57.1853126618692  137 58.5388111864105  137 58.5388111864105  L 137 0  Z " stroke-width="2" stroke="#797979" fill="none" transform="matrix(1 0 0 1 200 394 )" mask="url(#clip27)" />
  </g>
</svg>