<?xml version="1.0" encoding="utf-8"?><svg version="1.1" xmlns:xlink="http://www.w3.org/1999/xlink" width="24px" height="24px" xmlns="http://www.w3.org/2000/svg"><g transform="matrix(1 0 0 1 -721 -11 )"><path d="M 17.296875 14.5  C 17.296875 14.6354166666667  17.2447916666666 14.7552083333333  17.140625 14.859375  L 14.859375 17.140625  C 14.7552083333334 17.2447916666667  14.6354166666666 17.296875  14.5 17.296875  C 14.3645833333334 17.296875  14.2447916666666 17.2447916666667  14.140625 17.140625  L 12 15  L 9.859375 17.140625  C 9.75520833333337 17.2447916666667  9.63541666666663 17.296875  9.5 17.296875  C 9.36458333333337 17.296875  9.24479166666663 17.2447916666667  9.140625 17.140625  L 6.859375 14.859375  C 6.75520833333337 14.7552083333333  6.703125 14.6354166666667  6.703125 14.5  C 6.703125 14.3645833333333  6.75520833333337 14.2447916666667  6.859375 14.140625  L 9 12  L 6.859375 9.859375  C 6.75520833333337 9.75520833333333  6.703125 9.63541666666666  6.703125 9.5  C 6.703125 9.36458333333333  6.75520833333337 9.24479166666666  6.859375 9.140625  L 9.140625 6.859375  C 9.24479166666663 6.75520833333333  9.36458333333337 6.703125  9.5 6.703125  C 9.63541666666663 6.703125  9.75520833333337 6.75520833333333  9.859375 6.859375  L 12 9  L 14.140625 6.859375  C 14.2447916666666 6.75520833333333  14.3645833333334 6.703125  14.5 6.703125  C 14.6354166666666 6.703125  14.7552083333334 6.75520833333333  14.859375 6.859375  L 17.140625 9.140625  C 17.2447916666666 9.24479166666666  17.296875 9.36458333333333  17.296875 9.5  C 17.296875 9.63541666666666  17.2447916666666 9.75520833333333  17.140625 9.859375  L 15 12  L 17.140625 14.140625  C 17.2447916666666 14.2447916666667  17.296875 14.3645833333333  17.296875 14.5  Z M 19.359375 16.265625  C 20.1197916666666 14.9635416666667  20.5 13.5416666666667  20.5 12  C 20.5 10.4583333333333  20.1197916666666 9.03645833333333  19.359375 7.734375  C 18.5989583333334 6.43229166666666  17.5677083333334 5.40104166666666  16.265625 4.640625  C 14.9635416666666 3.88020833333333  13.5416666666666 3.5  12 3.5  C 10.4583333333334 3.5  9.03645833333337 3.88020833333333  7.734375 4.640625  C 6.43229166666663 5.40104166666666  5.40104166666663 6.43229166666666  4.640625 7.734375  C 3.88020833333337 9.03645833333333  3.5 10.4583333333333  3.5 12  C 3.5 13.5416666666667  3.88020833333337 14.9635416666667  4.640625 16.265625  C 5.40104166666663 17.5677083333333  6.43229166666663 18.5989583333333  7.734375 19.359375  C 9.03645833333337 20.1197916666667  10.4583333333334 20.5  12 20.5  C 13.5416666666666 20.5  14.9635416666666 20.1197916666667  16.265625 19.359375  C 17.5677083333334 18.5989583333333  18.5989583333334 17.5677083333333  19.359375 16.265625  Z M 22.390625 5.9765625  C 23.4635416666666 7.81510416666666  24 9.82291666666666  24 12  C 24 14.1770833333333  23.4635416666666 16.1848958333333  22.390625 18.0234375  C 21.3177083333334 19.8619791666667  19.8619791666666 21.3177083333333  18.0234375 22.390625  C 16.1848958333334 23.4635416666667  14.1770833333334 24  12 24  C 9.82291666666663 24  7.81510416666663 23.4635416666667  5.9765625 22.390625  C 4.13802083333337 21.3177083333333  2.68229166666663 19.8619791666667  1.609375 18.0234375  C 0.536458333333371 16.1848958333333  0 14.1770833333333  0 12  C 0 9.82291666666666  0.536458333333371 7.81510416666666  1.609375 5.9765625  C 2.68229166666663 4.13802083333333  4.13802083333337 2.68229166666666  5.9765625 1.609375  C 7.81510416666663 0.536458333333332  9.82291666666663 0  12 0  C 14.1770833333334 0  16.1848958333334 0.536458333333332  18.0234375 1.609375  C 19.8619791666666 2.68229166666666  21.3177083333334 4.13802083333333  22.390625 5.9765625  Z " fill-rule="nonzero" fill="#999999" stroke="none" transform="matrix(1 0 0 1 721 11 )" /></g></svg>