<?xml version="1.0" encoding="utf-8"?><svg version="1.1" xmlns:xlink="http://www.w3.org/1999/xlink" width="16px" height="16px" viewBox="173 9.5  16 16" xmlns="http://www.w3.org/2000/svg"><path d="M 181 9.5  C 185.48 9.5  189 13.02  189 17.5  C 189 21.98  185.48 25.5  181 25.5  C 176.52 25.5  173 21.98  173 17.5  C 173 13.02  176.52 9.5  181 9.5  Z " fill-rule="nonzero" fill="#ffffff" stroke="none" /><path d="M 181 10  C 185.2 10  188.5 13.3  188.5 17.5  C 188.5 21.7  185.2 25  181 25  C 176.8 25  173.5 21.7  173.5 17.5  C 173.5 13.3  176.8 10  181 10  Z " stroke-width="1" stroke="#e4e4e4" fill="none" /><path d="M 181 21.5  C 178.76 21.5  177 19.74  177 17.5  C 177 15.26  178.76 13.5  181 13.5  C 183.24 13.5  185 15.26  185 17.5  C 185 19.74  183.24 21.5  181 21.5  " fill-rule="nonzero" fill="#e4e4e4" stroke="none" /></svg>