<?xml version="1.0" encoding="utf-8"?><svg version="1.1" xmlns:xlink="http://www.w3.org/1999/xlink" width="8px" height="10px" xmlns="http://www.w3.org/2000/svg"><g transform="matrix(1 0 0 1 -258 -167 )"><path d="M 7.86254295532643 4.7695390781563  C 7.95418098510879 4.83633934535737  8 4.91315965263857  8 5  C 8 5.08684034736143  7.95418098510879 5.16366065464263  7.86254295532643 5.2304609218437  L 1.4570446735396 9.89979959919845  C 1.36540664375713 9.96659986639952  1.26002290950743 10  1.14089347079033 10  C 1.02176403207329 10  0.916380297823565 9.96659986639952  0.824742268041263 9.89979959919845  L 0.137457044673539 9.39879759519033  C 0.0458190148912365 9.33199732798926  0 9.25517702070806  0 9.16833667334674  C 0 9.08149632598531  0.0458190148912365 9.00467601870412  0.137457044673539 8.93787575150304  L 5.53951890034358 5  L 0.137457044673539 1.06212424849696  C 0.0458190148912365 0.995323981295883  0 0.918503674014687  0 0.831663326653256  C 0 0.744822979291939  0.0458190148912365 0.668002672010743  0.137457044673539 0.601202404809669  L 0.824742268041263 0.100200400801555  C 0.916380297823565 0.0334001336004803  1.02176403207329 0  1.14089347079033 0  C 1.26002290950743 0  1.36540664375713 0.0334001336004803  1.4570446735396 0.100200400801555  L 7.86254295532643 4.7695390781563  Z " fill-rule="nonzero" fill="#cccccc" stroke="none" transform="matrix(1 0 0 1 258 167 )" /></g></svg>