<?xml version="1.0" encoding="utf-8"?><svg version="1.1" xmlns:xlink="http://www.w3.org/1999/xlink" width="12px" height="12px" viewBox="164 117  12 12" xmlns="http://www.w3.org/2000/svg"><path d="M 170 117  C 173.36 117  176 119.64  176 123  C 176 126.36  173.36 129  170 129  C 166.64 129  164 126.36  164 123  C 164 119.64  166.64 117  170 117  Z " fill-rule="nonzero" fill="#ffffff" stroke="none" /><path d="M 170 117.5  C 173.08 117.5  175.5 119.92  175.5 123  C 175.5 126.08  173.08 128.5  170 128.5  C 166.92 128.5  164.5 126.08  164.5 123  C 164.5 119.92  166.92 117.5  170 117.5  Z " stroke-width="1" stroke="#e4e4e4" fill="none" /><path d="M 170 126  C 168.32 126  167 124.68  167 123  C 167 121.32  168.32 120  170 120  C 171.68 120  173 121.32  173 123  C 173 124.68  171.68 126  170 126  " fill-rule="nonzero" fill="#e4e4e4" stroke="none" /></svg>