<?xml version="1.0" encoding="utf-8"?>
<svg version="1.1" xmlns:xlink="http://www.w3.org/1999/xlink" width="40px" height="39px" xmlns="http://www.w3.org/2000/svg">
  <g transform="matrix(1 0 0 1 -6 -6 )">
    <path d="M 6 6  L 46 6  L 46 45  L 6 45  L 6 6  " fill-rule="nonzero" fill="#cccccc" stroke="none" />
    <path d="M 9 9  L 43 9  L 43 42  L 9 42  L 9 9  " fill-rule="nonzero" fill="#ffffff" stroke="none" />
    <path d="M 29.725 17.7  C 28.087 17.7  26.8 16.413  26.8 14.775  C 26.8 13.137  28.087 11.85  29.725 11.85  C 31.363 11.85  32.65 13.137  32.65 14.775  C 32.65 16.413  31.363 17.7  29.725 17.7  " fill-rule="nonzero" fill="#cccccc" stroke="none" />
    <path d="M 10 41  L 10 23.95  L 18 16.2  L 29.2 22.865  L 35.6 20.85  L 42 22.865  L 42 41  L 10 41  " fill-rule="nonzero" fill="#169bd5" stroke="none" />
  </g>
</svg>