<?xml version="1.0" encoding="utf-8"?><svg version="1.1" xmlns:xlink="http://www.w3.org/1999/xlink" width="99px" height="35px" xmlns="http://www.w3.org/2000/svg"><g transform="matrix(1 0 0 1 -253 -64 )"><path d="M 254 66  A 1 1 0 0 1 255 65 L 350 65  A 1 1 0 0 1 351 66 L 351 97  A 1 1 0 0 1 350 98 L 255 98  A 1 1 0 0 1 254 97 L 254 66  Z " fill-rule="nonzero" fill="#cccccc" stroke="none" /><path d="M 253.5 66  A 1.5 1.5 0 0 1 255 64.5 L 350 64.5  A 1.5 1.5 0 0 1 351.5 66 L 351.5 97  A 1.5 1.5 0 0 1 350 98.5 L 255 98.5  A 1.5 1.5 0 0 1 253.5 97 L 253.5 66  Z " stroke-width="1" stroke="#2f4f4f" fill="none" stroke-opacity="0.607843137254902" /></g></svg>