<?xml version="1.0" encoding="utf-8"?>
<svg version="1.1" xmlns:xlink="http://www.w3.org/1999/xlink" width="12px" height="12px" viewBox="241 77  12 12" xmlns="http://www.w3.org/2000/svg">
  <path d="M 247 77  C 250.36 77  253 79.64  253 83  C 253 86.36  250.36 89  247 89  C 243.64 89  241 86.36  241 83  C 241 79.64  243.64 77  247 77  Z " fill-rule="nonzero" fill="#ffffff" stroke="none" />
  <path d="M 247 77.5  C 250.08 77.5  252.5 79.92  252.5 83  C 252.5 86.08  250.08 88.5  247 88.5  C 243.92 88.5  241.5 86.08  241.5 83  C 241.5 79.92  243.92 77.5  247 77.5  Z " stroke-width="1" stroke="#e4e4e4" fill="none" />
  <path d="M 247 86  C 245.32 86  244 84.68  244 83  C 244 81.32  245.32 80  247 80  C 248.68 80  250 81.32  250 83  C 250 84.68  248.68 86  247 86  " fill-rule="nonzero" fill="#e4e4e4" stroke="none" />
</svg>