<?xml version="1.0" encoding="utf-8"?>
<svg version="1.1" xmlns:xlink="http://www.w3.org/1999/xlink" width="25px" height="22px" xmlns="http://www.w3.org/2000/svg">
  <g transform="matrix(1 0 0 1 -102 -238 )">
    <path d="M 14.1494988864142 18.4897836538461  C 14.2376577579807 18.4060496794872  14.2817371937639 18.3024839743589  14.2817371937639 18.1790865384615  L 14.2817371937639 15.6670673076923  C 14.2817371937639 15.5436698717949  14.2376577579807 15.4401041666667  14.1494988864142 15.3563701923077  C 14.0613400148478 15.2726362179487  13.9569413511507 15.2307692307692  13.8363028953229 15.2307692307692  L 11.1636971046771 15.2307692307692  C 11.0430586488493 15.2307692307692  10.9386599851522 15.2726362179487  10.8505011135858 15.3563701923077  C 10.7623422420193 15.4401041666667  10.7182628062361 15.5436698717949  10.7182628062361 15.6670673076923  L 10.7182628062361 18.1790865384615  C 10.7182628062361 18.3024839743589  10.7623422420193 18.4060496794872  10.8505011135858 18.4897836538461  C 10.9386599851522 18.5735176282051  11.0430586488493 18.6153846153846  11.1636971046771 18.6153846153846  L 13.8363028953229 18.6153846153846  C 13.9569413511507 18.6153846153846  14.0613400148478 18.5735176282051  14.1494988864142 18.4897836538461  Z M 14.1077394209354 13.4525240384615  C 14.1958982925019 13.3952323717949  14.2446176688938 13.3225160256411  14.2538975501114 13.234375  L 14.5044543429844 7.16586538461542  C 14.5044543429844 7.06009615384613  14.4580549368968 6.97636217948718  14.3652561247216 6.91466346153845  C 14.2446176688938 6.81770833333331  14.1332590942836 6.76923076923077  14.0311804008909 6.76923076923077  L 10.9688195991091 6.76923076923077  C 10.8667409057164 6.76923076923077  10.7553823311062 6.81770833333331  10.6347438752784 6.91466346153845  C 10.5419450631032 6.97636217948718  10.4955456570156 7.06891025641028  10.4955456570156 7.19230769230768  L 10.7321826280624 13.234375  C 10.7321826280624 13.3225160256411  10.77858203415 13.3952323717949  10.8713808463252 13.4525240384615  C 10.9641796585004 13.5098157051282  11.0755382331106 13.5384615384615  11.2054565701559 13.5384615384615  L 13.7806236080178 13.5384615384615  C 13.9105419450631 13.5384615384615  14.019580549369 13.5098157051282  14.1077394209354 13.4525240384615  Z M 13.4047884187083 0.237980769230774  C 13.6831848552339 0.396634615384585  13.9012620638456 0.612580128205138  14.0590200445434 0.885817307692321  L 24.7494432071269 19.5012019230769  C 25.0742390497402 20.0564903846154  25.0649591685226 20.6117788461539  24.7216035634744 21.1670673076923  C 24.5638455827765 21.4226762820513  24.3480883444692 21.6254006410256  24.0743318485523 21.7752403846154  C 23.8005753526355 21.9250801282051  23.5059391239792 22  23.1904231625835 22  L 1.80957683741647 22  C 1.4940608760208 22  1.19942464736452 21.9250801282051  0.925668151447667 21.7752403846154  C 0.65191165553081 21.6254006410256  0.436154417223463 21.4226762820513  0.278396436525611 21.1670673076923  C -0.0649591685226483 20.6117788461539  -0.0742390497401573 20.0564903846154  0.250556792873056 19.5012019230769  L 10.9409799554566 0.885817307692321  C 11.0987379361544 0.612580128205138  11.3168151447662 0.396634615384585  11.5952115812918 0.237980769230774  C 11.8736080178174 0.0793269230769056  12.1752041573868 0  12.5 0  C 12.8247958426132 0  13.1263919821826 0.0793269230769056  13.4047884187083 0.237980769230774  Z " fill-rule="nonzero" fill="#ff6666" stroke="none" transform="matrix(1 0 0 1 102 238 )" />
  </g>
</svg>