<?xml version="1.0" encoding="utf-8"?>
<svg version="1.1" xmlns:xlink="http://www.w3.org/1999/xlink" width="15px" height="21px" xmlns="http://www.w3.org/2000/svg">
  <g transform="matrix(1 0 0 1 -270 -208 )">
    <path d="M 10.1513671875 9.474609375  C 10.8837890625 8.79101562499997  11.25 7.96614583333332  11.25 7.00000000000003  C 11.25 6.03385416666666  10.8837890625 5.208984375  10.1513671875 4.52539062499997  C 9.4189453125 3.84179687500003  8.53515625 3.49999999999997  7.5 3.49999999999997  C 6.46484375 3.49999999999997  5.5810546875 3.84179687500003  4.8486328125 4.52539062499997  C 4.1162109375 5.208984375  3.75 6.03385416666666  3.75 7.00000000000003  C 3.75 7.96614583333332  4.1162109375 8.79101562499997  4.8486328125 9.474609375  C 5.5810546875 10.158203125  6.46484375 10.5  7.5 10.5  C 8.53515625 10.5  9.4189453125 10.158203125  10.1513671875 9.474609375  Z M 12.802734375 2.05078125  C 14.267578125 3.41796874999997  15 5.06770833333334  15 7.00000000000003  C 15 7.99348958333334  14.8388671875 8.80924479166669  14.5166015625 9.44726562499997  L 9.1845703125 20.029296875  C 9.0283203125 20.330078125  8.79638671875 20.5670572916667  8.48876953125 20.740234375  C 8.18115234375 20.9134114583334  7.8515625 21  7.5 21  C 7.1484375 21  6.81884765625 20.9134114583334  6.51123046875 20.740234375  C 6.20361328125 20.5670572916667  5.9765625 20.330078125  5.830078125 20.029296875  L 0.4833984375 9.44726562499997  C 0.1611328125 8.80924479166669  0 7.99348958333334  0 7.00000000000003  C 0 5.06770833333334  0.732421875 3.41796874999997  2.197265625 2.05078125  C 3.662109375 0.683593750000028  5.4296875 0  7.5 0  C 9.5703125 0  11.337890625 0.683593750000028  12.802734375 2.05078125  Z " fill-rule="nonzero" fill="#cccccc" stroke="none" transform="matrix(1 0 0 1 270 208 )" />
  </g>
</svg>