<?xml version="1.0" encoding="utf-8"?>
<svg version="1.1" xmlns:xlink="http://www.w3.org/1999/xlink" width="18px" height="16px" xmlns="http://www.w3.org/2000/svg">
  <g transform="matrix(1 0 0 1 -501 -213 )">
    <path d="M 11.0390625 9.8125  C 11.9873798076923 8.96955128205127  12.4615384615385 7.95512820512818  12.4615384615385 6.76923076923077  C 12.4615384615385 5.58333333333331  11.9873798076923 4.56891025641028  11.0390625 3.72596153846155  C 10.0907451923077 2.88301282051282  8.94951923076923 2.46153846153845  7.61538461538458 2.46153846153845  C 6.28125 2.46153846153845  5.14002403846155 2.88301282051282  4.19170673076923 3.72596153846155  C 3.24338942307691 4.56891025641028  2.76923076923077 5.58333333333331  2.76923076923077 6.76923076923077  C 2.76923076923077 7.95512820512818  3.24338942307691 8.96955128205127  4.19170673076923 9.8125  C 5.14002403846155 10.6554487179487  6.28125 11.0769230769231  7.61538461538458 11.0769230769231  C 8.94951923076923 11.0769230769231  10.0907451923077 10.6554487179487  11.0390625 9.8125  Z M 17.5997596153846 13.9038461538461  C 17.8665865384615 14.1410256410256  18 14.4294871794872  18 14.7692307692308  C 18 15.1025641025641  17.8629807692308 15.3910256410256  17.5889423076923 15.6346153846154  C 17.3149038461539 15.8782051282051  16.9903846153846 16  16.6153846153846 16  C 16.2259615384615 16  15.9014423076923 15.8782051282051  15.6418269230769 15.6346153846154  L 11.9314903846154 12.3461538461539  C 10.640625 13.1410256410256  9.20192307692309 13.5384615384615  7.61538461538458 13.5384615384615  C 6.58413461538464 13.5384615384615  5.59795673076923 13.3605769230769  4.65685096153845 13.0048076923077  C 3.71574519230768 12.6490384615385  2.90444711538458 12.1682692307692  2.22295673076923 11.5625  C 1.54146634615387 10.9567307692308  1.00060096153845 10.2355769230769  0.600360576923094 9.39903846153845  C 0.200120192307679 8.5625  0 7.68589743589746  0 6.76923076923077  C 0 5.85256410256409  0.200120192307679 4.97596153846155  0.600360576923094 4.13942307692309  C 1.00060096153845 3.30288461538464  1.54146634615387 2.58173076923077  2.22295673076923 1.97596153846155  C 2.90444711538458 1.37019230769232  3.71574519230768 0.889423076923094  4.65685096153845 0.533653846153868  C 5.59795673076923 0.177884615384642  6.58413461538464 0  7.61538461538458 0  C 8.64663461538464 0  9.6328125 0.177884615384642  10.5739182692308 0.533653846153868  C 11.5150240384615 0.889423076923094  12.3263221153846 1.37019230769232  13.0078125 1.97596153846155  C 13.6893028846154 2.58173076923077  14.2301682692308 3.30288461538464  14.6304086538461 4.13942307692309  C 15.0306490384615 4.97596153846155  15.2307692307692 5.85256410256409  15.2307692307692 6.76923076923077  C 15.2307692307692 8.17948717948718  14.7836538461539 9.45833333333331  13.8894230769231 10.6057692307692  L 17.5997596153846 13.9038461538461  Z " fill-rule="nonzero" fill="#cccccc" stroke="none" transform="matrix(1 0 0 1 501 213 )" />
  </g>
</svg>