<?xml version="1.0" encoding="utf-8"?>
<svg version="1.1" xmlns:xlink="http://www.w3.org/1999/xlink" width="15px" height="14px" xmlns="http://www.w3.org/2000/svg">
  <g transform="matrix(1 0 0 1 -11 -18 )">
    <path d="M 14.6437740693196 6.54347826086956  C 14.8812580231066 6.79076086956522  15 7.07925724637681  15 7.40896739130435  C 15 7.73233695652174  14.8812580231066 8.01766304347826  14.6437740693196 8.26494565217391  L 13.9216944801027 8.97826086956522  C 13.6777920410783 9.21920289855072  13.3857509627728 9.33967391304348  13.0455712451861 9.33967391304348  C 12.698973042362 9.33967391304348  12.4101412066752 9.21920289855072  12.1790757381258 8.97826086956522  L 9.34852374839538 6.19157608695652  L 9.34852374839538 12.8872282608696  C 9.34852374839538 13.2169384057971  9.22817715019255 13.4848278985507  8.98748395378691 13.6908967391304  C 8.74679075738126 13.8969655797101  8.45635430038511 14  8.11617458279846 14  L 6.88382541720154 14  C 6.54364569961489 14  6.25320924261874 13.8969655797101  6.01251604621309 13.6908967391304  C 5.77182284980745 13.4848278985507  5.65147625160462 13.2169384057971  5.65147625160462 12.8872282608696  L 5.65147625160462 6.19157608695652  L 2.8209242618742 8.97826086956522  C 2.58985879332478 9.21920289855072  2.301026957638 9.33967391304348  1.95442875481386 9.33967391304348  C 1.60783055198973 9.33967391304348  1.31899871630295 9.21920289855072  1.08793324775353 8.97826086956522  L 0.365853658536585 8.26494565217391  C 0.121951219512195 8.0240036231884  0 7.73867753623188  0 7.40896739130435  C 0 7.07291666666667  0.121951219512195 6.78442028985507  0.365853658536585 6.54347826086956  L 6.63350449293967 0.351902173913044  C 6.85815147625161 0.117300724637681  7.14698331193838 0  7.5 0  C 7.84659820282413 0  8.13863928112965 0.117300724637681  8.37612323491656 0.351902173913044  L 14.6437740693196 6.54347826086956  Z " fill-rule="nonzero" fill="#999999" stroke="none" transform="matrix(1 0 0 1 11 18 )" />
  </g>
</svg>