<?xml version="1.0" encoding="utf-8"?>
<svg version="1.1" xmlns:xlink="http://www.w3.org/1999/xlink" width="12px" height="12px" viewBox="146 105  12 12" xmlns="http://www.w3.org/2000/svg">
  <path d="M 152 105  C 155.36 105  158 107.64  158 111  C 158 114.36  155.36 117  152 117  C 148.64 117  146 114.36  146 111  C 146 107.64  148.64 105  152 105  Z " fill-rule="nonzero" fill="#ffffff" stroke="none" />
  <path d="M 152 105.5  C 155.08 105.5  157.5 107.92  157.5 111  C 157.5 114.08  155.08 116.5  152 116.5  C 148.92 116.5  146.5 114.08  146.5 111  C 146.5 107.92  148.92 105.5  152 105.5  Z " stroke-width="1" stroke="#e4e4e4" fill="none" />
  <path d="M 152 114  C 150.32 114  149 112.68  149 111  C 149 109.32  150.32 108  152 108  C 153.68 108  155 109.32  155 111  C 155 112.68  153.68 114  152 114  " fill-rule="nonzero" fill="#e4e4e4" stroke="none" />
</svg>