<?xml version="1.0" encoding="utf-8"?>
<svg version="1.1" xmlns:xlink="http://www.w3.org/1999/xlink" width="12px" height="12px" viewBox="146 69  12 12" xmlns="http://www.w3.org/2000/svg">
  <path d="M 152 69  C 155.36 69  158 71.64  158 75  C 158 78.36  155.36 81  152 81  C 148.64 81  146 78.36  146 75  C 146 71.64  148.64 69  152 69  Z " fill-rule="nonzero" fill="#ffffff" stroke="none" />
  <path d="M 152 69.5  C 155.08 69.5  157.5 71.92  157.5 75  C 157.5 78.08  155.08 80.5  152 80.5  C 148.92 80.5  146.5 78.08  146.5 75  C 146.5 71.92  148.92 69.5  152 69.5  Z " stroke-width="1" stroke="#e4e4e4" fill="none" />
  <path d="M 152 78  C 150.32 78  149 76.68  149 75  C 149 73.32  150.32 72  152 72  C 153.68 72  155 73.32  155 75  C 155 76.68  153.68 78  152 78  " fill-rule="nonzero" fill="#e4e4e4" stroke="none" />
</svg>