<?xml version="1.0" encoding="utf-8"?>
<svg version="1.1" xmlns:xlink="http://www.w3.org/1999/xlink" width="12px" height="12px" viewBox="99 10  12 12" xmlns="http://www.w3.org/2000/svg">
  <path d="M 105 10  C 108.36 10  111 12.64  111 16  C 111 19.36  108.36 22  105 22  C 101.64 22  99 19.36  99 16  C 99 12.64  101.64 10  105 10  Z " fill-rule="nonzero" fill="#ffffff" stroke="none" />
  <path d="M 105 10.5  C 108.08 10.5  110.5 12.92  110.5 16  C 110.5 19.08  108.08 21.5  105 21.5  C 101.92 21.5  99.5 19.08  99.5 16  C 99.5 12.92  101.92 10.5  105 10.5  Z " stroke-width="1" stroke="#e4e4e4" fill="none" />
  <path d="M 105 19  C 103.32 19  102 17.68  102 16  C 102 14.32  103.32 13  105 13  C 106.68 13  108 14.32  108 16  C 108 17.68  106.68 19  105 19  " fill-rule="nonzero" fill="#e4e4e4" stroke="none" />
</svg>