<?xml version="1.0" encoding="utf-8"?>
<svg version="1.1" xmlns:xlink="http://www.w3.org/1999/xlink" width="12px" height="12px" viewBox="167 10  12 12" xmlns="http://www.w3.org/2000/svg">
  <path d="M 173 10  C 176.36 10  179 12.64  179 16  C 179 19.36  176.36 22  173 22  C 169.64 22  167 19.36  167 16  C 167 12.64  169.64 10  173 10  Z " fill-rule="nonzero" fill="#ffffff" stroke="none" />
  <path d="M 173 10.5  C 176.08 10.5  178.5 12.92  178.5 16  C 178.5 19.08  176.08 21.5  173 21.5  C 169.92 21.5  167.5 19.08  167.5 16  C 167.5 12.92  169.92 10.5  173 10.5  Z " stroke-width="1" stroke="#e4e4e4" fill="none" />
  <path d="M 173 19  C 171.32 19  170 17.68  170 16  C 170 14.32  171.32 13  173 13  C 174.68 13  176 14.32  176 16  C 176 17.68  174.68 19  173 19  " fill-rule="nonzero" fill="#e4e4e4" stroke="none" />
</svg>