<?xml version="1.0" encoding="utf-8"?>
<svg version="1.1" xmlns:xlink="http://www.w3.org/1999/xlink" width="12px" height="12px" xmlns="http://www.w3.org/2000/svg">
  <g transform="matrix(1 0 0 1 -144 -4 )">
    <path d="M 10.3823529411765 9.31617647058824  C 10.5196078431373 9.17892156862745  10.5882352941176 9.01470588235294  10.5882352941176 8.82352941176471  C 10.5882352941176 8.62745098039216  10.5196078431373 8.46078431372549  10.3823529411765 8.32352941176471  L 8.85294117647059 6.79411764705882  C 8.7156862745098 6.65686274509804  8.54901960784314 6.58823529411765  8.35294117647059 6.58823529411765  C 8.14705882352941 6.58823529411765  7.97058823529412 6.66666666666667  7.82352941176471 6.82352941176471  C 7.83823529411765 6.83823529411765  7.88480392156863 6.88357843137255  7.96323529411765 6.95955882352941  C 8.04166666666667 7.03553921568627  8.09436274509804 7.08823529411765  8.12132352941176 7.11764705882353  C 8.14828431372549 7.14705882352941  8.18504901960784 7.19362745098039  8.23161764705882 7.25735294117647  C 8.2781862745098 7.32107843137255  8.31004901960784 7.38357843137255  8.32720588235294 7.44485294117647  C 8.34436274509804 7.50612745098039  8.35294117647059 7.57352941176471  8.35294117647059 7.64705882352941  C 8.35294117647059 7.84313725490196  8.2843137254902 8.00980392156863  8.14705882352941 8.14705882352941  C 8.00980392156863 8.2843137254902  7.84313725490196 8.35294117647059  7.64705882352941 8.35294117647059  C 7.57352941176471 8.35294117647059  7.50612745098039 8.34436274509804  7.44485294117647 8.32720588235294  C 7.38357843137255 8.31004901960784  7.32107843137255 8.2781862745098  7.25735294117647 8.23161764705882  C 7.19362745098039 8.18504901960784  7.14705882352941 8.14828431372549  7.11764705882353 8.12132352941176  C 7.08823529411765 8.09436274509804  7.03553921568628 8.04166666666667  6.95955882352941 7.96323529411765  C 6.88357843137255 7.88480392156863  6.83823529411765 7.83823529411765  6.82352941176471 7.82352941176471  C 6.66176470588235 7.97549019607843  6.58088235294118 8.15441176470588  6.58088235294118 8.36029411764706  C 6.58088235294118 8.55637254901961  6.64950980392157 8.72303921568627  6.78676470588235 8.86029411764706  L 8.30147058823529 10.3823529411765  C 8.43382352941176 10.5147058823529  8.60049019607843 10.5808823529412  8.80147058823529 10.5808823529412  C 8.99754901960784 10.5808823529412  9.16421568627451 10.5171568627451  9.30147058823529 10.3897058823529  L 10.3823529411765 9.31617647058824  Z M 5.17647058823529 4.17647058823529  C 5.33823529411765 4.02450980392157  5.41911764705882 3.84558823529412  5.41911764705882 3.63970588235294  C 5.41911764705882 3.44362745098039  5.35049019607843 3.27696078431372  5.21323529411765 3.13970588235294  L 3.69852941176471 1.61764705882353  C 3.56127450980392 1.48039215686275  3.39460784313725 1.41176470588235  3.19852941176471 1.41176470588235  C 3.00735294117647 1.41176470588235  2.8406862745098 1.47794117647059  2.69852941176471 1.61029411764706  L 1.61764705882353 2.68382352941176  C 1.48039215686275 2.82107843137255  1.41176470588235 2.98529411764706  1.41176470588235 3.17647058823529  C 1.41176470588235 3.37254901960784  1.48039215686275 3.53921568627451  1.61764705882353 3.67647058823529  L 3.14705882352941 5.20588235294118  C 3.27941176470588 5.33823529411765  3.44607843137255 5.40441176470588  3.64705882352941 5.40441176470588  C 3.85294117647059 5.40441176470588  4.02941176470588 5.32843137254902  4.17647058823529 5.17647058823529  C 4.16176470588235 5.16176470588235  4.11519607843137 5.11642156862745  4.03676470588235 5.04044117647059  C 3.95833333333333 4.96446078431373  3.90563725490196 4.91176470588235  3.87867647058824 4.88235294117647  C 3.85171568627451 4.85294117647059  3.81495098039216 4.80637254901961  3.76838235294118 4.74264705882353  C 3.7218137254902 4.67892156862745  3.68995098039216 4.61642156862745  3.67279411764706 4.55514705882353  C 3.65563725490196 4.49387254901961  3.64705882352941 4.42647058823529  3.64705882352941 4.35294117647059  C 3.64705882352941 4.15686274509804  3.7156862745098 3.99019607843137  3.85294117647059 3.85294117647059  C 3.99019607843137 3.7156862745098  4.15686274509804 3.64705882352941  4.35294117647059 3.64705882352941  C 4.42647058823529 3.64705882352941  4.49387254901961 3.65563725490196  4.55514705882353 3.67279411764706  C 4.61642156862745 3.68995098039216  4.67892156862745 3.7218137254902  4.74264705882353 3.76838235294118  C 4.80637254901961 3.81495098039216  4.85294117647059 3.85171568627451  4.88235294117647 3.87867647058824  C 4.91176470588235 3.90563725490196  4.96446078431373 3.95833333333333  5.04044117647059 4.03676470588235  C 5.11642156862745 4.11519607843137  5.16176470588235 4.16176470588235  5.17647058823529 4.17647058823529  Z M 11.3823529411765 7.32352941176471  C 11.7941176470588 7.73529411764706  12 8.23529411764706  12 8.82352941176471  C 12 9.41176470588235  11.7916666666667 9.9093137254902  11.375 10.3161764705882  L 10.2941176470588 11.3897058823529  C 9.88725490196079 11.796568627451  9.38970588235294 12  8.80147058823529 12  C 8.20833333333334 12  7.70833333333333 11.7916666666667  7.30147058823529 11.375  L 5.78676470588235 9.85294117647059  C 5.37990196078431 9.44607843137255  5.17647058823529 8.94852941176471  5.17647058823529 8.36029411764706  C 5.17647058823529 7.75735294117647  5.3921568627451 7.24509803921569  5.82352941176471 6.82352941176471  L 5.17647058823529 6.17647058823529  C 4.75490196078431 6.6078431372549  4.24509803921569 6.82352941176471  3.64705882352941 6.82352941176471  C 3.05882352941176 6.82352941176471  2.55882352941176 6.61764705882353  2.14705882352941 6.20588235294118  L 0.617647058823529 4.67647058823529  C 0.205882352941176 4.26470588235294  0 3.76470588235294  0 3.17647058823529  C 0 2.58823529411765  0.208333333333333 2.0906862745098  0.625 1.68382352941176  L 1.70588235294118 0.610294117647059  C 2.11274509803922 0.203431372549019  2.61029411764706 0  3.19852941176471 0  C 3.79166666666667 0  4.29166666666667 0.208333333333333  4.69852941176471 0.625  L 6.21323529411765 2.14705882352941  C 6.62009803921569 2.55392156862745  6.82352941176471 3.05147058823529  6.82352941176471 3.63970588235294  C 6.82352941176471 4.24264705882353  6.6078431372549 4.75490196078431  6.17647058823529 5.17647058823529  L 6.82352941176471 5.82352941176471  C 7.24509803921569 5.3921568627451  7.75490196078431 5.17647058823529  8.35294117647059 5.17647058823529  C 8.94117647058824 5.17647058823529  9.44117647058824 5.38235294117647  9.85294117647059 5.79411764705882  L 11.3823529411765 7.32352941176471  Z " fill-rule="nonzero" fill="#666666" stroke="none" transform="matrix(1 0 0 1 144 4 )" />
  </g>
</svg>