<?xml version="1.0" encoding="utf-8"?>
<svg version="1.1" xmlns:xlink="http://www.w3.org/1999/xlink" width="12px" height="12px" viewBox="815 1088  12 12" xmlns="http://www.w3.org/2000/svg">
  <path d="M 821 1088  C 824.36 1088  827 1090.64  827 1094  C 827 1097.36  824.36 1100  821 1100  C 817.64 1100  815 1097.36  815 1094  C 815 1090.64  817.64 1088  821 1088  Z " fill-rule="nonzero" fill="#ffffff" stroke="none" />
  <path d="M 821 1088.5  C 824.08 1088.5  826.5 1090.92  826.5 1094  C 826.5 1097.08  824.08 1099.5  821 1099.5  C 817.92 1099.5  815.5 1097.08  815.5 1094  C 815.5 1090.92  817.92 1088.5  821 1088.5  Z " stroke-width="1" stroke="#e4e4e4" fill="none" />
  <path d="M 821 1097  C 819.32 1097  818 1095.68  818 1094  C 818 1092.32  819.32 1091  821 1091  C 822.68 1091  824 1092.32  824 1094  C 824 1095.68  822.68 1097  821 1097  " fill-rule="nonzero" fill="#e4e4e4" stroke="none" />
</svg>