<?xml version="1.0" encoding="utf-8"?>
<svg version="1.1" xmlns:xlink="http://www.w3.org/1999/xlink" width="12px" height="12px" viewBox="757 481  12 12" xmlns="http://www.w3.org/2000/svg">
  <path d="M 763 481  C 766.36 481  769 483.64  769 487  C 769 490.36  766.36 493  763 493  C 759.64 493  757 490.36  757 487  C 757 483.64  759.64 481  763 481  Z " fill-rule="nonzero" fill="#ffffff" stroke="none" />
  <path d="M 763 481.5  C 766.08 481.5  768.5 483.92  768.5 487  C 768.5 490.08  766.08 492.5  763 492.5  C 759.92 492.5  757.5 490.08  757.5 487  C 757.5 483.92  759.92 481.5  763 481.5  Z " stroke-width="1" stroke="#e4e4e4" fill="none" />
  <path d="M 763 490  C 761.32 490  760 488.68  760 487  C 760 485.32  761.32 484  763 484  C 764.68 484  766 485.32  766 487  C 766 488.68  764.68 490  763 490  " fill-rule="nonzero" fill="#e4e4e4" stroke="none" />
</svg>