<?xml version="1.0" encoding="utf-8"?>
<svg version="1.1" xmlns:xlink="http://www.w3.org/1999/xlink" width="80px" height="72px" xmlns="http://www.w3.org/2000/svg">
  <g transform="matrix(1 0 0 1 -13 -9 )">
    <path d="M 13 9  L 93 9  L 93 81  L 13 81  L 13 9  " fill-rule="nonzero" fill="#cccccc" stroke="none" />
    <path d="M 18 14  L 88 14  L 88 76  L 18 76  L 18 14  " fill-rule="nonzero" fill="#ffffff" stroke="none" />
    <path d="M 60 30.6  C 56.976 30.6  54.6 28.224  54.6 25.2  C 54.6 22.176  56.976 19.8  60 19.8  C 63.024 19.8  65.4 22.176  65.4 25.2  C 65.4 28.224  63.024 30.6  60 30.6  " fill-rule="nonzero" fill="#cccccc" stroke="none" />
    <path d="M 20 74  L 20 42.1  L 36.5 27.6  L 59.6 42.68  L 72.8 36.3  L 86 42.68  L 86 74  L 20 74  " fill-rule="nonzero" fill="#169bd5" stroke="none" />
  </g>
</svg>