<?xml version="1.0" encoding="utf-8"?>
<svg version="1.1" xmlns:xlink="http://www.w3.org/1999/xlink" width="80px" height="72px" xmlns="http://www.w3.org/2000/svg">
  <g transform="matrix(1 0 0 1 -36 -26 )">
    <path d="M 36 26  L 116 26  L 116 98  L 36 98  L 36 26  " fill-rule="nonzero" fill="#cccccc" stroke="none" />
    <path d="M 41 31  L 111 31  L 111 93  L 41 93  L 41 31  " fill-rule="nonzero" fill="#ffffff" stroke="none" />
    <path d="M 83 47.6  C 79.976 47.6  77.6 45.224  77.6 42.2  C 77.6 39.176  79.976 36.8  83 36.8  C 86.024 36.8  88.4 39.176  88.4 42.2  C 88.4 45.224  86.024 47.6  83 47.6  " fill-rule="nonzero" fill="#cccccc" stroke="none" />
    <path d="M 43 91  L 43 59.1  L 59.5 44.6  L 82.6 59.68  L 95.8 53.3  L 109 59.68  L 109 91  L 43 91  " fill-rule="nonzero" fill="#169bd5" stroke="none" />
  </g>
</svg>