<?xml version="1.0" encoding="utf-8"?><svg version="1.1" xmlns:xlink="http://www.w3.org/1999/xlink" width="1040px" height="60px" xmlns="http://www.w3.org/2000/svg"><g transform="matrix(1 0 0 1 -30 -80 )"><path d="M 30.5 82  A 1.5 1.5 0 0 1 32 80.5 L 1068 80.5  A 1.5 1.5 0 0 1 1069.5 82 L 1069.5 138  A 1.5 1.5 0 0 1 1068 139.5 L 32 139.5  A 1.5 1.5 0 0 1 30.5 138 L 30.5 82  Z " fill-rule="nonzero" fill="#3399ff" stroke="none" /><path d="M 30.5 82  A 1.5 1.5 0 0 1 32 80.5 L 1068 80.5  A 1.5 1.5 0 0 1 1069.5 82 L 1069.5 138  A 1.5 1.5 0 0 1 1068 139.5 L 32 139.5  A 1.5 1.5 0 0 1 30.5 138 L 30.5 82  Z " stroke-width="1" stroke="#3399ff" fill="none" /></g></svg>