<?xml version="1.0" encoding="utf-8"?>
<svg version="1.1" xmlns:xlink="http://www.w3.org/1999/xlink" width="202px" height="30px" xmlns="http://www.w3.org/2000/svg">
  <defs>
    <mask fill="white" id="clip100">
      <path d="M 0 28  L 0 2  C 0 0.880000000000003  0.879999999999996 0  2 0  L 202 0  L 202 30  L 74 30  L 2 30  C 0.879999999999996 30  0 29.12  0 28  Z " fill-rule="evenodd" />
    </mask>
  </defs>
  <g transform="matrix(1 0 0 1 -281 -62 )">
    <path d="M 0 28  L 0 2  C 0 0.880000000000003  0.879999999999996 0  2 0  L 202 0  L 202 30  L 74 30  L 2 30  C 0.879999999999996 30  0 29.12  0 28  Z " fill-rule="nonzero" fill="#ffffff" stroke="none" transform="matrix(1 0 0 1 281 62 )" />
    <path d="M 0 28  L 0 2  C 0 0.880000000000003  0.879999999999996 0  2 0  L 202 0  L 202 30  L 74 30  L 2 30  C 0.879999999999996 30  0 29.12  0 28  Z " stroke-width="2" stroke="#e4e4e4" fill="none" transform="matrix(1 0 0 1 281 62 )" mask="url(#clip100)" />
  </g>
</svg>