<?xml version="1.0" encoding="utf-8"?><svg version="1.1" xmlns:xlink="http://www.w3.org/1999/xlink" width="20px" height="8px" xmlns="http://www.w3.org/2000/svg"><g transform="matrix(1 0 0 1 -18 -117 )"><path d="M 10.409 4.1648  C 10.8952 4.20408  11.3829 4.23248  11.9792 4.27336  C 11.763 4.00192  11.6042 3.81944  11.4671 3.62704  C 11.146 3.1764  11.0808 2.71088  11.4768 2.27336  C 11.8475 1.86376  12.4018 1.79912  12.96 1.93408  C 13.4484 2.05224  13.9312 2.21576  14.3737 2.41896  C 15.7678 3.05888  17.22 3.57656  18.7895 3.86776  C 19.2629 3.95568  19.499 4.16704  19.4916 4.56928  C 19.4772 5.3556  19.4929 6.14232  19.4852 6.9288  C 19.4808 7.38536  19.2303 7.58752  18.6575 7.58816  C 15.4247 7.59168  12.1907 7.62776  8.9598 7.5636  C 8.1262 7.54704  7.2708 7.2712  6.4803 7.00856  C 4.1846 6.24624  2.4206 4.9964  1.3179 3.1884  C 0.9509 2.58664  0.9064 1.95624  1.1032 1.31824  C 1.361 0.48272  2.2252 0.137200000000001  3.1681 0.555600000000001  C 3.753 0.815120000000002  4.2406 1.2172  4.7615 1.56512  C 4.8999 1.6576  5.0192 1.77736  5.1149 1.90064  C 6.335 3.47272  8.2567 3.99144  10.409 4.1648  Z M 10.0957 6.88176  C 11.262 6.86576  12.429 6.87904  13.5956 6.87904  C 15.0956 6.87904  16.5957 6.87144  18.0955 6.88456  C 18.4493 6.8876  18.6109 6.82848  18.5941 6.51248  C 18.5651 5.9668  18.5713 5.41904  18.5928 4.87296  C 18.6021 4.63792  18.4849 4.54736  18.2187 4.49024  C 16.6661 4.15712  15.2069 3.64848  13.8264 2.9884  C 13.5155 2.83976  13.1713 2.72168  12.8237 2.64192  C 12.6417 2.60008  12.2857 2.62432  12.2426 2.702  C 12.1563 2.85752  12.17 3.09024  12.2539 3.25456  C 12.3711 3.48424  12.6076 3.6728  12.7621 3.89288  C 13.1181 4.39952  12.7242 4.9548  11.9966 4.97448  C 11.7145 4.98216  11.4305 4.96072  11.148 4.94552  C 8.3508 4.79496  5.8143 4.23056  4.2194 2.16088  C 4.1165 2.02728  3.9652 1.91168  3.8136 1.8092  C 3.5093 1.60352  3.2098 1.38536  2.8708 1.22224  C 2.3731 0.982799999999999  2.0342 1.08584  1.9824 1.53808  C 1.934 1.96104  1.9339 2.43704  2.1317 2.81656  C 2.4088 3.34808  2.8147 3.86488  3.2955 4.29488  C 5.1008 5.90992  7.2901 6.92024  10.0957 6.88176  Z " fill-rule="nonzero" fill="#cccccc" stroke="none" transform="matrix(1 0 0 1 18 117 )" /></g></svg>