<?xml version="1.0" encoding="utf-8"?><svg version="1.1" xmlns:xlink="http://www.w3.org/1999/xlink" width="267px" height="40px" xmlns="http://www.w3.org/2000/svg"><g transform="matrix(1 0 0 1 -9 -261 )"><path d="M 9.5 263  A 1.5 1.5 0 0 1 11 261.5 L 274 261.5  A 1.5 1.5 0 0 1 275.5 263 L 275.5 299  A 1.5 1.5 0 0 1 274 300.5 L 11 300.5  A 1.5 1.5 0 0 1 9.5 299 L 9.5 263  Z " fill-rule="nonzero" fill="#3399ff" stroke="none" /><path d="M 9.5 263  A 1.5 1.5 0 0 1 11 261.5 L 274 261.5  A 1.5 1.5 0 0 1 275.5 263 L 275.5 299  A 1.5 1.5 0 0 1 274 300.5 L 11 300.5  A 1.5 1.5 0 0 1 9.5 299 L 9.5 263  Z " stroke-width="1" stroke="#3399ff" fill="none" /></g></svg>