<?xml version="1.0" encoding="utf-8"?>
<svg version="1.1" xmlns:xlink="http://www.w3.org/1999/xlink" width="17px" height="11px" xmlns="http://www.w3.org/2000/svg">
  <g transform="matrix(1 0 0 1 -20 -108 )">
    <path d="M 16.3122 6.45209230769231  C 16.3604 6.74443846153846  16.3822 7.03983076923077  16.4163 7.33386923076923  C 16.3905 8.42760769230769  16.0787 9.45424615384615  15.4924 10.4239384615385  C 15.3457 10.6666153846154  15.1627 10.8860230769231  14.7995 10.7398923076923  C 14.4317 10.5919  14.5182 10.3460076923077  14.6735 10.0960538461538  C 16.8914 6.52604615384615  14.4007 2.13552307692308  9.4441 1.37229230769231  C 5.3577 0.743092307692308  1.3984 3.28434615384615  1.0025 6.80028461538461  C 0.9993 6.82829230769231  0.9969 6.85655384615385  0.9967 6.88473076923077  C 0.9947 7.1533  0.9039 7.37727692307692  0.5288 7.36813846153846  C 0.1078 7.3579  0.0584999999999996 7.09296923076923  0.1103 6.82338461538462  C 0.2088 6.3107  0.2786 5.78625384615385  0.4636 5.29463846153846  C 1.6 2.27403846153846  5.0023 0.327884615384615  8.7101 0.560576923076923  C 12.7926 0.816792307692308  15.7724 3.18272307692308  16.3122 6.45209230769231  Z " fill-rule="nonzero" fill="#cccccc" stroke="none" transform="matrix(1 0 0 1 20 108 )" />
  </g>
</svg>