<?xml version="1.0" encoding="utf-8"?><svg version="1.1" xmlns:xlink="http://www.w3.org/1999/xlink" width="78px" height="28px" xmlns="http://www.w3.org/2000/svg"><g transform="matrix(1 0 0 1 -731 -79 )"><path d="M 732 84  A 4 4 0 0 1 736 80 L 804 80  A 4 4 0 0 1 808 84 L 808 102  A 4 4 0 0 1 804 106 L 736 106  A 4 4 0 0 1 732 102 L 732 84  Z " fill-rule="nonzero" fill="#ffffff" stroke="none" /><path d="M 731.5 84  A 4.5 4.5 0 0 1 736 79.5 L 804 79.5  A 4.5 4.5 0 0 1 808.5 84 L 808.5 102  A 4.5 4.5 0 0 1 804 106.5 L 736 106.5  A 4.5 4.5 0 0 1 731.5 102 L 731.5 84  Z " stroke-width="1" stroke-dasharray="9,4" stroke="#ff0000" fill="none" stroke-dashoffset="0.5" /></g></svg>