<?xml version="1.0" encoding="utf-8"?><svg version="1.1" xmlns:xlink="http://www.w3.org/1999/xlink" width="15px" height="14px" xmlns="http://www.w3.org/2000/svg"><g transform="matrix(1 0 0 1 -11 -52 )"><path d="M 14.6437740693196 5.78691840863115  C 14.8812580231066 6.03236682400539  15 6.31872330860868  15 6.645987862441  C 15 6.97954596538548  14.8812580231066 7.26275567543268  14.6437740693196 7.4956169925826  L 8.37612323491656 13.6507080242751  C 8.12580231065469 13.883569341425  7.83376123234917 14  7.5 14  C 7.15982028241335 14  6.87098844672657 13.883569341425  6.63350449293967 13.6507080242751  L 0.365853658536585 7.4956169925826  C 0.121951219512195 7.26904922454484  0 6.98583951449764  0 6.645987862441  C 0 6.31242975949652  0.121951219512195 6.02607327489323  0.365853658536585 5.78691840863115  L 1.0783055198973 5.07889413351315  C 1.32862644415918 4.84603281636323  1.6206675224647 4.72960215778827  1.95442875481386 4.72960215778827  C 2.29460847240051 4.72960215778827  2.58344030808729 4.84603281636323  2.8209242618742 5.07889413351315  L 5.65147625160462 7.85434929197573  L 5.65147625160462 1.20836142953473  C 5.65147625160462 0.881096875702405  5.77342747111682 0.597887165655202  6.01732991014121 0.358732299393123  C 6.2612323491656 0.119577433131039  6.55006418485238 0  6.88382541720154 0  L 8.11617458279846 0  C 8.44993581514763 0  8.7387676508344 0.119577433131039  8.98267008985879 0.358732299393123  C 9.22657252888318 0.597887165655202  9.34852374839538 0.881096875702405  9.34852374839538 1.20836142953473  L 9.34852374839538 7.85434929197573  L 12.1790757381258 5.07889413351315  C 12.4165596919127 4.84603281636323  12.7053915275995 4.72960215778827  13.0455712451861 4.72960215778827  C 13.3793324775353 4.72960215778827  13.6713735558408 4.84603281636323  13.9216944801027 5.07889413351315  L 14.6437740693196 5.78691840863115  Z " fill-rule="nonzero" fill="#999999" stroke="none" transform="matrix(1 0 0 1 11 52 )" /></g></svg>