<?xml version="1.0" encoding="utf-8"?><svg version="1.1" xmlns:xlink="http://www.w3.org/1999/xlink" width="12px" height="12px" viewBox="214 69  12 12" xmlns="http://www.w3.org/2000/svg"><path d="M 220 69  C 223.36 69  226 71.64  226 75  C 226 78.36  223.36 81  220 81  C 216.64 81  214 78.36  214 75  C 214 71.64  216.64 69  220 69  Z " fill-rule="nonzero" fill="#ffffff" stroke="none" /><path d="M 220 69.5  C 223.08 69.5  225.5 71.92  225.5 75  C 225.5 78.08  223.08 80.5  220 80.5  C 216.92 80.5  214.5 78.08  214.5 75  C 214.5 71.92  216.92 69.5  220 69.5  Z " stroke-width="1" stroke="#e4e4e4" fill="none" /><path d="M 220 78  C 218.32 78  217 76.68  217 75  C 217 73.32  218.32 72  220 72  C 221.68 72  223 73.32  223 75  C 223 76.68  221.68 78  220 78  " fill-rule="nonzero" fill="#e4e4e4" stroke="none" /></svg>