<?xml version="1.0" encoding="utf-8"?><svg version="1.1" xmlns:xlink="http://www.w3.org/1999/xlink" width="12px" height="12px" viewBox="251 10  12 12" xmlns="http://www.w3.org/2000/svg"><path d="M 257 10  C 260.36 10  263 12.64  263 16  C 263 19.36  260.36 22  257 22  C 253.64 22  251 19.36  251 16  C 251 12.64  253.64 10  257 10  Z " fill-rule="nonzero" fill="#ffffff" stroke="none" /><path d="M 257 10.5  C 260.08 10.5  262.5 12.92  262.5 16  C 262.5 19.08  260.08 21.5  257 21.5  C 253.92 21.5  251.5 19.08  251.5 16  C 251.5 12.92  253.92 10.5  257 10.5  Z " stroke-width="1" stroke="#e4e4e4" fill="none" /><path d="M 257 19  C 255.32 19  254 17.68  254 16  C 254 14.32  255.32 13  257 13  C 258.68 13  260 14.32  260 16  C 260 17.68  258.68 19  257 19  " fill-rule="nonzero" fill="#e4e4e4" stroke="none" /></svg>