<?xml version="1.0" encoding="utf-8"?>
<svg version="1.1" xmlns:xlink="http://www.w3.org/1999/xlink" width="18px" height="18px" xmlns="http://www.w3.org/2000/svg">
  <g transform="matrix(1 0 0 1 -514 -590 )">
    <path d="M 523 590  C 528.04 590  532 593.96  532 599  C 532 604.04  528.04 608  523 608  C 517.96 608  514 604.04  514 599  C 514 593.96  517.96 590  523 590  Z " fill-rule="nonzero" fill="#ffffff" stroke="none" />
    <path d="M 523 590.5  C 527.76 590.5  531.5 594.24  531.5 599  C 531.5 603.76  527.76 607.5  523 607.5  C 518.24 607.5  514.5 603.76  514.5 599  C 514.5 594.24  518.24 590.5  523 590.5  Z " stroke-width="1" stroke="#e4e4e4" fill="none" />
  </g>
</svg>