<?xml version="1.0" encoding="utf-8"?>
<svg version="1.1" xmlns:xlink="http://www.w3.org/1999/xlink" width="20px" height="19px" xmlns="http://www.w3.org/2000/svg">
  <g transform="matrix(1 0 0 1 -608 -252 )">
    <path d="M 19.5250320924262 8.8804347826087  C 19.8416773641421 9.21603260869565  20 9.6075634057971  20 10.055027173913  C 20 10.4938858695652  19.8416773641421 10.8811141304348  19.5250320924262 11.2167119565217  L 18.5622593068036 12.1847826086957  C 18.2370560547711 12.5117753623188  17.8476679503637 12.6752717391304  17.3940949935815 12.6752717391304  C 16.9319640564827 12.6752717391304  16.5468549422336 12.5117753623188  16.2387676508344 12.1847826086957  L 12.4646983311938 8.40285326086956  L 12.4646983311938 17.4898097826087  C 12.4646983311938 17.9372735507246  12.3042362002567 18.3008378623188  11.9833119383825 18.5805027173913  C 11.6623876765083 18.8601675724638  11.2751390671801 19  10.8215661103979 19  L 9.17843388960205 19  C 8.72486093281985 19  8.33761232349165 18.8601675724638  8.01668806161746 18.5805027173913  C 7.69576379974326 18.3008378623188  7.53530166880616 17.9372735507246  7.53530166880616 17.4898097826087  L 7.53530166880616 8.40285326086956  L 3.7612323491656 12.1847826086957  C 3.45314505776637 12.5117753623188  3.06803594351733 12.6752717391304  2.60590500641849 12.6752717391304  C 2.14377406931964 12.6752717391304  1.7586649550706 12.5117753623188  1.45057766367137 12.1847826086957  L 0.48780487804878 11.2167119565217  C 0.16260162601626 10.8897192028985  0 10.502490942029  0 10.055027173913  C 0 9.59895833333333  0.16260162601626 9.20742753623188  0.48780487804878 8.8804347826087  L 8.84467265725289 0.477581521739131  C 9.14420196833547 0.15919384057971  9.52931108258451 0  10 0  C 10.4621309370988 0  10.8515190415062 0.15919384057971  11.1681643132221 0.477581521739131  L 19.5250320924262 8.8804347826087  Z " fill-rule="nonzero" fill="#666666" stroke="none" transform="matrix(1 0 0 1 608 252 )" />
  </g>
</svg>