<?xml version="1.0" encoding="utf-8"?>
<svg version="1.1" xmlns:xlink="http://www.w3.org/1999/xlink" width="12px" height="12px" viewBox="156 86  12 12" xmlns="http://www.w3.org/2000/svg">
  <path d="M 162 86  C 165.36 86  168 88.64  168 92  C 168 95.36  165.36 98  162 98  C 158.64 98  156 95.36  156 92  C 156 88.64  158.64 86  162 86  Z " fill-rule="nonzero" fill="#ffffff" stroke="none" />
  <path d="M 162 86.5  C 165.08 86.5  167.5 88.92  167.5 92  C 167.5 95.08  165.08 97.5  162 97.5  C 158.92 97.5  156.5 95.08  156.5 92  C 156.5 88.92  158.92 86.5  162 86.5  Z " stroke-width="1" stroke="#e4e4e4" fill="none" />
  <path d="M 162 95  C 160.32 95  159 93.68  159 92  C 159 90.32  160.32 89  162 89  C 163.68 89  165 90.32  165 92  C 165 93.68  163.68 95  162 95  " fill-rule="nonzero" fill="#e4e4e4" stroke="none" />
</svg>