<?xml version="1.0" encoding="utf-8"?>
<svg version="1.1" xmlns:xlink="http://www.w3.org/1999/xlink" width="20px" height="11px" xmlns="http://www.w3.org/2000/svg">
  <g transform="matrix(1 0 0 1 -1028 -68 )">
    <path d="M 19.62890625 0.362847222222229  C 19.8763020833335 0.604745370370367  20 0.891203703703695  20 1.22222222222223  C 20 1.55324074074073  19.8763020833335 1.83969907407408  19.62890625 2.08159722222223  L 10.87890625 10.6371527777778  C 10.6315104166665 10.8790509259259  10.3385416666665 11  10 11  C 9.66145833333348 11  9.36848958333348 10.8790509259259  9.12109375 10.6371527777778  L 0.37109375 2.08159722222223  C 0.123697916666515 1.83969907407408  0 1.55324074074073  0 1.22222222222223  C 0 0.891203703703695  0.123697916666515 0.604745370370367  0.37109375 0.362847222222229  C 0.618489583333485 0.120949074074076  0.911458333333485 0  1.25 0  L 18.75 0  C 19.0885416666665 0  19.3815104166665 0.120949074074076  19.62890625 0.362847222222229  Z " fill-rule="nonzero" fill="#00cc99" stroke="none" transform="matrix(1 0 0 1 1028 68 )" />
  </g>
</svg>