<?xml version="1.0" encoding="utf-8"?>
<svg version="1.1" xmlns:xlink="http://www.w3.org/1999/xlink" width="23px" height="22px" xmlns="http://www.w3.org/2000/svg">
  <defs>
    <mask fill="white" id="clip1">
      <path d="M 11.5 22  C 5.05999999999995 22  0 17.16  0 11  C 0 4.84  5.05999999999995 0  11.5 0  C 17.9400000000001 0  23 4.84  23 11  C 23 17.16  17.9400000000001 22  11.5 22  Z " fill-rule="evenodd" />
    </mask>
  </defs>
  <g transform="matrix(1 0 0 1 -17 -1 )">
    <path d="M 11.5 22  C 5.05999999999995 22  0 17.16  0 11  C 0 4.84  5.05999999999995 0  11.5 0  C 17.9400000000001 0  23 4.84  23 11  C 23 17.16  17.9400000000001 22  11.5 22  Z " fill-rule="nonzero" fill="#ffffff" stroke="none" transform="matrix(1 0 0 1 17 1 )" />
    <path d="M 11.5 22  C 5.05999999999995 22  0 17.16  0 11  C 0 4.84  5.05999999999995 0  11.5 0  C 17.9400000000001 0  23 4.84  23 11  C 23 17.16  17.9400000000001 22  11.5 22  Z " stroke-width="2" stroke="#009900" fill="none" transform="matrix(1 0 0 1 17 1 )" mask="url(#clip1)" />
  </g>
</svg>