<?xml version="1.0" encoding="utf-8"?>
<svg version="1.1" xmlns:xlink="http://www.w3.org/1999/xlink" width="18px" height="18px" xmlns="http://www.w3.org/2000/svg">
  <g transform="matrix(1 0 0 1 -44 -77 )">
    <path d="M 14.02734375 10.27734375  C 14.17578125 10.12890625  14.25 9.95312500000001  14.25 9.74999999999999  L 14.25 8.25000000000001  C 14.25 8.04687499999999  14.17578125 7.87109374999999  14.02734375 7.72265625000001  C 13.87890625 7.57421875  13.703125 7.49999999999999  13.5 7.49999999999999  L 4.5 7.49999999999999  C 4.296875 7.49999999999999  4.12109375 7.57421875  3.97265625 7.72265625000001  C 3.82421875 7.87109374999999  3.75 8.04687499999999  3.75 8.25000000000001  L 3.75 9.74999999999999  C 3.75 9.95312500000001  3.82421875 10.12890625  3.97265625 10.27734375  C 4.12109375 10.42578125  4.296875 10.5  4.5 10.5  L 13.5 10.5  C 13.703125 10.5  13.87890625 10.42578125  14.02734375 10.27734375  Z M 16.79296875 4.482421875  C 17.59765625 5.86132812500001  18 7.3671875  18 9  C 18 10.6328125  17.59765625 12.138671875  16.79296875 13.517578125  C 15.98828125 14.896484375  14.896484375 15.98828125  13.517578125 16.79296875  C 12.138671875 17.59765625  10.6328125 18  9 18  C 7.3671875 18  5.861328125 17.59765625  4.482421875 16.79296875  C 3.103515625 15.98828125  2.01171875 14.896484375  1.20703125 13.517578125  C 0.40234375 12.138671875  0 10.6328125  0 9  C 0 7.3671875  0.40234375 5.86132812500001  1.20703125 4.482421875  C 2.01171875 3.10351562499999  3.103515625 2.01171875000001  4.482421875 1.20703124999999  C 5.861328125 0.402343749999996  7.3671875 0  9 0  C 10.6328125 0  12.138671875 0.402343749999996  13.517578125 1.20703124999999  C 14.896484375 2.01171875000001  15.98828125 3.10351562499999  16.79296875 4.482421875  Z " fill-rule="nonzero" fill="#666666" stroke="none" transform="matrix(1 0 0 1 44 77 )" />
  </g>
</svg>