<?xml version="1.0" encoding="utf-8"?>
<svg version="1.1" xmlns:xlink="http://www.w3.org/1999/xlink" width="53px" height="25px" xmlns="http://www.w3.org/2000/svg">
  <g transform="matrix(1 0 0 1 -164 -191 )">
    <path d="M 12.5338160167694 0  C 5.61161812801004 0  0 5.59645857373312  0 12.5000296880776  C 0 19.4036008605196  5.61161812801004 24.9999999419019  12.5338160167694 24.9999999419019  C 12.8197769565694 24.9999999419019  13.1033533544959 24.9896553027133  13.3845453270586 25  L 39.6154546729414 25  C 39.8966465872493 24.9896553027133  40.1802230434305 25  40.4661839832306 25  C 47.388441466604 25  53 19.4036009186175  53 12.5000297461754  C 53 5.59645857373312  47.388441466604 0  40.4661839832306 0  C 40.1798653592368 0  39.8961101192134 0.0104636238902458  39.6145605207118 0  L 13.3854394792882 0  C 13.1038898807866 0.010463565792179  12.8200749878944 0  12.5338160167694 0  Z M 39.4620718262615 23.2013973289143  C 33.5359383748758 23.2013973289143  28.731830529418 18.410276134676  28.731830529418 12.5000296880776  C 28.731830529418 6.58978324147893  33.5359383748758 1.79866204724044  39.4620718262615 1.79866204724044  C 45.3882052776473 1.79866204724044  50.1923131231051 6.58978324147893  50.1923131231051 12.5000296880776  C 50.1923131231051 18.410276134676  45.3882052776473 23.2013973289143  39.4620718262615 23.2013973289143  Z " fill-rule="nonzero" fill="#1abc9c" stroke="none" transform="matrix(1 0 0 1 164 191 )" />
  </g>
</svg>