<?xml version="1.0" encoding="utf-8"?>
<svg version="1.1" xmlns:xlink="http://www.w3.org/1999/xlink" width="153px" height="81px" xmlns="http://www.w3.org/2000/svg">
  <defs>
    <mask fill="white" id="clip15">
      <path d="M 153 0  L 0 0  L 0 66.9846419795481  C 0 66.9846419795481  18.1782178217822 82.5634099970183  42.7945544554456 80.8715368413418  C 67.4108910891089 79.1796636856651  80.6658415841584 59.8923097109519  109.44801980198 58.5388111864105  C 138.230198019802 57.1853126618692  153 58.5388111864105  153 58.5388111864105  L 153 0  Z " fill-rule="evenodd" />
    </mask>
  </defs>
  <g transform="matrix(1 0 0 1 -565 -363 )">
    <path d="M 153 0  L 0 0  L 0 66.9846419795481  C 0 66.9846419795481  18.1782178217822 82.5634099970183  42.7945544554456 80.8715368413418  C 67.4108910891089 79.1796636856651  80.6658415841584 59.8923097109519  109.44801980198 58.5388111864105  C 138.230198019802 57.1853126618692  153 58.5388111864105  153 58.5388111864105  L 153 0  Z " fill-rule="nonzero" fill="#ffffff" stroke="none" transform="matrix(1 0 0 1 565 363 )" />
    <path d="M 153 0  L 0 0  L 0 66.9846419795481  C 0 66.9846419795481  18.1782178217822 82.5634099970183  42.7945544554456 80.8715368413418  C 67.4108910891089 79.1796636856651  80.6658415841584 59.8923097109519  109.44801980198 58.5388111864105  C 138.230198019802 57.1853126618692  153 58.5388111864105  153 58.5388111864105  L 153 0  Z " stroke-width="2" stroke="#797979" fill="none" transform="matrix(1 0 0 1 565 363 )" mask="url(#clip15)" />
  </g>
</svg>