<?xml version="1.0" encoding="utf-8"?>
<svg version="1.1" xmlns:xlink="http://www.w3.org/1999/xlink" width="159px" height="81px" xmlns="http://www.w3.org/2000/svg">
  <defs>
    <mask fill="white" id="clip16">
      <path d="M 159 0  L 0 0  L 0 66.9846419795481  C 0 66.9846419795481  18.8910891089109 82.5634099970183  44.4727722772278 80.8715368413418  C 70.0544554455445 79.1796636856651  83.829207920792 59.8923097109519  113.740099009901 58.5388111864105  C 143.65099009901 57.1853126618692  159 58.5388111864105  159 58.5388111864105  L 159 0  Z " fill-rule="evenodd" />
    </mask>
  </defs>
  <g transform="matrix(1 0 0 1 -747 -363 )">
    <path d="M 159 0  L 0 0  L 0 66.9846419795481  C 0 66.9846419795481  18.8910891089109 82.5634099970183  44.4727722772278 80.8715368413418  C 70.0544554455445 79.1796636856651  83.829207920792 59.8923097109519  113.740099009901 58.5388111864105  C 143.65099009901 57.1853126618692  159 58.5388111864105  159 58.5388111864105  L 159 0  Z " fill-rule="nonzero" fill="#ffffff" stroke="none" transform="matrix(1 0 0 1 747 363 )" />
    <path d="M 159 0  L 0 0  L 0 66.9846419795481  C 0 66.9846419795481  18.8910891089109 82.5634099970183  44.4727722772278 80.8715368413418  C 70.0544554455445 79.1796636856651  83.829207920792 59.8923097109519  113.740099009901 58.5388111864105  C 143.65099009901 57.1853126618692  159 58.5388111864105  159 58.5388111864105  L 159 0  Z " stroke-width="2" stroke="#797979" fill="none" transform="matrix(1 0 0 1 747 363 )" mask="url(#clip16)" />
  </g>
</svg>