<?xml version="1.0" encoding="utf-8"?><svg version="1.1" xmlns:xlink="http://www.w3.org/1999/xlink" width="84px" height="68px" xmlns="http://www.w3.org/2000/svg"><g transform="matrix(1 0 0 1 0 -43 )"><path d="M 0 43  L 84 43  L 84 111  L 0 111  L 0 43  " fill-rule="nonzero" fill="#cccccc" stroke="none" /><path d="M 5 48  L 79 48  L 79 106  L 5 106  L 5 48  " fill-rule="nonzero" fill="#ffffff" stroke="none" /><path d="M 48.78 63.4  C 45.924 63.4  43.68 61.156  43.68 58.3  C 43.68 55.444  45.924 53.2  48.78 53.2  C 51.636 53.2  53.88 55.444  53.88 58.3  C 53.88 61.156  51.636 63.4  48.78 63.4  " fill-rule="nonzero" fill="#cccccc" stroke="none" /><path d="M 7 105  L 7 74.75  L 24.75 61  L 49.6 78.2857142857143  L 63.8 69.25  L 78 78.2857142857143  L 78 105  L 7 105  " fill-rule="nonzero" fill="#169bd5" stroke="none" /></g></svg>