<?xml version="1.0" encoding="utf-8"?>
<svg version="1.1" xmlns:xlink="http://www.w3.org/1999/xlink" width="1080px" height="39px" xmlns="http://www.w3.org/2000/svg">
  <g transform="matrix(1 0 0 1 -20 -272 )">
    <path d="M 21 274  A 1 1 0 0 1 22 273 L 1098 273  A 1 1 0 0 1 1099 274 L 1099 309  A 1 1 0 0 1 1098 310 L 22 310  A 1 1 0 0 1 21 309 L 21 274  Z " fill-rule="nonzero" fill="#ffffff" stroke="none" />
    <path d="M 20.5 274  A 1.5 1.5 0 0 1 22 272.5 L 1098 272.5  A 1.5 1.5 0 0 1 1099.5 274 L 1099.5 309  A 1.5 1.5 0 0 1 1098 310.5 L 22 310.5  A 1.5 1.5 0 0 1 20.5 309 L 20.5 274  Z " stroke-width="1" stroke-dasharray="3,1" stroke="#e4e4e4" fill="none" stroke-dashoffset="0.5" />
  </g>
</svg>