<?xml version="1.0" encoding="utf-8"?><svg version="1.1" xmlns:xlink="http://www.w3.org/1999/xlink" width="12px" height="12px" viewBox="815 268  12 12" xmlns="http://www.w3.org/2000/svg"><path d="M 821 268  C 824.36 268  827 270.64  827 274  C 827 277.36  824.36 280  821 280  C 817.64 280  815 277.36  815 274  C 815 270.64  817.64 268  821 268  Z " fill-rule="nonzero" fill="#ffffff" stroke="none" /><path d="M 821 268.5  C 824.08 268.5  826.5 270.92  826.5 274  C 826.5 277.08  824.08 279.5  821 279.5  C 817.92 279.5  815.5 277.08  815.5 274  C 815.5 270.92  817.92 268.5  821 268.5  Z " stroke-width="1" stroke="#e4e4e4" fill="none" /><path d="M 821 277  C 819.32 277  818 275.68  818 274  C 818 272.32  819.32 271  821 271  C 822.68 271  824 272.32  824 274  C 824 275.68  822.68 277  821 277  " fill-rule="nonzero" fill="#e4e4e4" stroke="none" /></svg>