<?xml version="1.0" encoding="utf-8"?>
<svg version="1.1" xmlns:xlink="http://www.w3.org/1999/xlink" width="78px" height="51px" xmlns="http://www.w3.org/2000/svg">
  <g transform="matrix(1 0 0 1 -22 -110 )">
    <path d="M 22 110  L 100 110  L 100 161  L 22 161  L 22 110  " fill-rule="nonzero" fill="#cccccc" stroke="none" />
    <path d="M 26 114  L 96 114  L 96 157  L 26 157  L 26 114  " fill-rule="nonzero" fill="#ffffff" stroke="none" />
    <path d="M 66.385 125.3  C 64.243 125.3  62.56 123.617  62.56 121.475  C 62.56 119.333  64.243 117.65  66.385 117.65  C 68.527 117.65  70.21 119.333  70.21 121.475  C 70.21 123.617  68.527 125.3  66.385 125.3  " fill-rule="nonzero" fill="#cccccc" stroke="none" />
    <path d="M 28 156  L 28 134  L 44.75 124  L 68.2 140.307692307692  L 81.6 130  L 95 140.307692307692  L 95 156  L 28 156  " fill-rule="nonzero" fill="#169bd5" stroke="none" />
  </g>
</svg>