<?xml version="1.0" encoding="utf-8"?>
<svg version="1.1" xmlns:xlink="http://www.w3.org/1999/xlink" width="12px" height="12px" viewBox="229 1103  12 12" xmlns="http://www.w3.org/2000/svg">
  <path d="M 235 1103  C 238.36 1103  241 1105.64  241 1109  C 241 1112.36  238.36 1115  235 1115  C 231.64 1115  229 1112.36  229 1109  C 229 1105.64  231.64 1103  235 1103  Z " fill-rule="nonzero" fill="#ffffff" stroke="none" />
  <path d="M 235 1103.5  C 238.08 1103.5  240.5 1105.92  240.5 1109  C 240.5 1112.08  238.08 1114.5  235 1114.5  C 231.92 1114.5  229.5 1112.08  229.5 1109  C 229.5 1105.92  231.92 1103.5  235 1103.5  Z " stroke-width="1" stroke="#e4e4e4" fill="none" />
  <path d="M 235 1112  C 233.32 1112  232 1110.68  232 1109  C 232 1107.32  233.32 1106  235 1106  C 236.68 1106  238 1107.32  238 1109  C 238 1110.68  236.68 1112  235 1112  " fill-rule="nonzero" fill="#e4e4e4" stroke="none" />
</svg>