<?xml version="1.0" encoding="utf-8"?>
<svg version="1.1" xmlns:xlink="http://www.w3.org/1999/xlink" width="12px" height="12px" viewBox="299 1103  12 12" xmlns="http://www.w3.org/2000/svg">
  <path d="M 305 1103  C 308.36 1103  311 1105.64  311 1109  C 311 1112.36  308.36 1115  305 1115  C 301.64 1115  299 1112.36  299 1109  C 299 1105.64  301.64 1103  305 1103  Z " fill-rule="nonzero" fill="#ffffff" stroke="none" />
  <path d="M 305 1103.5  C 308.08 1103.5  310.5 1105.92  310.5 1109  C 310.5 1112.08  308.08 1114.5  305 1114.5  C 301.92 1114.5  299.5 1112.08  299.5 1109  C 299.5 1105.92  301.92 1103.5  305 1103.5  Z " stroke-width="1" stroke="#e4e4e4" fill="none" />
  <path d="M 305 1112  C 303.32 1112  302 1110.68  302 1109  C 302 1107.32  303.32 1106  305 1106  C 306.68 1106  308 1107.32  308 1109  C 308 1110.68  306.68 1112  305 1112  " fill-rule="nonzero" fill="#e4e4e4" stroke="none" />
</svg>