<?xml version="1.0" encoding="utf-8"?>
<svg version="1.1" xmlns:xlink="http://www.w3.org/1999/xlink" width="12px" height="12px" viewBox="229 792  12 12" xmlns="http://www.w3.org/2000/svg">
  <path d="M 235 792  C 238.36 792  241 794.64  241 798  C 241 801.36  238.36 804  235 804  C 231.64 804  229 801.36  229 798  C 229 794.64  231.64 792  235 792  Z " fill-rule="nonzero" fill="#ffffff" stroke="none" />
  <path d="M 235 792.5  C 238.08 792.5  240.5 794.92  240.5 798  C 240.5 801.08  238.08 803.5  235 803.5  C 231.92 803.5  229.5 801.08  229.5 798  C 229.5 794.92  231.92 792.5  235 792.5  Z " stroke-width="1" stroke="#e4e4e4" fill="none" />
  <path d="M 235 801  C 233.32 801  232 799.68  232 798  C 232 796.32  233.32 795  235 795  C 236.68 795  238 796.32  238 798  C 238 799.68  236.68 801  235 801  " fill-rule="nonzero" fill="#e4e4e4" stroke="none" />
</svg>