<?xml version="1.0" encoding="utf-8"?>
<svg version="1.1" xmlns:xlink="http://www.w3.org/1999/xlink" width="63px" height="58px" xmlns="http://www.w3.org/2000/svg">
  <g transform="matrix(1 0 0 1 -735 -80 )">
    <path d="M 766.5 84  C 781.9 84  794 95  794 109  C 794 123  781.9 134  766.5 134  C 751.1 134  739 123  739 109  C 739 95  751.1 84  766.5 84  Z " fill-rule="nonzero" fill="#ffffff" stroke="none" />
    <path d="M 766.5 82.5  C 782.74 82.5  795.5 94.16  795.5 109  C 795.5 123.84  782.74 135.5  766.5 135.5  C 750.26 135.5  737.5 123.84  737.5 109  C 737.5 94.16  750.26 82.5  766.5 82.5  Z " stroke-width="5" stroke="#cccccc" fill="none" />
  </g>
</svg>