<?xml version="1.0" encoding="utf-8"?>
<svg version="1.1" xmlns:xlink="http://www.w3.org/1999/xlink" width="22px" height="25px" xmlns="http://www.w3.org/2000/svg">
  <g transform="matrix(1 0 0 1 -75 -329 )">
    <path d="M 1.99375000000001 0  L 20.00625 0  C 20.2697916666667 0  20.521875 0.0495703899537148  20.7625 0.148711169861201  C 21.140625 0.291914518616409  21.44140625 0.517735183961179  21.66484375 0.826173165895625  C 21.88828125 1.1346111478299  22 1.47609605640008  22 1.85062789160605  L 22 23.1493721083939  C 22 23.5239039435999  21.88828125 23.8653888521701  21.66484375 24.1738268341044  C 21.44140625 24.4822648160388  21.140625 24.7080854813836  20.7625 24.8512888301388  C 20.5447916666667 24.9394139678343  20.2927083333333 24.9834765366821  20.00625 24.9834765366821  C 19.45625 24.9834765366821  18.9807291666667 24.807226261291  18.5796875 24.4547257105089  L 11 17.4487772637145  L 3.42031249999999 24.4547257105089  C 3.0078125 24.818241903503  2.53229166666667 25  1.99375000000001 25  C 1.73020833333334 25  1.47812500000001 24.9504296100463  1.2375 24.8512888301388  C 0.859375 24.7080854813836  0.55859375 24.4822648160388  0.335156249999997 24.1738268341044  C 0.111718749999994 23.8653888521701  0 23.5239039435999  0 23.1493721083939  L 0 1.85062789160605  C 0 1.47609605640008  0.111718749999994 1.1346111478299  0.335156249999997 0.826173165895625  C 0.55859375 0.517735183961179  0.859375 0.291914518616409  1.2375 0.148711169861201  C 1.47812500000001 0.0495703899537148  1.73020833333334 0  1.99375000000001 0  Z " fill-rule="nonzero" fill="#000000" stroke="none" transform="matrix(1 0 0 1 75 329 )" />
  </g>
</svg>