<?xml version="1.0" encoding="utf-8"?>
<svg version="1.1" xmlns:xlink="http://www.w3.org/1999/xlink" width="25px" height="27px" xmlns="http://www.w3.org/2000/svg">
  <g transform="matrix(1 0 0 1 -754 -96 )">
    <path d="M 14.4368489583333 6.908203125  C 14.5345052083333 7.013671875  14.5833333333333 7.1484375  14.5833333333333 7.3125  L 14.5833333333333 15.1875  C 14.5833333333333 15.3515625  14.5345052083333 15.486328125  14.4368489583333 15.591796875  C 14.3391927083333 15.697265625  14.2144097222222 15.75  14.0625 15.75  L 8.85416666666674 15.75  C 8.70225694444446 15.75  8.57747395833326 15.697265625  8.47981770833326 15.591796875  C 8.38216145833326 15.486328125  8.33333333333326 15.3515625  8.33333333333326 15.1875  L 8.33333333333326 14.0625  C 8.33333333333326 13.8984375  8.38216145833326 13.763671875  8.47981770833326 13.658203125  C 8.57747395833326 13.552734375  8.70225694444446 13.5  8.85416666666674 13.5  L 12.5 13.5  L 12.5 7.3125  C 12.5 7.1484375  12.548828125 7.013671875  12.646484375 6.908203125  C 12.744140625 6.802734375  12.8689236111111 6.75  13.0208333333333 6.75  L 14.0625 6.75  C 14.2144097222222 6.75  14.3391927083333 6.802734375  14.4368489583333 6.908203125  Z M 20.166015625 18.298828125  C 20.9581163194445 16.833984375  21.3541666666667 15.234375  21.3541666666667 13.5  C 21.3541666666667 11.765625  20.9581163194445 10.166015625  20.166015625 8.701171875  C 19.3739149305555 7.236328125  18.2996961805555 6.076171875  16.943359375 5.220703125  C 15.5870225694445 4.365234375  14.1059027777778 3.9375  12.5 3.9375  C 10.8940972222222 3.9375  9.41297743055554 4.365234375  8.056640625 5.220703125  C 6.70030381944446 6.076171875  5.62608506944446 7.236328125  4.833984375 8.701171875  C 4.04188368055554 10.166015625  3.64583333333326 11.765625  3.64583333333326 13.5  C 3.64583333333326 15.234375  4.04188368055554 16.833984375  4.833984375 18.298828125  C 5.62608506944446 19.763671875  6.70030381944446 20.923828125  8.056640625 21.779296875  C 9.41297743055554 22.634765625  10.8940972222222 23.0625  12.5 23.0625  C 14.1059027777778 23.0625  15.5870225694445 22.634765625  16.943359375 21.779296875  C 18.2996961805555 20.923828125  19.3739149305555 19.763671875  20.166015625 18.298828125  Z M 23.3235677083333 6.7236328125  C 24.4411892361111 8.7919921875  25 11.05078125  25 13.5  C 25 15.94921875  24.4411892361111 18.2080078125  23.3235677083333 20.2763671875  C 22.2059461805555 22.3447265625  20.6895616319445 23.982421875  18.7744140625 25.189453125  C 16.8592664930555 26.396484375  14.7677951388889 27  12.5 27  C 10.2322048611111 27  8.14073350694446 26.396484375  6.2255859375 25.189453125  C 4.31043836805554 23.982421875  2.79405381944446 22.3447265625  1.67643229166674 20.2763671875  C 0.558810763888914 18.2080078125  0 15.94921875  0 13.5  C 0 11.05078125  0.558810763888914 8.7919921875  1.67643229166674 6.7236328125  C 2.79405381944446 4.6552734375  4.31043836805554 3.017578125  6.2255859375 1.810546875  C 8.14073350694446 0.603515625  10.2322048611111 0  12.5 0  C 14.7677951388889 0  16.8592664930555 0.603515625  18.7744140625 1.810546875  C 20.6895616319445 3.017578125  22.2059461805555 4.6552734375  23.3235677083333 6.7236328125  Z " fill-rule="nonzero" fill="#cccccc" stroke="none" transform="matrix(1 0 0 1 754 96 )" />
  </g>
</svg>