<?xml version="1.0" encoding="utf-8"?>
<svg version="1.1" xmlns:xlink="http://www.w3.org/1999/xlink" width="89px" height="72px" xmlns="http://www.w3.org/2000/svg">
  <g transform="matrix(1 0 0 1 -75 -1059 )">
    <path d="M 75 1059  L 164 1059  L 164 1131  L 75 1131  L 75 1059  " fill-rule="nonzero" fill="#cccccc" stroke="none" />
    <path d="M 80 1064  L 159 1064  L 159 1126  L 80 1126  L 80 1064  " fill-rule="nonzero" fill="#ffffff" stroke="none" />
    <path d="M 126.68 1080.6  C 123.656 1080.6  121.28 1078.224  121.28 1075.2  C 121.28 1072.176  123.656 1069.8  126.68 1069.8  C 129.704 1069.8  132.08 1072.176  132.08 1075.2  C 132.08 1078.224  129.704 1080.6  126.68 1080.6  " fill-rule="nonzero" fill="#cccccc" stroke="none" />
    <path d="M 82 1124  L 82 1092.1  L 100.75 1077.6  L 127 1095.84719101124  L 142 1086.3  L 157 1095.84719101124  L 157 1124  L 82 1124  " fill-rule="nonzero" fill="#169bd5" stroke="none" />
  </g>
</svg>