<?xml version="1.0" encoding="utf-8"?><svg version="1.1" xmlns:xlink="http://www.w3.org/1999/xlink" width="16px" height="16px" viewBox="109 12.5  16 16" xmlns="http://www.w3.org/2000/svg"><path d="M 117 12.5  C 121.48 12.5  125 16.02  125 20.5  C 125 24.98  121.48 28.5  117 28.5  C 112.52 28.5  109 24.98  109 20.5  C 109 16.02  112.52 12.5  117 12.5  Z " fill-rule="nonzero" fill="#ffffff" stroke="none" /><path d="M 117 13  C 121.2 13  124.5 16.3  124.5 20.5  C 124.5 24.7  121.2 28  117 28  C 112.8 28  109.5 24.7  109.5 20.5  C 109.5 16.3  112.8 13  117 13  Z " stroke-width="1" stroke="#e4e4e4" fill="none" /><path d="M 117 24.5  C 114.76 24.5  113 22.74  113 20.5  C 113 18.26  114.76 16.5  117 16.5  C 119.24 16.5  121 18.26  121 20.5  C 121 22.74  119.24 24.5  117 24.5  " fill-rule="nonzero" fill="#e4e4e4" stroke="none" /></svg>