<?xml version="1.0" encoding="utf-8"?>
<svg version="1.1" xmlns:xlink="http://www.w3.org/1999/xlink" width="152px" height="40px" xmlns="http://www.w3.org/2000/svg">
  <g transform="matrix(1 0 0 1 -248 -585 )">
    <path d="M 248.5 587  A 1.5 1.5 0 0 1 250 585.5 L 398 585.5  A 1.5 1.5 0 0 1 399.5 587 L 399.5 623  A 1.5 1.5 0 0 1 398 624.5 L 250 624.5  A 1.5 1.5 0 0 1 248.5 623 L 248.5 587  Z " fill-rule="nonzero" fill="#3399ff" stroke="none" />
    <path d="M 248.5 587  A 1.5 1.5 0 0 1 250 585.5 L 398 585.5  A 1.5 1.5 0 0 1 399.5 587 L 399.5 623  A 1.5 1.5 0 0 1 398 624.5 L 250 624.5  A 1.5 1.5 0 0 1 248.5 623 L 248.5 587  Z " stroke-width="1" stroke="#3399ff" fill="none" />
  </g>
</svg>