<?xml version="1.0" encoding="utf-8"?>
<svg version="1.1" xmlns:xlink="http://www.w3.org/1999/xlink" width="142px" height="40px" xmlns="http://www.w3.org/2000/svg">
  <g transform="matrix(1 0 0 1 -186 -120 )">
    <path d="M 186.5 122  A 1.5 1.5 0 0 1 188 120.5 L 326 120.5  A 1.5 1.5 0 0 1 327.5 122 L 327.5 158  A 1.5 1.5 0 0 1 326 159.5 L 188 159.5  A 1.5 1.5 0 0 1 186.5 158 L 186.5 122  Z " fill-rule="nonzero" fill="#3399ff" stroke="none" />
    <path d="M 186.5 122  A 1.5 1.5 0 0 1 188 120.5 L 326 120.5  A 1.5 1.5 0 0 1 327.5 122 L 327.5 158  A 1.5 1.5 0 0 1 326 159.5 L 188 159.5  A 1.5 1.5 0 0 1 186.5 158 L 186.5 122  Z " stroke-width="1" stroke="#3399ff" fill="none" />
  </g>
</svg>