<?xml version="1.0" encoding="utf-8"?>
<svg version="1.1" xmlns:xlink="http://www.w3.org/1999/xlink" width="12px" height="12px" viewBox="223 372  12 12" xmlns="http://www.w3.org/2000/svg">
  <path d="M 229 372  C 232.36 372  235 374.64  235 378  C 235 381.36  232.36 384  229 384  C 225.64 384  223 381.36  223 378  C 223 374.64  225.64 372  229 372  Z " fill-rule="nonzero" fill="#ffffff" stroke="none" />
  <path d="M 229 372.5  C 232.08 372.5  234.5 374.92  234.5 378  C 234.5 381.08  232.08 383.5  229 383.5  C 225.92 383.5  223.5 381.08  223.5 378  C 223.5 374.92  225.92 372.5  229 372.5  Z " stroke-width="1" stroke="#e4e4e4" fill="none" />
  <path d="M 229 381  C 227.32 381  226 379.68  226 378  C 226 376.32  227.32 375  229 375  C 230.68 375  232 376.32  232 378  C 232 379.68  230.68 381  229 381  " fill-rule="nonzero" fill="#e4e4e4" stroke="none" />
</svg>