<?xml version="1.0" encoding="utf-8"?><svg version="1.1" xmlns:xlink="http://www.w3.org/1999/xlink" width="47px" height="47px" xmlns="http://www.w3.org/2000/svg"><g transform="matrix(1 0 0 1 -32 -2 )"><path d="M 55.5 3  C 68.1 3  78 12.9  78 25.5  C 78 38.1  68.1 48  55.5 48  C 42.9 48  33 38.1  33 25.5  C 33 12.9  42.9 3  55.5 3  Z " fill-rule="nonzero" fill="#1abc9c" stroke="none" /><path d="M 55.5 3  C 68.1 3  78 12.9  78 25.5  C 78 38.1  68.1 48  55.5 48  C 42.9 48  33 38.1  33 25.5  C 33 12.9  42.9 3  55.5 3  Z " stroke-width="2" stroke="#1abc9c" fill="none" /></g></svg>