<?xml version="1.0" encoding="utf-8"?>
<svg version="1.1" xmlns:xlink="http://www.w3.org/1999/xlink" width="48px" height="48px" xmlns="http://www.w3.org/2000/svg">
  <g transform="matrix(1 0 0 1 -360 -417 )">
    <path d="M 384 418  C 396.88 418  407 428.12  407 441  C 407 453.88  396.88 464  384 464  C 371.12 464  361 453.88  361 441  C 361 428.12  371.12 418  384 418  Z " fill-rule="nonzero" fill="#1abc9c" stroke="none" />
    <path d="M 384 418  C 396.88 418  407 428.12  407 441  C 407 453.88  396.88 464  384 464  C 371.12 464  361 453.88  361 441  C 361 428.12  371.12 418  384 418  Z " stroke-width="2" stroke="#1abc9c" fill="none" />
  </g>
</svg>