<?xml version="1.0" encoding="utf-8"?>
<svg version="1.1" xmlns:xlink="http://www.w3.org/1999/xlink" width="36px" height="36px" xmlns="http://www.w3.org/2000/svg">
  <g transform="matrix(1 0 0 1 -372 -240 )">
    <path d="M 4.8262890625 17.9757421875  C 4.8262890625 10.7517578125  10.7048046875 4.874765625  17.927265625 4.874765625  C 25.1511328125 4.874765625  31.0282421875 10.7518359375  31.0282421875 17.9757421875  C 31.0282421875 25.1996484375  25.1511328125 31.076796875  17.927265625 31.076796875  C 10.704765625 31.076796875  4.8262890625 25.1997265625  4.8262890625 17.9757421875  Z M 35.395234375 17.975703125  C 35.395234375 8.3280078125  27.5734765625 0.5076953125  17.927265625 0.5076953125  C 8.2810546875 0.5076953125  0.4592578125 8.3279296875  0.4592578125 17.975703125  C 0.4592578125 27.62046875  8.281015625 35.4437109375  17.927265625 35.4437109375  C 27.5734765625 35.4437109375  35.395234375 27.620390625  35.395234375 17.975703125  Z " fill-rule="nonzero" fill="#1abc9c" stroke="none" transform="matrix(1 0 0 1 372 240 )" />
  </g>
</svg>