<?xml version="1.0" encoding="utf-8"?>
<svg version="1.1" xmlns:xlink="http://www.w3.org/1999/xlink" width="10px" height="18px" xmlns="http://www.w3.org/2000/svg">
  <g transform="matrix(1 0 0 1 -387 -247 )">
    <path d="M 7.294140625 17.526171875  C 6.7349609375 17.526171875  6.1756640625 17.312578125  5.75 16.8854296875  L 1.3859765625 12.521328125  C 0.989921875 12.1267578125  0.745195312499998 11.5838671875  0.743671875 10.9815625  L 0.743671875 2.2416796875  C 0.743671875 1.03421875  1.7197265625 0.0581640625000013  2.9271875 0.0581640625000013  C 4.1346484375 0.0581640625000013  5.1105859375 1.03421875  5.1105859375 2.2416796875  L 5.1105859375 10.070859375  L 8.8383203125 13.79703125  C 9.6896875 14.651484375  9.6896875 16.0339453125  8.8383203125 16.8854296875  C 8.412578125 17.3125390625  7.8534375 17.5261328125  7.2941015625 17.5261328125  Z " fill-rule="nonzero" fill="#1abc9c" stroke="none" transform="matrix(1 0 0 1 387 247 )" />
  </g>
</svg>