<?xml version="1.0" encoding="utf-8"?>
<svg version="1.1" xmlns:xlink="http://www.w3.org/1999/xlink" width="48px" height="48px" xmlns="http://www.w3.org/2000/svg">
  <g transform="matrix(1 0 0 1 -553 -416 )">
    <path d="M 577 417  C 589.88 417  600 427.12  600 440  C 600 452.88  589.88 463  577 463  C 564.12 463  554 452.88  554 440  C 554 427.12  564.12 417  577 417  Z " fill-rule="nonzero" fill="#ffffff" stroke="none" />
    <path d="M 577 417  C 589.88 417  600 427.12  600 440  C 600 452.88  589.88 463  577 463  C 564.12 463  554 452.88  554 440  C 554 427.12  564.12 417  577 417  Z " stroke-width="2" stroke="#e4e4e4" fill="none" />
  </g>
</svg>