<?xml version="1.0" encoding="utf-8"?>
<svg version="1.1" xmlns:xlink="http://www.w3.org/1999/xlink" width="68px" height="78px" xmlns="http://www.w3.org/2000/svg">
  <g transform="matrix(1 0 0 1 -24 -48 )">
    <path d="M 20.6833333333333 15.84375  C 22.0055555555556 17.7395833333333  22.6666666666667 20.0416666666667  22.6666666666667 22.75  C 22.6666666666667 25.4583333333333  22.0055555555556 27.7604166666667  20.6833333333333 29.65625  C 19.3611111111111 31.5520833333333  17.7555555555556 32.5  15.8666666666667 32.5  C 13.9777777777778 32.5  12.3722222222223 31.5520833333333  11.05 29.65625  C 9.72777777777776 27.7604166666667  9.06666666666666 25.4583333333333  9.06666666666666 22.75  C 9.06666666666666 20.0416666666667  9.72777777777776 17.7395833333333  11.05 15.84375  C 12.3722222222223 13.9479166666667  13.9777777777778 13  15.8666666666667 13  C 17.7555555555556 13  19.3611111111111 13.9479166666667  20.6833333333333 15.84375  Z M 44.2 21.125  L 59 42.25  L 59 65  L 9.06666666666666 65  L 9.06666666666666 55.25  L 20.4 39  L 26.0666666666667 47.125  L 44.2 21.125  Z M 63.1302083333334 6.982421875  C 62.9059027777778 6.66080729166666  62.6402777777778 6.5  62.3333333333334 7  L 5.66666666666669 7  C 5.35972222222222 6.5  5.09409722222222 6.66080729166666  4.86979166666669 6.982421875  C 4.6454861111111 7.30403645833333  4.53333333333336 7.68489583333333  5 8.125  L 5 69.875  C 4.53333333333336 70.3151041666667  4.6454861111111 70.6959635416667  4.86979166666669 71.017578125  C 5.09409722222222 71.3391927083333  5.35972222222222 71.5  5.66666666666669 71  L 62.3333333333334 71  C 62.6402777777778 71.5  62.9059027777778 71.3391927083333  63.1302083333334 71.017578125  C 63.3545138888888 70.6959635416667  63.4666666666667 70.3151041666667  63 69.875  L 63 8.125  C 63.4666666666667 7.68489583333333  63.3545138888888 7.30403645833333  63.1302083333334 6.982421875  Z M 66.3354166666667 2.38671875  C 67.4451388888889 3.97786458333333  68 5.890625  68 8.125  L 68 69.875  C 68 72.109375  67.4451388888889 74.0221354166667  66.3354166666667 75.61328125  C 65.2256944444445 77.2044270833333  63.8916666666667 78  62.3333333333334 78  L 5.66666666666669 78  C 4.10833333333335 78  2.77430555555554 77.2044270833333  1.66458333333333 75.61328125  C 0.554861111111109 74.0221354166667  0 72.109375  0 69.875  L 0 8.125  C 0 5.890625  0.554861111111109 3.97786458333333  1.66458333333333 2.38671875  C 2.77430555555554 0.795572916666657  4.10833333333335 0  5.66666666666669 0  L 62.3333333333334 0  C 63.8916666666667 0  65.2256944444445 0.795572916666657  66.3354166666667 2.38671875  Z " fill-rule="nonzero" fill="#000000" stroke="none" transform="matrix(1 0 0 1 24 48 )" />
  </g>
</svg>