<?xml version="1.0" encoding="utf-8"?>
<svg version="1.1" xmlns:xlink="http://www.w3.org/1999/xlink" width="18px" height="17px" xmlns="http://www.w3.org/2000/svg">
  <g transform="matrix(1 0 0 1 -22 -212 )">
    <path d="M 4.70634146341462 6.53846153846155  L 1.87024390243903 6.53846153846155  L 7.34048780487802 13.3323317307692  L 4.70634146341462 6.53846153846155  Z M 5.93560975609756 6.53846153846155  L 9 14.4254807692308  L 12.0643902439024 6.53846153846155  L 5.93560975609756 6.53846153846155  Z M 1.69463414634146 5.23076923076923  L 4.73268292682928 5.23076923076923  L 6.52390243902437 1.30769230769232  L 4.22341463414637 1.30769230769232  L 1.69463414634146 5.23076923076923  Z M 13.2936585365854 6.53846153846155  L 10.659512195122 13.3323317307692  L 16.129756097561 6.53846153846155  L 13.2936585365854 6.53846153846155  Z M 7.79707317073172 1.30769230769232  L 6.00585365853658 5.23076923076923  L 11.9941463414634 5.23076923076923  L 10.2029268292683 1.30769230769232  L 7.79707317073172 1.30769230769232  Z M 11.4760975609756 1.30769230769232  L 13.2673170731707 5.23076923076923  L 16.3053658536585 5.23076923076923  L 13.7765853658536 1.30769230769232  L 11.4760975609756 1.30769230769232  Z M 14.0575609756098 0  C 14.2507317073171 0  14.4 0.0885416666666572  14.5053658536585 0.265625  L 17.8770731707317 5.49639423076923  C 17.9590243902439 5.61899038461539  17.9970731707317 5.76031650641028  17.9912195121951 5.92037259615384  C 17.9853658536585 6.08042868589743  17.9356097560976 6.21834935897434  17.8419512195122 6.33413461538461  L 9.41268292682929 16.7956730769231  C 9.30731707317074 16.931891025641  9.16975609756099 17  9 17  C 8.83024390243901 17  8.69268292682926 16.931891025641  8.58731707317071 16.7956730769231  L 0.158048780487832 6.33413461538461  C 0.0643902439024373 6.21834935897434  0.0146341463414501 6.08042868589743  0.00878048780487006 5.92037259615384  C 0.00292682926829002 5.76031650641028  0.0409756097561171 5.61899038461539  0.122926829268295 5.49639423076923  L 3.49463414634147 0.265625  C 3.60000000000002 0.0885416666666572  3.74926829268293 0  3.94243902439024 0  L 14.0575609756098 0  Z " fill-rule="nonzero" fill="#000000" stroke="none" transform="matrix(1 0 0 1 22 212 )" />
  </g>
</svg>