<?xml version="1.0" encoding="utf-8"?>
<svg version="1.1" xmlns:xlink="http://www.w3.org/1999/xlink" width="19px" height="19px" xmlns="http://www.w3.org/2000/svg">
  <g transform="matrix(1 0 0 1 -22 -322 )">
    <path d="M 6.38811383928572 6.79720052083331  C 6.65318080357143 7.1064453125  6.78571428571428 7.4796006944444  6.78571428571428 7.91666666666669  C 6.78571428571428 8.35373263888891  6.65318080357143 8.72688802083331  6.38811383928572 9.0361328125  C 6.123046875 9.34537760416669  5.80319940476191 9.5  5.42857142857143 9.5  C 5.05394345238095 9.5  4.73409598214285 9.34537760416669  4.46902901785715 9.0361328125  C 4.20396205357143 8.72688802083331  4.07142857142857 8.35373263888891  4.07142857142857 7.91666666666669  C 4.07142857142857 7.4796006944444  4.20396205357143 7.1064453125  4.46902901785715 6.79720052083331  C 4.73409598214285 6.48795572916669  5.05394345238095 6.33333333333331  5.42857142857143 6.33333333333331  C 5.80319940476191 6.33333333333331  6.123046875 6.48795572916669  6.38811383928572 6.79720052083331  Z M 10.4595424107143 6.79720052083331  C 10.724609375 7.1064453125  10.8571428571428 7.4796006944444  10.8571428571428 7.91666666666669  C 10.8571428571428 8.35373263888891  10.724609375 8.72688802083331  10.4595424107143 9.0361328125  C 10.1944754464286 9.34537760416669  9.87462797619047 9.5  9.5 9.5  C 9.12537202380953 9.5  8.80552455357143 9.34537760416669  8.54045758928572 9.0361328125  C 8.275390625 8.72688802083331  8.14285714285715 8.35373263888891  8.14285714285715 7.91666666666669  C 8.14285714285715 7.4796006944444  8.275390625 7.1064453125  8.54045758928572 6.79720052083331  C 8.80552455357143 6.48795572916669  9.12537202380953 6.33333333333331  9.5 6.33333333333331  C 9.87462797619047 6.33333333333331  10.1944754464286 6.48795572916669  10.4595424107143 6.79720052083331  Z M 14.5309709821429 6.79720052083331  C 14.7960379464286 7.1064453125  14.9285714285714 7.4796006944444  14.9285714285714 7.91666666666669  C 14.9285714285714 8.35373263888891  14.7960379464286 8.72688802083331  14.5309709821429 9.0361328125  C 14.2659040178571 9.34537760416669  13.9460565476191 9.5  13.5714285714286 9.5  C 13.1968005952381 9.5  12.876953125 9.34537760416669  12.6118861607143 9.0361328125  C 12.3468191964286 8.72688802083331  12.2142857142857 8.35373263888891  12.2142857142857 7.91666666666669  C 12.2142857142857 7.4796006944444  12.3468191964286 7.1064453125  12.6118861607143 6.79720052083331  C 12.876953125 6.48795572916669  13.1968005952381 6.33333333333331  13.5714285714286 6.33333333333331  C 13.9460565476191 6.33333333333331  14.2659040178571 6.48795572916669  14.5309709821429 6.79720052083331  Z M 13.544921875 2.44303385416669  C 12.2902715773809 1.86990017361109  10.9419642857143 1.58333333333331  9.5 1.58333333333331  C 8.05803571428572 1.58333333333331  6.70972842261905 1.86990017361109  5.455078125 2.44303385416669  C 4.20042782738095 3.01616753472223  3.20377604166667 3.78927951388891  2.46512276785715 4.76236979166669  C 1.72646949404762 5.7354600694444  1.35714285714285 6.78689236111109  1.35714285714285 7.91666666666669  C 1.35714285714285 8.84027777777777  1.60984002976191 9.7205946180556  2.115234375 10.5576171875  C 2.62062872023809 11.3946397569444  3.33277529761905 12.1182725694444  4.25167410714285 12.728515625  L 5.17410714285715 13.3470052083333  L 4.88783482142857 14.5345052083333  C 4.71819196428572 15.2849392361111  4.47079613095238 15.994140625  4.14564732142857 16.662109375  C 5.22005208333333 16.142578125  6.19196428571428 15.4375  7.06138392857142 14.546875  L 7.51729910714285 14.0768229166667  L 8.12165178571428 14.1510416666667  C 8.609375 14.2170138888889  9.0688244047619 14.25  9.5 14.25  C 10.9419642857143 14.25  12.2902715773809 13.9634331597222  13.544921875 13.3902994791667  C 14.7995721726191 12.8171657986111  15.7962239583333 12.0440538194444  16.5348772321428 11.0709635416667  C 17.2735305059524 10.0978732638889  17.6428571428572 9.04644097222223  17.6428571428572 7.91666666666669  C 17.6428571428572 6.78689236111109  17.2735305059524 5.7354600694444  16.5348772321428 4.76236979166669  C 15.7962239583333 3.78927951388891  14.7995721726191 3.01616753472223  13.544921875 2.44303385416669  Z M 18.2472098214286 4.8427734375  C 18.7490699404762 5.81998697916669  19 6.8446180555556  19 7.91666666666669  C 19 9.3515625  18.5758928571428 10.6771918402778  17.7276785714286 11.8935546875  C 16.8794642857143 13.1099175347222  15.7273065476191 14.0706380208333  14.2712053571429 14.7757161458333  C 12.8151041666667 15.4807942708333  11.2247023809524 15.8333333333333  9.5 15.8333333333333  C 9.00520833333333 15.8333333333333  8.49274553571428 15.8003472222222  7.96261160714285 15.734375  C 6.56305803571428 17.1775173611111  4.93731398809524 18.1753472222222  3.08537946428572 18.7278645833333  C 2.73902529761905 18.8433159722222  2.33612351190476 18.9340277777778  1.87667410714285 19  L 1.82366071428572 19  C 1.71763392857143 19  1.62220982142857 18.9567057291667  1.53738839285715 18.8701171875  C 1.45256696428572 18.7835286458333  1.39601934523809 18.6701388888889  1.36774553571428 18.5299479166667  L 1.36774553571428 18.517578125  C 1.34654017857143 18.4845920138889  1.34477306547619 18.4351128472222  1.36244419642857 18.369140625  C 1.38011532738095 18.3031684027778  1.38718377976191 18.2619357638889  1.38364955357143 18.2454427083333  C 1.38011532738095 18.2289496527778  1.39601934523809 18.1897786458333  1.43136160714285 18.1279296875  L 1.49497767857143 18.0166015625  C 1.49497767857143 18.0166015625  1.51971726190476 17.9815538194444  1.56919642857143 17.9114583333333  C 1.61867559523809 17.8413628472222  1.64694940476191 17.8042534722222  1.65401785714285 17.8001302083333  C 1.70349702380953 17.7341579861111  1.81305803571428 17.5919053819444  1.98270089285715 17.3733723958333  C 2.15234375 17.1548394097222  2.27427455357143 16.9981553819444  2.34849330357143 16.9033203125  C 2.42271205357143 16.8084852430556  2.53227306547619 16.6456163194444  2.67717633928572 16.4147135416667  C 2.82207961309524 16.1838107638889  2.93694196428572 15.9735243055556  3.02176339285715 15.7838541666667  C 3.10658482142857 15.5941840277778  3.20200892857143 15.3509114583333  3.30803571428572 15.0540364583333  C 3.4140625 14.7571614583333  3.50595238095238 14.4437934027778  3.58370535714285 14.1139322916667  C 2.47395833333333 13.3799913194444  1.59923735119047 12.4728732638889  0.959542410714278 11.392578125  C 0.319847470238088 10.3122829861111  0 9.15364583333331  0 7.91666666666669  C 0 6.8446180555556  0.25093005952381 5.81998697916669  0.752790178571431 4.8427734375  C 1.25465029761905 3.86555989583331  1.9296875 3.0223524305556  2.77790178571428 2.31315104166669  C 3.62611607142857 1.60394965277777  4.63690476190476 1.0411241319444  5.81026785714285 0.624674479166686  C 6.98363095238095 0.208224826388914  8.21354166666667 0  9.5 0  C 10.7864583333333 0  12.0163690476191 0.208224826388914  13.1897321428571 0.624674479166686  C 14.3630952380952 1.0411241319444  15.3738839285714 1.60394965277777  16.2220982142857 2.31315104166669  C 17.0703125 3.0223524305556  17.7453497023809 3.86555989583331  18.2472098214286 4.8427734375  Z " fill-rule="nonzero" fill="#000000" stroke="none" transform="matrix(1 0 0 1 22 322 )" />
  </g>
</svg>