<?xml version="1.0" encoding="utf-8"?>
<svg version="1.1" xmlns:xlink="http://www.w3.org/1999/xlink" width="20px" height="19px" xmlns="http://www.w3.org/2000/svg">
  <g transform="matrix(1 0 0 1 -22 -397 )">
    <path d="M 1.18055555555554 11.2747252747253  C 1.27314814814815 11.5531135531136  1.43518518518516 11.6923076923077  1.66666666666669 11.6923076923077  C 1.89814814814815 11.6923076923077  2.06018518518516 11.5531135531136  2.15277777777777 11.2747252747253  C 2.24537037037038 10.996336996337  2.24537037037038 10.7179487179487  2.15277777777777 10.4395604395605  C 2.06018518518516 10.1611721611721  1.89814814814815 10.021978021978  1.66666666666669 10.021978021978  C 1.43518518518516 10.021978021978  1.27314814814815 10.1611721611721  1.18055555555554 10.4395604395605  C 1.08796296296299 10.7179487179487  1.08796296296299 10.996336996337  1.18055555555554 11.2747252747253  Z M 14.7178819444445 11.8945741758242  C 14.6976273148148 11.5509386446886  14.609375 11.2312271062271  14.453125 10.9354395604395  C 14.3952546296296 10.8223443223443  14.2838541666667 10.6048534798535  14.1189236111111 10.282967032967  C 13.9539930555555 9.96108058608058  13.8339120370371 9.72619047619048  13.7586805555555 9.5782967032967  C 13.6834490740741 9.43040293040292  13.5734953703704 9.21726190476193  13.4288194444445 8.93887362637361  C 13.2841435185185 8.66048534798534  13.1611689814815 8.42994505494505  13.0598958333333 8.24725274725273  C 12.9586226851852 8.06456043956047  12.8414351851852 7.86011904761904  12.7083333333333 7.63392857142856  C 12.5752314814815 7.40773809523807  12.4450231481482 7.19459706959708  12.3177083333333 6.99450549450552  L 11.2326388888889 8.82142857142856  C 10.7523148148148 9.63919413919416  10.1490162037037 10.0393772893773  9.42274305555554 10.021978021978  C 8.69646990740739 10.0045787545787  8.10185185185185 9.5782967032967  7.63888888888891 8.74313186813185  C 7.30902777777777 8.14285714285717  7.14554398148147 7.4555860805861  7.1484375 6.68131868131866  C 7.15133101851853 5.90705128205127  7.32060185185185 5.22413003663002  7.65625 4.63255494505495  L 9.19270833333331 1.94436813186815  C 9.06539351851853 1.84867216117215  8.91782407407408 1.77690018315019  8.75 1.72905219780222  C 8.58217592592592 1.68120421245419  8.4447337962963 1.65510531135533  8.33767361111109 1.65075549450552  C 8.23061342592592 1.64640567765565  8.06712962962962 1.64858058608058  7.84722222222223 1.6572802197802  C 7.62731481481484 1.66597985347983  7.48553240740739 1.67032967032969  7.421875 1.67032967032969  C 6.88946759259261 1.67032967032969  6.43229166666669 1.95741758241758  6.05034722222223 2.5315934065934  L 4.67881944444446 4.5934065934066  L 3.33333333333331 4.5934065934066  L 3.33333333333331 11.6923076923077  C 3.36226851851853 11.6923076923077  3.42303240740739 11.6901327838828  3.515625 11.685782967033  C 3.60821759259261 11.6814331501831  3.671875 11.6814331501831  3.70659722222223 11.685782967033  C 3.74131944444446 11.6901327838828  3.79774305555554 11.6988324175824  3.87586805555554 11.7118818681319  C 3.95399305555554 11.7249313186813  4.01331018518516 11.7445054945055  4.05381944444446 11.7706043956044  C 4.0943287037037 11.7967032967033  4.14496527777777 11.8336767399267  4.20572916666669 11.8815247252747  C 4.26649305555554 11.9293727106227  4.32002314814815 11.9880952380952  4.36631944444446 12.0576923076923  L 6.94444444444446 15.8681318681319  C 7.6099537037037 16.8337912087912  8.26678240740739 17.3166208791209  8.91493055555554 17.3166208791209  C 9.36631944444446 17.3166208791209  9.72800925925924 17.1121794871795  10 16.7032967032967  C 10.3298611111111 16.8772893772894  10.6553819444445 16.8424908424909  10.9765625 16.5989010989011  C 11.2977430555555 16.3553113553114  11.5075231481482 15.9855769230769  11.6059027777778 15.4896978021978  C 12.0341435185185 15.5418956043956  12.4016203703704 15.3505036630037  12.7083333333333 14.915521978022  C 12.8240740740741 14.7589285714286  12.9282407407408 14.5610119047619  13.0208333333333 14.321771978022  C 13.1134259259259 14.082532051282  13.1539351851852 13.8628663003663  13.1423611111111 13.6627747252747  C 13.2002314814815 13.7497710622711  13.3246527777778 13.7932692307692  13.515625 13.7932692307692  C 13.7644675925926 13.7932692307692  13.9872685185185 13.7019230769231  14.1840277777778 13.5192307692308  C 14.3807870370371 13.3365384615385  14.5240162037037 13.1059981684982  14.6137152777778 12.8276098901099  C 14.7034143518518 12.5492216117216  14.7381365740741 12.2382097069597  14.7178819444445 11.8945741758242  Z M 15.3125 9.86538461538464  C 15.6134259259259 10.4395604395605  15.7870370370371 11.0485347985348  15.8333333333333 11.6923076923077  L 16.6666666666667 11.6923076923077  L 16.6666666666667 5.01098901098902  L 15.859375 5.01098901098902  L 14.4965277777778 2.66208791208788  C 14.1145833333333 2.00091575091574  13.6255787037037 1.67032967032969  13.0295138888889 1.67032967032969  L 11.5798611111111 1.67032967032969  C 11.0648148148148 1.67032967032969  10.6423611111111 1.96176739926739  10.3125 2.54464285714283  L 8.49826388888891 5.71565934065933  C 8.33622685185185 6.00274725274727  8.25520833333331 6.3289835164835  8.25520833333331 6.69436813186815  C 8.25520833333331 7.05975274725273  8.33333333333331 7.38598901098902  8.48958333333331 7.67307692307691  C 8.73842592592592 8.11675824175825  9.05671296296293 8.34294871794873  9.44444444444446 8.35164835164835  C 9.83217592592592 8.36034798534797  10.1533564814815 8.14720695970698  10.4079861111111 7.71222527472526  L 12.0833333333333 4.86744505494505  C 12.2280092592592 4.66735347985349  12.3828125 4.57383241758242  12.5477430555555 4.58688186813185  C 12.7126736111111 4.59993131868134  12.8486689814815 4.71737637362639  12.9557291666667 4.93921703296701  C 13.0627893518518 5.16105769230768  13.0873842592592 5.40682234432234  13.0295138888889 5.67651098901098  C 13.1221064814815 5.84180402930406  13.2841435185185 6.11584249084251  13.515625 6.49862637362639  C 13.7471064814815 6.88141025641028  13.9207175925926 7.17719780219778  14.0364583333333 7.38598901098902  C 14.2042824074074 7.69917582417583  14.4429976851852 8.15808150183148  14.7526041666667 8.76270604395603  C 15.0622106481482 9.36733058608058  15.2488425925926 9.7348901098901  15.3125 9.86538461538464  Z M 17.8472222222222 11.2747252747253  C 17.9398148148148 11.5531135531136  18.1018518518518 11.6923076923077  18.3333333333333 11.6923076923077  C 18.5648148148148 11.6923076923077  18.7268518518518 11.5531135531136  18.8194444444445 11.2747252747253  C 18.9120370370371 10.996336996337  18.9120370370371 10.7179487179487  18.8194444444445 10.4395604395605  C 18.7268518518518 10.1611721611721  18.5648148148148 10.021978021978  18.3333333333333 10.021978021978  C 18.1018518518518 10.021978021978  17.9398148148148 10.1611721611721  17.8472222222222 10.4395604395605  C 17.7546296296296 10.7179487179487  17.7546296296296 10.996336996337  17.8472222222222 11.2747252747253  Z M 19.8350694444445 3.58859890109892  C 19.9450231481482 3.75389194139194  20 3.94963369963369  20 4.17582417582418  L 20 12.5274725274725  C 20 12.753663003663  19.9450231481482 12.9494047619048  19.8350694444445 13.1146978021978  C 19.7251157407408 13.2799908424909  19.5949074074074 13.3626373626374  19.4444444444445 13.3626373626374  L 15.6770833333333 13.3626373626374  C 15.5208333333333 13.9281135531136  15.2835648148148 14.391369047619  14.9652777777778 14.7524038461539  C 14.6469907407408 15.1134386446886  14.2853009259259 15.3374542124542  13.8802083333333 15.4244505494506  C 13.6892361111111 15.842032967033  13.4563078703704 16.196543040293  13.1814236111111 16.4879807692308  C 12.9065393518518 16.7794184981685  12.6099537037037 16.9773351648352  12.2916666666667 17.0817307692308  C 12.0486111111111 17.5428113553114  11.7462384259259 17.8973214285714  11.3845486111111 18.145260989011  C 11.0228587962963 18.3932005494506  10.6510416666667 18.4997710622711  10.2690972222222 18.4649725274725  C 9.921875 18.7607600732601  9.55729166666669 18.9325778388279  9.17534722222223 18.9804258241758  C 8.79340277777777 19.0282738095238  8.42447916666669 18.9673763736264  8.06857638888891 18.7977335164835  C 7.71267361111109 18.6280906593407  7.37413194444446 18.3953754578754  7.05295138888891 18.0995879120879  C 6.73177083333331 17.8038003663004  6.43229166666669 17.4514652014652  6.15451388888891 17.0425824175824  L 3.66319444444446 13.3626373626374  L 0.555555555555543 13.3626373626374  C 0.405092592592609 13.3626373626374  0.274884259259238 13.2799908424909  0.164930555555543 13.1146978021978  C 0.0549768518518476 12.9494047619048  0 12.753663003663  0 12.5274725274725  L 0 3.75824175824175  C 0 3.53205128205127  0.0549768518518476 3.33630952380952  0.164930555555543 3.1710164835165  C 0.274884259259238 3.00572344322342  0.405092592592609 2.92307692307691  0.555555555555543 2.92307692307691  L 4.21006944444446 2.92307692307691  C 4.29108796296299 2.80128205128204  4.42708333333331 2.59249084249086  4.61805555555554 2.2967032967033  C 4.80902777777777 2.00091575091574  4.94646990740739 1.79212454212455  5.03038194444446 1.67032967032969  C 5.11429398148147 1.54853479853477  5.2416087962963 1.37454212454213  5.41232638888891 1.14835164835165  C 5.58304398148147 0.922161172161168  5.72916666666669 0.759043040293022  5.85069444444446 0.65899725274727  C 5.97222222222223 0.55895146520146  6.11979166666669 0.448031135531153  6.29340277777777 0.326236263736291  C 6.46701388888891 0.204441391941373  6.64641203703701 0.119619963369985  6.83159722222223 0.0717719780219568  C 7.01678240740739 0.0239239926739856  7.21354166666669 0  7.421875 0  L 8.4375 0  C 9.01041666666669 0  9.53414351851853 0.243589743589723  10.0086805555555 0.730769230769227  C 10.4832175925926 0.243589743589723  11.0069444444445 0  11.5798611111111 0  L 13.0295138888889 0  C 13.2320601851852 0  13.4259259259259 0.0260989010989192  13.6111111111111 0.0782967032967008  C 13.7962962962963 0.130494505494482  13.9597800925926 0.193566849816875  14.1015625 0.267513736263709  C 14.2433449074074 0.341460622710599  14.3923611111111 0.456730769230774  14.5486111111111 0.613324175824175  C 14.7048611111111 0.769917582417577  14.8336226851852 0.904761904761926  14.9348958333333 1.01785714285717  C 15.0361689814815 1.13095238095235  15.1605902777778 1.30277014652017  15.3081597222222 1.53331043956047  C 15.4557291666667 1.76385073260076  15.5685763888889 1.94654304029302  15.6467013888889 2.08138736263737  C 15.7248263888889 2.21623168498166  15.8434606481482 2.4250228937729  16.0026041666667 2.70776098901098  C 16.1617476851852 2.99049908424911  16.2818287037037 3.20146520146523  16.3628472222222 3.34065934065933  L 19.4444444444445 3.34065934065933  C 19.5949074074074 3.34065934065933  19.7251157407408 3.42330586080584  19.8350694444445 3.58859890109892  Z " fill-rule="nonzero" fill="#000000" stroke="none" transform="matrix(1 0 0 1 22 397 )" />
  </g>
</svg>