<?xml version="1.0" encoding="utf-8"?>
<svg version="1.1" xmlns:xlink="http://www.w3.org/1999/xlink" width="21px" height="24px" xmlns="http://www.w3.org/2000/svg">
  <g transform="matrix(1 0 0 1 -22 -433 )">
    <path d="M 20.166015625 7.34375  C 20.7220052083333 8.82291666666669  21 10.375  21 12  C 21 13.625  20.7220052083333 15.1770833333333  20.166015625 16.65625  C 19.6100260416667 18.1354166666667  18.8626302083333 19.4114583333333  17.923828125 20.484375  C 16.9850260416667 21.5572916666667  15.8684895833333 22.4114583333333  14.57421875 23.046875  C 13.2799479166667 23.6822916666667  11.921875 24  10.5 24  C 8.93229166666669 24  7.44205729166669 23.6223958333334  6.029296875 22.8671875  C 4.61653645833331 22.1119791666667  3.41341145833331 21.046875  2.419921875 19.671875  C 2.35611979166669 19.5677083333334  2.32649739583331 19.4505208333334  2.3310546875 19.3203125  C 2.33561197916669 19.1901041666667  2.37434895833331 19.0833333333333  2.447265625 19  L 4.3203125 16.84375  C 4.41145833333331 16.75  4.525390625 16.703125  4.662109375 16.703125  C 4.80794270833331 16.7239583333333  4.91276041666669 16.7864583333333  4.9765625 16.890625  C 5.64192708333331 17.8802083333334  6.45768229166669 18.6458333333333  7.423828125 19.1875  C 8.38997395833331 19.7291666666667  9.41536458333331 20  10.5 20  C 11.4479166666667 20  12.3525390625 19.7890625  13.2138671875 19.3671875  C 14.0751953125 18.9453125  14.8203125 18.375  15.44921875 17.65625  C 16.078125 16.9375  16.5771484375 16.0859375  16.9462890625 15.1015625  C 17.3154296875 14.1171875  17.5 13.0833333333333  17.5 12  C 17.5 10.9166666666667  17.3154296875 9.8828125  16.9462890625 8.8984375  C 16.5771484375 7.9140625  16.078125 7.0625  15.44921875 6.34375  C 14.8203125 5.625  14.0751953125 5.0546875  13.2138671875 4.6328125  C 12.3525390625 4.2109375  11.4479166666667 4  10.5 4  C 9.60677083333331 4  8.75 4.18489583333331  7.9296875 4.5546875  C 7.109375 4.92447916666663  6.38020833333331 5.453125  5.7421875 6.140625  L 7.615234375 8.296875  C 7.89778645833331 8.609375  7.96158854166669 8.96875  7.806640625 9.375  C 7.65169270833331 9.79166666666669  7.3828125 10  7 10  L 0.875 10  C 0.638020833333314 10  0.432942708333314 9.90104166666669  0.259765625 9.703125  C 0.0865885416666856 9.50520833333331  0 9.27083333333331  0 9  L 0 2  C 0 1.5625  0.182291666666686 1.25520833333331  0.546875 1.078125  C 0.90234375 0.901041666666686  1.216796875 0.973958333333314  1.490234375 1.296875  L 3.267578125 3.3125  C 4.24283854166669 2.26041666666669  5.35709635416669 1.4453125  6.6103515625 0.8671875  C 7.86360677083332 0.2890625  9.16015625 0  10.5 0  C 11.921875 0  13.2799479166667 0.317708333333314  14.57421875 0.953125  C 15.8684895833333 1.58854166666669  16.9850260416667 2.44270833333331  17.923828125 3.515625  C 18.8626302083333 4.58854166666669  19.6100260416667 5.86458333333331  20.166015625 7.34375  Z M 12.126953125 7.140625  C 12.208984375 7.234375  12.25 7.35416666666669  12.25 7.5  L 12.25 14.5  C 12.25 14.6458333333334  12.208984375 14.765625  12.126953125 14.859375  C 12.044921875 14.953125  11.9401041666667 15  11.8125 15  L 7.4375 15  C 7.30989583333332 15  7.205078125 14.953125  7.123046875 14.859375  C 7.041015625 14.765625  7 14.6458333333334  7 14.5  L 7 13.5  C 7 13.3541666666667  7.041015625 13.234375  7.123046875 13.140625  C 7.205078125 13.046875  7.30989583333332 13  7.4375 13  L 10.5 13  L 10.5 7.5  C 10.5 7.35416666666669  10.541015625 7.234375  10.623046875 7.140625  C 10.705078125 7.046875  10.8098958333333 7  10.9375 7  L 11.8125 7  C 11.9401041666667 7  12.044921875 7.046875  12.126953125 7.140625  Z " fill-rule="nonzero" fill="#000000" stroke="none" transform="matrix(1 0 0 1 22 433 )" />
  </g>
</svg>