<?xml version="1.0" encoding="utf-8"?>
<svg version="1.1" xmlns:xlink="http://www.w3.org/1999/xlink" width="18px" height="24px" xmlns="http://www.w3.org/2000/svg">
  <g transform="matrix(1 0 0 1 -22 -245 )">
    <path d="M 12.2444196428572 1.74107142857144  C 11.2131696428572 1.15178571428572  10.1316964285714 0.85714285714289  9 0.85714285714289  C 7.86830357142856 0.85714285714289  6.78683035714283 1.15178571428572  5.75558035714283 1.74107142857144  C 4.72433035714283 2.33035714285711  3.83537946428572 3.12276785714283  3.08872767857144 4.11830357142856  C 2.34207589285717 5.11383928571428  1.74776785714283 6.29910714285711  1.30580357142856 7.67410714285711  C 0.863839285714278 9.04910714285717  0.642857142857167 10.4910714285714  0.642857142857167 12  C 0.642857142857167 13.5089285714286  0.863839285714278 14.9508928571428  1.30580357142856 16.3258928571429  C 1.74776785714283 17.7008928571429  2.34207589285717 18.8861607142857  3.08872767857144 19.8816964285714  C 3.83537946428572 20.8772321428571  4.72433035714283 21.6696428571429  5.75558035714283 22.2589285714286  C 6.78683035714283 22.8482142857143  7.86830357142856 23.1428571428572  9 23.1428571428572  C 10.1316964285714 23.1428571428572  11.2131696428572 22.8482142857143  12.2444196428572 22.2589285714286  C 13.2756696428572 21.6696428571429  14.1646205357143 20.8772321428571  14.9112723214286 19.8816964285714  C 15.6579241071428 18.8861607142857  16.2522321428572 17.7008928571429  16.6941964285714 16.3258928571429  C 17.1361607142857 14.9508928571428  17.3571428571428 13.5089285714286  17.3571428571428 12  C 17.3571428571428 10.4910714285714  17.1361607142857 9.04910714285717  16.6941964285714 7.67410714285711  C 16.2522321428572 6.29910714285711  15.6579241071428 5.11383928571428  14.9112723214286 4.11830357142856  C 14.1646205357143 3.12276785714283  13.2756696428572 2.33035714285711  12.2444196428572 1.74107142857144  Z M 5.50446428571428 0.95089285714289  C 6.61607142857144 0.316964285714278  7.78125 0  9 0  C 10.21875 0  11.3839285714286 0.316964285714278  12.4955357142857 0.95089285714289  C 13.6071428571429 1.58482142857144  14.5647321428572 2.4375  15.3683035714286 3.50892857142856  C 16.171875 4.58035714285711  16.8113839285714 5.85714285714283  17.2868303571428 7.33928571428572  C 17.7622767857143 8.82142857142856  18 10.375  18 12  C 18 13.625  17.7622767857143 15.1785714285714  17.2868303571428 16.6607142857143  C 16.8113839285714 18.1428571428572  16.171875 19.4196428571429  15.3683035714286 20.4910714285714  C 14.5647321428572 21.5625  13.6071428571429 22.4151785714286  12.4955357142857 23.0491071428572  C 11.3839285714286 23.6830357142857  10.21875 24  9 24  C 7.78125 24  6.61607142857144 23.6830357142857  5.50446428571428 23.0491071428572  C 4.39285714285717 22.4151785714286  3.43526785714283 21.5625  2.63169642857144 20.4910714285714  C 1.828125 19.4196428571429  1.18861607142856 18.1428571428572  0.713169642857167 16.6607142857143  C 0.237723214285722 15.1785714285714  0 13.625  0 12  C 0 10.375  0.237723214285722 8.82142857142856  0.713169642857167 7.33928571428572  C 1.18861607142856 5.85714285714283  1.828125 4.58035714285711  2.63169642857144 3.50892857142856  C 3.43526785714283 2.4375  4.39285714285717 1.58482142857144  5.50446428571428 0.95089285714289  Z M 4.66071428571428 11.1428571428571  L 4.98214285714283 11.1428571428571  C 5.08928571428572 11.1428571428571  5.14285714285717 11.2142857142857  5.14285714285717 11.3571428571429  L 5.14285714285717 17.7857142857143  C 5.14285714285717 17.9285714285714  5.08928571428572 18  4.98214285714283 18  L 4.66071428571428 18  C 4.55357142857144 18  4.5 17.9285714285714  4.5 17.7857142857143  L 4.5 11.3571428571429  C 4.5 11.2142857142857  4.55357142857144 11.1428571428571  4.66071428571428 11.1428571428571  Z M 8.09095982142856 12.5022321428571  C 8.34207589285717 12.1674107142857  8.64508928571428 12  9 12  C 9.35491071428572 12  9.65792410714283 12.1674107142857  9.90904017857144 12.5022321428571  C 10.16015625 12.8370535714286  10.2857142857143 13.2410714285714  10.2857142857143 13.7142857142857  C 10.2857142857143 14.0267857142857  10.2271205357143 14.3125  10.1099330357143 14.5714285714286  C 9.99274553571428 14.8303571428571  9.83705357142856 15.0357142857143  9.64285714285717 15.1875  L 9.64285714285717 16.7142857142857  C 9.64285714285717 16.8392857142857  9.61272321428572 16.9419642857143  9.55245535714283 17.0223214285714  C 9.4921875 17.1026785714286  9.41517857142856 17.1428571428571  9.32142857142856 17.1428571428571  L 8.67857142857144 17.1428571428571  C 8.58482142857144 17.1428571428571  8.5078125 17.1026785714286  8.44754464285717 17.0223214285714  C 8.38727678571428 16.9419642857143  8.35714285714283 16.8392857142857  8.35714285714283 16.7142857142857  L 8.35714285714283 15.1875  C 8.16294642857144 15.0357142857143  8.00725446428572 14.8303571428571  7.89006696428572 14.5714285714286  C 7.77287946428572 14.3125  7.71428571428572 14.0267857142857  7.71428571428572 13.7142857142857  C 7.71428571428572 13.2410714285714  7.83984375 12.8370535714286  8.09095982142856 12.5022321428571  Z M 5.12779017857144 3.09375  C 6.30970982142856 2.17410714285711  7.60044642857144 1.71428571428572  9 1.71428571428572  C 10.3995535714286 1.71428571428572  11.6902901785714 2.17410714285711  12.8722098214286 3.09375  C 14.0541294642857 4.01339285714283  14.9899553571428 5.26116071428572  15.6796875 6.83705357142856  C 16.3694196428571 8.41294642857144  16.7142857142857 10.1339285714286  16.7142857142857 12  C 16.7142857142857 13.8660714285714  16.3694196428571 15.5870535714286  15.6796875 17.1629464285714  C 14.9899553571428 18.7388392857143  14.0541294642857 19.9866071428571  12.8722098214286 20.90625  C 11.6902901785714 21.8258928571429  10.3995535714286 22.2857142857143  9 22.2857142857143  C 7.60044642857144 22.2857142857143  6.30970982142856 21.8258928571429  5.12779017857144 20.90625  C 3.94587053571428 19.9866071428571  3.01004464285717 18.7388392857143  2.3203125 17.1629464285714  C 1.63058035714283 15.5870535714286  1.28571428571428 13.8660714285714  1.28571428571428 12  C 1.28571428571428 10.1339285714286  1.63058035714283 8.41294642857144  2.3203125 6.83705357142856  C 3.01004464285717 5.26116071428572  3.94587053571428 4.01339285714283  5.12779017857144 3.09375  Z M 6.49888392857144 4.80803571428572  C 5.80915178571428 5.72767857142856  5.46428571428572 6.83928571428572  5.46428571428572 8.14285714285711  L 5.46428571428572 9.42857142857144  C 5.46428571428572 9.55357142857144  5.49441964285717 9.65625  5.5546875 9.73660714285711  C 5.61495535714283 9.81696428571428  5.69196428571428 9.85714285714289  5.78571428571428 9.85714285714289  L 6.42857142857144 9.85714285714289  C 6.52232142857144 9.85714285714289  6.59933035714283 9.81696428571428  6.65959821428572 9.73660714285711  C 6.71986607142856 9.65625  6.75 9.55357142857144  6.75 9.42857142857144  L 6.75 8.14285714285711  C 6.75 7.3125  6.96930803571428 6.60491071428572  7.40792410714283 6.02008928571428  C 7.84654017857144 5.43526785714283  8.37723214285717 5.14285714285711  9 5.14285714285711  C 9.62276785714283 5.14285714285711  10.1534598214286 5.43526785714283  10.5920758928572 6.02008928571428  C 11.0306919642857 6.60491071428572  11.25 7.3125  11.25 8.14285714285711  L 11.25 9.42857142857144  C 11.25 9.55357142857144  11.2801339285714 9.65625  11.3404017857143 9.73660714285711  C 11.4006696428572 9.81696428571428  11.4776785714286 9.85714285714289  11.5714285714286 9.85714285714289  L 12.2142857142857 9.85714285714289  C 12.3080357142857 9.85714285714289  12.3850446428572 9.81696428571428  12.4453125 9.73660714285711  C 12.5055803571428 9.65625  12.5357142857143 9.55357142857144  12.5357142857143 9.42857142857144  L 12.5357142857143 8.14285714285711  C 12.5357142857143 6.83928571428572  12.1908482142857 5.72767857142856  11.5011160714286 4.80803571428572  C 10.8113839285714 3.88839285714283  9.97767857142856 3.42857142857144  9 3.42857142857144  C 8.02232142857144 3.42857142857144  7.18861607142856 3.88839285714283  6.49888392857144 4.80803571428572  Z M 13.9520089285714 18.6026785714286  C 14.0792410714286 18.4330357142857  14.1428571428572 18.2321428571428  14.1428571428572 18  L 14.1428571428572 11.1428571428571  C 14.1428571428572 10.9107142857143  14.0792410714286 10.7098214285714  13.9520089285714 10.5401785714286  C 13.8247767857143 10.3705357142857  13.6741071428572 10.2857142857143  13.5 10.2857142857143  L 4.5 10.2857142857143  C 4.32589285714283 10.2857142857143  4.17522321428572 10.3705357142857  4.04799107142856 10.5401785714286  C 3.92075892857144 10.7098214285714  3.85714285714283 10.9107142857143  3.85714285714283 11.1428571428571  L 3.85714285714283 18  C 3.85714285714283 18.2321428571428  3.92075892857144 18.4330357142857  4.04799107142856 18.6026785714286  C 4.17522321428572 18.7723214285714  4.32589285714283 18.8571428571429  4.5 18.8571428571429  L 13.5 18.8571428571429  C 13.6741071428572 18.8571428571429  13.8247767857143 18.7723214285714  13.9520089285714 18.6026785714286  Z " fill-rule="nonzero" fill="#000000" stroke="none" transform="matrix(1 0 0 1 22 245 )" />
  </g>
</svg>