<?xml version="1.0" encoding="utf-8"?>
<svg version="1.1" xmlns:xlink="http://www.w3.org/1999/xlink" width="18px" height="19px" xmlns="http://www.w3.org/2000/svg">
  <g transform="matrix(1 0 0 1 -22 -286 )">
    <path d="M 3.76171875 13.9463778409091  C 3.82533482142856 14.0318418560606  3.85714285714289 14.1330492424242  3.85714285714289 14.25  L 3.85714285714289 15.1136363636364  C 3.85714285714289 15.2305871212121  3.82533482142856 15.3317945075758  3.76171875 15.4172585227273  C 3.69810267857144 15.5027225378788  3.62276785714286 15.5454545454546  3.53571428571431 15.5454545454546  L 2.89285714285711 15.5454545454546  C 2.80580357142856 15.5454545454546  2.73046875 15.5027225378788  2.66685267857142 15.4172585227273  C 2.60323660714286 15.3317945075758  2.57142857142858 15.2305871212121  2.57142857142858 15.1136363636364  L 2.57142857142858 14.25  C 2.57142857142858 14.1330492424242  2.60323660714286 14.0318418560606  2.66685267857142 13.9463778409091  C 2.73046875 13.8609138257576  2.80580357142856 13.8181818181818  2.89285714285711 13.8181818181818  L 3.53571428571431 13.8181818181818  C 3.62276785714286 13.8181818181818  3.69810267857144 13.8609138257576  3.76171875 13.9463778409091  Z M 3.76171875 10.4918323863636  C 3.82533482142856 10.5772964015151  3.85714285714289 10.6785037878788  3.85714285714289 10.7954545454546  L 3.85714285714289 11.6590909090909  C 3.85714285714289 11.7760416666667  3.82533482142856 11.8772490530303  3.76171875 11.9627130681818  C 3.69810267857144 12.0481770833333  3.62276785714286 12.0909090909091  3.53571428571431 12.0909090909091  L 2.89285714285711 12.0909090909091  C 2.80580357142856 12.0909090909091  2.73046875 12.0481770833333  2.66685267857142 11.9627130681818  C 2.60323660714286 11.8772490530303  2.57142857142858 11.7760416666667  2.57142857142858 11.6590909090909  L 2.57142857142858 10.7954545454546  C 2.57142857142858 10.6785037878788  2.60323660714286 10.5772964015151  2.66685267857142 10.4918323863636  C 2.73046875 10.4063683712121  2.80580357142856 10.3636363636364  2.89285714285711 10.3636363636364  L 3.53571428571431 10.3636363636364  C 3.62276785714286 10.3636363636364  3.69810267857144 10.4063683712121  3.76171875 10.4918323863636  Z M 3.76171875 7.03728693181819  C 3.82533482142856 7.12275094696969  3.85714285714289 7.22395833333331  3.85714285714289 7.34090909090907  L 3.85714285714289 8.20454545454544  C 3.85714285714289 8.32149621212125  3.82533482142856 8.42270359848487  3.76171875 8.50816761363637  C 3.69810267857144 8.59363162878788  3.62276785714286 8.63636363636363  3.53571428571431 8.63636363636363  L 2.89285714285711 8.63636363636363  C 2.80580357142856 8.63636363636363  2.73046875 8.59363162878788  2.66685267857142 8.50816761363637  C 2.60323660714286 8.42270359848487  2.57142857142858 8.32149621212125  2.57142857142858 8.20454545454544  L 2.57142857142858 7.34090909090907  C 2.57142857142858 7.22395833333331  2.60323660714286 7.12275094696969  2.66685267857142 7.03728693181819  C 2.73046875 6.95182291666669  2.80580357142856 6.90909090909093  2.89285714285711 6.90909090909093  L 3.53571428571431 6.90909090909093  C 3.62276785714286 6.90909090909093  3.69810267857144 6.95182291666669  3.76171875 7.03728693181819  Z M 15.3331473214286 13.9463778409091  C 15.3967633928571 14.0318418560606  15.4285714285714 14.1330492424242  15.4285714285714 14.25  L 15.4285714285714 15.1136363636364  C 15.4285714285714 15.2305871212121  15.3967633928571 15.3317945075758  15.3331473214286 15.4172585227273  C 15.26953125 15.5027225378788  15.1941964285714 15.5454545454546  15.1071428571429 15.5454545454546  L 5.46428571428569 15.5454545454546  C 5.37723214285714 15.5454545454546  5.30189732142856 15.5027225378788  5.23828125 15.4172585227273  C 5.17466517857144 15.3317945075758  5.14285714285711 15.2305871212121  5.14285714285711 15.1136363636364  L 5.14285714285711 14.25  C 5.14285714285711 14.1330492424242  5.17466517857144 14.0318418560606  5.23828125 13.9463778409091  C 5.30189732142856 13.8609138257576  5.37723214285714 13.8181818181818  5.46428571428569 13.8181818181818  L 15.1071428571429 13.8181818181818  C 15.1941964285714 13.8181818181818  15.26953125 13.8609138257576  15.3331473214286 13.9463778409091  Z M 15.3331473214286 10.4918323863636  C 15.3967633928571 10.5772964015151  15.4285714285714 10.6785037878788  15.4285714285714 10.7954545454546  L 15.4285714285714 11.6590909090909  C 15.4285714285714 11.7760416666667  15.3967633928571 11.8772490530303  15.3331473214286 11.9627130681818  C 15.26953125 12.0481770833333  15.1941964285714 12.0909090909091  15.1071428571429 12.0909090909091  L 5.46428571428569 12.0909090909091  C 5.37723214285714 12.0909090909091  5.30189732142856 12.0481770833333  5.23828125 11.9627130681818  C 5.17466517857144 11.8772490530303  5.14285714285711 11.7760416666667  5.14285714285711 11.6590909090909  L 5.14285714285711 10.7954545454546  C 5.14285714285711 10.6785037878788  5.17466517857144 10.5772964015151  5.23828125 10.4918323863636  C 5.30189732142856 10.4063683712121  5.37723214285714 10.3636363636364  5.46428571428569 10.3636363636364  L 15.1071428571429 10.3636363636364  C 15.1941964285714 10.3636363636364  15.26953125 10.4063683712121  15.3331473214286 10.4918323863636  Z M 15.3331473214286 7.03728693181819  C 15.3967633928571 7.12275094696969  15.4285714285714 7.22395833333331  15.4285714285714 7.34090909090907  L 15.4285714285714 8.20454545454544  C 15.4285714285714 8.32149621212125  15.3967633928571 8.42270359848487  15.3331473214286 8.50816761363637  C 15.26953125 8.59363162878788  15.1941964285714 8.63636363636363  15.1071428571429 8.63636363636363  L 5.46428571428569 8.63636363636363  C 5.37723214285714 8.63636363636363  5.30189732142856 8.59363162878788  5.23828125 8.50816761363637  C 5.17466517857144 8.42270359848487  5.14285714285711 8.32149621212125  5.14285714285711 8.20454545454544  L 5.14285714285711 7.34090909090907  C 5.14285714285711 7.22395833333331  5.17466517857144 7.12275094696969  5.23828125 7.03728693181819  C 5.30189732142856 6.95182291666669  5.37723214285714 6.90909090909093  5.46428571428569 6.90909090909093  L 15.1071428571429 6.90909090909093  C 15.1941964285714 6.90909090909093  15.26953125 6.95182291666669  15.3331473214286 7.03728693181819  Z M 16.6188616071429 17.14453125  C 16.6824776785714 17.0590672348484  16.7142857142857 16.9578598484849  16.7142857142857 16.8409090909091  L 16.7142857142857 5.61363636363637  C 16.7142857142857 5.49668560606062  16.6824776785714 5.395478219697  16.6188616071429 5.31001420454544  C 16.5552455357143 5.22455018939394  16.4799107142857 5.18181818181819  16.3928571428571 5.18181818181819  L 1.60714285714289 5.18181818181819  C 1.52008928571428 5.18181818181819  1.44475446428569 5.22455018939394  1.38113839285711 5.31001420454544  C 1.31752232142856 5.395478219697  1.28571428571431 5.49668560606062  1.28571428571431 5.61363636363637  L 1.28571428571431 16.8409090909091  C 1.28571428571431 16.9578598484849  1.31752232142856 17.0590672348484  1.38113839285711 17.14453125  C 1.44475446428569 17.2299952651516  1.52008928571428 17.2727272727273  1.60714285714289 17  L 16.3928571428571 17  C 16.4799107142857 17.2727272727273  16.5552455357143 17.2299952651516  16.6188616071429 17.14453125  Z M 17.5279017857143 0.634232954545439  C 17.8426339285714 1.05705492424238  18 1.56534090909093  18 2.15909090909093  L 18 16.8409090909091  C 18 17.4346590909091  17.8426339285714 17.9429450757576  17.5279017857143 18.3657670454546  C 17.2131696428571 18.7885890151516  16.8348214285714 19  16.3928571428571 19  L 1.60714285714289 19  C 1.16517857142858 19  0.786830357142861 18.7885890151516  0.472098214285694 18.3657670454546  C 0.157366071428555 17.9429450757576  0 17.4346590909091  0 16.8409090909091  L 0 2.15909090909093  C 0 1.56534090909093  0.157366071428555 1.05705492424238  0.472098214285694 0.634232954545439  C 0.786830357142861 0.211410984848442  1.16517857142858 0  1.60714285714289 0  L 16.3928571428571 0  C 16.8348214285714 0  17.2131696428571 0.211410984848442  17.5279017857143 0.634232954545439  Z " fill-rule="nonzero" fill="#000000" stroke="none" transform="matrix(1 0 0 1 22 286 )" />
  </g>
</svg>