<?xml version="1.0" encoding="utf-8"?><svg version="1.1" xmlns:xlink="http://www.w3.org/1999/xlink" width="12px" height="12px" viewBox="199 343  12 12" xmlns="http://www.w3.org/2000/svg"><path d="M 205 343  C 208.36 343  211 345.64  211 349  C 211 352.36  208.36 355  205 355  C 201.64 355  199 352.36  199 349  C 199 345.64  201.64 343  205 343  Z " fill-rule="nonzero" fill="#ffffff" stroke="none" /><path d="M 205 343.5  C 208.08 343.5  210.5 345.92  210.5 349  C 210.5 352.08  208.08 354.5  205 354.5  C 201.92 354.5  199.5 352.08  199.5 349  C 199.5 345.92  201.92 343.5  205 343.5  Z " stroke-width="1" stroke="#e4e4e4" fill="none" /><path d="M 205 352  C 203.32 352  202 350.68  202 349  C 202 347.32  203.32 346  205 346  C 206.68 346  208 347.32  208 349  C 208 350.68  206.68 352  205 352  " fill-rule="nonzero" fill="#e4e4e4" stroke="none" /></svg>