<?xml version="1.0" encoding="utf-8"?><svg version="1.1" xmlns:xlink="http://www.w3.org/1999/xlink" width="189px" height="301px" xmlns="http://www.w3.org/2000/svg"><g transform="matrix(1 0 0 1 -133 -32 )"><path d="M 133 32  L 322 32  L 322 333  L 133 333  L 133 32  " fill-rule="nonzero" fill="#cccccc" stroke="none" /><path d="M 146 45  L 309 45  L 309 320  L 146 320  L 146 45  " fill-rule="nonzero" fill="#ffffff" stroke="none" /><path d="M 245.455 105.5  C 237.517 105.5  231.28 99.263  231.28 91.325  C 231.28 83.387  237.517 77.15  245.455 77.15  C 253.393 77.15  259.63 83.387  259.63 91.325  C 259.63 99.263  253.393 105.5  245.455 105.5  " fill-rule="nonzero" fill="#cccccc" stroke="none" /><path d="M 151 316  L 151 169.7  L 189.5 103.2  L 243.4 156.4  L 274.2 143.1  L 305 156.4  L 305 316  L 151 316  " fill-rule="nonzero" fill="#169bd5" stroke="none" /></g></svg>