<?xml version="1.0" encoding="utf-8"?>
<svg version="1.1" xmlns:xlink="http://www.w3.org/1999/xlink" width="40px" height="38px" xmlns="http://www.w3.org/2000/svg">
  <g transform="matrix(1 0 0 1 -23 -29 )">
    <path d="M 23 29  L 63 29  L 63 67  L 23 67  L 23 29  " fill-rule="nonzero" fill="#cccccc" stroke="none" />
    <path d="M 26 32  L 60 32  L 60 64  L 26 64  L 26 32  " fill-rule="nonzero" fill="#ffffff" stroke="none" />
    <path d="M 46.65 40.4  C 45.054 40.4  43.8 39.146  43.8 37.55  C 43.8 35.954  45.054 34.7  46.65 34.7  C 48.246 34.7  49.5 35.954  49.5 37.55  C 49.5 39.146  48.246 40.4  46.65 40.4  " fill-rule="nonzero" fill="#cccccc" stroke="none" />
    <path d="M 27 63  L 27 46.5  L 35 39  L 46.2 45.9  L 52.6 43.5  L 59 45.9  L 59 63  L 27 63  " fill-rule="nonzero" fill="#169bd5" stroke="none" />
  </g>
</svg>