<?xml version="1.0" encoding="utf-8"?><svg version="1.1" xmlns:xlink="http://www.w3.org/1999/xlink" width="141px" height="40px" xmlns="http://www.w3.org/2000/svg"><g transform="matrix(1 0 0 1 -13 -60 )"><path d="M 13.5 62  A 1.5 1.5 0 0 1 15 60.5 L 152 60.5  A 1.5 1.5 0 0 1 153.5 62 L 153.5 98  A 1.5 1.5 0 0 1 152 99.5 L 15 99.5  A 1.5 1.5 0 0 1 13.5 98 L 13.5 62  Z " fill-rule="nonzero" fill="#3399ff" stroke="none" /><path d="M 13.5 62  A 1.5 1.5 0 0 1 15 60.5 L 152 60.5  A 1.5 1.5 0 0 1 153.5 62 L 153.5 98  A 1.5 1.5 0 0 1 152 99.5 L 15 99.5  A 1.5 1.5 0 0 1 13.5 98 L 13.5 62  Z " stroke-width="1" stroke="#3399ff" fill="none" /></g></svg>