<?xml version="1.0" encoding="utf-8"?>
<svg version="1.1" xmlns:xlink="http://www.w3.org/1999/xlink" width="5px" height="14px" xmlns="http://www.w3.org/2000/svg">
  <g transform="matrix(1 0 0 1 -388 -247 )">
    <path d="M 4.90391376367188 12.7784362109375  C 4.90391372265623 12.939127265625  4.8177845605469 13.100697734375  4.6454004003906 13.2229748046875  C 4.47305819921877 13.3452119140625  4.24686428710936 13.4067701953125  4.02155180078125 13.40589078125  L 0.991879708984357 13.395617734375  C 0.768372074218746 13.3947783203125  0.544864439453136 13.3332200390625  0.374285130859391 13.21182234375  C 0.203747781250001 13.089545234375  0.118458085937505 12.930573046875  0.117534701171905 12.7706814453125  L 0.0978072519531565 8.36374933593748  L 0.0978072109375034 1.4443207421875  C 0.0978072109375034 1.28442914062501  0.183096865234347 1.1245775390625  0.354515681640635 1.00146101562501  C 0.525976457031277 0.87922390624999  0.751288943359384 0.818505078125014  0.975719962890651 0.818505078125014  L 4.020628375 0.818505078125014  C 4.24505939453127 0.818505078125014  4.46944849609378 0.87922390624999  4.64090927148436 1.00146101562501  C 4.812370046875 1.12373812499999  4.89854116796874 1.28442917968749  4.89854116796874 1.4443207421875  L 4.89854116796874 8.31334355468749  L 4.90391376367188 12.7784362109375  Z " fill-rule="nonzero" fill="#1abc9c" stroke="none" transform="matrix(1 0 0 1 388 247 )" />
  </g>
</svg>