<?xml version="1.0" encoding="utf-8"?>
<svg version="1.1" xmlns:xlink="http://www.w3.org/1999/xlink" width="5px" height="5px" xmlns="http://www.w3.org/2000/svg">
  <g transform="matrix(1 0 0 1 -388 -262 )">
    <path d="M 4.90391372265623 1.7810025  L 4.90391372265623 3.3411846875  C 4.90391372265623 3.58054242187501  4.81774260156249 3.82077953125003  4.6462818261719 4.00285609374998  C 4.47482105078126 4.18581203125001  4.2485851386719 4.2772700390625  4.02419607812499 4.2772700390625  L 0.976643388671846 4.2772700390625  C 0.751330902343739 4.2772700390625  0.526899882812472 4.18581203125001  0.354557640624989 4.00285609374998  C 0.183138824218759 3.82077953125003  0.097849169921858 3.58058238281251  0.097849169921858 3.3411846875  L 0.097849169921858 1.7810025  C 0.097849169921858 1.54164476562499  0.183138824218759 1.30140765624998  0.354557640624989 1.11933109375002  C 0.526899841796876 0.936375156249994  0.751330902343739 0.844917148437503  0.976643388671846 0.844917148437503  L 4.02419607812499 0.844917148437503  C 4.24950856445315 0.844917148437503  4.47482100976561 0.936375156249994  4.6462818261719 1.11933109375002  C 4.81774260156249 1.30140765624998  4.90391372265623 1.54160480468749  4.90391372265623 1.7810025  Z " fill-rule="nonzero" fill="#1abc9c" stroke="none" transform="matrix(1 0 0 1 388 262 )" />
  </g>
</svg>