<?xml version="1.0" encoding="utf-8"?>
<svg version="1.1" xmlns:xlink="http://www.w3.org/1999/xlink" width="36px" height="36px" xmlns="http://www.w3.org/2000/svg">
  <g transform="matrix(1 0 0 1 -372 -239 )">
    <path d="M 35.1904845681818 18.000039234375  C 35.1904845681818 8.5061677244318  27.4942016463068 0.810239369318168  17.9999803636364 0.810239369318168  C 8.50658330965911 0.810239369318168  0.809476159090934 8.50620695880681  0.809476159090934 18.000039234375  C 0.809476159090934 27.4938715099432  8.50658327130679 35.1898390994318  17.9999803636364 35.1898390994318  C 27.4942016463068 35.1898390994318  35.1904845681818 27.4938322755682  35.1904845681818 18.000039234375  Z M 31.2588435553977 18.000039234375  C 31.2588435553977 25.32163809375  25.3227426775568 31.2574957798295  17.9999803636364 31.2574957798295  C 10.6780815127841 31.2574957798295  4.74280482528411 25.32163809375  4.74280482528411 18.000039234375  C 4.74280482528411 10.6775769502841  10.6780815127841 4.74258268892046  17.9999803636364 4.74258268892046  C 25.3227426775568 4.74258268892046  31.2588435553977 10.6776161846591  31.2588435553977 18.000039234375  Z " fill-rule="nonzero" fill="#1abc9c" stroke="none" transform="matrix(1 0 0 1 372 239 )" />
  </g>
</svg>