<?xml version="1.0" encoding="utf-8"?><svg version="1.1" xmlns:xlink="http://www.w3.org/1999/xlink" width="12px" height="12px" viewBox="864 481  12 12" xmlns="http://www.w3.org/2000/svg"><path d="M 870 481  C 873.36 481  876 483.64  876 487  C 876 490.36  873.36 493  870 493  C 866.64 493  864 490.36  864 487  C 864 483.64  866.64 481  870 481  Z " fill-rule="nonzero" fill="#ffffff" stroke="none" /><path d="M 870 481.5  C 873.08 481.5  875.5 483.92  875.5 487  C 875.5 490.08  873.08 492.5  870 492.5  C 866.92 492.5  864.5 490.08  864.5 487  C 864.5 483.92  866.92 481.5  870 481.5  Z " stroke-width="1" stroke="#e4e4e4" fill="none" /><path d="M 870 490  C 868.32 490  867 488.68  867 487  C 867 485.32  868.32 484  870 484  C 871.68 484  873 485.32  873 487  C 873 488.68  871.68 490  870 490  " fill-rule="nonzero" fill="#e4e4e4" stroke="none" /></svg>