<?xml version="1.0" encoding="utf-8"?><svg version="1.1" xmlns:xlink="http://www.w3.org/1999/xlink" width="12px" height="12px" viewBox="871 268  12 12" xmlns="http://www.w3.org/2000/svg"><path d="M 877 268  C 880.36 268  883 270.64  883 274  C 883 277.36  880.36 280  877 280  C 873.64 280  871 277.36  871 274  C 871 270.64  873.64 268  877 268  Z " fill-rule="nonzero" fill="#ffffff" stroke="none" /><path d="M 877 268.5  C 880.08 268.5  882.5 270.92  882.5 274  C 882.5 277.08  880.08 279.5  877 279.5  C 873.92 279.5  871.5 277.08  871.5 274  C 871.5 270.92  873.92 268.5  877 268.5  Z " stroke-width="1" stroke="#e4e4e4" fill="none" /><path d="M 877 277  C 875.32 277  874 275.68  874 274  C 874 272.32  875.32 271  877 271  C 878.68 271  880 272.32  880 274  C 880 275.68  878.68 277  877 277  " fill-rule="nonzero" fill="#e4e4e4" stroke="none" /></svg>