<?xml version="1.0" encoding="utf-8"?>
<svg version="1.1" xmlns:xlink="http://www.w3.org/1999/xlink" width="12px" height="12px" viewBox="164 74.5  12 12" xmlns="http://www.w3.org/2000/svg">
  <path d="M 170 74.5  C 173.36 74.5  176 77.14  176 80.5  C 176 83.86  173.36 86.5  170 86.5  C 166.64 86.5  164 83.86  164 80.5  C 164 77.14  166.64 74.5  170 74.5  Z " fill-rule="nonzero" fill="#ffffff" stroke="none" />
  <path d="M 170 75  C 173.08 75  175.5 77.42  175.5 80.5  C 175.5 83.58  173.08 86  170 86  C 166.92 86  164.5 83.58  164.5 80.5  C 164.5 77.42  166.92 75  170 75  Z " stroke-width="1" stroke="#e4e4e4" fill="none" />
  <path d="M 170 83.5  C 168.32 83.5  167 82.18  167 80.5  C 167 78.82  168.32 77.5  170 77.5  C 171.68 77.5  173 78.82  173 80.5  C 173 82.18  171.68 83.5  170 83.5  " fill-rule="nonzero" fill="#e4e4e4" stroke="none" />
</svg>