<?xml version="1.0" encoding="utf-8"?>
<svg version="1.1" xmlns:xlink="http://www.w3.org/1999/xlink" width="12px" height="12px" viewBox="269 74.5  12 12" xmlns="http://www.w3.org/2000/svg">
  <path d="M 275 74.5  C 278.36 74.5  281 77.14  281 80.5  C 281 83.86  278.36 86.5  275 86.5  C 271.64 86.5  269 83.86  269 80.5  C 269 77.14  271.64 74.5  275 74.5  Z " fill-rule="nonzero" fill="#ffffff" stroke="none" />
  <path d="M 275 75  C 278.08 75  280.5 77.42  280.5 80.5  C 280.5 83.58  278.08 86  275 86  C 271.92 86  269.5 83.58  269.5 80.5  C 269.5 77.42  271.92 75  275 75  Z " stroke-width="1" stroke="#e4e4e4" fill="none" />
  <path d="M 275 83.5  C 273.32 83.5  272 82.18  272 80.5  C 272 78.82  273.32 77.5  275 77.5  C 276.68 77.5  278 78.82  278 80.5  C 278 82.18  276.68 83.5  275 83.5  " fill-rule="nonzero" fill="#e4e4e4" stroke="none" />
</svg>