<?xml version="1.0" encoding="utf-8"?>
<svg version="1.1" xmlns:xlink="http://www.w3.org/1999/xlink" width="12px" height="12px" viewBox="241 117  12 12" xmlns="http://www.w3.org/2000/svg">
  <path d="M 247 117  C 250.36 117  253 119.64  253 123  C 253 126.36  250.36 129  247 129  C 243.64 129  241 126.36  241 123  C 241 119.64  243.64 117  247 117  Z " fill-rule="nonzero" fill="#ffffff" stroke="none" />
  <path d="M 247 117.5  C 250.08 117.5  252.5 119.92  252.5 123  C 252.5 126.08  250.08 128.5  247 128.5  C 243.92 128.5  241.5 126.08  241.5 123  C 241.5 119.92  243.92 117.5  247 117.5  Z " stroke-width="1" stroke="#e4e4e4" fill="none" />
  <path d="M 247 126  C 245.32 126  244 124.68  244 123  C 244 121.32  245.32 120  247 120  C 248.68 120  250 121.32  250 123  C 250 124.68  248.68 126  247 126  " fill-rule="nonzero" fill="#e4e4e4" stroke="none" />
</svg>