<?xml version="1.0" encoding="utf-8"?>
<svg version="1.1" xmlns:xlink="http://www.w3.org/1999/xlink" width="12px" height="12px" viewBox="319 117  12 12" xmlns="http://www.w3.org/2000/svg">
  <path d="M 325 117  C 328.36 117  331 119.64  331 123  C 331 126.36  328.36 129  325 129  C 321.64 129  319 126.36  319 123  C 319 119.64  321.64 117  325 117  Z " fill-rule="nonzero" fill="#ffffff" stroke="none" />
  <path d="M 325 117.5  C 328.08 117.5  330.5 119.92  330.5 123  C 330.5 126.08  328.08 128.5  325 128.5  C 321.92 128.5  319.5 126.08  319.5 123  C 319.5 119.92  321.92 117.5  325 117.5  Z " stroke-width="1" stroke="#e4e4e4" fill="none" />
  <path d="M 325 126  C 323.32 126  322 124.68  322 123  C 322 121.32  323.32 120  325 120  C 326.68 120  328 121.32  328 123  C 328 124.68  326.68 126  325 126  " fill-rule="nonzero" fill="#e4e4e4" stroke="none" />
</svg>