<?xml version="1.0" encoding="utf-8"?>
<svg version="1.1" xmlns:xlink="http://www.w3.org/1999/xlink" width="230px" height="102px" xmlns="http://www.w3.org/2000/svg">
  <defs>
    <mask fill="white" id="clip103">
      <path d="M 230 0  L 0 0  L 0 84.3510306409125  C 0 84.3510306409125  27.3267326732674 103.968738514764  64.331683168317 101.838231577986  C 101.336633663366 99.707724641208  121.262376237624 75.4199455619394  164.529702970297 73.715540012517  C 207.79702970297 72.0111344630946  230 73.715540012517  230 73.715540012517  L 230 0  Z " fill-rule="evenodd" />
    </mask>
  </defs>
  <g transform="matrix(1 0 0 1 -584 -637 )">
    <path d="M 230 0  L 0 0  L 0 84.3510306409125  C 0 84.3510306409125  27.3267326732674 103.968738514764  64.331683168317 101.838231577986  C 101.336633663366 99.707724641208  121.262376237624 75.4199455619394  164.529702970297 73.715540012517  C 207.79702970297 72.0111344630946  230 73.715540012517  230 73.715540012517  L 230 0  Z " fill-rule="nonzero" fill="#ffffff" stroke="none" transform="matrix(1 0 0 1 584 637 )" />
    <path d="M 230 0  L 0 0  L 0 84.3510306409125  C 0 84.3510306409125  27.3267326732674 103.968738514764  64.331683168317 101.838231577986  C 101.336633663366 99.707724641208  121.262376237624 75.4199455619394  164.529702970297 73.715540012517  C 207.79702970297 72.0111344630946  230 73.715540012517  230 73.715540012517  L 230 0  Z " stroke-width="2" stroke="#797979" fill="none" transform="matrix(1 0 0 1 584 637 )" mask="url(#clip103)" />
  </g>
</svg>