<?xml version="1.0" encoding="utf-8"?>
<svg version="1.1" xmlns:xlink="http://www.w3.org/1999/xlink" width="179px" height="81px" xmlns="http://www.w3.org/2000/svg">
  <defs>
    <mask fill="white" id="clip104">
      <path d="M 179 0  L 0 0  L 0 66.9846419795481  C 0 66.9846419795481  21.2673267326733 82.5634099970183  50.0668316831684 80.8715368413418  C 78.8663366336634 79.1796636856651  94.3737623762376 59.8923097109519  128.04702970297 58.5388111864105  C 161.720297029703 57.1853126618692  179 58.5388111864105  179 58.5388111864105  L 179 0  Z " fill-rule="evenodd" />
    </mask>
  </defs>
  <g transform="matrix(1 0 0 1 -1012 -637 )">
    <path d="M 179 0  L 0 0  L 0 66.9846419795481  C 0 66.9846419795481  21.2673267326733 82.5634099970183  50.0668316831684 80.8715368413418  C 78.8663366336634 79.1796636856651  94.3737623762376 59.8923097109519  128.04702970297 58.5388111864105  C 161.720297029703 57.1853126618692  179 58.5388111864105  179 58.5388111864105  L 179 0  Z " fill-rule="nonzero" fill="#ffffff" stroke="none" transform="matrix(1 0 0 1 1012 637 )" />
    <path d="M 179 0  L 0 0  L 0 66.9846419795481  C 0 66.9846419795481  21.2673267326733 82.5634099970183  50.0668316831684 80.8715368413418  C 78.8663366336634 79.1796636856651  94.3737623762376 59.8923097109519  128.04702970297 58.5388111864105  C 161.720297029703 57.1853126618692  179 58.5388111864105  179 58.5388111864105  L 179 0  Z " stroke-width="2" stroke="#797979" fill="none" transform="matrix(1 0 0 1 1012 637 )" mask="url(#clip104)" />
  </g>
</svg>