<?xml version="1.0" encoding="utf-8"?>
<svg version="1.1" xmlns:xlink="http://www.w3.org/1999/xlink" width="12px" height="12px" viewBox="123 372  12 12" xmlns="http://www.w3.org/2000/svg">
  <path d="M 129 372  C 132.36 372  135 374.64  135 378  C 135 381.36  132.36 384  129 384  C 125.64 384  123 381.36  123 378  C 123 374.64  125.64 372  129 372  Z " fill-rule="nonzero" fill="#ffffff" stroke="none" />
  <path d="M 129 372.5  C 132.08 372.5  134.5 374.92  134.5 378  C 134.5 381.08  132.08 383.5  129 383.5  C 125.92 383.5  123.5 381.08  123.5 378  C 123.5 374.92  125.92 372.5  129 372.5  Z " stroke-width="1" stroke="#e4e4e4" fill="none" />
  <path d="M 129 381  C 127.32 381  126 379.68  126 378  C 126 376.32  127.32 375  129 375  C 130.68 375  132 376.32  132 378  C 132 379.68  130.68 381  129 381  " fill-rule="nonzero" fill="#e4e4e4" stroke="none" />
</svg>