<?xml version="1.0" encoding="utf-8"?>
<svg version="1.1" xmlns:xlink="http://www.w3.org/1999/xlink" width="177px" height="40px" xmlns="http://www.w3.org/2000/svg">
  <g transform="matrix(1 0 0 1 -215 -220 )">
    <path d="M 215.5 222  A 1.5 1.5 0 0 1 217 220.5 L 390 220.5  A 1.5 1.5 0 0 1 391.5 222 L 391.5 258  A 1.5 1.5 0 0 1 390 259.5 L 217 259.5  A 1.5 1.5 0 0 1 215.5 258 L 215.5 222  Z " fill-rule="nonzero" fill="#3399ff" stroke="none" />
    <path d="M 215.5 222  A 1.5 1.5 0 0 1 217 220.5 L 390 220.5  A 1.5 1.5 0 0 1 391.5 222 L 391.5 258  A 1.5 1.5 0 0 1 390 259.5 L 217 259.5  A 1.5 1.5 0 0 1 215.5 258 L 215.5 222  Z " stroke-width="1" stroke="#3399ff" fill="none" />
  </g>
</svg>