<?xml version="1.0" encoding="utf-8"?>
<svg version="1.1" xmlns:xlink="http://www.w3.org/1999/xlink" width="12px" height="12px" xmlns="http://www.w3.org/2000/svg">
  <g transform="matrix(1 0 0 1 -683 -397 )">
    <path d="M 689 397  C 692.36 397  695 399.64  695 403  C 695 406.36  692.36 409  689 409  C 685.64 409  683 406.36  683 403  C 683 399.64  685.64 397  689 397  Z " fill-rule="nonzero" fill="#ffffff" stroke="none" />
    <path d="M 689 397.5  C 692.08 397.5  694.5 399.92  694.5 403  C 694.5 406.08  692.08 408.5  689 408.5  C 685.92 408.5  683.5 406.08  683.5 403  C 683.5 399.92  685.92 397.5  689 397.5  Z " stroke-width="1" stroke="#cccccc" fill="none" />
  </g>
</svg>