<?xml version="1.0" encoding="utf-8"?>
<svg version="1.1" xmlns:xlink="http://www.w3.org/1999/xlink" width="10px" height="14px" xmlns="http://www.w3.org/2000/svg">
  <g transform="matrix(1 0 0 1 0 -13 )">
    <path d="M 9.89443359375 5.3253125  C 9.894453125 5.882578125  9.894453125 6.43982421875  9.894453125 6.997109375  C 9.894453125 8.8819921875  9.89599609375 10.766875  9.8917578125 12.6516796875  C 9.8913671875 12.82921875  9.88388671875 13.016328125  9.82892578125 13.1821484375  C 9.68943359375 13.603515625  9.38412109375 13.75732421875  8.98734375 13.56384765625  C 8.6379296875 13.3934765625  8.305234375 13.17138671875  8.00232421875 12.926328125  C 6.932578125 12.06115234375  5.88759765625 11.1652734375  4.81150390625 10.30833984375  C 4.60177734375 10.14142578125  4.29693359375 10.01888671875  4.0316796875 10.010078125  C 3.00017578125 9.9759765625  1.96701171875 10.00044921875  0.93443359375 9.9941015625  C 0.3450390625 9.99048828125  0.25021484375 9.89623046875  0.24791015625 9.30396484375  C 0.24205078125 7.76365234375  0.23984375 6.22330078125  0.24646484375 4.68302734375  C 0.2490625 4.06869140625  0.35494140625 3.97123046875  0.96787109375 3.96859375  C 1.95126953125 3.9644140625  2.93560546875 3.99203125  3.9174609375 3.9525  C 4.21296875 3.9405859375  4.552578125 3.814921875  4.784296875 3.6309375  C 5.96396484375 2.694375  7.114140625 1.72060546875  8.2770703125 0.762871093749999  C 8.4030078125 0.659121093749999  8.53291015625 0.53412109375  8.68201171875 0.489980468749999  C 8.9630078125 0.406874999999999  9.33115234375 0.247246093749999  9.52935546875 0.358261718749999  C 9.73388671875 0.472773437499999  9.871953125 0.869218749999999  9.878671875 1.14625  C 9.9127734375 2.5385546875  9.89443359375 3.93216796875  9.89443359375 5.3253125  Z " fill-rule="nonzero" fill="#cccccc" stroke="none" transform="matrix(1 0 0 1 0 13 )" />
  </g>
</svg>