<?xml version="1.0" encoding="utf-8"?>
<svg version="1.1" xmlns:xlink="http://www.w3.org/1999/xlink" width="4px" height="12px" xmlns="http://www.w3.org/2000/svg">
  <g transform="matrix(1 0 0 1 -14 -14 )">
    <path d="M 3.21203125 3.2190234375  C 3.51427734375 4.06966796875  3.59130859375 5.0003515625  3.7676953125 5.89580078125  C 3.66125 7.89873046875  3.02044921875 9.67599609375  1.88919921875 11.2819140625  C 1.77095703125 11.4497265625  1.49734375 11.56138671875  1.2815625 11.5894140625  C 1.124765625 11.60982421875  0.886328125 11.48931640625  0.794296875000001 11.35580078125  C 0.730332031250001 11.26263671875  0.8116796875 11.0145703125  0.898242187499999 10.8812109375  C 1.5734375 9.84052734375  2.08732421875 8.7365234375  2.3148046875 7.50826171875  C 2.71763671875 5.33326171875  2.30740234375 3.3115625  1.180859375 1.4226171875  C 1.11380859375 1.3101171875  1.0337890625 1.204921875  0.971621093750002 1.089921875  C 0.840859375000001 0.84796875  0.538535156250003 0.61216796875  0.908417968750001 0.332460937500001  C 1.21470703125 0.10087890625  1.6779296875 0.16947265625  1.8852734375 0.5483203125  C 2.362578125 1.42103515625  2.881328125 2.288515625  3.21203125 3.2190234375  Z " fill-rule="nonzero" fill="#cccccc" stroke="none" transform="matrix(1 0 0 1 14 14 )" />
  </g>
</svg>