<?xml version="1.0" encoding="utf-8"?><svg version="1.1" xmlns:xlink="http://www.w3.org/1999/xlink" width="271px" height="139px" xmlns="http://www.w3.org/2000/svg"><g transform="matrix(1 0 0 1 -22 -33 )"><path d="M 22 33  L 293 33  L 293 172  L 22 172  L 22 33  " fill-rule="nonzero" fill="#cccccc" stroke="none" /><path d="M 32 43  L 283 43  L 283 162  L 32 162  L 32 43  " fill-rule="nonzero" fill="#ffffff" stroke="none" /><path d="M 173.345 74.7  C 167.507 74.7  162.92 70.113  162.92 64.275  C 162.92 58.437  167.507 53.85  173.345 53.85  C 179.183 53.85  183.77 58.437  183.77 64.275  C 183.77 70.113  179.183 74.7  173.345 74.7  " fill-rule="nonzero" fill="#cccccc" stroke="none" /><path d="M 36 159  L 36 97.4  L 97 69.4  L 182.4 124.532103321033  L 231.2 86.2  L 280 124.532103321033  L 280 159  L 36 159  " fill-rule="nonzero" fill="#169bd5" stroke="none" /></g></svg>