<?xml version="1.0" encoding="utf-8"?><svg version="1.1" xmlns:xlink="http://www.w3.org/1999/xlink" width="18px" height="19px" xmlns="http://www.w3.org/2000/svg"><g transform="matrix(1 0 0 1 -526 -211 )"><path d="M 6.51201923076923 16.0582386363636  C 6.78605769230768 16.4000946969697  6.92307692307691 16.8049242424242  6.92307692307691 17.2727272727273  C 6.92307692307691 17.7405303030303  6.78605769230768 18.1453598484848  6.51201923076923 18.4872159090909  C 6.23798076923077 18.8290719696969  5.91346153846155 19  5.53846153846155 19  C 5.16346153846155 19  4.83894230769232 18.8290719696969  4.56490384615387 18.4872159090909  C 4.29086538461536 18.1453598484848  4.15384615384613 17.7405303030303  4.15384615384613 17.2727272727273  C 4.15384615384613 16.8049242424242  4.29086538461536 16.4000946969697  4.56490384615387 16.0582386363636  C 4.83894230769232 15.7163825757576  5.16346153846155 15.5454545454546  5.53846153846155 15.5454545454546  C 5.91346153846155 15.5454545454546  6.23798076923077 15.7163825757576  6.51201923076923 16.0582386363636  Z M 16.2043269230769 16.0582386363636  C 16.4783653846154 16.4000946969697  16.6153846153846 16.8049242424242  16.6153846153846 17.2727272727273  C 16.6153846153846 17.7405303030303  16.4783653846154 18.1453598484848  16.2043269230769 18.4872159090909  C 15.9302884615385 18.8290719696969  15.6057692307693 19  15.2307692307693 19  C 14.8557692307693 19  14.53125 18.8290719696969  14.2572115384615 18.4872159090909  C 13.9831730769231 18.1453598484848  13.8461538461538 17.7405303030303  13.8461538461538 17.2727272727273  C 13.8461538461538 16.8049242424242  13.9831730769231 16.4000946969697  14.2572115384615 16.0582386363636  C 14.53125 15.7163825757576  14.8557692307693 15.5454545454546  15.2307692307693 15.5454545454546  C 15.6057692307693 15.5454545454546  15.9302884615385 15.7163825757576  16.2043269230769 16.0582386363636  Z M 17.7944711538462 1.98366477272725  C 17.9314903846154 2.15459280303031  18 2.35700757575756  18 2.59090909090912  L 18 9.5  C 18 9.71590909090912  17.9405048076923 9.90707859848482  17.8215144230769 10.0735085227273  C 17.7025240384615 10.2399384469697  17.5564903846154 10.3366477272728  17.3834134615385 10.3636363636364  L 6.09014423076923 12.0099431818182  C 6.18389423076923 12.5497159090909  6.23076923076923 12.8645833333333  6.23076923076923 12.9545454545454  C 6.23076923076923 13.0984848484848  6.14423076923077 13.3863636363636  5.97115384615387 13.8181818181818  L 15.9230769230769 13.8181818181818  C 16.1105769230769 13.8181818181818  16.2728365384615 13.9036458333333  16.4098557692307 14.0745738636364  C 16.546875 14.2455018939394  16.6153846153846 14.4479166666667  16.6153846153846 14.6818181818182  C 16.6153846153846 14.9157196969697  16.546875 15.1181344696969  16.4098557692307 15.2890625  C 16.2728365384615 15.4599905303031  16.1105769230769 15.5454545454546  15.9230769230769 15.5454545454546  L 4.84615384615387 15.5454545454546  C 4.65865384615387 15.5454545454546  4.49639423076923 15.4599905303031  4.359375 15.2890625  C 4.22235576923077 15.1181344696969  4.15384615384613 14.9157196969697  4.15384615384613 14.6818181818182  C 4.15384615384613 14.5828598484848  4.18269230769232 14.4411695075758  4.24038461538464 14.2567471590909  C 4.29807692307691 14.0723248106061  4.35576923076923 13.9103929924242  4.41346153846155 13.7709517045454  C 4.47115384615387 13.6315104166667  4.54867788461536 13.4515861742424  4.64603365384613 13.2311789772728  C 4.74338942307691 13.010771780303  4.79927884615387 12.8780776515152  4.81370192307691 12.8330965909091  L 2.89903846153845 1.72727272727275  L 0.692307692307679 1.72727272727275  C 0.504807692307679 1.72727272727275  0.342548076923094 1.64180871212119  0.205528846153868 1.47088068181819  C 0.0685096153846416 1.29995265151518  0 1.09753787878788  0 0.863636363636374  C 0 0.629734848484816  0.0685096153846416 0.427320075757564  0.205528846153868 0.256392045454561  C 0.342548076923094 0.0854640151515014  0.504807692307679 0  0.692307692307679 0  L 3.46153846153845 0  C 3.57692307692309 0  3.6796875 0.0292376893939377  3.76983173076923 0.087713068181813  C 3.85997596153845 0.146188446969688  3.93028846153845 0.215909090909122  3.98076923076923 0.296875  C 4.03125 0.377840909090878  4.078125 0.488044507575751  4.12139423076923 0.627485795454561  C 4.16466346153845 0.766927083333314  4.19350961538464 0.883877840909122  4.20793269230768 0.978338068181813  C 4.22235576923077 1.07279829545456  4.2421875 1.20549242424244  4.26742788461536 1.37642045454544  C 4.29266826923077 1.5473484848485  4.30889423076923 1.66429924242425  4.31610576923077 2  L 17.3076923076923 2  C 17.4951923076923 1.72727272727275  17.6574519230769 1.81273674242425  17.7944711538462 1.98366477272725  Z " fill-rule="nonzero" fill="#ffcc66" stroke="none" transform="matrix(1 0 0 1 526 211 )" /></g></svg>