<?xml version="1.0" encoding="utf-8"?><svg version="1.1" xmlns:xlink="http://www.w3.org/1999/xlink" width="20px" height="21px" xmlns="http://www.w3.org/2000/svg"><g transform="matrix(1 0 0 1 -608 -336 )"><path d="M 7.14488636363636 17.376953125  C 7.23011363636364 17.294921875  7.27272727272727 17.1901041666667  7.27272727272727 17.0625  L 7.27272727272727 7.4375  C 7.27272727272727 7.30989583333333  7.23011363636364 7.205078125  7.14488636363636 7.123046875  C 7.05965909090909 7.041015625  6.95075757575758 7  6.81818181818182 7  L 5.90909090909091 7  C 5.77651515151515 7  5.66761363636364 7.041015625  5.58238636363636 7.123046875  C 5.49715909090909 7.205078125  5.45454545454545 7.30989583333333  5.45454545454545 7.4375  L 5.45454545454545 17.0625  C 5.45454545454545 17.1901041666667  5.49715909090909 17.294921875  5.58238636363636 17.376953125  C 5.66761363636364 17.458984375  5.77651515151515 17.5  5.90909090909091 17.5  L 6.81818181818182 17.5  C 6.95075757575758 17.5  7.05965909090909 17.458984375  7.14488636363636 17.376953125  Z M 10.78125 17.376953125  C 10.8664772727273 17.294921875  10.9090909090909 17.1901041666667  10.9090909090909 17.0625  L 10.9090909090909 7.4375  C 10.9090909090909 7.30989583333333  10.8664772727273 7.205078125  10.78125 7.123046875  C 10.6960227272727 7.041015625  10.5871212121212 7  10.4545454545455 7  L 9.54545454545455 7  C 9.41287878787879 7  9.30397727272727 7.041015625  9.21875 7.123046875  C 9.13352272727273 7.205078125  9.09090909090909 7.30989583333333  9.09090909090909 7.4375  L 9.09090909090909 17.0625  C 9.09090909090909 17.1901041666667  9.13352272727273 17.294921875  9.21875 17.376953125  C 9.30397727272727 17.458984375  9.41287878787879 17.5  9.54545454545455 17.5  L 10.4545454545455 17.5  C 10.5871212121212 17.5  10.6960227272727 17.458984375  10.78125 17.376953125  Z M 14.4176136363636 17.376953125  C 14.5028409090909 17.294921875  14.5454545454545 17.1901041666667  14.5454545454545 17.0625  L 14.5454545454545 7.4375  C 14.5454545454545 7.30989583333333  14.5028409090909 7.205078125  14.4176136363636 7.123046875  C 14.3323863636364 7.041015625  14.2234848484848 7  14.0909090909091 7  L 13.1818181818182 7  C 13.0492424242424 7  12.9403409090909 7.041015625  12.8551136363636 7.123046875  C 12.7698863636364 7.205078125  12.7272727272727 7.30989583333333  12.7272727272727 7.4375  L 12.7272727272727 17.0625  C 12.7272727272727 17.1901041666667  12.7698863636364 17.294921875  12.8551136363636 17.376953125  C 12.9403409090909 17.458984375  13.0492424242424 17.5  13.1818181818182 17.5  L 14.0909090909091 17.5  C 14.2234848484848 17.5  14.3323863636364 17.458984375  14.4176136363636 17.376953125  Z M 7.51420454545455 1.900390625  L 6.81818181818182 3.5  L 13.1818181818182 3.5  L 12.5 1.900390625  C 12.4337121212121 1.818359375  12.3532196969697 1.76822916666667  12.2585227272727 1.75  L 7.75568181818182 1.75  C 7.66098484848485 1.76822916666667  7.58049242424243 1.818359375  7.51420454545455 1.900390625  Z M 19.8721590909091 3.623046875  C 19.9573863636364 3.705078125  20 3.80989583333333  20 3.9375  L 20 4.8125  C 20 4.94010416666667  19.9573863636364 5.044921875  19.8721590909091 5.126953125  C 19.7869318181818 5.208984375  19.6780303030303 5.25  19.5454545454545 5.25  L 18 5.25  L 18 18.2109375  C 18.1818181818182 18.9674479166667  17.9592803030303 19.6214192708333  17.5142045454545 20.1728515625  C 17.0691287878788 20.7242838541667  16.5340909090909 21  15.9090909090909 21  L 4.09090909090909 21  C 3.46590909090909 21  2.93087121212121 20.7333984375  2.48579545454545 20.2001953125  C 2.0407196969697 19.6669921875  1.81818181818182 19.0221354166667  2 18.265625  L 2 5.25  L 0.454545454545455 5.25  C 0.321969696969697 5.25  0.213068181818182 5.208984375  0.127840909090909 5.126953125  C 0.0426136363636364 5.044921875  0 4.94010416666667  0 4.8125  L 0 3.9375  C 0 3.80989583333333  0.0426136363636364 3.705078125  0.127840909090909 3.623046875  C 0.213068181818182 3.541015625  0.321969696969697 3.5  0.454545454545455 3.5  L 4.84375 3.5  L 5.83806818181818 1.216796875  C 5.98011363636364 0.879557291666665  6.23579545454546 0.592447916666665  6.60511363636364 0.355468750000001  C 6.97443181818182 0.118489583333332  7.34848484848485 0  7.72727272727273 0  L 12.2727272727273 0  C 12.6515151515152 0  13.0255681818182 0.118489583333332  13.3948863636364 0.355468750000001  C 13.7642045454545 0.592447916666665  14.0198863636364 0.879557291666665  14.1619318181818 1.216796875  L 15.15625 3.5  L 19.5454545454545 3.5  C 19.6780303030303 3.5  19.7869318181818 3.541015625  19.8721590909091 3.623046875  Z " fill-rule="nonzero" fill="#666666" stroke="none" transform="matrix(1 0 0 1 608 336 )" /></g></svg>