<?xml version="1.0" encoding="utf-8"?><svg version="1.1" xmlns:xlink="http://www.w3.org/1999/xlink" width="20px" height="19px" xmlns="http://www.w3.org/2000/svg"><g transform="matrix(1 0 0 1 -608 -289 )"><path d="M 19.5250320924262 7.85367498314228  C 19.8416773641421 8.18678354686446  20 8.57541020454035  20 9.01955495616992  C 20 9.47224095302315  19.8416773641421 9.85659698808721  19.5250320924262 10.1726230613621  L 11.1681643132221 18.5259608900877  C 10.8344030808729 18.8419869633626  10.4450149764656 19  10 19  C 9.5464270432178 19  9.16131792896876 18.8419869633626  8.84467265725289 18.5259608900877  L 0.48780487804878 10.1726230613621  C 0.16260162601626 9.86513823331086  0 9.4807821982468  0 9.01955495616992  C 0 8.5668689593167  0.16260162601626 8.17824230164082  0.48780487804878 7.85367498314228  L 1.43774069319641 6.89278489548213  C 1.77150192554557 6.57675882220724  2.16089002995293 6.41874578556979  2.60590500641849 6.41874578556979  C 3.05947796320069 6.41874578556979  3.44458707744972 6.57675882220724  3.7612323491656 6.89278489548213  L 7.53530166880616 10.6594740391099  L 7.53530166880616 1.63991908293999  C 7.53530166880616 1.19577433131041  7.69790329482242 0.811418296246346  8.02310654685494 0.48685097774781  C 8.34830979888746 0.162283659249267  8.7334189131365 0  9.17843388960205 0  L 10.8215661103979 0  C 11.2665810868635 0  11.6516902011125 0.162283659249267  11.9768934531451 0.48685097774781  C 12.3020967051776 0.811418296246346  12.4646983311938 1.19577433131041  12.4646983311938 1.63991908293999  L 12.4646983311938 10.6594740391099  L 16.2387676508344 6.89278489548213  C 16.5554129225503 6.57675882220724  16.9405220367993 6.41874578556979  17.3940949935815 6.41874578556979  C 17.8391099700471 6.41874578556979  18.2284980744544 6.57675882220724  18.5622593068036 6.89278489548213  L 19.5250320924262 7.85367498314228  Z " fill-rule="nonzero" fill="#666666" stroke="none" transform="matrix(1 0 0 1 608 289 )" /></g></svg>