<?xml version="1.0" encoding="utf-8"?><svg version="1.1" xmlns:xlink="http://www.w3.org/1999/xlink" width="12px" height="12px" viewBox="146 94  12 12" xmlns="http://www.w3.org/2000/svg"><path d="M 152 94  C 155.36 94  158 96.64  158 100  C 158 103.36  155.36 106  152 106  C 148.64 106  146 103.36  146 100  C 146 96.64  148.64 94  152 94  Z " fill-rule="nonzero" fill="#ffffff" stroke="none" /><path d="M 152 94.5  C 155.08 94.5  157.5 96.92  157.5 100  C 157.5 103.08  155.08 105.5  152 105.5  C 148.92 105.5  146.5 103.08  146.5 100  C 146.5 96.92  148.92 94.5  152 94.5  Z " stroke-width="1" stroke="#e4e4e4" fill="none" /><path d="M 152 103  C 150.32 103  149 101.68  149 100  C 149 98.32  150.32 97  152 97  C 153.68 97  155 98.32  155 100  C 155 101.68  153.68 103  152 103  " fill-rule="nonzero" fill="#e4e4e4" stroke="none" /></svg>