<?xml version="1.0" encoding="utf-8"?><svg version="1.1" xmlns:xlink="http://www.w3.org/1999/xlink" width="12px" height="12px" viewBox="296 86  12 12" xmlns="http://www.w3.org/2000/svg"><path d="M 302 86  C 305.36 86  308 88.64  308 92  C 308 95.36  305.36 98  302 98  C 298.64 98  296 95.36  296 92  C 296 88.64  298.64 86  302 86  Z " fill-rule="nonzero" fill="#ffffff" stroke="none" /><path d="M 302 86.5  C 305.08 86.5  307.5 88.92  307.5 92  C 307.5 95.08  305.08 97.5  302 97.5  C 298.92 97.5  296.5 95.08  296.5 92  C 296.5 88.92  298.92 86.5  302 86.5  Z " stroke-width="1" stroke="#e4e4e4" fill="none" /><path d="M 302 95  C 300.32 95  299 93.68  299 92  C 299 90.32  300.32 89  302 89  C 303.68 89  305 90.32  305 92  C 305 93.68  303.68 95  302 95  " fill-rule="nonzero" fill="#e4e4e4" stroke="none" /></svg>