<?xml version="1.0" encoding="utf-8"?>
<svg version="1.1" xmlns:xlink="http://www.w3.org/1999/xlink" width="15px" height="13px" xmlns="http://www.w3.org/2000/svg">
  <g transform="matrix(1 0 0 1 -11 -10 )">
    <path d="M 14.02211796875 9.834318359375  C 13.7245390625 9.404  13.139720703125 9.300140625  12.716259765625 9.601419921875  C 11.68333984375 10.33419921875  10.474779296875 10.701560546875  9.239279296875 10.684640625  C 9.075919921875 10.682919921875  8.9136796875 10.67433984375  8.753439453125 10.660060546875  C 8.687939453125 10.65380078125  8.622400390625 10.64294140625  8.556599609375 10.634640625  C 8.430419921875 10.617720703125  8.303958984375 10.6006015625  8.1811796875 10.576541015625  C 8.105060546875 10.56194140625  8.03069921875 10.542201171875  7.9563203125 10.524740234375  C 7.835859375 10.496099609375  7.715939453125 10.467220703125  7.598380859375 10.431759765625  C 7.541720703125 10.41401953125  7.486521484375 10.39369921875  7.43044140625 10.3745390625  C 7.294822265625 10.328478515625  7.15976171875 10.281  7.028162109375 10.22519921875  C 6.998421875 10.213138671875  6.969802734375 10.198919921875  6.94004296875 10.185419921875  C 6.78668359375 10.11701953125  6.634462890625 10.045240234375  6.487962890625 9.964560546875  C 6.480822265625 9.9608203125  6.474802734375 9.9576796875  6.467662109375 9.954  C 5.970662109375 9.677580078125  5.51572265625 9.3325390625  5.1168828125 8.929380859375  C 5.11086328125 8.92312109375  5.104283203125 8.915640625  5.09772265625 8.9085  C 4.973822265625 8.782580078125  4.855662109375 8.65098046875  4.743203125 8.51366015625  C 4.7197421875 8.4844609375  4.69684375 8.453  4.673103515625 8.4229609375  C 3.8613828125 7.394681640625  3.37182421875 6.093380859375  3.37182421875 4.67762109375  L 4.74874421875 4.67762109375  C 4.784304765625 4.67762109375  4.8187246875 4.658560546875  4.83676375 4.625060546875  C 4.854824296875 4.591560546875  4.8518028125 4.55233984375  4.83224421875 4.52262109375  L 2.517720703125 1.007560546875  C 2.49983984375 0.980419921875001  2.4691015625 0.962560546875001  2.434201171875 0.962560546875001  C 2.39930078125 0.962560546875001  2.368541015625 0.980441406250002  2.350681640625 1.007560546875  L 0.0361191406250001 4.5225390625  C 0.0165585937500001 4.552259765625  0.01355859375 4.591478515625  0.0315996093749999 4.624978515625  C 0.0496601562500001 4.658478515625  0.084060546875 4.6775390625  0.119638671875 4.6775390625  L 1.496838671875 4.6775390625  C 1.496838671875 6.341919921875  2.009278125 7.884658203125  2.87993828125 9.16019921875  C 2.890537890625 9.177978515625  2.89825859375 9.196859375  2.90997734375 9.214619140625  C 3.000096484375 9.34505859375  3.100256640625 9.46551953125  3.1969578125 9.58883984375  C 3.233018359375 9.63548046875  3.266778125 9.68351953125  3.30425859375 9.729279296875  C 3.44675859375 9.9043984375  3.5980984375 10.068919921875  3.75375859375 10.22971875  C 3.768639453125 10.24573828125  3.782377734375 10.261458984375  3.796979296875 10.275779296875  C 4.319440234375 10.80537890625  4.910280078125 11.251759765625  5.55289921875 11.6085390625  C 5.569498828125 11.618578125  5.5860984375 11.6288984375  5.60439921875 11.638318359375  C 5.789518359375 11.738998046875  5.979780078125 11.829998046875  6.172639453125 11.916138671875  C 6.22071953125 11.936998046875  6.267639453125 11.960478515625  6.316559375 11.981099609375  C 6.4813796875 12.05033984375  6.6507390625 12.11098046875  6.821559375 12.168798828125  C 6.9022390625 12.19655859375  6.98236015625 12.22487890625  7.064178515625 12.250318359375  C 7.21325859375 12.294958984375  7.36575859375 12.3324375  7.519678515625 12.369337890625  C 7.621537890625 12.393376953125  7.72279765625 12.41941796875  7.826698046875 12.4394375  C 7.869897265625 12.448318359375  7.910518359375 12.46177734375  7.952897265625 12.468337890625  C 8.09765703125 12.494376953125  8.243576953125 12.50895703125  8.3886375 12.526697265625  C 8.440996875 12.533017578125  8.492496875 12.541896484375  8.544877734375 12.547578125  C 8.805537890625 12.573638671875  9.0653171875 12.59077734375  9.324858203125 12.59077734375  C 10.91311796875 12.59077734375  12.46275859375 12.09895703125  13.792037890625 11.156177734375  C 14.215537890625 10.85491796875  14.318838671875 10.263796875  14.02211796875 9.834318359375  Z " fill-rule="nonzero" fill="#999999" stroke="none" transform="matrix(1 0 0 1 11 10 )" />
  </g>
</svg>