<?xml version="1.0" encoding="utf-8"?>
<svg version="1.1" xmlns:xlink="http://www.w3.org/1999/xlink" width="15px" height="13px" xmlns="http://www.w3.org/2000/svg">
  <g transform="matrix(1 0 0 1 -15 -6 )">
    <path d="M 13.123380859375 8.6775390625  C 13.122521484375 7.01833984375  12.613220703125 5.47869921875  11.746861328125 4.205759765625  C 11.73426171875 4.18401953125  11.725662109375 4.16198046875  11.711400390625 4.14166015625  C 11.6038203125 3.98601953125  11.4861796875 3.840939453125  11.369201171875 3.695599609375  C 11.35576171875 3.677859375  11.343181640625 3.659259765625  11.328861328125 3.641798828125  C 10.53598046875 2.667837890625  9.5406015625 1.915619140625  8.412421875 1.423798828125  C 8.381201171875 1.41005859375  8.35062109375 1.3948984375  8.319162109375 1.381158203125  C 8.139162109375 1.306197265625  7.9546015625 1.239818359375  7.7692421875 1.177158203125  C 7.70228125 1.154837890625  7.63676171875 1.13023828125  7.5683828125 1.10991796875  C 7.40672265625 1.06041796875  7.242763671875 1.020078125  7.07736328125 0.9814375  C 6.986103515625 0.9599765625  6.89484375 0.936517578125  6.80240234375 0.918216796874999  C 6.756642578125 0.909335937499999  6.71344140625 0.895617187499999  6.6682421875 0.887316406249999  C 6.544921875 0.86585546875  6.421021484375 0.856416015625  6.297421875 0.840117187499999  C 6.21158203125 0.829236328124999  6.128021484375 0.815796875  6.04162109375 0.806917968749999  C 5.833900390625 0.78745703125  5.627861328125 0.779177734374999  5.421880859375 0.77545703125  C 5.3841015625 0.77545703125  5.34778125 0.7694375  5.31030078125 0.7694375  C 5.30344140625001 0.7694375  5.29716015625 0.771457031249999  5.29028125 0.772017578124999  C 3.704 0.77316015625  2.15780078125 1.258140625  0.83019921875 2.199759765625  C 0.405599609374999 2.5001796875  0.302298828124999 3.09187890625  0.599298828125 3.521640625  C 0.895718749999999 3.951400390625  1.4813984375 4.055541015625  1.905138671875 3.754240234375  C 2.930599609375 3.027220703125  4.12687890625 2.659259765625  5.353779296875 2.670419921875  C 5.530318359375 2.671560546875  5.704 2.680419921875  5.8756796875 2.696740234375  C 5.928599609375 2.702759765625  5.98098046875 2.710759765625  6.033599609375 2.71733984375  C 6.1746796875 2.73480078125  6.314580078125 2.755099609375  6.452458984375 2.782580078125  C 6.513419921875 2.794599609375  6.57351953125 2.8103203125  6.632978515625 2.824080078125  C 6.768337890625 2.8549609375  6.9033984375 2.88816015625  7.035578125 2.92851953125  C 7.077337890625 2.941958984375  7.118517578125 2.957119140625  7.160298828125 2.970859375  C 7.311099609375 3.020919921875  7.459578125 3.07471875  7.6055390625 3.136240234375  C 7.62037890625 3.14251953125  7.635578125 3.150259765625  7.64987890625 3.156259765625  C 8.5236796875 3.536798828125  9.29021875 4.1225  9.88821875 4.8555390625  C 9.891958984375 4.859818359375  9.895638671875 4.86555859375  9.899099609375 4.86983984375  C 10.740859375 5.9073203125  11.247599609375 7.23348046875  11.24816015625 8.6775390625  L 9.87066015625 8.6775390625  C 9.835099609375 8.6775390625  9.8006796875 8.696599609375  9.782640625 8.730099609375  C 9.7646015625 8.763599609375  9.7676015625 8.8028203125  9.7871796875 8.8325390625  L 12.102259765625 12.347259765625  C 12.120140625 12.37437890625  12.15087890625 12.392259765625  12.185798828125 12.392259765625  C 12.22069921875 12.392240234375  12.251439453125 12.374359375  12.269298828125 12.347240234375  L 14.583298828125 8.83251953125  C 14.60287890625 8.802798828125  14.60587890625 8.763599609375  14.587818359375 8.730080078125  C 14.569779296875 8.696580078125  14.535357421875 8.67751953125  14.499798828125 8.67751953125  L 13.12338 8.67751953125  Z " fill-rule="nonzero" fill="#999999" stroke="none" transform="matrix(1 0 0 1 15 6 )" />
  </g>
</svg>