<?xml version="1.0" encoding="utf-8"?><svg version="1.1" xmlns:xlink="http://www.w3.org/1999/xlink" width="277px" height="40px" xmlns="http://www.w3.org/2000/svg"><g transform="matrix(1 0 0 1 -20 -56 )"><path d="M 20.5 58  A 1.5 1.5 0 0 1 22 56.5 L 295 56.5  A 1.5 1.5 0 0 1 296.5 58 L 296.5 94  A 1.5 1.5 0 0 1 295 95.5 L 22 95.5  A 1.5 1.5 0 0 1 20.5 94 L 20.5 58  Z " fill-rule="nonzero" fill="#3399ff" stroke="none" /><path d="M 20.5 58  A 1.5 1.5 0 0 1 22 56.5 L 295 56.5  A 1.5 1.5 0 0 1 296.5 58 L 296.5 94  A 1.5 1.5 0 0 1 295 95.5 L 22 95.5  A 1.5 1.5 0 0 1 20.5 94 L 20.5 58  Z " stroke-width="1" stroke="#3399ff" fill="none" /></g></svg>