<?xml version="1.0" encoding="utf-8"?><svg version="1.1" xmlns:xlink="http://www.w3.org/1999/xlink" width="18px" height="18px" xmlns="http://www.w3.org/2000/svg"><g transform="matrix(1 0 0 1 -12 -33 )"><path d="M 4.65685096153847 8.30769230769231  C 4.58834134615387 8.23918269230769  4.5 8.30769230769231  4.5 8.30769230769231  C 4.40625000000001 8.30769230769231  4.72536057692311 8.37620192307691  4.65685096153847 8.30769230769231  Z M 11.0390625 11.0390625  C 11.9873798076923 10.0907451923077  12.4615384615385 8.94951923076923  12.4615384615385 7.61538461538461  C 12.4615384615385 6.28125000000001  11.9873798076923 5.14002403846154  11.0390625 4.19170673076924  C 10.0907451923077 3.24338942307691  8.94951923076923 2.76923076923076  7.61538461538463 2.76923076923076  C 6.28124999999999 2.76923076923076  5.14002403846156 3.24338942307691  4.19170673076921 4.19170673076924  C 3.24338942307691 5.14002403846154  2.76923076923078 6.28125000000001  2.76923076923078 7.61538461538461  C 2.76923076923078 8.94951923076923  3.24338942307691 10.0907451923077  4.19170673076921 11.0390625  C 5.14002403846156 11.9873798076923  6.28124999999999 12.4615384615385  7.61538461538463 12.4615384615385  C 8.94951923076923 12.4615384615385  10.0907451923077 11.9873798076923  11.0390625 11.0390625  Z M 17.5997596153846 15.6418269230769  C 17.8665865384616 15.9086538461539  18 16.2331730769231  18 16.6153846153846  C 18 16.9975961538462  17.8647836538462 17.3239182692308  17.5943509615385 17.5943509615385  C 17.3239182692308 17.8647836538462  16.9975961538462 18  16.6153846153846 18  C 16.2259615384615 18  15.9014423076923 17.8629807692308  15.6418269230769 17.5889423076923  L 11.9314903846154 13.8894230769231  C 10.640625 14.7836538461539  9.20192307692309 15.2307692307692  7.61538461538463 15.2307692307692  C 6.58413461538461 15.2307692307692  5.59795673076921 15.0306490384615  4.65685096153847 14.6304086538462  C 3.71574519230769 14.2301682692308  2.90444711538463 13.6893028846154  2.22295673076922 13.0078125  C 1.54146634615384 12.3263221153846  1.00060096153847 11.5150240384615  0.600360576923058 10.5739182692308  C 0.200120192307686 9.6328125  0 8.64663461538462  0 7.61538461538461  C 0 6.58413461538461  0.200120192307686 5.59795673076924  0.600360576923058 4.65685096153847  C 1.00060096153847 3.71574519230769  1.54146634615384 2.90444711538461  2.22295673076922 2.22295673076924  C 2.90444711538463 1.54146634615384  3.71574519230769 1.00060096153847  4.65685096153847 0.600360576923079  C 5.59795673076921 0.200120192307686  6.58413461538461 0  7.61538461538463 0  C 8.6466346153846 0  9.6328125 0.200120192307686  10.5739182692308 0.600360576923079  C 11.5150240384615 1.00060096153847  12.3263221153846 1.54146634615384  13.0078125 2.22295673076924  C 13.6893028846154 2.90444711538461  14.2301682692308 3.71574519230769  14.6304086538462 4.65685096153847  C 15.0306490384615 5.59795673076924  15.2307692307692 6.58413461538461  15.2307692307692 7.61538461538461  C 15.2307692307692 9.20192307692309  14.7836538461538 10.640625  13.8894230769231 11.9314903846154  L 17.5997596153846 15.6418269230769  Z " fill-rule="nonzero" fill="#ff9900" stroke="none" transform="matrix(1 0 0 1 12 33 )" /></g></svg>