<?xml version="1.0" encoding="utf-8"?>
<svg version="1.1" xmlns:xlink="http://www.w3.org/1999/xlink" width="60px" height="60px" xmlns="http://www.w3.org/2000/svg">
  <g transform="matrix(1 0 0 1 -306 -71 )">
    <path d="M 336 71  C 352.8 71  366 84.2  366 101  C 366 117.8  352.8 131  336 131  C 319.2 131  306 117.8  306 101  C 306 84.2  319.2 71  336 71  Z " fill-rule="nonzero" fill="#ffffff" stroke="none" />
    <path d="M 336 71.5  C 352.52 71.5  365.5 84.48  365.5 101  C 365.5 117.52  352.52 130.5  336 130.5  C 319.48 130.5  306.5 117.52  306.5 101  C 306.5 84.48  319.48 71.5  336 71.5  Z " stroke-width="1" stroke="#797979" fill="none" />
  </g>
</svg>