<?xml version="1.0" encoding="utf-8"?>
<svg version="1.1" xmlns:xlink="http://www.w3.org/1999/xlink" width="60px" height="60px" xmlns="http://www.w3.org/2000/svg">
  <g transform="matrix(1 0 0 1 -179 -91 )">
    <path d="M 209 91  C 225.8 91  239 104.2  239 121  C 239 137.8  225.8 151  209 151  C 192.2 151  179 137.8  179 121  C 179 104.2  192.2 91  209 91  Z " fill-rule="nonzero" fill="#ffffff" stroke="none" />
    <path d="M 209 91.5  C 225.52 91.5  238.5 104.48  238.5 121  C 238.5 137.52  225.52 150.5  209 150.5  C 192.48 150.5  179.5 137.52  179.5 121  C 179.5 104.48  192.48 91.5  209 91.5  Z " stroke-width="1" stroke="#797979" fill="none" />
  </g>
</svg>