<?xml version="1.0" encoding="utf-8"?>
<svg version="1.1" xmlns:xlink="http://www.w3.org/1999/xlink" width="60px" height="60px" xmlns="http://www.w3.org/2000/svg">
  <g transform="matrix(1 0 0 1 -177 -53 )">
    <path d="M 207 53  C 223.8 53  237 66.2  237 83  C 237 99.8  223.8 113  207 113  C 190.2 113  177 99.8  177 83  C 177 66.2  190.2 53  207 53  Z " fill-rule="nonzero" fill="#ffffff" stroke="none" />
    <path d="M 207 53.5  C 223.52 53.5  236.5 66.48  236.5 83  C 236.5 99.52  223.52 112.5  207 112.5  C 190.48 112.5  177.5 99.52  177.5 83  C 177.5 66.48  190.48 53.5  207 53.5  Z " stroke-width="1" stroke="#797979" fill="none" />
  </g>
</svg>