<?xml version="1.0" encoding="utf-8"?>
<svg version="1.1" xmlns:xlink="http://www.w3.org/1999/xlink" width="15px" height="15px" xmlns="http://www.w3.org/2000/svg">
  <g transform="matrix(1 0 0 1 0 -6 )">
    <path d="M 7.5 9.5  C 9.74 9.5  11.5 11.26  11.5 13.5  C 11.5 15.74  9.74 17.5  7.5 17.5  C 5.26 17.5  3.5 15.74  3.5 13.5  C 3.5 11.26  5.26 9.5  7.5 9.5  Z " fill-rule="nonzero" fill="#1abc9c" stroke="none" />
    <path d="M 7.5 8  C 10.58 8  13 10.42  13 13.5  C 13 16.58  10.58 19  7.5 19  C 4.42 19  2 16.58  2 13.5  C 2 10.42  4.42 8  7.5 8  Z " stroke-width="4" stroke="#1abc9c" fill="none" stroke-opacity="0.498039215686275" />
  </g>
</svg>