<?xml version="1.0" encoding="utf-8"?><svg version="1.1" xmlns:xlink="http://www.w3.org/1999/xlink" width="16px" height="18px" xmlns="http://www.w3.org/2000/svg"><g transform="matrix(1 0 0 1 -1021 -311 )"><path d="M 15.6228956228956 13.4545454545454  C 15.8742985409652 13.7373737373738  16 14.0808080808081  16 14.4848484848484  C 16 14.8888888888889  15.8742985409652 15.2323232323232  15.6228956228956 15.5151515151515  L 13.7912457912457 17.5757575757576  C 13.5398428731762 17.8585858585859  13.2345679012346 18  12.8754208754209 18  C 12.5162738496072 18  12.2109988776656 17.8585858585859  11.959595959596 17.5757575757576  L 8 13.121212121212  L 4.04040404040404 17.5757575757576  C 3.78900112233441 17.8585858585859  3.48372615039284 18  3.1245791245791 18  C 2.76543209876536 18  2.46015712682379 17.8585858585859  2.20875420875427 17.5757575757576  L 0.377104377104388 15.5151515151515  C 0.125701459034758 15.2323232323232  0 14.8888888888889  0 14.4848484848484  C 0 14.0808080808081  0.125701459034758 13.7373737373738  0.377104377104388 13.4545454545454  L 4.33670033670035 9  L 0.377104377104388 4.54545454545462  C 0.125701459034758 4.26262626262621  0 3.91919191919192  0 3.51515151515162  C 0 3.11111111111109  0.125701459034758 2.76767676767679  0.377104377104388 2.4848484848485  L 2.20875420875427 0.424242424242379  C 2.46015712682379 0.141414141414089  2.76543209876536 0  3.1245791245791 0  C 3.48372615039284 0  3.78900112233441 0.141414141414089  4.04040404040404 0.424242424242379  L 8 4.87878787878799  L 11.959595959596 0.424242424242379  C 12.2109988776656 0.141414141414089  12.5162738496072 0  12.8754208754209 0  C 13.2345679012346 0  13.5398428731762 0.141414141414089  13.7912457912457 0.424242424242379  L 15.6228956228956 2.4848484848485  C 15.8742985409652 2.76767676767679  16 3.11111111111109  16 3.51515151515162  C 16 3.91919191919192  15.8742985409652 4.26262626262621  15.6228956228956 4.54545454545462  L 11.6632996632997 9  L 15.6228956228956 13.4545454545454  Z " fill-rule="nonzero" fill="#e4e4e4" stroke="none" transform="matrix(1 0 0 1 1021 311 )" /></g></svg>