<?xml version="1.0" encoding="utf-8"?><svg version="1.1" xmlns:xlink="http://www.w3.org/1999/xlink" width="19px" height="16px" xmlns="http://www.w3.org/2000/svg"><g transform="matrix(1 0 0 1 -692 -370 )"><path d="M 18.5521885521886 11.959595959596  C 18.8507295173962 12.2109988776656  19 12.5162738496072  19 12.8754208754209  C 19 13.2345679012345  18.8507295173962 13.5398428731762  18.5521885521886 13.7912457912458  L 16.3771043771044 15.6228956228956  C 16.0785634118968 15.8742985409651  15.7160493827161 16  15.2895622895622 16  C 14.8630751964085 16  14.5005611672278 15.8742985409651  14.2020202020202 15.6228956228956  L 9.5 11.6632996632997  L 4.79797979797979 15.6228956228956  C 4.49943883277217 15.8742985409651  4.13692480359146 16  3.71043771043776 16  C 3.28395061728395 16  2.92143658810323 15.8742985409651  2.62289562289561 15.6228956228956  L 0.447811447811432 13.7912457912458  C 0.149270482603811 13.5398428731762  0 13.2345679012345  0 12.8754208754209  C 0 12.5162738496072  0.149270482603811 12.2109988776656  0.447811447811432 11.959595959596  L 5.14983164983164 8  L 0.447811447811432 4.04040404040404  C 0.149270482603811 3.78900112233441  0 3.48372615039284  0 3.1245791245791  C 0 2.76543209876547  0.149270482603811 2.46015712682379  0.447811447811432 2.20875420875416  L 2.62289562289561 0.377104377104388  C 2.92143658810323 0.125701459034872  3.28395061728395 0  3.71043771043776 0  C 4.13692480359146 0  4.49943883277217 0.125701459034872  4.79797979797979 0.377104377104388  L 9.5 4.33670033670035  L 14.2020202020202 0.377104377104388  C 14.5005611672278 0.125701459034872  14.8630751964085 0  15.2895622895622 0  C 15.7160493827161 0  16.0785634118968 0.125701459034872  16.3771043771044 0.377104377104388  L 18.5521885521886 2.20875420875416  C 18.8507295173962 2.46015712682379  19 2.76543209876547  19 3.1245791245791  C 19 3.48372615039284  18.8507295173962 3.78900112233441  18.5521885521886 4.04040404040404  L 13.8501683501684 8  L 18.5521885521886 11.959595959596  Z " fill-rule="nonzero" fill="#e4e4e4" stroke="none" transform="matrix(1 0 0 1 692 370 )" /></g></svg>