<?xml version="1.0" encoding="utf-8"?>
<svg version="1.1" xmlns:xlink="http://www.w3.org/1999/xlink" width="221px" height="728px" xmlns="http://www.w3.org/2000/svg">
  <g transform="matrix(1 0 0 1 -310 -214 )">
    <path d="M 310.5 216  A 1.5 1.5 0 0 1 312 214.5 L 529 214.5  A 1.5 1.5 0 0 1 530.5 216 L 530.5 940  A 1.5 1.5 0 0 1 529 941.5 L 312 941.5  A 1.5 1.5 0 0 1 310.5 940 L 310.5 216  Z " fill-rule="nonzero" fill="#3399ff" stroke="none" />
    <path d="M 310.5 216  A 1.5 1.5 0 0 1 312 214.5 L 529 214.5  A 1.5 1.5 0 0 1 530.5 216 L 530.5 940  A 1.5 1.5 0 0 1 529 941.5 L 312 941.5  A 1.5 1.5 0 0 1 310.5 940 L 310.5 216  Z " stroke-width="1" stroke="#3399ff" fill="none" />
  </g>
</svg>