<?xml version="1.0" encoding="utf-8"?>
<svg version="1.1" xmlns:xlink="http://www.w3.org/1999/xlink" width="221px" height="372px" xmlns="http://www.w3.org/2000/svg">
  <g transform="matrix(1 0 0 1 -830 -214 )">
    <path d="M 830.5 216  A 1.5 1.5 0 0 1 832 214.5 L 1049 214.5  A 1.5 1.5 0 0 1 1050.5 216 L 1050.5 584  A 1.5 1.5 0 0 1 1049 585.5 L 832 585.5  A 1.5 1.5 0 0 1 830.5 584 L 830.5 216  Z " fill-rule="nonzero" fill="#3399ff" stroke="none" />
    <path d="M 830.5 216  A 1.5 1.5 0 0 1 832 214.5 L 1049 214.5  A 1.5 1.5 0 0 1 1050.5 216 L 1050.5 584  A 1.5 1.5 0 0 1 1049 585.5 L 832 585.5  A 1.5 1.5 0 0 1 830.5 584 L 830.5 216  Z " stroke-width="1" stroke="#3399ff" fill="none" />
  </g>
</svg>