<?xml version="1.0" encoding="utf-8"?>
<svg version="1.1" xmlns:xlink="http://www.w3.org/1999/xlink" width="220px" height="230px" xmlns="http://www.w3.org/2000/svg">
  <g transform="matrix(1 0 0 1 -570 -214 )">
    <path d="M 570.5 216  A 1.5 1.5 0 0 1 572 214.5 L 788 214.5  A 1.5 1.5 0 0 1 789.5 216 L 789.5 442  A 1.5 1.5 0 0 1 788 443.5 L 572 443.5  A 1.5 1.5 0 0 1 570.5 442 L 570.5 216  Z " fill-rule="nonzero" fill="#3399ff" stroke="none" />
    <path d="M 570.5 216  A 1.5 1.5 0 0 1 572 214.5 L 788 214.5  A 1.5 1.5 0 0 1 789.5 216 L 789.5 442  A 1.5 1.5 0 0 1 788 443.5 L 572 443.5  A 1.5 1.5 0 0 1 570.5 442 L 570.5 216  Z " stroke-width="1" stroke="#3399ff" fill="none" />
  </g>
</svg>