<?xml version="1.0" encoding="utf-8"?>
<svg version="1.1" xmlns:xlink="http://www.w3.org/1999/xlink" width="220px" height="65px" xmlns="http://www.w3.org/2000/svg">
  <g transform="matrix(1 0 0 1 -569 -139 )">
    <path d="M 569.5 141  A 1.5 1.5 0 0 1 571 139.5 L 787 139.5  A 1.5 1.5 0 0 1 788.5 141 L 788.5 202  A 1.5 1.5 0 0 1 787 203.5 L 571 203.5  A 1.5 1.5 0 0 1 569.5 202 L 569.5 141  Z " fill-rule="nonzero" fill="#3399ff" stroke="none" />
    <path d="M 569.5 141  A 1.5 1.5 0 0 1 571 139.5 L 787 139.5  A 1.5 1.5 0 0 1 788.5 141 L 788.5 202  A 1.5 1.5 0 0 1 787 203.5 L 571 203.5  A 1.5 1.5 0 0 1 569.5 202 L 569.5 141  Z " stroke-width="1" stroke="#3399ff" fill="none" />
  </g>
</svg>