<?xml version="1.0" encoding="utf-8"?>
<svg version="1.1" xmlns:xlink="http://www.w3.org/1999/xlink" width="221px" height="1131px" xmlns="http://www.w3.org/2000/svg">
  <g transform="matrix(1 0 0 1 -50 -214 )">
    <path d="M 50.5 216  A 1.5 1.5 0 0 1 52 214.5 L 269 214.5  A 1.5 1.5 0 0 1 270.5 216 L 270.5 1343  A 1.5 1.5 0 0 1 269 1344.5 L 52 1344.5  A 1.5 1.5 0 0 1 50.5 1343 L 50.5 216  Z " fill-rule="nonzero" fill="#3399ff" stroke="none" />
    <path d="M 50.5 216  A 1.5 1.5 0 0 1 52 214.5 L 269 214.5  A 1.5 1.5 0 0 1 270.5 216 L 270.5 1343  A 1.5 1.5 0 0 1 269 1344.5 L 52 1344.5  A 1.5 1.5 0 0 1 50.5 1343 L 50.5 216  Z " stroke-width="1" stroke="#3399ff" fill="none" />
  </g>
</svg>