<?xml version="1.0" encoding="utf-8"?><svg version="1.1" xmlns:xlink="http://www.w3.org/1999/xlink" width="243px" height="40px" xmlns="http://www.w3.org/2000/svg"><g transform="matrix(1 0 0 1 -13 -114 )"><path d="M 13.5 116  A 1.5 1.5 0 0 1 15 114.5 L 254 114.5  A 1.5 1.5 0 0 1 255.5 116 L 255.5 152  A 1.5 1.5 0 0 1 254 153.5 L 15 153.5  A 1.5 1.5 0 0 1 13.5 152 L 13.5 116  Z " fill-rule="nonzero" fill="#3399ff" stroke="none" /><path d="M 13.5 116  A 1.5 1.5 0 0 1 15 114.5 L 254 114.5  A 1.5 1.5 0 0 1 255.5 116 L 255.5 152  A 1.5 1.5 0 0 1 254 153.5 L 15 153.5  A 1.5 1.5 0 0 1 13.5 152 L 13.5 116  Z " stroke-width="1" stroke="#3399ff" fill="none" /></g></svg>