<?xml version="1.0" encoding="utf-8"?><svg version="1.1" xmlns:xlink="http://www.w3.org/1999/xlink" width="12px" height="12px" viewBox="396 792  12 12" xmlns="http://www.w3.org/2000/svg"><path d="M 402 792  C 405.36 792  408 794.64  408 798  C 408 801.36  405.36 804  402 804  C 398.64 804  396 801.36  396 798  C 396 794.64  398.64 792  402 792  Z " fill-rule="nonzero" fill="#ffffff" stroke="none" /><path d="M 402 792.5  C 405.08 792.5  407.5 794.92  407.5 798  C 407.5 801.08  405.08 803.5  402 803.5  C 398.92 803.5  396.5 801.08  396.5 798  C 396.5 794.92  398.92 792.5  402 792.5  Z " stroke-width="1" stroke="#e4e4e4" fill="none" /><path d="M 402 801  C 400.32 801  399 799.68  399 798  C 399 796.32  400.32 795  402 795  C 403.68 795  405 796.32  405 798  C 405 799.68  403.68 801  402 801  " fill-rule="nonzero" fill="#e4e4e4" stroke="none" /></svg>