<?xml version="1.0" encoding="utf-8"?><svg version="1.1" xmlns:xlink="http://www.w3.org/1999/xlink" width="12px" height="12px" viewBox="299 792  12 12" xmlns="http://www.w3.org/2000/svg"><path d="M 305 792  C 308.36 792  311 794.64  311 798  C 311 801.36  308.36 804  305 804  C 301.64 804  299 801.36  299 798  C 299 794.64  301.64 792  305 792  Z " fill-rule="nonzero" fill="#ffffff" stroke="none" /><path d="M 305 792.5  C 308.08 792.5  310.5 794.92  310.5 798  C 310.5 801.08  308.08 803.5  305 803.5  C 301.92 803.5  299.5 801.08  299.5 798  C 299.5 794.92  301.92 792.5  305 792.5  Z " stroke-width="1" stroke="#e4e4e4" fill="none" /><path d="M 305 801  C 303.32 801  302 799.68  302 798  C 302 796.32  303.32 795  305 795  C 306.68 795  308 796.32  308 798  C 308 799.68  306.68 801  305 801  " fill-rule="nonzero" fill="#e4e4e4" stroke="none" /></svg>