<?xml version="1.0" encoding="utf-8"?>
<svg version="1.1" xmlns:xlink="http://www.w3.org/1999/xlink" width="80px" height="80px" xmlns="http://www.w3.org/2000/svg">
  <g transform="matrix(1 0 0 1 -120 -134 )">
    <path d="M 80 40  C 80 17.9069256973489  62.0929828120909 0  40 0  C 17.908571455273 0  0 17.9069256973489  0 40  C 0 62.0930743026511  17.908571455273 80  40 80  C 62.0930743026508 80  80 62.0930743026511  80 40  Z M 76.6666056878512 40  C 76.6666056878512 48.8965484833338  73.4797713902863 57.060388473653  68.1916342684876 63.4145828027562  C 64.5360456746248 61.8879085088682  55.904914254158 58.8932571015047  50.5647542955116 57.3177599067111  C 50.1073371448711 57.1744913186291  50.0373943093612 57.1516342248869  50.0373943093612 55.2539427483794  C 50.0373943093612 53.6882284318789  50.6803200066388 52.1127313264316  51.3086171317566 50.7779656297574  C 51.990491450433 49.326079954592  52.7978056703964 46.8880455883522  53.0858057127109 44.7005255985248  C 53.897965715887 43.7596341782125  55.0015085890939 41.9041827496059  55.7094400268011 38.3690055607364  C 56.3327085662786 35.2506512325308  56.0415999892355 34.1175770113635  55.6296229117843 33.053531256184  C 55.5858285965189 32.9395198124215  55.5402058102484 32.8287997951612  55.5093029080044 32.7180798672472  C 55.3530515056871 31.9890284055896  55.5663543304931 28.1902627142047  56.1001143672204 25.2439770229857  C 56.4696686836899 23.2226742055423  56.0073143486225 18.9258055829799  53.2241372057124 15.3676798991546  C 51.4663314895704 13.1216456206885  48.1022171669517 10.3613255715209  41.9594971916486 9.97705137102469  L 38.5902628821761 9.98043419874068  C 32.5519542747693 10.3613256608671  29.1877486402832 13.1216456206885  27.4299429241414 15.3676798991546  C 24.6466743800179 18.9258055829799  24.1844115355107 23.2226742055423  24.5522286034955 25.2439770229857  C 25.0877257100149 28.1901713129911  25.3008457323926 31.9889370043759  25.1479771577915 32.7050970530118  C 25.1136914278318 32.8287084832937  25.0682514439882 32.939428500554  25.0243657275093 33.0535313455303  C 24.6126628536992 34.1175771007098  24.3212799836692 35.2506513218771  24.9445486124926 38.3690056500825  C 25.6524800501998 41.9041827496059  26.7560229234066 43.7596341782124  27.5682743277966 44.7005256878711  C 27.8562743701111 46.8880456776984  28.6635885900748 49.326079954592  29.3456457111786 50.7779657191036  C 29.8453028203737 51.839085741982  30.0780800005521 53.2812800294142  30.0780800005521 55.3221486034437  C 30.0780800005521 57.2201142835925  30.0081371650419 57.2426971736936  29.5800685599343 57.376365775256  C 24.0560457232291 59.0073600358271  15.2636343148051 62.1842286526713  11.9857371577803 63.6197485965391  C 6.59337147051224 57.23648001489  3.33330291093534 48.9940114827175  3.33330291093534 40  C 3.33330291093534 19.7819428825416  19.7819428825417 3.33339431214893  40 3.33339431214893  C 60.2180571174583 3.33339431214893  76.6666056878512 19.781851481328  76.6666056878512 40  Z " fill-rule="nonzero" fill="#cccccc" stroke="none" transform="matrix(1 0 0 1 120 134 )" />
  </g>
</svg>