<?xml version="1.0" encoding="utf-8"?>
<svg version="1.1" xmlns:xlink="http://www.w3.org/1999/xlink" width="12px" height="12px" viewBox="79 52  12 12" xmlns="http://www.w3.org/2000/svg">
  <path d="M 85 52  C 88.36 52  91 54.64  91 58  C 91 61.36  88.36 64  85 64  C 81.64 64  79 61.36  79 58  C 79 54.64  81.64 52  85 52  Z " fill-rule="nonzero" fill="#ffffff" stroke="none" />
  <path d="M 85 52.5  C 88.08 52.5  90.5 54.92  90.5 58  C 90.5 61.08  88.08 63.5  85 63.5  C 81.92 63.5  79.5 61.08  79.5 58  C 79.5 54.92  81.92 52.5  85 52.5  Z " stroke-width="1" stroke="#e4e4e4" fill="none" />
  <path d="M 85 61  C 83.32 61  82 59.68  82 58  C 82 56.32  83.32 55  85 55  C 86.68 55  88 56.32  88 58  C 88 59.68  86.68 61  85 61  " fill-rule="nonzero" fill="#e4e4e4" stroke="none" />
</svg>