<?xml version="1.0" encoding="utf-8"?>
<svg version="1.1" xmlns:xlink="http://www.w3.org/1999/xlink" width="12px" height="12px" viewBox="79 49  12 12" xmlns="http://www.w3.org/2000/svg">
  <path d="M 85 49  C 88.36 49  91 51.64  91 55  C 91 58.36  88.36 61  85 61  C 81.64 61  79 58.36  79 55  C 79 51.64  81.64 49  85 49  Z " fill-rule="nonzero" fill="#ffffff" stroke="none" />
  <path d="M 85 49.5  C 88.08 49.5  90.5 51.92  90.5 55  C 90.5 58.08  88.08 60.5  85 60.5  C 81.92 60.5  79.5 58.08  79.5 55  C 79.5 51.92  81.92 49.5  85 49.5  Z " stroke-width="1" stroke="#e4e4e4" fill="none" />
  <path d="M 85 58  C 83.32 58  82 56.68  82 55  C 82 53.32  83.32 52  85 52  C 86.68 52  88 53.32  88 55  C 88 56.68  86.68 58  85 58  " fill-rule="nonzero" fill="#e4e4e4" stroke="none" />
</svg>