<?xml version="1.0" encoding="utf-8"?>
<svg version="1.1" xmlns:xlink="http://www.w3.org/1999/xlink" width="33px" height="31px" xmlns="http://www.w3.org/2000/svg">
  <defs>
    <filter x="226px" y="145px" width="33px" height="31px" filterUnits="userSpaceOnUse" id="filter2">
      <feOffset dx="0" dy="0" in="SourceAlpha" result="shadowOffsetInner" />
      <feGaussianBlur stdDeviation="2.5" in="shadowOffsetInner" result="shadowGaussian" />
      <feComposite in2="shadowGaussian" operator="atop" in="SourceAlpha" result="shadowComposite" />
      <feColorMatrix type="matrix" values="0 0 0 0 0  0 0 0 0 0  0 0 0 0 0  0 0 0 0.349019607843137 0  " in="shadowComposite" />
    </filter>
    <g id="widget3">
      <path d="M 242.5 150  C 248.94 150  254 154.62  254 160.5  C 254 166.38  248.94 171  242.5 171  C 236.06 171  231 166.38  231 160.5  C 231 154.62  236.06 150  242.5 150  Z " fill-rule="nonzero" fill="#000000" stroke="none" />
      <path d="M 242.5 150.5  C 248.66 150.5  253.5 154.9  253.5 160.5  C 253.5 166.1  248.66 170.5  242.5 170.5  C 236.34 170.5  231.5 166.1  231.5 160.5  C 231.5 154.9  236.34 150.5  242.5 150.5  Z " stroke-width="1" stroke="#e4e4e4" fill="none" />
    </g>
  </defs>
  <g transform="matrix(1 0 0 1 -226 -145 )">
    <use xlink:href="#widget3" filter="url(#filter2)" />
    <use xlink:href="#widget3" />
  </g>
</svg>