<?xml version="1.0" encoding="utf-8"?><svg version="1.1" xmlns:xlink="http://www.w3.org/1999/xlink" width="375px" height="188px" xmlns="http://www.w3.org/2000/svg"><g transform="matrix(1 0 0 1 0 -35 )"><path d="M 0 35  L 375 35  L 375 223  L 0 223  L 0 35  " fill-rule="nonzero" fill="#cccccc" stroke="none" /><path d="M 13 48  L 362 48  L 362 210  L 13 210  L 13 48  " fill-rule="nonzero" fill="#ffffff" stroke="none" /><path d="M 209.1 91.4  C 201.204 91.4  195 85.196  195 77.3  C 195 69.404  201.204 63.2  209.1 63.2  C 216.996 63.2  223.2 69.404  223.2 77.3  C 223.2 85.196  216.996 91.4  209.1 91.4  " fill-rule="nonzero" fill="#cccccc" stroke="none" /><path d="M 18 206  L 18 121.85  L 103 83.6  L 222 159.9776  L 290 106.55  L 358 159.9776  L 358 206  L 18 206  " fill-rule="nonzero" fill="#169bd5" stroke="none" /></g></svg>