<?xml version="1.0" encoding="utf-8"?>
<svg version="1.1" xmlns:xlink="http://www.w3.org/1999/xlink" width="100px" height="40px" xmlns="http://www.w3.org/2000/svg">
  <g transform="matrix(1 0 0 1 -350 -358 )">
    <path d="M 350.5 360  A 1.5 1.5 0 0 1 352 358.5 L 448 358.5  A 1.5 1.5 0 0 1 449.5 360 L 449.5 396  A 1.5 1.5 0 0 1 448 397.5 L 352 397.5  A 1.5 1.5 0 0 1 350.5 396 L 350.5 360  Z " fill-rule="nonzero" fill="#3399ff" stroke="none" />
    <path d="M 350.5 360  A 1.5 1.5 0 0 1 352 358.5 L 448 358.5  A 1.5 1.5 0 0 1 449.5 360 L 449.5 396  A 1.5 1.5 0 0 1 448 397.5 L 352 397.5  A 1.5 1.5 0 0 1 350.5 396 L 350.5 360  Z " stroke-width="1" stroke="#3399ff" fill="none" />
  </g>
</svg>