<?xml version="1.0" encoding="utf-8"?>
<svg version="1.1" xmlns:xlink="http://www.w3.org/1999/xlink" width="46px" height="47px" xmlns="http://www.w3.org/2000/svg">
  <g transform="matrix(1 0 0 1 -342 -343 )">
    <path d="M 365 343  C 377.88 343  388 353.34  388 366.5  C 388 379.66  377.88 390  365 390  C 352.12 390  342 379.66  342 366.5  C 342 353.34  352.12 343  365 343  Z " fill-rule="nonzero" fill="#f2f2f2" stroke="none" />
    <path d="M 365 343.5  C 377.6 343.5  387.5 353.62  387.5 366.5  C 387.5 379.38  377.6 389.5  365 389.5  C 352.4 389.5  342.5 379.38  342.5 366.5  C 342.5 353.62  352.4 343.5  365 343.5  Z " stroke-width="1" stroke="#797979" fill="none" />
  </g>
</svg>