<?xml version="1.0" encoding="utf-8"?>
<svg version="1.1" xmlns:xlink="http://www.w3.org/1999/xlink" width="86px" height="86px" xmlns="http://www.w3.org/2000/svg">
  <g transform="matrix(1 0 0 1 -302 -649 )">
    <path d="M 345 649  C 369.08 649  388 667.92  388 692  C 388 716.08  369.08 735  345 735  C 320.92 735  302 716.08  302 692  C 302 667.92  320.92 649  345 649  Z " fill-rule="nonzero" fill="#ffff80" stroke="none" fill-opacity="0.298039215686275" />
    <path d="M 345 649.5  C 368.8 649.5  387.5 668.2  387.5 692  C 387.5 715.8  368.8 734.5  345 734.5  C 321.2 734.5  302.5 715.8  302.5 692  C 302.5 668.2  321.2 649.5  345 649.5  Z " stroke-width="1" stroke="#797979" fill="none" />
  </g>
</svg>