<?xml version="1.0" encoding="utf-8"?>
<svg version="1.1" xmlns:xlink="http://www.w3.org/1999/xlink" width="46px" height="46px" xmlns="http://www.w3.org/2000/svg">
  <g transform="matrix(1 0 0 1 -322 -669 )">
    <path d="M 345 669  C 357.88 669  368 679.12  368 692  C 368 704.88  357.88 715  345 715  C 332.12 715  322 704.88  322 692  C 322 679.12  332.12 669  345 669  Z " fill-rule="nonzero" fill="#ffff80" stroke="none" fill-opacity="0.298039215686275" />
    <path d="M 345 669.5  C 357.6 669.5  367.5 679.4  367.5 692  C 367.5 704.6  357.6 714.5  345 714.5  C 332.4 714.5  322.5 704.6  322.5 692  C 322.5 679.4  332.4 669.5  345 669.5  Z " stroke-width="1" stroke="#797979" fill="none" />
  </g>
</svg>