<?xml version="1.0" encoding="utf-8"?>
<svg version="1.1" xmlns:xlink="http://www.w3.org/1999/xlink" width="40px" height="38px" xmlns="http://www.w3.org/2000/svg">
  <g transform="matrix(1 0 0 1 -16 -9 )">
    <path d="M 16 9  L 56 9  L 56 47  L 16 47  L 16 9  " fill-rule="nonzero" fill="#cccccc" stroke="none" />
    <path d="M 19 12  L 53 12  L 53 44  L 19 44  L 19 12  " fill-rule="nonzero" fill="#ffffff" stroke="none" />
    <path d="M 39.65 20.4  C 38.054 20.4  36.8 19.146  36.8 17.55  C 36.8 15.954  38.054 14.7  39.65 14.7  C 41.246 14.7  42.5 15.954  42.5 17.55  C 42.5 19.146  41.246 20.4  39.65 20.4  " fill-rule="nonzero" fill="#cccccc" stroke="none" />
    <path d="M 20 43  L 20 26.5  L 28 19  L 39.2 25.9  L 45.6 23.5  L 52 25.9  L 52 43  L 20 43  " fill-rule="nonzero" fill="#169bd5" stroke="none" />
  </g>
</svg>