<?xml version="1.0" encoding="utf-8"?>
<svg version="1.1" xmlns:xlink="http://www.w3.org/1999/xlink" width="23px" height="22px" xmlns="http://www.w3.org/2000/svg">
  <g transform="matrix(1 0 0 1 -231 -43 )">
    <path d="M 231 43  L 254 43  L 254 65  L 231 65  L 231 43  " fill-rule="nonzero" fill="#cccccc" stroke="none" />
    <path d="M 233 45  L 252 45  L 252 63  L 233 63  L 233 45  " fill-rule="nonzero" fill="#ffffff" stroke="none" />
    <path d="M 244.61 49.6  C 243.686 49.6  242.96 48.874  242.96 47.95  C 242.96 47.026  243.686 46.3  244.61 46.3  C 245.534 46.3  246.26 47.026  246.26 47.95  C 246.26 48.874  245.534 49.6  244.61 49.6  " fill-rule="nonzero" fill="#cccccc" stroke="none" />
    <path d="M 234 63  L 234 53.65  L 238.5 49.4  L 244.8 53.2434782608696  L 248.4 51.95  L 252 53.2434782608696  L 252 63  L 234 63  " fill-rule="nonzero" fill="#169bd5" stroke="none" />
  </g>
</svg>