<?xml version="1.0" encoding="utf-8"?>
<svg version="1.1" xmlns:xlink="http://www.w3.org/1999/xlink" width="21px" height="21px" xmlns="http://www.w3.org/2000/svg">
  <g transform="matrix(1 0 0 1 -293 -189 )">
    <path d="M 303.5 189  C 309.38 189  314 193.62  314 199.5  C 314 205.38  309.38 210  303.5 210  C 297.62 210  293 205.38  293 199.5  C 293 193.62  297.62 189  303.5 189  Z " fill-rule="nonzero" fill="#ffff80" stroke="none" />
    <path d="M 303.5 189.5  C 309.1 189.5  313.5 193.9  313.5 199.5  C 313.5 205.1  309.1 209.5  303.5 209.5  C 297.9 209.5  293.5 205.1  293.5 199.5  C 293.5 193.9  297.9 189.5  303.5 189.5  Z " stroke-width="1" stroke="#797979" fill="none" />
  </g>
</svg>