<?xml version="1.0" encoding="utf-8"?>
<svg version="1.1" xmlns:xlink="http://www.w3.org/1999/xlink" width="21px" height="25px" xmlns="http://www.w3.org/2000/svg">
  <defs>
    <filter x="609px" y="178px" width="21px" height="25px" filterUnits="userSpaceOnUse" id="filter122">
      <feOffset dx="1" dy="1" in="SourceAlpha" result="shadowOffsetInner" />
      <feGaussianBlur stdDeviation="2.5" in="shadowOffsetInner" result="shadowGaussian" />
      <feComposite in2="shadowGaussian" operator="atop" in="SourceAlpha" result="shadowComposite" />
      <feColorMatrix type="matrix" values="0 0 0 0 0  0 0 0 0 0  0 0 0 0 0  0 0 0 0.698039215686274 0  " in="shadowComposite" />
    </filter>
    <g id="widget123">
      <path d="M 618.5 196.022139286357  C 616.5 192.648239560835  613.5 190.623899725522  613.5 187.25  C 613.5 185.485714285714  614.5 182.5  618.5 182.5  C 622.5 182.5  623.5 185.485714285714  623.5 187.25  C 623.5 190.623899725522  620.5 192.648239560835  618.5 196.022139286357  Z " fill-rule="nonzero" fill="#009dd9" stroke="none" />
      <path d="M 618.5 197  C 616.3 193.25  613 191  613 187.25  C 613 185.3  614.1 182  618.5 182  C 622.9 182  624 185.3  624 187.25  C 624 191  620.7 193.25  618.5 197  Z M 618.5 195.044278572713  C 620.3 192.04647912167  623 190.247799451044  623 187.25  C 623 185.671428571429  622.1 183  618.5 183  C 614.9 183  614 185.671428571429  614 187.25  C 614 190.247799451044  616.7 192.04647912167  618.5 195.044278572713  Z " fill-rule="nonzero" fill="#ffffff" stroke="none" />
    </g>
  </defs>
  <g transform="matrix(1 0 0 1 -609 -178 )">
    <use xlink:href="#widget123" filter="url(#filter122)" />
    <use xlink:href="#widget123" />
  </g>
</svg>