<?xml version="1.0" encoding="utf-8"?>
<svg version="1.1" xmlns:xlink="http://www.w3.org/1999/xlink" width="28px" height="15px" xmlns="http://www.w3.org/2000/svg">
  <g transform="matrix(1 0 0 1 -58 -38 )">
    <path d="M 79.9734624457168 38.5  C 79.9734624457168 38.5  81.1941793437419 38.8269777405424  81.1941793437419 38.8269777405424  C 81.1941793437419 38.8269777405424  85.4246236440773 45.5  85.4246236440773 45.5  C 85.4246236440773 45.5  81.1941793437419 52.1730222594576  81.1941793437419 52.1730222594576  C 81.1941793437419 52.1730222594576  79.9734624457168 52.5  79.9734624457168 52.5  C 79.9734624457168 52.5  59 52.5  59 52.5  C 58.72 52.5  58.5 52.28  58.5 52  C 58.5 52  58.5 39  58.5 39  C 58.5 38.72  58.72 38.5  59 38.5  C 59 38.5  79.9734624457168 38.5  79.9734624457168 38.5  Z " fill-rule="nonzero" fill="#ffffff" stroke="none" />
    <path d="M 79.9734624457168 38.5  C 79.9734624457168 38.5  81.1941793437419 38.8269777405424  81.1941793437419 38.8269777405424  C 81.1941793437419 38.8269777405424  85.4246236440773 45.5  85.4246236440773 45.5  C 85.4246236440773 45.5  81.1941793437419 52.1730222594576  81.1941793437419 52.1730222594576  C 81.1941793437419 52.1730222594576  79.9734624457168 52.5  79.9734624457168 52.5  C 79.9734624457168 52.5  59 52.5  59 52.5  C 58.72 52.5  58.5 52.28  58.5 52  C 58.5 52  58.5 39  58.5 39  C 58.5 38.72  58.72 38.5  59 38.5  C 59 38.5  79.9734624457168 38.5  79.9734624457168 38.5  Z " stroke-width="1" stroke="#797979" fill="none" />
  </g>
</svg>