<?xml version="1.0" encoding="utf-8"?>
<svg version="1.1" xmlns:xlink="http://www.w3.org/1999/xlink" width="21px" height="21px" xmlns="http://www.w3.org/2000/svg">
  <g transform="matrix(1 0 0 1 -177 1 )">
    <path d="M 187.5 -1  C 193.38 -1  198 3.62  198 9.5  C 198 15.38  193.38 20  187.5 20  C 181.62 20  177 15.38  177 9.5  C 177 3.62  181.62 -1  187.5 -1  Z " fill-rule="nonzero" fill="#ffffff" stroke="none" />
    <path d="M 187.5 -0.5  C 193.1 -0.5  197.5 3.9  197.5 9.5  C 197.5 15.1  193.1 19.5  187.5 19.5  C 181.9 19.5  177.5 15.1  177.5 9.5  C 177.5 3.9  181.9 -0.5  187.5 -0.5  Z " stroke-width="1" stroke="#797979" fill="none" />
  </g>
</svg>