<?xml version="1.0" encoding="utf-8"?>
<svg version="1.1" xmlns:xlink="http://www.w3.org/1999/xlink" width="50px" height="50px" xmlns="http://www.w3.org/2000/svg">
  <g transform="matrix(1 0 0 1 -383 -726 )">
    <path d="M 50 25  C 50 11.1918285608431  38.8081142575568 0  25 0  C 11.1928571595456 0  0 11.1918285608431  0 25  C 0 38.8081714391569  11.1928571595456 50  25 50  C 38.8081714391568 50  50 38.8081714391569  50 25  Z M 47.916628554907 25  C 47.916628554907 30.5603428020836  45.9248571189289 35.6627427960332  42.6197714178048 39.6341142517226  C 40.3350285466405 38.6799428180427  34.9405714088488 36.8082856884405  31.6029714346948 35.8235999416945  C 31.3170857155444 35.7340570741433  31.2733714433508 35.7197713905543  31.2733714433508 34.533714217737  C 31.2733714433508 33.5551427699243  31.6752000041492 32.5704570790197  32.0678857073478 31.7362285185984  C 32.4940571565206 30.8287999716201  32.9986285439978 29.3050284927201  33.1786285704443 27.937828499078  C 33.6862285724294 27.3497713613829  34.3759428681836 26.1901142185036  34.8184000167507 23.9806284754602  C 35.2079428539241 22.0316570203317  35.0259999932722 21.3234856321021  34.7685143198652 20.6584570351149  C 34.7411428728243 20.5871998827633  34.7126286314052 20.5179998719757  34.6933143175028 20.4487999170294  C 34.5956571910544 19.9931427534934  34.7289714565582 17.618914196378  35.0625714795127 15.777485639366  C 35.2935429273061 14.514171378464  35.004571467889 11.8286284893625  33.2650857535702 9.60479993697163  C 32.1664571809815 8.20102851293041  30.0638857293448 6.47582848220054  26.2246857447803 6.23565710689036  L 24.1189143013601 6.23777137421303  C 20.3449714217308 6.47582853804192  18.242342900177 8.20102851293041  17.1437143275884 9.60479993697163  C 15.4041714875112 11.8286284893625  15.1152572096942 14.514171378464  15.3451428771847 15.777485639366  C 15.6798285687593 17.6188570706195  15.8130285827454 19.9930856277349  15.7174857236197 20.4406856581325  C 15.6960571423949 20.5179428020585  15.6676571524926 20.5871428128462  15.6402285796934 20.6584570909565  C 15.3829142835621 21.3234856879437  15.2007999897933 22.0316570761731  15.5903428828078 23.9806285313016  C 16.0328000313748 26.1901142185036  16.7225143271291 27.3497713613826  17.2301714548729 27.9378285549194  C 17.4101714813195 29.3050285485615  17.9147428687968 30.8287999716201  18.3410285694866 31.7362285744398  C 18.6533142627336 32.3994285887388  18.7988000003451 33.3008000183838  18.7988000003451 34.5763428771522  C 18.7988000003451 35.7625714272453  18.7550857281512 35.7766857335585  18.4875428499589 35.8602286095349  C 15.0350285770182 36.879600022392  9.53977144675321 38.8651429079196  7.49108572361263 39.7623428728368  C 4.12085716907018 35.7728000093064  2.08331431933459 30.6212571766985  2.08331431933459 25  C 2.08331431933459 12.3637143015885  12.3637143015885 2.08337144509301  25 2.08337144509301  C 37.6362856984115 2.08337144509301  47.916628554907 12.36365717583  47.916628554907 25  Z " fill-rule="nonzero" fill="#cccccc" stroke="none" transform="matrix(1 0 0 1 383 726 )" />
  </g>
</svg>